<?xml version="1.0" encoding="UTF-8"?>
<svg id="_лой_1" data-name="—лой_1" xmlns="http://www.w3.org/2000/svg" viewBox="0 0 2207.49 2171.65">
  <defs>
    <style>
      .cls-1, .cls-2 {
        fill: none;
      }

      .cls-3 {
        fill: #ffcbbd;
      }

      .cls-2 {
        stroke: #ffcbbd;
        stroke-linecap: round;
        stroke-linejoin: round;
      }

      .cls-4 {
        fill: #0c0809;
      }

      .cls-5 {
        fill: #211b17;
      }

      .cls-6 {
        fill: #52c3e1;
      }

      .cls-7 {
        fill: #acf2b1;
      }

      .cls-8 {
        fill: #f1035d;
      }

      .cls-9 {
        fill: #fff;
      }

      .cls-10 {
        fill: #f28585;
      }
    </style>
  </defs>
  <path class="cls-1" d="M1967.26,784.53c-.6-.68-1.2-1.37-1.79-2.07-1.59.86-1.1.43-2.21,1.12,1.19-.66,2.46-.22,4,.95Z"/>
  <path class="cls-1" d="M1980.27,796.46c5.63,4.46,13.21,9.04,23.72,11.98-8.26-2.52-16.28-6.48-23.72-11.98Z"/>
  <path class="cls-1" d="M1961.39,784.77c.85-2.49,1.16-3.93,1.5-4.46-.34.53-.65,1.96-1.5,4.46Z"/>
  <path class="cls-1" d="M2084.34,792.22c.2.16.4.32.59.49-.19-.17-.4-.33-.59-.49Z"/>
  <path class="cls-1" d="M1832.66,828.61c7.61,19.79,20.65,32.26,35.76,36.95-15.12-4.82-28.07-17.62-35.76-36.95Z"/>
  <path class="cls-1" d="M2114.18,841.51c.08.36.15.72.22,1.08-.07-.36-.14-.72-.22-1.08Z"/>
  <path class="cls-1" d="M1962.61,783.98c-.32.21-.71.46-1.22.79-.1.29-.2.56-.29.85.37-.66.82-1.15,1.51-1.64Z"/>
  <path class="cls-1" d="M1889.22,867.19c21.89-3.01,44.84-20.47,60.64-53.55,5.78-12.1,8.14-18.87,9.44-22.91-17.98,49.01-44.99,72.77-70.07,76.46Z"/>
  <path class="cls-1" d="M1962.55,824.34c2.49.8,5.1,1.13,7.67.91,2.21-.2,3.83-.66,5.29-1.31-4.43,1.71-8.91,1.69-12.97.4Z"/>
  <path class="cls-1" d="M2002.09,954.01c1.36,4.7,4.47,8.99,9.49,11.83,6.32-2.4,10.45-3.45,13.4-3.83-2.95.37-7.07,1.39-13.4,3.8-4.95-2.79-8.1-7.07-9.49-11.79Z"/>
  <path class="cls-1" d="M2056.71,951.14c-20.35,13.03-21.84,11.37-26.85,10.81,5.58.7,6.11,3.14,34.77-15.94,42.19-29.07,56.26-68.26,49.97-102.35,6.4,35.43-9.5,76.67-57.89,107.47Z"/>
  <path class="cls-1" d="M2011.85,930.29c-.05.03-.11.06-.16.09-4.24,2.37-7.24,6.03-8.89,10.17,1-2.47,2.5-4.78,4.5-6.79,1.22-1.27,2.73-2.35,4.55-3.47Z"/>
  <path class="cls-1" d="M1995.88,1038.62c-2.54,4.9-5.85,9.61-10.02,13.98-.95.95-1.85,1.81-2.71,2.58,5.71-5.08,9.82-10.77,12.73-16.57Z"/>
  <path class="cls-1" d="M1830.4,743.25c-.08.33-.16.66-.23.99.08-.33.15-.66.23-.99Z"/>
  <path class="cls-1" d="M2061.53,895.54c10.02-9.43,14.48-23.41,13.36-37.29.41,15.14-6.32,31.51-21.66,45.17,2.77-2.41,5.53-5,8.3-7.88Z"/>
  <path class="cls-1" d="M2045.12,909.89c-9.53,6.97-20.48,13.04-29.45,18.19.71-.4,1.45-.81,2.23-1.26,10.5-6.01,19.17-11.02,27.22-16.93Z"/>
  <path class="cls-1" d="M1845.55,384.24c.26-.2.52-.39.79-.58-.26.19-.53.39-.79.58Z"/>
  <path class="cls-1" d="M1846.95,383.23c.24-.17.48-.34.73-.5-.24.16-.49.33-.73.5Z"/>
  <path class="cls-1" d="M1848.33,382.29c.23-.15.46-.3.7-.45-.23.15-.47.3-.7.45Z"/>
  <path class="cls-1" d="M2082.83,790.98c-.7-.56-1.41-1.12-2.14-1.66h0c.72.55,1.43,1.1,2.14,1.66Z"/>
  <path class="cls-1" d="M1849.73,381.42c.23-.14.46-.27.69-.41-.23.13-.46.27-.69.41Z"/>
  <path class="cls-1" d="M1840.05,389.06c.34-.35.69-.69,1.04-1.02-.35.34-.7.68-1.04,1.02Z"/>
  <path class="cls-1" d="M1841.25,387.87c.82-.78,1.65-1.52,2.51-2.23-.86.71-1.69,1.45-2.51,2.23Z"/>
  <path class="cls-1" d="M1844.09,385.38c.31-.26.63-.51.95-.76-.32.25-.63.5-.95.76Z"/>
  <path class="cls-1" d="M1851.15,380.61c.23-.13.45-.25.68-.37-.23.12-.46.25-.68.37Z"/>
  <path class="cls-1" d="M1766.63,612.85c-24.72,16.33-33.11,28.64-36.64,36.15,8.02-12.78,20.06-25.2,36.64-36.15Z"/>
  <path class="cls-1" d="M1808.29,747.14c5.41,9.83,10.27,19.97,14.64,30.34-2.37-5.89-6.7-15.91-14.64-30.34,0,0,0,0,0,0Z"/>
  <path class="cls-1" d="M1828.34,740.33c.05-.02.1-.04.16-.06-.05.02-.1.04-.16.06Z"/>
  <path class="cls-1" d="M1831.45,738.98c-.24.94-.47,1.87-.7,2.78.23-.92.46-1.85.7-2.78Z"/>
  <path class="cls-1" d="M1852.58,379.84c.23-.12.46-.23.68-.34-.23.11-.46.23-.68.34Z"/>
  <path class="cls-1" d="M1855.52,378.46c.23-.1.46-.2.7-.29-.23.1-.46.19-.7.29Z"/>
  <path class="cls-1" d="M1854.04,379.13c.23-.11.46-.21.69-.32-.23.1-.46.21-.69.32Z"/>
  <path class="cls-1" d="M1838.88,390.29c.3-.33.6-.64.91-.96-.31.32-.61.63-.91.96Z"/>
  <path class="cls-1" d="M286.54,777.94c-.09-.04-.18-.08-.27-.12.09.04.18.08.27.12Z"/>
  <path class="cls-1" d="M1843.87,1248.45c-9.17,5.93-15.62,13.42-19.94,22.01,3.69-6.97,8.96-13.51,16.3-19.35,8.48-6.3,17.46-10.27,26.67-12.23-13.53,2.71-22.49,8.47-23.03,9.57Z"/>
  <path class="cls-1" d="M149.41,735.13c-13.73,5.67-25.17,12.33-34.63,19.63,15.87-11.91,35.38-20.9,56.03-26.81-7.2,1.94-14.36,4.31-21.4,7.18Z"/>
  <path class="cls-1" d="M174.94,974.47c4.69,16.1,14.37,27.88,18.73,27.88-1.38,0-13.14-11.23-18.73-27.88Z"/>
  <path class="cls-1" d="M305.95,1213.8c-.21-6.48-9.9-49.77-18.7-154.49-.53-8.39,6-1.58-36.25-16.96-.8,49.84-2.18,120.31-3.79,179.15,17.25-9.53,39.8-13.41,58.74-7.71Z"/>
  <path class="cls-1" d="M251.47,1010.55c-.01.94-.03,1.9-.04,2.88.43-4.15,1.28-3.59,2.94-4.27,2.2,0,6.29-2.65,10.81-6.92-7.3,5.23-13.7,6.82-13.7,8.31Z"/>
  <path class="cls-1" d="M286.09,953.97c-1.31-19.97-12.93-36.48-28.77-45.6,15.93,9.44,27.51,26.33,28.77,45.6Z"/>
  <path class="cls-1" d="M186.6,920.03c-.09.07-.16.16-.19.22h-.04c-.41.52-1.45,1.77-1.64,1.99t0,.04c-6.39,7.63-9.93,15.81-11.48,23.91.57-2.49,1.35-5.02,2.37-7.58,2.55-9.25,10.73-17.57,10.97-18.58Z"/>
  <path class="cls-1" d="M195.94,1004.09v-.04c-.77-.56-1.54-1.12-2.27-1.71,7.45,6.39,11.68,7.73,14.05,8.18-2.33-5.52-6.07-6.43-11.79-6.43Z"/>
  <path class="cls-1" d="M1827.54,1359.97c-3.47-12.61-8.79-29.19-10.48-46.4,1.73,24.52,10.31,51.46,19.45,75.89-3.97-11.17-7.03-21.29-8.97-29.49Z"/>
  <path class="cls-1" d="M144.96,783.05c4.22-2.76,9.04-5.52,14.56-8.28,3.68-1.79,7.42-3.35,11.19-4.73-.36.13-.73.25-1.09.39-1.06.42-1.46.53-1.46.53.49-.2.97-.34,1.46-.53.36-.14.73-.26,1.09-.39.59-.22,1.19-.43,1.78-.64.97-.34,1.95-.68,2.92-.99,1.77-.58,3.53-1.11,5.28-1.57-12.81,3.36-25.27,8.93-35.72,16.2Z"/>
  <path class="cls-1" d="M285.72,777.58c-.16-.08-.33-.16-.49-.24.16.08.33.17.49.24Z"/>
  <path class="cls-1" d="M121.69,847.16c-2.08-8.21-4.75-17.32-3.85-26.97-1.57,8.47-.56,17.54,3.85,26.97Z"/>
  <path class="cls-1" d="M101.02,878.66c6.19,1.61,12.77-.3,18.83-6.89.31-.34.6-.69.87-1.05-4.65,5.74-12.38,8.99-19.69,7.94Z"/>
  <path class="cls-1" d="M307.56,774.14c.22-.19.45-.39.66-.59,8.53-7.94,9.26-16.2,4.27-23.76,4.72,8.78,1.62,18.5-4.94,24.34Z"/>
  <path class="cls-1" d="M77.14,813.26c-4.06,21.47.6,41.43,9,53.64-8.81-19.74-11.31-37.65-9-53.64Z"/>
  <path class="cls-1" d="M1959.92,957.83c4.1,1.09,8.19,2.61,12.23,4.62,10.34,5.41,18.34,13.73,23.5,23.5-8.37-16.6-21.68-24.97-35.73-28.12Z"/>
  <path class="cls-1" d="M1901.66,1049.43c-5.49-6.84-10.63-16.35-12.46-28.45,1.12,8.14,3.87,16.19,8.64,23.18.99,1.7,2.27,3.47,3.82,5.26Z"/>
  <path class="cls-1" d="M1207,283.84c-12.25,22.64-23.92,39.12-31.51,50.78,7.37-10.45,19.15-27.51,31.51-50.78Z"/>
  <path class="cls-1" d="M342.4,685.63c16.84,12.29,43.5,8.85,71.24-1.57-27.74,10.11-54.55,13.19-71.24,1.57ZM357.71,692.23c1.26.28,2.58.49,3.95.63-1.53-.16-2.7-.35-3.95-.63Z"/>
  <path class="cls-1" d="M328.41,1227.03c-2.36-2.25-4.92-4.32-7.7-6.15,1.09.76,2.15,1.55,3.18,2.41,1.59,1.21,3.1,2.46,4.52,3.74Z"/>
  <path class="cls-1" d="M1999.61,995.45c1.89,6.01,2.8,12.33,2.62,18.72.59-10.7-1.56-18.55-2.62-18.72Z"/>
  <path class="cls-1" d="M1900.64,977.05c6.39-8.19,14.78-14.26,24.23-17.77-13.88,4.03-24.02,11.44-24.23,17.77Z"/>
  <path class="cls-1" d="M1247.23,174.82c-.36,1.62-.73,3.22-1.1,4.82.37-1.6.74-3.2,1.1-4.82Z"/>
  <path class="cls-1" d="M469.57,655.54c3.28-2.07,6.48-4.16,9.58-6.25-1.89,1.25-3.81,2.49-5.76,3.71-1.26.85-2.53,1.7-3.82,2.54Z"/>
  <path class="cls-1" d="M256.5,907.9c.15.09.31.17.46.26-.15-.09-.31-.18-.46-.26Z"/>
  <path class="cls-1" d="M285.88,963.82c.67-5.85.61,2.72.49,3.91.86,1.33,1.68,4.55,1.68-5.65-2.46-4.47-1.96-1.79-1.96-8.1,0,9.29-1.24,16.96-3.25,23.32,1.88-4.52,3.04-9.11,3.04-13.48Z"/>
  <path class="cls-1" d="M347.87,1298.71c.46-2.7.79-5.43,1.02-8.15-2.06,18.55-8.34,35.46-12.6,45.37,3.24-5.35,7.95-13.38,11.58-37.21Z"/>
  <path class="cls-1" d="M1247.23,174.82c5.99-33.92,12.11-69.1,2.13-102.02-1.92-3.64-3.8-7.04-5.3-10.29.05,13.08,20.61,13.62,3.17,112.31Z"/>
  <path class="cls-1" d="M1107.36,385.99c21.74-3.92,40.44-11.52,52.18-25.79-1.08,1.02-1.92,1.81-2.15,2.02-14,12.93-31.18,20.02-50.03,23.77Z"/>
  <path class="cls-1" d="M1889.88,1237.93c10.66,1.25,21.35,4.73,31.69,9.96.58-9.04,5.23-121.52,4.84-165.09-6.11,42.36-32.53,151.72-36.53,155.12Z"/>
  <path class="cls-1" d="M965.04,390c-231.65,17.56-311.37,90.57-380.51,163.06,69.95-72.75,150.23-145.57,380.51-163.03,23.37-2.62,56.97,0,90.34-.16-30.9-.21-62.67-2.97-90.34.12Z"/>
  <path class="cls-1" d="M1833.51,397.21c.25-.38.5-.75.75-1.12-.25.37-.5.74-.75,1.12Z"/>
  <path class="cls-1" d="M1747.33,741.81c-.29-.16-.57-.33-.86-.49.28.17.57.33.86.49Z"/>
  <path class="cls-1" d="M1749.76,743.1c-.39-.19-.77-.39-1.15-.59.38.2.76.4,1.15.59Z"/>
  <path class="cls-1" d="M1745.54,740.77c-.26-.16-.52-.32-.78-.48.26.16.52.32.78.48Z"/>
  <path class="cls-1" d="M1743.22,739.29c-.15-.1-.29-.2-.44-.3.15.1.29.2.44.3Z"/>
  <path class="cls-1" d="M1753.81,744.96c-.36-.15-.72-.31-1.08-.47.36.16.72.31,1.08.47Z"/>
  <path class="cls-1" d="M1756.01,745.83c-.25-.09-.49-.19-.74-.28.24.1.49.19.74.28Z"/>
  <path class="cls-1" d="M1836.35,498.62c-.3-.74-.61-1.48-.9-2.22.29.73.6,1.48.9,2.22Z"/>
  <path class="cls-1" d="M1741.48,738.08c-.14-.1-.29-.21-.43-.31.14.1.28.21.43.31Z"/>
  <path class="cls-1" d="M1258.12,271.69c.07-.16.14-.33.22-.49-.07.16-.14.33-.22.49Z"/>
  <path class="cls-1" d="M1654.87,620.26c-17.85-8.28-34.78-16.08-50.85-23.46,54,24.96,99.84,47.49,120.87,61.49.13-.28.27-.56.4-.84-4.03-.45-16.16-12.07-70.42-37.19Z"/>
  <path class="cls-1" d="M1258.02,425.29c-16.11-16.26-25.51-30.17-30.07-43.23,5.57,18.18,19.52,38.58,48.51,60.37-6-4.96-11.82-10.47-18.44-17.14Z"/>
  <path class="cls-1" d="M1838.2,503.04c-.48-1.12-.95-2.23-1.41-3.34.46,1.11.93,2.22,1.41,3.34Z"/>
  <path class="cls-1" d="M1287.92,59.15c7.05,20.63,9.37,51.95,4.95,89.22,4.33-32.15,4.27-64.26-4.95-89.22Z"/>
  <path class="cls-1" d="M1242.24,304.17c0,.63-.1,1.33-.27,2.1,4.86-10.23,10.32-21.36,15.83-33.85-4.69,10.53-9.86,21.14-15.56,31.75Z"/>
  <path class="cls-1" d="M1308.17,463.19c23.76,13.76,149.33,67.09,258.53,116.54-159.9-72.8-223.47-97.8-259.26-116.97.24.14.48.28.73.43Z"/>
  <path class="cls-1" d="M1758.01,746.55c-.16-.06-.32-.11-.49-.17.16.06.32.12.49.17Z"/>
  <path class="cls-1" d="M1751.62,744c-.31-.15-.63-.29-.94-.44.31.15.62.3.94.44Z"/>
  <path class="cls-1" d="M1961.93,824.12c-.3-.11-.6-.22-.9-.34.3.12.6.23.9.34Z"/>
  <path class="cls-1" d="M1960.21,823.43c-.23-.1-.45-.22-.68-.33.22.11.45.22.68.33Z"/>
  <path class="cls-1" d="M1958.68,822.66c-.21-.12-.42-.25-.63-.37.21.13.41.26.63.37Z"/>
  <path class="cls-1" d="M1997.69,814.32c6.3-1.63,12.29-2.55,17.94-2.89-24.8,1.16-38.17,11.33-39.83,12.37,4.43-2.06,7.66-5.86,21.89-9.48Z"/>
  <path class="cls-1" d="M2002.41,941.57c.06-.19.14-.37.21-.56-.07.19-.14.37-.21.56Z"/>
  <path class="cls-1" d="M2046.24,909.06c.32-.24.65-.49.97-.73-.32.25-.64.49-.97.73Z"/>
  <path class="cls-1" d="M2049.07,906.89s.08-.06.12-.1c-.04.03-.08.06-.12.1Z"/>
  <path class="cls-1" d="M1869.96,866.02c-.23-.06-.46-.13-.69-.2.23.07.46.14.69.2Z"/>
  <path class="cls-1" d="M1956.88,821.53c-.32-.22-.64-.44-.94-.68.31.24.63.46.94.68Z"/>
  <path class="cls-1" d="M1950.75,815.17c-.32-.5-.62-1.01-.9-1.54.28.53.58,1.04.9,1.54Z"/>
  <path class="cls-1" d="M1760.31,747.29s-.09-.03-.14-.04c.05.01.09.03.14.04Z"/>
  <path class="cls-1" d="M1951.77,816.64c-.26-.35-.51-.71-.75-1.07.24.36.49.72.75,1.07Z"/>
  <path class="cls-1" d="M1955.42,820.43c-.29-.24-.57-.47-.84-.72.28.25.56.49.84.72Z"/>
  <path class="cls-1" d="M1954.12,819.27c-.28-.27-.55-.54-.82-.83.27.28.54.56.82.83Z"/>
  <path class="cls-1" d="M1952.9,818.01c-.27-.31-.53-.62-.79-.94.26.32.52.63.79.94Z"/>
  <path class="cls-1" d="M1823.85,423.52c.11-.72.23-1.43.36-2.14-.13.71-.25,1.42-.36,2.14Z"/>
  <path class="cls-1" d="M1824.22,421.38c1.06-5.75,2.67-11,4.75-15.73-2.08,4.73-3.69,9.98-4.75,15.73Z"/>
  <path class="cls-1" d="M1837.74,391.57c.28-.33.56-.64.85-.96-.29.32-.57.64-.85.96Z"/>
  <path class="cls-1" d="M1823.54,425.71c.09-.7.19-1.39.3-2.07-.11.68-.21,1.38-.3,2.07Z"/>
  <path class="cls-1" d="M1822.8,434.99c.02-.71.05-1.41.09-2.11-.04.7-.06,1.4-.09,2.11Z"/>
  <path class="cls-1" d="M1829.82,403.79c.24-.51.49-1.01.75-1.51-.26.5-.5,1-.75,1.51Z"/>
  <path class="cls-1" d="M1822.91,432.58c.04-.69.08-1.38.14-2.06-.05.68-.1,1.37-.14,2.06Z"/>
  <path class="cls-1" d="M1823.28,427.95c.07-.69.15-1.37.24-2.05-.09.68-.17,1.36-.24,2.05Z"/>
  <path class="cls-1" d="M1823.06,430.24c.05-.69.12-1.37.19-2.04-.07.67-.13,1.36-.19,2.04Z"/>
  <path class="cls-1" d="M1828.97,405.64c.25-.57.51-1.14.78-1.7-.27.56-.53,1.12-.78,1.7Z"/>
  <path class="cls-1" d="M1835.56,394.29c.26-.35.52-.69.79-1.02-.27.34-.53.68-.79,1.02Z"/>
  <path class="cls-1" d="M1834.52,395.72c.25-.36.51-.72.77-1.07-.26.35-.52.71-.77,1.07Z"/>
  <path class="cls-1" d="M1836.63,392.9c.27-.33.54-.66.82-.99-.28.33-.55.65-.82.99Z"/>
  <path class="cls-1" d="M1899.82,978.12c-4.79,5.22-8.35,13.1-10.07,22.04,1.96-8.4,5.45-15.81,10.07-22.04Z"/>
  <path class="cls-1" d="M1830.69,402.04c.24-.46.49-.92.74-1.38-.25.45-.5.91-.74,1.38Z"/>
  <path class="cls-1" d="M1831.6,400.37c.24-.43.49-.85.74-1.27-.25.42-.49.84-.74,1.27Z"/>
  <path class="cls-1" d="M1832.54,398.76c.24-.4.49-.8.74-1.19-.25.39-.5.79-.74,1.19Z"/>
  <path class="cls-1" d="M1828.53,476.17c-.18-.62-.35-1.24-.52-1.86.17.62.34,1.23.52,1.86Z"/>
  <path class="cls-1" d="M1827.71,473.18c-.17-.64-.33-1.27-.49-1.9.16.63.32,1.26.49,1.9Z"/>
  <path class="cls-1" d="M1834.95,495.12c-.26-.66-.52-1.32-.77-1.98.25.66.51,1.32.77,1.98Z"/>
  <path class="cls-1" d="M1830.38,482.28c-.2-.61-.39-1.22-.58-1.83.19.61.38,1.22.58,1.83Z"/>
  <path class="cls-1" d="M1829.42,479.21c-.19-.61-.37-1.23-.55-1.84.18.61.36,1.22.55,1.84Z"/>
  <path class="cls-1" d="M1833.68,491.8c-.24-.63-.47-1.26-.7-1.89.23.63.46,1.26.7,1.89Z"/>
  <path class="cls-1" d="M1832.5,488.58c-.22-.62-.44-1.24-.66-1.86.21.62.43,1.24.66,1.86Z"/>
  <path class="cls-1" d="M1831.4,485.41c-.21-.61-.41-1.23-.61-1.84.2.61.41,1.22.61,1.84Z"/>
  <path class="cls-1" d="M1826.96,470.24c-.16-.65-.32-1.3-.47-1.95.15.65.31,1.3.47,1.95Z"/>
  <path class="cls-1" d="M1824.58,458.86c-.96-5.66-1.52-11.05-1.73-16.17.21,5.12.78,10.51,1.73,16.17Z"/>
  <path class="cls-1" d="M1822.85,442.63c-.03-.82-.06-1.64-.07-2.45.02.81.04,1.63.07,2.45Z"/>
  <path class="cls-1" d="M1822.77,439.99c-.01-.77-.02-1.53-.01-2.28,0,.75,0,1.51.01,2.28Z"/>
  <path class="cls-1" d="M1825.08,461.64c-.15-.8-.29-1.6-.43-2.39.14.79.28,1.59.43,2.39Z"/>
  <path class="cls-1" d="M1826.27,467.33c-.15-.68-.3-1.35-.44-2.02.14.67.29,1.34.44,2.02Z"/>
  <path class="cls-1" d="M1825.64,464.46c-.15-.72-.29-1.44-.43-2.16.14.72.28,1.43.43,2.16Z"/>
  <path class="cls-1" d="M1822.76,437.45c0-.73.02-1.46.04-2.18-.02.72-.03,1.45-.04,2.18Z"/>
  <path class="cls-1" d="M1651.27,868.64c1.58,1.31,3.28,2.79,5.11,4.45-1.35-1.27-3.02-2.75-5.11-4.45Z"/>
  <path class="cls-1" d="M1436.74,1205.12c-13.98,16.48-22.97,37.69-23.82,61.91-.28,8.08.34,15.8,1.7,23.13-4.42-29.56,4.09-61.21,22.13-85.03Z"/>
  <path class="cls-1" d="M2002.09,953.98c-.1-.35-.2-.7-.28-1.06.08.35.18.71.28,1.06Z"/>
  <path class="cls-1" d="M1772.45,958.09c-2.89,1.73-12.44,4.57-24.39,7.59,8.94-1.65,17.82-3.65,24.39-7.59Z"/>
  <path class="cls-1" d="M1563.32,1360.3c8.52-4.69,16.59-10.81,23.91-18.48,14.24-14.46,22.93-31.44,26.77-49-6.85,28.08-25.42,53.12-50.68,67.48Z"/>
  <path class="cls-1" d="M1338.26,1641.11c0-.22,0-.43,0-.65,0,.22,0,.43,0,.65Z"/>
  <path class="cls-1" d="M1107.6,1842.59c61.42-11.06,117.34-59.18,134.47-159.13-16.68,97.35-72.79,146.93-134.47,159.13Z"/>
  <path class="cls-1" d="M1331.73,1655.33c.23-.18.44-.36.63-.53,4.06-3.82,5.82-8.61,5.89-13.4-.12,5.09-2.14,10.13-6.52,13.92Z"/>
  <path class="cls-1" d="M1596.44,1209.88c-9.61-13.3-22.47-24.4-38.03-31.73,6.39,3.2,13.97,7.93,20.44,13.41,6.85,5.79,12.69,11.93,17.58,18.32Z"/>
  <path class="cls-1" d="M1688.59,774.28c.07.03.14.06.21.09-.07-.03-.14-.06-.21-.09Z"/>
  <path class="cls-1" d="M1636.51,857.97c.71.68,2.34,1.61,4.92,3.32-1.52-1.05-3.16-2.16-4.92-3.32Z"/>
  <path class="cls-1" d="M1652.09,792.9c9.14-7.96,16.57-14.74,20.5-17.51-6.66,3.67-13.04,10.69-20.5,17.51Z"/>
  <path class="cls-1" d="M1603.28,827.92c7.46-3.32,15.59-8.56,23.62-14.48-9.01,5.93-17.41,10.38-23.62,14.48Z"/>
  <path class="cls-1" d="M1302.18,973.74c-.12-.15-.24-.29-.35-.44.12.15.24.3.35.44Z"/>
  <path class="cls-1" d="M1300.67,971.78c-.33-.45-.67-.89-.99-1.34.32.45.65.89.99,1.34Z"/>
  <path class="cls-1" d="M1565.53,826.96c14.43,4.09,20.8,7.99,25.47,8.12-4.34-1.67-13.06-4.9-25.47-8.12Z"/>
  <path class="cls-1" d="M906.5,1674.38c-15.34-5.69-29.96-12.7-41.62-19.12,13.34,7.49,27.29,13.84,41.62,19.15-3.48,51.13,18.66,94.82,53.13,125.21-31.88-29.63-53.13-72.45-53.13-125.24Z"/>
  <path class="cls-1" d="M983.68,1549.11c.85-.27,1.71-.55,2.56-.79-.86.25-1.71.51-2.56.79Z"/>
  <path class="cls-1" d="M1321.6,1620.06c-1.92-.38-3.64-.42-5.63-.12,1.97-.23,3.86-.18,5.63.12Z"/>
  <path class="cls-1" d="M1334.34,1628.44c-2.76-4.12-6.75-7.18-11.24-8.05,4.73,1.21,8.59,4.2,11.24,8.05Z"/>
  <path class="cls-1" d="M1301.6,1624.26c3-.98,5.75-1.9,8.08-2.71-2.2.7-4.82,1.61-8.08,2.71Z"/>
  <path class="cls-1" d="M836.34,1623.68c-1.07,6.84,1.31,14.2,8.84,19.38-.74-.55-1.42-1.06-2.03-1.55-5.86-5.28-7.7-11.79-6.81-17.83Z"/>
  <path class="cls-1" d="M921.15,1612.22c5.31-11.38,13.16-25.14,22.81-36.39-8.79,9.79-16.57,21.93-22.81,36.39Z"/>
  <path class="cls-1" d="M867.31,1608.86c-2.62-1.6-5.21-2.56-7.72-3.01,3.44.99,7.23,3.02,11.87,5.74-1.4-.9-2.79-1.81-4.14-2.73Z"/>
  <path class="cls-1" d="M1321.54,1660.55c-13.89,4.94-26.2,8.85-36.74,11.93,13.55-3.83,27.31-8.09,36.74-11.93Z"/>
  <path class="cls-1" d="M1063.71,1570.47c3.33,3.25,6,6.14,8.16,8.69-23.37-29.35-55.64-39.45-85.58-30.85,26.16-7.36,54.29-.46,77.43,22.16Z"/>
  <path class="cls-1" d="M913.56,1633.6s0,0,0,.01c0,.01-.03.01-.04.02.01,0,.03.01.04.02,0-.01,0-.03,0-.05Z"/>
  <path class="cls-1" d="M1082.88,1590.26c-.52.88-1.03,1.78-1.54,2.69-.51-.87-1.04-1.72-1.57-2.56,1.93,3.49,1.52,3.46,3.11-.13Z"/>
  <path class="cls-1" d="M1111.67,1555.6c13.87-10.93,28.52-16.83,42.96-18.49-19.36,1.86-38.94,11.41-56.22,31.27,3.56-3.82,7.91-8.07,13.25-12.78Z"/>
  <path class="cls-1" d="M1257.18,1637.38c-.01-29.95-15.12-58.64-37.33-77.66,19.86,18.02,34.1,45.35,37.33,77.66Z"/>
  <path class="cls-1" d="M1276.09,1632.26c-5.46,1.57-11.7,3.29-18.86,5.15.53.21,8.69-2.08,18.86-5.15Z"/>
  <path class="cls-1" d="M1257.9,1679.64c-10.3,2.47-15.83,3.48-15.83,3.81,2.93-.65,8.64-2,15.83-3.81Z"/>
  <path class="cls-1" d="M1680.94,978.83h0c7.57,0,14.94-1.51,22.12-3.23-10.23,1.92-18.53,3.19-22.12,3.19,0,.01,0,.03,0,.04Z"/>
  <path class="cls-1" d="M1476.16,1030.38c40.5,2.05,82.03-.28,117.59-7.55-13.34,2.46-26.66,4.04-38.98,5.14-28.72,2.31-54.87,3.03-78.61,2.41Z"/>
  <path class="cls-1" d="M1546.43,987.55c-2.53.13-5.04.25-7.52.36,2.48-.11,4.99-.23,7.52-.36Z"/>
  <path class="cls-1" d="M1533.38,988.14c-.57.02-1.16.05-1.73.07.57-.02,1.16-.05,1.73-.07Z"/>
  <path class="cls-1" d="M1688.36,774.19c-3.46-1.43-6.67-1.68-9.75-1.07,3.36-.52,6.7-.09,9.75,1.07Z"/>
  <path class="cls-1" d="M1318.18,873.07c-34.47,30.69-39.4,67.75-18.82,96.91-21.35-30.5-12.94-67.2,18.82-96.91Z"/>
  <path class="cls-1" d="M1504.19,818.13c11.89.59,22.05,1.54,30.79,2.71-16.43-2.37-35.81-3.73-57.55-2.71,8.68-.3,17.6-.31,26.76,0Z"/>
  <path class="cls-1" d="M1352.41,897.08c-17.15,12.79-25.43,27.28-22.55,40.91-2.71-13.63,5.64-28.12,22.55-40.91Z"/>
  <path class="cls-1" d="M1724.33,893c.9-.61,1.73-1.23,2.49-1.87-1.15.88-2.57,1.84-4.19,2.85.56-.32,1.12-.64,1.7-.98Z"/>
  <path class="cls-1" d="M1772.46,958.09c1.88-1.13,3.57-2.42,5.02-3.91,2.94-3.04,4.61-6.8,5.11-10.69-.76,5.42-3.88,10.77-10.13,14.6Z"/>
  <path class="cls-1" d="M1497.58,923.55c-2.22-7.66-8.76-13.99-20.09-13.99,11.33,0,17.86,6.33,20.09,13.99Z"/>
  <path class="cls-1" d="M1548.55,865c21.21,4.92,44.43,13.02,63.45,24.69-18.4-11.42-41.11-19.69-63.45-24.69Z"/>
  <path class="cls-1" d="M1702.17,794.99c1.37-5.83-.36-11.74-7.7-17.23,5.03,4.16,8.24,10.52,7.7,17.23Z"/>
  <path class="cls-1" d="M1352.6,896.94c.21-.16.44-.32.66-.48-.22.16-.44.32-.66.48Z"/>
  <path class="cls-1" d="M1461.47,918.19c-7.54,11.95-2.61,32.06,17.62,32.06-20.21,0-25.16-20.12-17.62-32.06Z"/>
  <path class="cls-1" d="M1691.53,934.6c-.02-.31-.06-.68-.1-1.12.01.19.06.56.1,1.12Z"/>
  <path class="cls-1" d="M1691.87,934.25c-.32-.71-.43-1.01-.44-.88.29.58.4.69.51,1.16-.02-.09-.04-.17-.07-.28Z"/>
  <path class="cls-1" d="M1691.61,935.87c0,.09,0,.17.01.27.03,0,.05,0,.08,0-.05-.03-.08-.11-.1-.27Z"/>
  <path class="cls-1" d="M1692.04,934.98c-.03-.12-.06-.26-.1-.41.03.13.06.29.1.48,0-.02,0-.05,0-.07Z"/>
  <path class="cls-1" d="M1692.1,936.09c-.07.02-.14.03-.19.04.08,0,.14-.02.19-.04Z"/>
  <path class="cls-1" d="M1714.33,931.57c12.15-2.72,21.51-5.15,28.92-7.02-9.24,2.12-19.76,4.78-28.92,7.02Z"/>
  <path class="cls-1" d="M1644.23,851.65c8.13-5.59,14.97-11.16,21.97-17.23-9.65,8.04-18.37,14.77-21.7,17.04-.09.06-.18.12-.27.19Z"/>
  <path class="cls-1" d="M1776.19,925.9s.08.07.12.11c-.04-.04-.08-.07-.12-.11Z"/>
  <path class="cls-1" d="M1674.34,873.96c-.85.42-1.72.84-2.61,1.27-6.16,3.04-7.5,4.58-9,3.91.11.11.21.21.31.31,1.7,0,5.87-2.3,11.3-5.49Z"/>
  <path class="cls-1" d="M1636.2,856.91c2.43-1.52,4.73-3.02,6.94-4.51-4.08,2.71-6.43,3.69-6.94,4.51Z"/>
  <path class="cls-1" d="M1720.21,856.03c-6.25-2.56-11.24-.94-19.01,3.27,7.55-3.29,14.51-5.11,19.01-3.27Z"/>
  <path class="cls-1" d="M1692.04,934.98c.13.54.19.83.16.98,0,0,0,.02,0,.03.02.02.05.04.08.05-.01-11.16-2.6-16.21-4.32-18.96,4.31,11.21,4.1,16.02,4.07,17.91Z"/>
  <path class="cls-1" d="M1734.18,877.54c.92-12.12-9.81-23.65-13.97-21.51,3.98-2.05,14.64,9.55,13.97,21.51Z"/>
  <path class="cls-1" d="M1686.42,913.24c.07.16.13.31.19.47.83-1.61,5.97-3.3,21.26-11.51-10.78,5.59-21.46,10.61-21.46,11.05Z"/>
  <path class="cls-1" d="M717.07,824.35c.18.01.35.02.53.04-.18-.01-.35-.02-.53-.04Z"/>
  <path class="cls-1" d="M175.4,768.42c-.96.31-1.92.64-2.89.98,14.93-5.19,30.26-7.36,44.56-7.65-12.34.09-24.91,1.57-36.38,5.1-1.74.46-3.51.99-5.28,1.57Z"/>
  <path class="cls-1" d="M509.08,858.12c.16.09.32.19.47.28-.16-.09-.32-.19-.47-.28Z"/>
  <path class="cls-1" d="M901,946.62c-4.87-56.39-81.12-114.48-180.39-122.02,98.5,7.78,174.2,66.15,180.39,122.02Z"/>
  <path class="cls-1" d="M827.79,1032.9c1.55-.6,3.07-1.22,4.56-1.84-25.23,10.05-55.29,17.1-87.04,20.89,30.51-3.52,59.04-9.98,82.47-19.05Z"/>
  <path class="cls-1" d="M530.14,870.34c-.34-.15-.7-.33-1.05-.49.94.5,1.83.95,2.62,1.34-.45-.25-.97-.53-1.57-.85Z"/>
  <path class="cls-1" d="M560.99,857.5c-13.77,6.89-19.71,11.07-22.79,13.22,27.73-17.09,55.71-28.98,83.18-36.52-19.97,5.41-40.19,13.07-60.38,23.3Z"/>
  <path class="cls-1" d="M623.34,833.67c.77-.2,1.53-.41,2.3-.61-.77.2-1.53.4-2.3.61Z"/>
  <path class="cls-1" d="M535.41,872.44c.05-.03.1-.06.15-.09-.26.1-.51.16-.74.16.38.1.59.08.59-.07Z"/>
  <path class="cls-1" d="M385.41,939.86c1.17,5.5,4.62,10.49,10.66,13.24,1.38.65,4.25,1.51,8.21,2.49-5.14-1.39-9.1-2.83-11.24-4.27-4.21-3.25-6.63-7.27-7.63-11.46Z"/>
  <path class="cls-1" d="M441.87,962.48c14.88,2.08,30.98,3.64,44.5,3.64,0,0,0,0,0,0,0-.01,0-.03,0-.04-10.9,0-27.88-1.41-44.5-3.6Z"/>
  <path class="cls-1" d="M399.52,915.24c-5.77,1.63-9.98,5.65-12.35,10.56,2.49-4.97,6.87-8.98,12.35-10.56Z"/>
  <path class="cls-1" d="M517.68,863.38c-2.33-1.44-4.7-2.93-7.08-4.36,2.31,1.39,4.66,2.86,7.04,4.33.01,0,.02.01.04.02Z"/>
  <path class="cls-1" d="M479.9,852.48c-3.51,1.6-6.37,4.15-8.32,7.26.78-1.02,1.68-2.05,2.72-3.09,1.84-1.83,3.71-3.19,5.61-4.18Z"/>
  <path class="cls-1" d="M492.73,896.76c5.03,2.76,9.27,4.85,9.83,4.85,0-.29-4.27-2-9.83-4.85Z"/>
  <path class="cls-1" d="M474.42,884.22c.17,1.19,3.66,3.77,8.14,6.59-2.92-1.97-5.74-4.18-8.14-6.59Z"/>
  <path class="cls-1" d="M501.85,902.53c.24-.31.47-.61.71-.92-.24.3-.48.61-.71.92Z"/>
  <path class="cls-1" d="M925.83,776.77c-1.92-1.14-3.82-2.26-5.71-3.37,1.89,1.11,3.79,2.23,5.71,3.37Z"/>
  <path class="cls-1" d="M671.71,1012.68c83.71,5.39,174.78-10.54,189.98-55.78-15.15,45.08-106.23,61.08-189.98,55.78Z"/>
  <path class="cls-1" d="M1296.33,707.42c-62.19,32.47-103.86,80.09-130.68,140.16,33.4-66.27,75.51-110.78,130.68-140.16Z"/>
  <path class="cls-1" d="M1123.31,1109.51c.84,30.16,3.74,60.69,6,91.24-2-39.87-5.09-81.6-5.73-123.93-.23,10.74-.32,21.64-.27,32.69Z"/>
  <path class="cls-1" d="M1969.2,1064.6c.77-.44,1.96-1.1,3.68-2.03.91-.55,1.9-1.16,2.89-1.81-3.31,1.98-5.34,2.5-6.56,3.84Z"/>
  <path class="cls-1" d="M1114.5,1377.43c.4-1.07.78-2.14,1.16-3.22-.38,1.08-.76,2.15-1.16,3.22Z"/>
  <path class="cls-1" d="M280.24,773.92c.39.26.73.52,1.02.77,1.17.99,2.38,1.81,3.62,2.46-1.06-1.05-2.63-2.14-4.64-3.24Z"/>
  <path class="cls-1" d="M1155.5,1383.51c22.02-64.29,13.63-158.22,10.68-256.07,2.67,98.37,11.08,192.55-10.68,256.07Z"/>
  <path class="cls-1" d="M641.74,700.92c111.52-3.09,160.08,3.01,278.32,72.44-118.61-69.65-166.95-75.53-278.32-72.44Z"/>
  <path class="cls-1" d="M424.91,918.3c13.36,2.9,32.85,6.45,64.08,6.45-30.29,0-50.26-3.56-64.08-6.45Z"/>
  <path class="cls-1" d="M488.99,924.76c0-1.14,5.51-12.65,12.85-22.2-7.05,9.18-12.85,20.57-12.85,22.2Z"/>
  <path class="cls-1" d="M386.77,926.66c.08-.17.15-.34.23-.5-.08.17-.16.33-.23.5Z"/>
  <path class="cls-1" d="M935.1,734.85c-118.37-66.33-170.58-78.75-292.32-74.62,121.55-4.12,174.07,8.37,292.32,74.62Z"/>
  <path class="cls-1" d="M749.4,1320.9c-.17.46-.34.91-.51,1.36.17-.45.34-.91.51-1.36Z"/>
  <path class="cls-1" d="M553.53,1268.12c3-16.56,10.08-32.21,20.39-45.45-10.15,12.72-17.41,28.09-20.39,45.45Z"/>
  <path class="cls-1" d="M642.81,1184.14c.48-.05.96-.12,1.45-.16-.48.05-.97.1-1.45.16Z"/>
  <path class="cls-1" d="M735.4,1346.48c-.24.31-.48.62-.72.93.24-.31.48-.62.72-.93Z"/>
  <path class="cls-1" d="M748.12,1324.22c-.13.31-.26.61-.38.91.13-.3.26-.61.38-.91Z"/>
  <path class="cls-1" d="M754.03,1303.66c-.02.1-.03.2-.05.29.02-.1.03-.19.05-.29Z"/>
  <path class="cls-1" d="M737.27,1343.93c-.07.11-.15.21-.23.32.08-.11.15-.21.23-.32Z"/>
  <path class="cls-1" d="M739.04,1341.34l-.02.04.02-.04Z"/>
  <path class="cls-1" d="M753.55,1306.22c-.1.47-.19.94-.3,1.41.1-.47.2-.94.3-1.41Z"/>
  <path class="cls-1" d="M553.23,1301.93c4.02,26.45,17.89,47.96,36.76,62.78-2.55-2.14-5.05-4.41-7.47-6.87-16.74-16.95-26.06-36.35-29.3-55.91Z"/>
  <path class="cls-1" d="M665.63,1184.23c2,.11,4.01.31,6.01.59-9.11-1.58-18.31-1.82-27.36-.84,6.87-.62,14.01-.56,21.36.25Z"/>
  <path class="cls-1" d="M659.62,1387.24c23.99-1.01,47.88-10.53,66.78-30.35,2.53-2.57,4.88-5.23,7.07-7.94-18.19,22.47-45.47,36.31-73.85,38.29Z"/>
  <path class="cls-1" d="M749.25,1250.96c-7.58-20.94-21.81-39.54-41.44-52.02,18.15,11.98,33.32,30.38,41.44,52.02Z"/>
  <path class="cls-1" d="M752.85,1309.43c-.16.67-.33,1.33-.5,2,.17-.66.34-1.33.5-2Z"/>
  <path class="cls-1" d="M811.07,1515.51c5.22.4,10.64-1.49,15.19-6.79,4.39-4.89,6.03-10.09,5.76-14.94.3,11.23-9.67,21.93-20.94,21.72Z"/>
  <path class="cls-1" d="M750.62,1317.38c-.19.59-.39,1.18-.59,1.77.2-.59.4-1.18.59-1.77Z"/>
  <path class="cls-1" d="M751.1,1315.91c.32-1.05.63-2.1.92-3.16-.29,1.06-.6,2.11-.92,3.16Z"/>
  <path class="cls-1" d="M823.29,1478.34c-6.39-4.74-15.17-6.12-22.5-1.02-9.47,5.97-11.5,14.29-9.34,21.64-3.36-15.75,14.71-32.61,31.84-20.62Z"/>
  <path class="cls-1" d="M725.48,975.16c-23.58,0-26.38-27.38-12.82-37.22-13.56,9.84-10.77,37.22,12.82,37.22Z"/>
  <path class="cls-1" d="M587.72,1042.8c-33.72-9.04-62.57-23.13-81.45-42.69-8.24-8.84-13.63-18.02-16.69-24.68,13.87,33.08,51.37,55.04,98.15,67.36Z"/>
  <path class="cls-1" d="M736.04,972.14c14.31-9.42,11.81-37.68-12.17-37.68,23.95,0,26.47,28.26,12.17,37.68Z"/>
  <path class="cls-1" d="M861.69,956.9c-11.24-47.23-60.06-78.72-119.6-89.05,59.71,10.55,108.49,42.39,119.6,89.05Z"/>
  <path class="cls-3" d="M671.71,1012.68c83.75,5.3,174.83-10.7,189.98-55.78-11.1-46.67-59.89-78.51-119.6-89.05-62.71-10.89-137.3,1.69-192.4,44.07-71.6,55.74,19.72,94.18,122.02,100.77ZM668.74,942.8c1.08-31.83,27.82-55.04,58.88-55.04s56.09,28.62,55.04,58.88c-1.08,31.83-27.82,55.04-58.88,55.04s-56.09-28.62-55.04-58.88Z"/>
  <path class="cls-3" d="M1611.99,889.68c-19.01-11.67-42.24-19.76-63.45-24.69-16.86-3.77-33.51-5.69-47.91-5.69-66.14,0-118.69,16.2-147.38,37.15-.22.16-.44.32-.66.48-.06.05-.12.09-.18.14-16.92,12.79-25.26,27.29-22.55,40.91,6.28,29.7,65.56,55.31,201.79,50.21.57-.02,1.16-.05,1.73-.07,1.83-.07,3.66-.14,5.52-.23,2.48-.11,4.99-.23,7.52-.36,34.59-4.26,85.58-5.8,105.09-38.99.37-24.61-16.06-44.31-39.52-58.88ZM1535.05,928.56c-1.08,31.83-27.82,55.04-58.88,55.04s-56.09-28.62-55.04-58.88c1.08-31.83,27.82-55.04,58.88-55.04s56.09,28.62,55.04,58.88Z"/>
  <path class="cls-3" d="M1692.04,935.05c-.03-.19-.07-.35-.1-.48,0-.01,0-.03,0-.04-.11-.47-.22-.59-.51-1.16,0,.02,0,.07,0,.12.05.44.08.81.1,1.12.03.35.06.77.08,1.27.02.16.04.24.1.27.07,0,.14,0,.2,0,.05-.01.11-.03.19-.04.05-.02.08-.06.1-.12-.14-.13-.16-.41-.15-.93Z"/>
  <path class="cls-3" d="M1692.19,935.97s0,0,0,0c0,0,0-.02,0-.03,0,0,0,.01,0,.02Z"/>
  <path class="cls-3" d="M361.66,692.86c-1.36-.14-2.69-.35-3.95-.63,1.25.28,2.42.47,3.95.63Z"/>
  <path class="cls-5" d="M1692.04,934.98s0,.05,0,.07c0,.52,0,.8.15.93,0,0,0-.01,0-.02.04-.15-.02-.44-.16-.98Z"/>
  <path class="cls-5" d="M1782.6,943.49c.81-6.31-1.43-12.96-6.29-17.48-.04-.04-.08-.07-.12-.11-2.64-2.41-6.03-4.2-10.11-4.98-3.16-.53-12.14,1.19-22.83,3.63-7.41,1.87-16.77,4.3-28.92,7.02-10.41,2.54-19.05,4.53-22.04,4.53,0-.02,0-.05,0-.07-.03-.01-.06-.03-.08-.05,0,0,0,0,0,0-.02.05-.05.09-.1.12-.05.02-.11.04-.19.04-.06,0-.12,0-.2,0-.03,0-.05,0-.08,0,0-.09,0-.18-.01-.27-.02-.5-.05-.92-.08-1.27-.05-.56-.09-.93-.1-1.12,0-.05,0-.09,0-.12.01-.13.12.17.44.88.02.11.04.19.07.28,0,.01,0,.03,0,.04.04.15.07.29.1.41.03-1.89.24-6.7-4.07-17.91-1.06-1.7-1.79-2.53-1.35-3.36-.07-.16-.12-.31-.19-.47,0-.44,10.68-5.45,21.46-11.05,4.13-2.22,9.02-4.92,14.75-8.22,1.62-1.01,3.04-1.97,4.19-2.85,4.9-4.11,7-8.89,7.36-13.58.66-11.97-9.99-23.56-13.97-21.51-4.5-1.84-11.46-.02-19.01,3.27-6.35,3.44-14.57,8.62-26.86,14.66-5.42,3.18-9.59,5.49-11.3,5.49-.11-.11-.21-.21-.31-.31-1.19-.53-2.49-2.43-6.35-6.05-1.83-1.66-3.53-3.14-5.11-4.45-2.57-2.1-5.78-4.54-9.83-7.35-2.58-1.71-4.21-2.64-4.92-3.32-.32-.21-.64-.42-.98-.64.23-.14.44-.28.66-.42.51-.83,2.86-1.8,6.94-4.51.37-.25.74-.5,1.1-.75.09-.06.18-.12.27-.19,3.33-2.27,12.05-9,21.7-17.04,3.97-3.44,7.99-7.05,12.33-10.92,7.76-7.05,21.08-17.65,23.64-28.51.53-6.71-2.67-13.07-7.7-17.23-.83-.62-1.73-1.24-2.71-1.85-1.01-.61-2-1.12-2.96-1.55-.07-.03-.14-.06-.21-.09-.08-.03-.15-.06-.23-.09-3.05-1.16-6.39-1.59-9.75-1.07-2.05.41-4.05,1.19-6.02,2.28-3.93,2.77-11.36,9.55-20.5,17.51-1.08.98-2.17,1.96-3.3,2.92-7.14,7.21-14.71,12.88-21.9,17.61-8.02,5.92-16.15,11.16-23.62,14.48-4.25,2.81-7.47,5.46-9.15,8.32-.17,0-1.25-.43-3.14-1.16-4.67-.13-11.03-4.03-25.47-8.12-8.52-2.21-18.77-4.42-30.54-6.12-8.74-1.17-18.91-2.13-30.79-2.71-9.16-.31-18.08-.3-26.76,0-16.37.77-34.07,2.88-52.86,6.95-48.8,10.64-83.89,27.96-106.4,48-31.76,29.71-40.17,66.4-18.82,96.91.11.15.21.31.32.46.32.45.66.89.99,1.34.38.51.76,1.02,1.16,1.52.12.15.24.3.35.44,4.67,5.83,10.4,11.3,17.16,16.29,31.04,22.89,92.63,37.11,156.82,40.35,23.73.62,49.88-.1,78.61-2.41,12.32-1.09,25.64-2.67,38.98-5.14,39.92-8.16,72.29-22.55,87.19-44,0-.01,0-.03,0-.04,3.59,0,11.89-1.26,22.12-3.19,7-1.67,13.82-3.56,20.46-4.46,6.78-2.52,15.69-3.82,24.53-5.46,11.95-3.02,21.5-5.86,24.39-7.59h0c6.26-3.83,9.38-9.18,10.13-14.6ZM1546.43,987.55c-2.53.13-5.04.25-7.52.36-1.86.08-3.69.16-5.52.23-.57.02-1.16.05-1.73.07-136.23,5.09-195.51-20.51-201.79-50.21-2.88-13.63,5.4-28.13,22.55-40.91.06-.05.12-.09.18-.14.22-.16.44-.32.66-.48,28.68-20.95,81.24-37.15,147.38-37.15,14.4,0,31.05,1.91,47.91,5.69,22.34,5,45.05,13.26,63.45,24.69,23.46,14.57,39.9,34.27,39.52,58.88-19.51,33.19-70.5,34.73-105.09,38.99Z"/>
  <path class="cls-5" d="M587.72,1042.8c47.95,12.64,105.63,15.15,157.6,9.15,31.75-3.79,61.81-10.83,87.04-20.89,51.41-21.34,71.39-52.62,68.64-84.44-6.19-55.87-81.89-114.24-180.39-122.02-1-.08-2-.15-3.01-.22-.18-.01-.35-.02-.53-.04-28.98-1.84-59.85.64-91.43,8.72-.77.2-1.53.4-2.3.61-.65.17-1.31.35-1.96.52-27.47,7.54-55.45,19.43-83.18,36.52-1.23.85-2,1.38-2.64,1.63-.05.03-.1.06-.15.09,0,.15-.21.17-.59.07-.78.02-1.56-.45-3.11-1.32-.79-.39-1.67-.84-2.62-1.34-3.6-1.7-7.45-4.01-11.41-6.47-.01,0-.02-.01-.04-.02-2.39-1.48-4.73-2.94-7.04-4.33-.35-.21-.7-.42-1.04-.62-.16-.09-.32-.19-.47-.28-4.36-2.56-8.74-4.85-12.97-6.24-6.12-1.93-11.7-1.45-16.21.6-1.9.99-3.76,2.35-5.61,4.18-1.04,1.04-1.94,2.07-2.72,3.09-4.28,6.81-4.23,16.31,2.82,24.38,0,.03.02.06.02.09,2.4,2.41,5.22,4.62,8.14,6.59,3.18,2,6.85,4.12,10.18,5.95,5.56,2.86,9.83,4.56,9.83,4.85-.24.3-.48.61-.71.92,0,0-.01.01-.02.02-7.34,9.56-12.85,21.06-12.85,22.2-31.23,0-50.73-3.56-64.08-6.45-11.36-2.38-18.58-4.31-23.91-3.43-.5.1-.99.23-1.47.36-5.48,1.58-9.85,5.58-12.35,10.56-.06.12-.12.24-.18.37-.08.17-.15.33-.23.5-1.78,4.15-2.29,8.83-1.36,13.2.99,4.18,3.42,8.21,7.63,11.46,2.15,1.44,6.1,2.88,11.24,4.27,8.64,2.12,22.49,4.78,37.59,6.89,16.62,2.19,33.6,3.6,44.5,3.6,0,.01,0,.03,0,.04.86,3.2,1.93,6.3,3.2,9.31,3.07,6.66,8.45,15.84,16.69,24.68,18.88,19.56,47.74,33.65,81.45,42.69ZM742.09,867.85c59.54,10.33,108.36,41.82,119.6,89.05-15.2,45.24-106.27,61.17-189.98,55.78-102.3-6.59-193.62-45.03-122.02-100.77,55.1-42.37,129.69-54.95,192.4-44.07Z"/>
  <path class="cls-8" d="M1334.34,1628.44c-2.65-3.85-6.52-6.84-11.24-8.05-.17-.03-.33-.08-.51-.1-.34-.08-.67-.16-.99-.22-1.77-.3-3.66-.35-5.63-.12-1.77.27-3.76.81-6.29,1.62-2.33.81-5.08,1.73-8.08,2.71-5.94,2.01-14,4.69-25.51,8-10.17,3.06-18.33,5.35-18.86,5.15-.02,0-.04,0-.05.01,0-.01,0-.03,0-.04-3.22-32.31-17.47-59.64-37.33-77.66-18.39-15.75-41.64-24.88-65.22-22.61-14.44,1.67-29.09,7.56-42.96,18.49-5.34,4.71-9.69,8.97-13.25,12.78-5.43,6.24-10.63,13.51-15.53,21.88-1.59,3.59-1.19,3.62-3.11.13-2.5-4.01-5.14-7.76-7.9-11.23-2.16-2.55-4.83-5.44-8.16-8.69-23.13-22.62-51.27-29.52-77.43-22.16-.01,0-.02,0-.04.01-.86.24-1.71.52-2.56.79-14.26,4.64-27.91,13.56-39.72,26.72-9.66,11.24-17.51,25.01-22.81,36.39-2.87,6.64-5.42,13.76-7.59,21.38,0,.01,0,.03,0,.05-.01,0-.03-.01-.04-.02-.75.37-23.14-9.87-42.07-22.03-4.63-2.72-8.43-4.74-11.87-5.74-11.7-2.08-21.59,7.23-23.24,17.82-.88,6.03.96,12.54,6.81,17.83.61.49,1.29,1.01,2.03,1.55.09.06.18.13.27.19,6.31,4.3,12.79,8.3,19.42,12.02,11.66,6.42,26.28,13.43,41.62,19.12,0,52.79,21.25,95.62,53.13,125.24,39.73,35.02,95.83,52.35,147.97,42.96,61.68-12.2,117.78-61.79,134.47-159.13,0-.34,5.54-1.35,15.83-3.81,7.78-1.96,17.28-4.45,26.91-7.17,10.54-3.08,22.84-6.98,36.74-11.93,4.62-1.88,8.19-3.65,10.19-5.22,4.39-3.79,6.41-8.83,6.52-13.92,0-.1,0-.2,0-.29,0-.22,0-.43,0-.65-.12-4.3-1.58-8.53-3.92-12.02Z"/>
  <path class="cls-10" d="M752.36,1311.42c.17-.66.34-1.33.5-2,.14-.6.27-1.2.4-1.8.1-.47.2-.94.3-1.41.15-.76.3-1.51.43-2.27.02-.1.03-.2.05-.29,3.08-17.76,1.27-35.97-4.78-52.7-8.12-21.64-23.29-40.04-41.44-52.02-4.37-2.78-9.01-5.25-13.91-7.38-7.26-3.22-14.73-5.43-22.27-6.74-2-.28-4-.48-6.01-.59-7.35-.81-14.48-.87-21.36-.25,0,0-.01,0-.02,0-.49.04-.96.11-1.45.16-26.68,3.29-51.85,17.17-68.89,38.53-10.31,13.24-17.39,28.89-20.39,45.45-.78,4.53-1.27,9.19-1.44,13.98-.24,6.88.18,13.49,1.14,19.83,3.23,19.56,12.56,38.96,29.3,55.91,2.42,2.46,4.92,4.73,7.47,6.87,19.64,15.42,44.68,23.59,69.63,22.54,28.38-1.98,55.66-15.82,73.85-38.29.41-.51.81-1.02,1.21-1.54.24-.31.48-.62.72-.93.56-.74,1.1-1.48,1.64-2.23.08-.11.15-.21.23-.32.6-.85,1.19-1.7,1.75-2.56l.02-.04c3.46-5.22,6.34-10.65,8.69-16.21.13-.3.26-.61.38-.91.27-.65.52-1.31.78-1.96.17-.45.34-.9.51-1.36.21-.58.43-1.16.63-1.75.2-.59.4-1.18.59-1.77.16-.49.32-.98.48-1.47.32-1.04.63-2.1.92-3.16.12-.44.23-.89.34-1.33Z"/>
  <path class="cls-10" d="M1613.99,1292.82c6.31-28.9-.54-59.39-17.56-82.94-4.9-6.39-10.73-12.53-17.58-18.32-6.48-5.48-14.05-10.21-20.44-13.41-1.04-.49-2.09-.97-3.15-1.42-42.7-18.62-90.57-4.56-118.51,28.39-18.04,23.82-26.55,55.47-22.13,85.03,12.64,67.98,91.16,101.83,148.7,70.15,25.26-14.36,43.83-39.4,50.68-67.48Z"/>
  <path class="cls-10" d="M285.23,777.33c.16.08.33.17.49.24.18.08.36.16.54.24.09.04.18.08.27.12,7.48,3.09,15.66.79,21.02-3.8,6.56-5.85,9.65-15.56,4.94-24.34-14.76-22.36-79.68-38.54-141.68-21.85-20.65,5.91-40.16,14.91-56.03,26.81-22.66,17.49-33.89,38.64-37.64,58.5-2.31,15.99.19,33.91,9,53.64,4.23,6.15,9.4,10.33,14.88,11.76,7.31,1.05,15.04-2.19,19.69-7.94,4.88-6.4,3.29-14.43.98-23.56-4.4-9.43-5.42-18.5-3.85-26.97,1.11-11.81,7.61-24.41,27.12-37.14,10.45-7.27,22.92-12.84,35.72-16.2,11.47-3.54,24.04-5.02,36.38-5.1,30.09-.62,55.6,7.03,63.17,12.17,2.01,1.09,3.59,2.18,4.64,3.24.12.06.23.12.35.18Z"/>
  <path class="cls-10" d="M2028.86,811.78c28.34,3.36,45.41,23.48,46.02,46.48,1.12,13.88-3.34,27.86-13.36,37.29-2.78,2.89-5.53,5.48-8.3,7.88-1.28,1.14-2.63,2.26-4.04,3.37-.04.03-.08.06-.12.1-.33.26-.64.51-.97.77-.29.23-.59.45-.88.67-.32.25-.64.49-.97.73-.37.28-.75.55-1.12.83-8.05,5.9-16.71,10.92-27.22,16.93-.79.45-1.52.86-2.23,1.26-1.32.76-2.6,1.49-3.82,2.21-1.83,1.12-3.33,2.2-4.55,3.47-1.99,2.01-3.49,4.32-4.5,6.79-.06.15-.12.31-.18.46-.07.19-.14.37-.21.56-1.24,3.65-1.47,7.6-.61,11.36.08.35.18.71.28,1.06,0,0,0,.02,0,.03,1.39,4.72,4.55,9,9.49,11.79,6.33-2.41,10.45-3.43,13.4-3.8,2.13-.28,3.63-.21,4.89-.05,5,.56,6.5,2.22,26.85-10.81,48.39-30.81,64.29-72.05,57.89-107.47-.07-.36-.13-.72-.2-1.07-.07-.36-.14-.72-.22-1.08-3.97-18.8-14.16-35.93-29.25-48.8-.19-.17-.4-.33-.59-.49-.5-.42-1-.84-1.51-1.25-.7-.56-1.41-1.12-2.14-1.66-13.67,14.02-32.42,21.89-51.83,22.46Z"/>
  <path class="cls-10" d="M1980.27,796.46c-4.59-3.39-8.96-7.36-13.02-11.93-1.54-1.18-2.81-1.62-4-.95-.17.1-.39.24-.65.41-.69.49-1.14.97-1.51,1.64-.59,1.73-1.19,3.44-1.81,5.11-1.3,4.04-3.66,10.81-9.44,22.91.28.52.58,1.04.9,1.54.09.13.18.26.27.39.24.36.49.72.75,1.07.11.15.23.29.34.43.25.32.52.63.79.94.13.15.26.29.4.44.27.28.54.56.82.83.15.15.3.29.46.44.27.25.56.49.84.72.17.14.34.29.52.43.31.24.63.46.94.68.38.27.78.52,1.17.76.21.13.41.26.63.37.28.16.57.3.86.44.22.11.45.22.68.33.27.12.54.24.81.35.3.12.6.23.9.34.21.07.41.15.62.22,4.05,1.29,8.54,1.31,12.97-.4.1-.04.19-.09.29-.13,1.65-1.05,15.03-11.21,39.83-12.37.77-.05,1.54-.08,2.29-.11-4.67-.53-9.34-1.48-13.93-2.89-10.52-2.94-18.09-7.52-23.72-11.98Z"/>
  <path class="cls-6" d="M1967.1,1219.3c-.38,20.1-1.04,18.07-.41,17.96.02,0,.03-.02.05-.03.15-5.97.26-11.95.36-17.93Z"/>
  <path class="cls-6" d="M1967.1,1219.3c.05-2.53.09-5.39.13-8.67-.03,2.89-.08,5.78-.13,8.67Z"/>
  <path class="cls-4" d="M1292.87,148.37c-4.35,36.67-15.22,79.11-34.53,122.83-.07.16-.14.33-.22.49-.11.24-.22.49-.32.73-5.51,12.48-10.97,23.62-15.83,33.85-2.74,11.92-25.16,39.41-14.02,75.79,4.56,13.06,13.96,26.97,30.07,43.23,6.62,6.66,12.43,12.17,18.44,17.14,8.86,6.66,19.13,13.45,30.99,20.34,35.79,19.16,99.36,44.16,259.26,116.97,12.72,5.76,25.22,11.47,37.32,17.06,16.08,7.38,33,15.19,50.85,23.46,54.26,25.12,66.39,36.73,70.42,37.19,1.38-2.82,2.94-5.64,4.7-8.44,3.53-7.51,11.92-19.82,36.64-36.15-46.41-3.79-115.92-38.49-85.57-94.18,35.69-49.36,107.59-28.15,157.15-15.63-.48-1.12-.95-2.23-1.41-3.34-.15-.36-.29-.72-.44-1.08-.3-.74-.61-1.48-.9-2.22-.17-.43-.33-.85-.5-1.28-.26-.66-.52-1.32-.77-1.98-.17-.45-.33-.89-.5-1.34-.24-.63-.47-1.26-.7-1.89-.16-.45-.32-.89-.47-1.33-.22-.62-.44-1.24-.66-1.86-.15-.44-.3-.88-.45-1.31-.21-.61-.41-1.23-.61-1.84-.14-.43-.28-.86-.42-1.29-.2-.61-.39-1.22-.58-1.83-.13-.42-.25-.83-.38-1.25-.19-.61-.37-1.23-.55-1.84-.12-.4-.23-.8-.34-1.2-.18-.62-.35-1.24-.52-1.86-.1-.38-.2-.76-.3-1.13-.17-.64-.33-1.27-.49-1.9-.09-.35-.18-.7-.26-1.05-.16-.65-.32-1.3-.47-1.95-.07-.32-.15-.64-.22-.96-.15-.68-.3-1.35-.44-2.02-.06-.28-.12-.56-.18-.84-.15-.72-.29-1.44-.43-2.16-.04-.22-.09-.44-.13-.66-.15-.8-.29-1.6-.43-2.39-.02-.13-.05-.26-.07-.4-.96-5.66-1.52-11.05-1.73-16.17,0-.02,0-.04,0-.06-.03-.82-.06-1.64-.07-2.45,0-.06,0-.13,0-.19-.01-.77-.02-1.53-.01-2.28,0-.09,0-.17,0-.26,0-.73.02-1.46.04-2.18,0-.09,0-.19,0-.28.02-.71.05-1.41.09-2.11,0-.1.01-.2.02-.3.04-.69.08-1.38.14-2.06,0-.09.01-.19.02-.28.05-.69.12-1.37.19-2.04,0-.08.02-.16.03-.25.07-.69.15-1.37.24-2.05,0-.06.02-.13.02-.19.09-.7.19-1.39.3-2.07,0-.04.01-.08.02-.12.11-.72.23-1.43.36-2.14,0,0,0,0,0,0,1.06-5.75,2.67-11,4.75-15.73,0,0,0,0,0,0,.25-.57.51-1.14.78-1.7.02-.05.05-.1.08-.15.24-.51.49-1.01.75-1.51.04-.08.08-.16.13-.24.24-.46.49-.92.74-1.38.06-.1.11-.2.17-.3.24-.43.49-.85.74-1.27.07-.11.14-.22.2-.34.24-.4.49-.8.74-1.19.08-.12.15-.24.23-.36.25-.38.5-.75.75-1.12.08-.12.17-.24.25-.37.25-.36.51-.72.77-1.07.09-.12.18-.24.27-.36.26-.35.52-.69.79-1.02.09-.12.19-.24.28-.36.27-.33.54-.66.82-.99.1-.11.19-.23.29-.34.28-.33.56-.64.85-.96.1-.11.19-.22.29-.32.3-.33.6-.64.91-.96.09-.09.17-.18.26-.27.34-.35.69-.69,1.04-1.02.05-.05.11-.11.16-.16.82-.77,1.65-1.52,2.51-2.23.11-.09.22-.18.33-.27.31-.26.63-.51.95-.76.17-.13.35-.26.52-.39.26-.2.52-.39.79-.58.2-.14.4-.28.6-.42.24-.17.48-.34.73-.5.22-.15.44-.29.66-.43.23-.15.46-.3.7-.45.23-.14.47-.28.7-.42.23-.14.46-.27.69-.41.24-.14.48-.27.73-.41.23-.13.45-.25.68-.37.25-.13.5-.26.75-.39.23-.12.46-.23.68-.34.26-.13.51-.25.77-.37.23-.11.46-.21.69-.32.26-.12.52-.23.79-.35.23-.1.46-.2.7-.29.27-.11.53-.22.8-.32.09-.03.17-.07.26-.11-51.08-78.71-154.03-184.98-280.94-267.91-73.09-45.1-156.65-73.96-240.24-91.94-27.46-6.42-57.95,17.06-54.35,27.82,2.33,3.76,4.4,8.26,6.17,13.43,9.22,24.96,9.29,57.07,4.95,89.22Z"/>
  <path class="cls-4" d="M1830.4,743.25c.12-.5.23-.99.35-1.49.22-.91.45-1.84.7-2.78-.99.44-1.97.87-2.95,1.28-.05.02-.1.04-.16.06-6.93,2.93-13.62,5.18-20.06,6.81,7.94,14.43,12.28,24.45,14.64,30.34.76,1.8,1.5,3.6,2.23,5.41.2-11.86,1.79-24.79,5.01-38.65.08-.33.15-.66.23-.99Z"/>
  <path class="cls-4" d="M342.4,685.63c16.69,11.63,43.5,8.54,71.24-1.57,19.09-7.17,38.68-17.63,55.92-28.52,1.29-.84,2.56-1.69,3.82-2.54,1.95-1.22,3.86-2.46,5.76-3.71,4.19-2.83,8.19-5.64,11.95-8.4,36.29-26.49,63.95-57.15,93.44-87.82,69.14-72.5,148.85-145.5,380.51-163.06,27.67-3.1,59.44-.33,90.34-.12,17.93-.08,35.8-.97,51.98-3.88,18.85-3.75,36.03-10.84,50.03-23.77.23-.21,1.07-1,2.15-2.02,3.53-4.29,6.44-9.16,8.6-14.73.93-1.83,3.55-5.47,7.34-10.85,7.6-11.65,19.27-28.14,31.51-50.78,14.21-26.74,29.2-61.67,39.14-104.2.37-1.59.74-3.2,1.1-4.82,17.44-98.69-3.13-99.23-3.17-112.31-.02-.04-.04-.09-.06-.13-135.23-193.12-917.94,78.08-917.94,593.44.1.67.22,1.32.33,1.97.67,1.46.73,3.73,2.11,8.18,3.1,8.84,7.88,15.24,13.9,19.64Z"/>
  <path class="cls-7" d="M1480,869.68c-31.06,0-57.8,23.21-58.88,55.04-1.05,30.26,23.98,58.88,55.04,58.88s57.8-23.21,58.88-55.04c1.05-30.26-23.98-58.88-55.04-58.88ZM1479.09,950.25c-20.23,0-25.17-20.12-17.62-32.06,3.18-5.04,8.59-8.63,16.02-8.63,11.34,0,17.87,6.33,20.09,13.99,3.43,11.77-3.32,26.71-18.49,26.71Z"/>
  <path class="cls-7" d="M723.78,1001.68c31.06,0,57.8-23.21,58.88-55.04,1.05-30.26-23.98-58.88-55.04-58.88s-57.8,23.21-58.88,55.04c-1.05,30.26,23.98,58.88,55.04,58.88ZM712.66,937.93c2.97-2.16,6.72-3.47,11.22-3.47,23.97,0,26.47,28.26,12.17,37.68-2.86,1.88-6.39,3.02-10.56,3.02-23.59,0-26.39-27.38-12.82-37.22Z"/>
  <path class="cls-4" d="M725.48,975.16c4.17,0,7.7-1.14,10.56-3.02,14.3-9.42,11.79-37.68-12.17-37.68-4.49,0-8.25,1.32-11.22,3.47-13.56,9.84-10.75,37.22,12.82,37.22Z"/>
  <path class="cls-4" d="M1477.48,909.56c-7.43,0-12.84,3.59-16.02,8.63-7.54,11.95-2.59,32.06,17.62,32.06,15.17,0,21.92-14.93,18.49-26.71-2.23-7.66-8.77-13.99-20.09-13.99Z"/>
  <path class="cls-4" d="M832.02,1493.79c-.35-6.2-3.84-11.82-8.73-15.45-17.13-11.99-35.2,4.87-31.84,20.62,2.53,8.6,10.79,15.88,19.63,16.56,11.27.2,21.24-10.5,20.94-21.72Z"/>
  <path class="cls-8" d="M348.9,1290.56c2.06-23.96-4.47-48.25-20.49-63.53-1.42-1.28-2.92-2.53-4.52-3.74-1.03-.86-2.09-1.65-3.18-2.41-4.39-2.9-9.31-5.23-14.76-6.88,0-.06,0-.13,0-.2-18.94-5.7-41.49-1.82-58.74,7.71,1.61-58.84,2.99-129.31,3.79-179.15,0,0-.01,0-.02,0,0-17.04.04-25.04.45-28.92.01-.97.03-1.94.04-2.88,0-1.49,6.4-3.08,13.7-8.31,6.41-6.04,13.68-15.32,17.67-24.95,2.01-6.36,3.25-14.03,3.25-23.32-1.26-19.27-12.83-36.16-28.77-45.6-.12-.07-.24-.14-.37-.21-.15-.09-.31-.17-.46-.26-20.81-11.54-48.58-10.42-69.88,12.08v.04s-.01.01-.02.02c-.24,1.01-8.43,9.33-10.97,18.58-1.02,2.56-1.8,5.09-2.37,7.58-1.89,9.9-.81,19.7,1.69,28.28,5.59,16.65,17.35,27.88,18.73,27.88.73.59,1.5,1.15,2.27,1.71v.04c5.71,0,9.46.92,11.79,6.43,4.01.76,2.74-1.02,2.7,14.68,1.9,25.97-1.39,83.4-4.33,209.73-59.92-61.27-170.15-29.17-132.04,69.98,15.67,38.3,71.42,112.18,72.18,112.98,23.09,34.39,29.65,57.12,53.3,58.64,31.47,2.98,116.13-100.96,132.6-131.52,0-.06.29-.65.78-1.69.58-2.84,1.8-4.81,3.38-7.42,4.26-9.9,10.54-26.81,12.6-45.37Z"/>
  <path class="cls-8" d="M1969.2,1064.6c1.23-1.34,3.25-1.85,6.56-3.84,1.19-.77,2.39-1.58,3.5-2.4,1.37-1.03,2.66-2.09,3.89-3.18.86-.78,1.76-1.63,2.71-2.58,4.17-4.38,7.48-9.09,10.02-13.98,4.24-8.45,5.95-17.12,6.35-24.46.18-6.39-.72-12.71-2.62-18.72-.01,0-.02,0-.03,0-1.14-3.43-2.46-6.58-3.93-9.49-5.16-9.77-13.16-18.09-23.5-23.5-4.04-2.01-8.13-3.53-12.23-4.62-12.03-2.7-24.59-1.58-35.04,1.45-9.46,3.51-17.84,9.57-24.23,17.77,0,.07-.01.14-.01.2-.28.28-.54.57-.81.86-4.62,6.23-8.1,13.63-10.07,22.04-1.27,6.58-1.53,13.74-.56,20.83,1.83,12.09,6.97,21.61,12.46,28.45,5.13,5.92,13.36,12.09,25.25,16.9,1.24.61.9,6.79-.5,16.48.39,43.57-4.26,156.04-4.84,165.09-10.34-5.24-21.02-8.71-31.69-9.96-.07.06-.13.09-.18.09-8.41-1.06-16.15-.46-22.79.87-9.22,1.96-18.19,5.93-26.67,12.23-7.34,5.84-12.61,12.38-16.3,19.35-6.26,12.47-8,27.28-6.88,43.1,1.69,17.21,7,33.8,10.48,46.4,1.95,8.2,5,18.32,8.97,29.49,2.17,5.8,4.37,11.45,6.52,16.9.22.63.83.26.67,1.92,21.04,51.62,57.09,113.92,93.36,118.46,32.91,5.76,45.23-29.95,58.25-52.98,24.12-47.89,55.25-93.75,67.05-146.7,19.89-80.59-34-125.55-95.62-89.83-.02,0-.03.02-.05.03-1.29.75-2.58,1.52-3.87,2.33,8.4-151.21,1.9-169.5,6.22-174.8-1.19.65-1.4.7.16-.18Z"/>
  <path class="cls-3" d="M1963.26,783.57c1.11-.68.62-.25,2.21-1.12-1.68-2.01-2.15-2.83-2.58-2.15-.34.53-.65,1.97-1.5,4.46.5-.33.9-.58,1.22-.79.26-.17.48-.3.65-.41Z"/>
  <path class="cls-2" d="M169.62,770.44c.36-.14.73-.26,1.09-.39"/>
  <path class="cls-3" d="M1969.04,1064.79c.87-.47,2.25-1.25,3.84-2.21-1.71.93-2.91,1.59-3.68,2.03-1.56.89-1.35.83-.16.18Z"/>
  <path class="cls-3" d="M1843.04,1406.35c-2.15-5.45-4.35-11.1-6.52-16.9-9.15-24.43-17.72-51.37-19.45-75.89-1.12-15.82.62-30.63,6.88-43.1,4.31-8.59,10.77-16.08,19.94-22.01.55-1.1,9.5-6.86,23.03-9.57,6.64-1.33,14.39-1.93,22.79-.87.05,0,.12-.03.18-.09,3.99-3.41,30.41-112.77,36.53-155.12,1.4-9.69,1.74-15.87.5-16.48-11.89-4.81-20.13-10.98-25.25-16.9-1.55-1.79-2.83-3.56-3.82-5.26-4.77-6.99-7.52-15.04-8.64-23.18-.98-7.09-.71-14.24.56-20.83,1.72-8.94,5.28-16.81,10.07-22.04.27-.29.53-.59.81-.86,0-.07.01-.14.01-.2.21-6.33,10.35-13.74,24.23-17.77,10.45-3.04,23.01-4.15,35.04-1.45,14.05,3.15,27.36,11.52,35.73,28.12,1.47,2.91,2.79,6.06,3.93,9.49.01,0,.02,0,.03,0,1.05.17,3.21,8.02,2.62,18.72-.41,7.34-2.11,16.01-6.35,24.46-2.91,5.8-7.02,11.49-12.73,16.57-1.22,1.09-2.51,2.15-3.89,3.18-1.11.82-2.31,1.63-3.5,2.4-.99.64-1.97,1.25-2.89,1.81,5.45-2.96,16.17-8.64,35.22-18.38,16.26-9.29,32.04-19.58,46.77-31.24,141.32-52.08,221.32-208.66,74.14-311.76-9.6-7.91-22.76-13.76-38.17-17.8,20.09,47.36,11.15,84.09-10.13,105.91.72.55,1.43,1.1,2.14,1.66.51.41,1.01.83,1.51,1.25.2.16.4.32.59.49,15.09,12.86,25.28,30,29.25,48.8.08.36.15.72.22,1.08.07.36.14.72.2,1.07,6.29,34.09-7.77,73.27-49.97,102.35-28.66,19.08-29.19,16.64-34.77,15.94-1.25-.16-2.75-.23-4.89.05-2.94.38-7.08,1.43-13.4,3.83-5.02-2.84-8.13-7.13-9.49-11.83,0,0,0-.02,0-.03-.1-.35-.2-.7-.28-1.06-.86-3.76-.64-7.71.61-11.36.06-.19.14-.37.21-.56.06-.15.11-.31.18-.46,1.66-4.14,4.65-7.8,8.89-10.17.05-.03.11-.06.16-.09,1.22-.72,2.5-1.46,3.82-2.21,8.98-5.15,19.92-11.22,29.45-18.19.38-.27.75-.55,1.12-.83.33-.24.65-.49.97-.73.29-.22.59-.44.88-.67.33-.25.65-.51.97-.77.04-.03.08-.06.12-.1,1.4-1.1,2.75-2.22,4.04-3.37,15.34-13.66,22.07-30.04,21.66-45.17-.62-23-17.69-43.12-46.02-46.48-3.63.11-7.29-.04-10.94-.45-.76.02-1.52.06-2.29.11-5.66.34-11.64,1.26-17.94,2.89-14.23,3.63-17.46,7.42-21.89,9.48-.1.04-.19.09-.29.13-1.47.65-3.09,1.11-5.29,1.31-2.57.23-5.18-.1-7.67-.91-.21-.07-.42-.14-.62-.22-.3-.11-.6-.22-.9-.34-.27-.11-.54-.23-.81-.35-.23-.1-.45-.21-.68-.33-.29-.14-.58-.29-.86-.44-.21-.12-.42-.25-.63-.37-.4-.24-.79-.49-1.17-.76-.32-.22-.64-.44-.94-.68-.18-.14-.34-.28-.52-.43-.29-.23-.57-.47-.84-.72-.16-.14-.31-.29-.46-.44-.28-.27-.55-.54-.82-.83-.13-.14-.27-.29-.4-.44-.27-.3-.53-.62-.79-.94-.11-.14-.23-.28-.34-.43-.26-.35-.51-.71-.75-1.07-.09-.13-.18-.26-.27-.39-.32-.5-.62-1.01-.9-1.54-15.8,33.09-38.74,50.54-60.64,53.55-6.62.97-13.1.55-19.25-1.17-.23-.06-.46-.14-.69-.2-.29-.08-.57-.17-.86-.26-15.11-4.69-28.15-17.16-35.76-36.95-5.02-12.6-7.8-27.97-7.5-45.72-.73-1.81-1.47-3.61-2.23-5.41-4.38-10.38-9.24-20.52-14.64-30.34-18.3,4.62-34.5,4.22-47.97.15-.05-.01-.09-.03-.14-.04-.73-.22-1.45-.45-2.17-.7-.16-.06-.32-.11-.49-.17-.51-.18-1.01-.36-1.51-.55-.25-.09-.49-.19-.74-.28-.49-.19-.98-.39-1.46-.59-.36-.15-.72-.31-1.08-.47-.37-.16-.74-.33-1.11-.5-.31-.15-.63-.29-.94-.44-.31-.15-.61-.3-.92-.45-.39-.19-.77-.39-1.15-.59-.43-.23-.86-.46-1.29-.7-.29-.16-.57-.33-.86-.49-.31-.18-.62-.36-.93-.55-.26-.16-.52-.32-.78-.48-.52-.33-1.04-.66-1.55-1-.15-.1-.29-.2-.44-.3-.44-.3-.87-.6-1.3-.91-.14-.1-.29-.21-.43-.31-23.09-16.98-30.85-48.53-16.17-79.48-21.03-14-66.87-36.53-120.87-61.49-12.09-5.59-24.59-11.3-37.32-17.06-109.2-49.45-234.76-102.78-258.53-116.54-.25-.14-.48-.28-.73-.43-11.86-6.89-22.13-13.68-30.99-20.34-28.99-21.79-42.95-42.19-48.51-60.37-11.14-36.37,11.29-63.86,14.02-75.79.18-.76.27-1.46.27-2.1,5.69-10.61,10.87-21.22,15.56-31.75.11-.24.22-.49.32-.73.07-.16.14-.33.22-.49,19.31-43.72,30.18-86.16,34.53-122.83,4.42-37.28,2.1-68.59-4.95-89.22-1.77-5.18-3.84-9.68-6.17-13.43-8.56-13.78-20.7-17.53-34.86-7.54-8.01,8.15-6.81,15.65-2.88,24.21.02.04.04.09.06.13,1.5,3.24,3.38,6.64,5.3,10.29,9.98,32.92,3.86,68.1-2.13,102.02-.36,1.62-.72,3.22-1.1,4.82-9.94,42.54-24.92,77.47-39.14,104.2-12.37,23.27-24.15,40.32-31.51,50.78-3.79,5.38-6.42,9.02-7.34,10.85-2.16,5.57-5.07,10.45-8.6,14.73-11.74,14.27-30.43,21.88-52.18,25.79-16.19,2.92-34.05,3.8-51.98,3.88-33.38.15-66.98-2.46-90.34.16-230.28,17.46-310.56,90.28-380.51,163.03-29.49,30.67-57.15,61.33-93.44,87.82-3.76,2.76-7.76,5.58-11.95,8.4-3.09,2.09-6.29,4.17-9.58,6.25-17.24,10.89-36.83,21.35-55.92,28.52-27.74,10.42-54.41,13.86-71.24,1.57-6.03-4.4-10.8-10.81-13.9-19.64-1.38-4.46-1.44-6.72-2.11-8.18-1.03-2.24-3.49-2.57-14.4-5.95-273.03-78.91-408.92,167.12-233.22,291.48,57.93,50.27,131.65,83.83,131.65,82.61,0-.25,0-.49,0-.73.04-15.7,1.31-13.93-2.7-14.68-2.38-.45-6.61-1.79-14.05-8.18-4.36,0-14.04-11.78-18.73-27.88-2.5-8.57-3.58-18.37-1.69-28.28,1.55-8.11,5.09-16.28,11.48-23.91t0-.04c.19-.22,1.23-1.48,1.64-1.99h.04c.03-.06.1-.15.19-.22,0,0,.01-.01.02-.02v-.04c21.3-22.5,49.08-23.61,69.88-12.08.15.09.31.17.46.26.12.07.24.14.37.21,15.84,9.12,27.46,25.63,28.77,45.6,0,6.3-.5,3.63,1.96,8.1,0,10.2-.81,6.99-1.68,5.65.12-1.18.18-9.76-.49-3.91,0,4.36-1.16,8.96-3.04,13.48-4,9.62-11.27,18.9-17.67,24.95-4.52,4.26-8.61,6.92-10.81,6.92-1.65.68-2.5.12-2.94,4.27-.41,3.88-.45,11.89-.45,28.92,0,0,.01,0,.02,0,42.24,15.37,35.72,8.57,36.25,16.96,8.8,104.72,18.5,148,18.7,154.49,0,.07,0,.14,0,.2,5.45,1.65,10.37,3.98,14.76,6.88,2.78,1.83,5.33,3.9,7.7,6.15,16.01,15.28,22.55,39.57,20.49,63.53-.23,2.73-.57,5.45-1.02,8.15-3.62,23.83-8.34,31.87-11.58,37.21-1.58,2.61-2.8,4.57-3.38,7.42-1.72,8.48,2.32,24.77,20.02,89.12,66.18,240.43,196.72,511.03,398.56,646.76,80.66,63.09,177.19,92.43,250.22,92.43,210.53,0,580.52-198.38,759.6-561.11.35-.8,64.68-133.17,64.68-148.93,14.23-39.49,17.39-50.14,17.7-53.33.16-1.66-.45-1.3-.67-1.92ZM280.24,773.92c-7.56-5.14-33.08-12.79-63.17-12.17-14.3.29-29.63,2.46-44.56,7.65.97-.34,1.93-.67,2.89-.98-.97.32-1.94.65-2.92.99-.59.21-1.19.42-1.78.64-3.77,1.38-7.5,2.94-11.19,4.73-5.52,2.76-10.33,5.52-14.56,8.28-19.5,12.73-26,25.33-27.12,37.14-.91,9.64,1.76,18.76,3.85,26.97,2.32,9.13,3.9,17.16-.98,23.56-.27.35-.56.7-.87,1.05-6.06,6.59-12.64,8.5-18.83,6.89-5.48-1.42-10.65-5.61-14.88-11.76-8.4-12.21-13.06-32.18-9-53.64,3.76-19.86,14.99-41.01,37.64-58.5,9.46-7.3,20.9-13.97,34.63-19.63,7.04-2.87,14.2-5.24,21.4-7.18,62-16.69,126.92-.5,141.68,21.85,4.99,7.56,4.25,15.82-4.27,23.76-.21.2-.44.4-.66.59-5.37,4.59-13.54,6.89-21.02,3.8-.09-.04-.18-.08-.27-.12-.18-.08-.36-.16-.54-.24-.16-.08-.33-.16-.49-.24-.12-.06-.23-.12-.35-.18-1.24-.66-2.45-1.47-3.62-2.46-.29-.25-.63-.51-1.02-.77ZM985.64,1276.04c4.27-24.83,40.64-21.52,40.46,3.6-.35,40.77-8.39,139.23,44.83,147.28,23.83-2.97,35.16-29.89,43.57-49.48.4-1.07.78-2.15,1.16-3.22,17.31-49.38,16.89-108.99,13.65-173.46-2.25-30.55-5.16-61.08-6-91.24-.05-11.05.04-21.95.27-32.69-1.15-75.53,5.49-152.94,39.94-225,.7-1.43,1.41-2.84,2.12-4.25,26.83-60.07,68.5-107.69,130.68-140.16,33.57-17.88,71.97-30.15,116.2-38.32,23.36-1.8,82.16-22.71,83.94,13.82-.28,10.78-9.81,20.56-20.87,19.83-15.26-.31-32.08,2.72-44.81,4.36-255.08,45.54-269.5,239.98-264.61,420.32,2.95,97.85,11.35,191.78-10.68,256.07-13.31,42.45-48.29,94.54-99.3,82.23-77.93-23.03-72.23-124.07-70.55-189.7ZM642.78,660.22c121.74-4.13,173.95,8.3,292.32,74.62,11.4,7.54,28.58,12.73,30.54,28.23,2.15,18.04-20.7,29.85-33.92,17.2-1.98-1.19-3.95-2.36-5.9-3.51-1.92-1.14-3.82-2.26-5.71-3.37-.02-.01-.04-.02-.06-.04-118.24-69.43-166.79-75.53-278.32-72.44-26.45-.77-25.85-40.93,1.04-40.7ZM486.37,966.13s0,0,0,0c-13.52,0-29.61-1.55-44.5-3.64-15.1-2.11-28.95-4.77-37.59-6.89-3.96-.97-6.83-1.84-8.21-2.49-6.04-2.75-9.49-7.74-10.66-13.24-.93-4.37-.42-9.05,1.36-13.2.07-.17.15-.34.23-.5.06-.12.12-.24.18-.37,2.37-4.9,6.57-8.93,12.35-10.56.48-.14.97-.26,1.47-.36,5.33-.88,12.55,1.05,23.91,3.43,13.82,2.89,33.79,6.45,64.08,6.45,0-1.63,5.79-13.03,12.85-22.2,0,0,.01-.01.02-.02.24-.31.48-.61.71-.92-.56,0-4.81-2.09-9.83-4.85-3.33-1.83-7-3.95-10.18-5.95-4.48-2.82-7.97-5.4-8.14-6.59,0-.03-.02-.06-.02-.09-7.06-8.07-7.1-17.57-2.82-24.38,1.96-3.11,4.81-5.67,8.32-7.26,4.51-2.05,10.09-2.54,16.21-.6,4.23,1.39,8.61,3.69,12.97,6.24.16.09.32.19.47.28.35.21.7.41,1.04.62,2.38,1.43,4.75,2.91,7.08,4.36,3.96,2.46,7.81,4.77,11.41,6.47.35.16.7.34,1.05.49.6.31,1.12.6,1.57.85,1.55.86,2.33,1.34,3.11,1.32.24,0,.48-.06.74-.16.64-.25,1.41-.77,2.64-1.63,3.08-2.14,9.02-6.33,22.79-13.22,20.19-10.24,40.42-17.89,60.38-23.3.65-.18,1.31-.35,1.96-.52.77-.2,1.53-.41,2.3-.61,31.58-8.07,62.45-10.55,91.43-8.72.18.01.35.02.53.04,1.01.07,2.01.14,3.01.22,99.27,7.54,175.52,65.63,180.39,122.02,2.75,31.82-17.23,63.1-68.64,84.44-1.49.62-3.01,1.23-4.56,1.84-23.43,9.07-51.97,15.53-82.47,19.05-51.96,6-109.65,3.48-157.6-9.15-46.78-12.33-84.28-34.29-98.15-67.36-1.26-3.01-2.34-6.11-3.2-9.31ZM750.62,1317.38c-.19.59-.39,1.18-.59,1.77-.2.58-.41,1.17-.63,1.75-.17.45-.34.91-.51,1.36-.25.66-.51,1.31-.78,1.96-.13.31-.26.61-.38.91-2.34,5.56-5.23,10.98-8.69,16.21l-.02.04c-.57.86-1.15,1.71-1.75,2.56-.07.11-.15.21-.23.32-.53.75-1.08,1.49-1.64,2.23-.24.31-.48.62-.72.93-.4.51-.8,1.03-1.21,1.54-2.19,2.72-4.54,5.37-7.07,7.94-18.9,19.82-42.79,29.34-66.78,30.35-24.94,1.05-49.98-7.11-69.63-22.54-18.87-14.82-32.75-36.33-36.76-62.78-.96-6.34-1.38-12.95-1.14-19.83.17-4.79.66-9.45,1.44-13.98,2.98-17.36,10.24-32.73,20.39-45.45,17.04-21.36,42.22-35.24,68.89-38.53.48-.06.97-.11,1.45-.16,0,0,.01,0,.02,0,9.05-.98,18.25-.74,27.36.84,7.54,1.31,15.01,3.52,22.27,6.74,4.89,2.13,9.53,4.6,13.91,7.38,19.63,12.48,33.86,31.08,41.44,52.02,6.06,16.73,7.86,34.94,4.78,52.7-.02.1-.03.19-.05.29-.13.76-.28,1.51-.43,2.27-.09.47-.19.94-.3,1.41-.13.6-.26,1.2-.4,1.8-.16.67-.33,1.33-.5,2-.11.44-.22.89-.34,1.33-.29,1.06-.59,2.11-.92,3.16-.15.49-.32.98-.48,1.47ZM826.26,1508.73c-4.55,5.29-9.97,7.19-15.19,6.79-8.84-.68-17.1-7.96-19.63-16.56-2.16-7.35-.13-15.67,9.34-21.64,7.34-5.09,16.12-3.72,22.5,1.02,4.9,3.64,8.38,9.25,8.73,15.45.27,4.85-1.37,10.05-5.76,14.94ZM1338.26,1641.11c0,.1,0,.2,0,.29-.08,4.79-1.83,9.57-5.89,13.4-.19.17-.4.35-.63.53-2,1.57-5.57,3.34-10.19,5.22-9.43,3.83-23.19,8.1-36.74,11.93-9.62,2.72-19.13,5.21-26.91,7.17-7.19,1.81-12.9,3.17-15.83,3.81-17.13,99.95-73.05,148.08-134.47,159.13-52.14,9.39-108.24-7.94-147.97-42.96-34.46-30.38-56.61-74.08-53.13-125.21-14.34-5.32-28.28-11.67-41.62-19.15-6.63-3.72-13.12-7.72-19.42-12.02-.09-.06-.18-.13-.27-.19-7.54-5.18-9.91-12.54-8.84-19.38,1.65-10.59,11.54-19.89,23.24-17.82,2.51.45,5.11,1.41,7.72,3.01,1.35.92,2.74,1.83,4.14,2.73,18.93,12.16,41.32,22.4,42.07,22.03.01,0,.04,0,.04-.02,0,0,0,0,0-.01,2.17-7.62,4.72-14.74,7.59-21.38,6.24-14.46,14.02-26.59,22.81-36.39,11.81-13.15,25.46-22.08,39.72-26.72.85-.28,1.71-.54,2.56-.79.01,0,.02,0,.04-.01,29.94-8.61,62.21,1.5,85.58,30.85,2.77,3.47,5.4,7.22,7.9,11.23.53.85,1.05,1.69,1.57,2.56.51-.91,1.03-1.81,1.54-2.69,4.9-8.37,10.1-15.63,15.53-21.88,17.28-19.87,36.86-29.41,56.22-31.27,23.58-2.27,46.83,6.85,65.22,22.61,22.2,19.02,37.31,47.7,37.33,77.66,0,.01,0,.03,0,.04.02,0,.04,0,.05-.01,7.16-1.86,13.4-3.57,18.86-5.15,11.51-3.31,19.57-5.99,25.51-8,3.25-1.1,5.87-2,8.08-2.71,2.53-.81,4.52-1.35,6.29-1.62,1.99-.3,3.71-.26,5.63.12.33.06.66.14.99.22.17.03.34.07.51.1,4.49.87,8.48,3.93,11.24,8.05,2.34,3.49,3.79,7.73,3.92,12.02,0,.22,0,.43,0,.65ZM1563.32,1360.3c-57.54,31.68-136.06-2.17-148.7-70.15-1.36-7.33-1.98-15.04-1.7-23.13.85-24.22,9.85-45.42,23.82-61.91,27.94-32.95,75.81-47.01,118.51-28.39,1.06.46,2.11.93,3.15,1.42,15.56,7.33,28.41,18.43,38.03,31.73,17.02,23.55,23.87,54.05,17.56,82.94-3.84,17.56-12.53,34.54-26.77,49-7.32,7.67-15.39,13.79-23.91,18.48ZM1772.46,958.09h0c-6.58,3.95-15.46,5.95-24.39,7.6-8.85,1.63-17.75,2.93-24.53,5.46-6.65.9-13.47,2.78-20.46,4.46-7.18,1.72-14.55,3.22-22.12,3.22h0c-14.9,21.45-47.27,35.85-87.19,44.01-35.55,7.27-77.09,9.59-117.59,7.55-64.19-3.24-125.77-17.46-156.82-40.35-6.76-4.99-12.49-10.46-17.16-16.29-.12-.15-.24-.29-.35-.44-.4-.5-.78-1.01-1.16-1.52-.33-.45-.67-.89-.99-1.34-.11-.15-.21-.31-.32-.46-20.58-29.16-15.65-66.21,18.82-96.91,22.51-20.04,57.6-37.36,106.4-48,18.78-4.06,36.49-6.18,52.86-6.95,21.74-1.02,41.12.35,57.55,2.71,11.77,1.7,22.03,3.9,30.54,6.12,12.41,3.23,21.12,6.46,25.47,8.12,1.89.73,2.97,1.16,3.14,1.16,1.67-2.86,4.89-5.51,9.15-8.32,6.21-4.1,14.61-8.55,23.62-14.48,7.19-4.73,14.76-10.4,21.9-17.61,1.12-.96,2.22-1.94,3.3-2.92,7.47-6.82,13.85-13.83,20.5-17.51,1.97-1.09,3.96-1.87,6.02-2.28,3.08-.61,6.29-.35,9.75,1.07.08.03.15.06.23.09.07.03.14.06.21.09.97.42,1.95.93,2.96,1.55.98.61,1.88,1.23,2.71,1.85,7.34,5.49,9.07,11.4,7.7,17.23-2.56,10.87-15.87,21.46-23.64,28.51-4.34,3.87-8.37,7.47-12.33,10.92-7,6.07-13.84,11.63-21.97,17.23-.36.25-.73.5-1.1.75-2.21,1.5-4.51,3-6.94,4.51-.22.14-.44.28-.66.42.33.22.65.43.98.64,1.76,1.16,3.4,2.27,4.92,3.32,4.05,2.81,7.26,5.25,9.83,7.35,2.09,1.7,3.76,3.18,5.11,4.45,3.86,3.62,5.16,5.53,6.35,6.05,1.5.67,2.84-.87,9-3.91.89-.43,1.76-.85,2.61-1.27,12.29-6.04,20.51-11.22,26.86-14.66,7.77-4.21,12.76-5.83,19.01-3.27,4.16-2.14,14.89,9.39,13.97,21.51-.36,4.69-2.46,9.47-7.36,13.58-.76.64-1.59,1.27-2.49,1.87-.58.34-1.13.65-1.7.98-5.73,3.3-10.62,6-14.75,8.22-15.29,8.21-20.43,9.9-21.26,11.51-.43.84.29,1.66,1.35,3.36,1.72,2.75,4.31,7.8,4.32,18.96,0,.02,0,.05,0,.07,2.99,0,11.63-1.99,22.04-4.53,9.16-2.24,19.68-4.9,28.92-7.02,10.69-2.45,19.66-4.16,22.83-3.63,4.08.78,7.48,2.57,10.11,4.98.04.04.08.07.12.11,4.86,4.52,7.11,11.18,6.29,17.48-.5,3.89-2.17,7.66-5.11,10.69-1.45,1.49-3.14,2.78-5.02,3.91Z"/>
  <path class="cls-3" d="M169.62,770.44c-.49.19-.97.34-1.46.53,0,0,.4-.12,1.46-.53Z"/>
  <path class="cls-3" d="M175.4,768.42c1.77-.58,3.54-1.11,5.28-1.57-1.75.46-3.51.99-5.28,1.57Z"/>
  <path class="cls-4" d="M1056.19,1465.74c51.01,12.3,85.99-39.79,99.3-82.23,21.76-63.52,13.35-157.7,10.68-256.07-4.89-180.34,9.53-374.78,264.61-420.32,12.73-1.64,29.55-4.68,44.81-4.36,11.06.73,20.59-9.04,20.87-19.83-1.79-36.53-60.59-15.62-83.94-13.82-44.22,8.16-82.63,20.44-116.2,38.32-55.17,29.38-97.28,73.9-130.68,140.16-.71,1.41-1.42,2.82-2.12,4.25-34.45,72.06-41.09,149.47-39.94,225,.64,42.32,3.72,84.05,5.73,123.93,3.24,64.47,3.66,124.08-13.65,173.46-.38,1.08-.76,2.15-1.16,3.22-8.41,19.59-19.74,46.5-43.57,49.48-53.22-8.04-45.18-106.5-44.83-147.28.18-25.11-36.19-28.42-40.46-3.6-1.68,65.63-7.37,166.67,70.55,189.7Z"/>
  <path class="cls-4" d="M641.74,700.92c111.37-3.08,159.71,2.8,278.32,72.44.02.01.04.02.06.04,1.89,1.11,3.79,2.23,5.71,3.37,1.95,1.15,3.91,2.33,5.9,3.51,13.22,12.65,36.07.84,33.92-17.2-1.96-15.5-19.14-20.69-30.54-28.23-118.25-66.26-170.77-78.75-292.32-74.62-26.89-.23-27.5,39.93-1.04,40.7Z"/>
  <path class="cls-6" d="M1855.52,378.46c-.26.11-.53.23-.79.35-.23.1-.46.21-.69.32-.26.12-.51.24-.77.37-.23.11-.46.23-.68.34-.25.13-.5.26-.75.39-.23.12-.46.25-.68.37-.24.13-.49.27-.73.41-.23.13-.46.27-.69.41-.23.14-.47.28-.7.42-.23.15-.47.3-.7.45-.22.14-.44.28-.66.43-.24.16-.49.33-.73.5-.2.14-.4.28-.6.42-.26.19-.53.39-.79.58-.17.13-.35.26-.52.39-.32.25-.63.5-.95.76-.11.09-.22.18-.33.27-.86.71-1.69,1.45-2.51,2.23-.05.05-.11.1-.16.16-.35.34-.7.68-1.04,1.02-.09.09-.17.18-.26.27-.31.32-.61.63-.91.96-.1.11-.19.22-.29.32-.29.32-.57.64-.85.96-.1.11-.19.23-.29.34-.27.33-.55.65-.82.99-.1.12-.19.24-.28.36-.27.34-.53.68-.79,1.02-.09.12-.18.24-.27.36-.26.35-.52.71-.77,1.07-.08.12-.17.24-.25.37-.25.37-.5.74-.75,1.12-.08.12-.16.24-.23.36-.25.39-.5.79-.74,1.19-.07.11-.14.22-.2.34-.25.42-.49.84-.74,1.27-.06.1-.11.2-.17.3-.25.45-.5.91-.74,1.38-.04.08-.08.16-.13.24-.26.5-.5,1-.75,1.51-.02.05-.05.1-.08.15-.27.56-.53,1.12-.78,1.7,0,0,0,0,0,0-2.08,4.73-3.69,9.98-4.75,15.73,0,0,0,0,0,0-.13.71-.25,1.42-.36,2.14,0,.04-.01.08-.02.12-.11.68-.21,1.38-.3,2.07,0,.06-.02.13-.02.19-.09.68-.17,1.36-.24,2.05,0,.08-.02.16-.03.25-.07.67-.13,1.36-.19,2.04,0,.09-.01.19-.02.28-.05.68-.1,1.37-.14,2.06,0,.1-.01.2-.02.3-.04.7-.06,1.4-.09,2.11,0,.09,0,.19,0,.28-.02.72-.03,1.45-.04,2.18,0,.09,0,.17,0,.26,0,.75,0,1.51.01,2.28,0,.06,0,.13,0,.19.02.81.04,1.63.07,2.45,0,.02,0,.04,0,.06.21,5.12.78,10.51,1.73,16.17.02.13.05.26.07.4.14.79.28,1.59.43,2.39.04.22.09.44.13.66.14.72.28,1.43.43,2.16.06.28.12.56.18.84.14.67.29,1.34.44,2.02.07.32.15.64.22.96.15.65.31,1.3.47,1.95.09.35.17.7.26,1.05.16.63.32,1.26.49,1.9.1.38.2.75.3,1.13.17.62.34,1.23.52,1.86.11.4.23.8.34,1.2.18.61.36,1.22.55,1.84.12.41.25.83.38,1.25.19.61.38,1.22.58,1.83.14.43.27.86.42,1.29.2.61.41,1.22.61,1.84.15.44.29.87.45,1.31.21.62.43,1.24.66,1.86.16.44.31.89.47,1.33.23.63.46,1.26.7,1.89.17.45.33.89.5,1.34.25.66.51,1.32.77,1.98.17.43.33.85.5,1.28.29.73.6,1.48.9,2.22.15.36.29.72.44,1.08.46,1.11.93,2.22,1.41,3.34-49.56-12.52-121.46-33.73-157.15,15.63-30.35,55.69,39.16,90.39,85.57,94.18-16.58,10.95-28.62,23.36-36.64,36.15-1.76,2.8-3.32,5.62-4.7,8.44-.14.28-.27.56-.4.84-14.68,30.95-6.92,62.5,16.17,79.48.14.1.28.21.43.31.43.31.86.61,1.3.91.15.1.29.2.44.3.51.34,1.02.67,1.55,1,.26.16.52.32.78.48.31.19.61.37.93.55.28.17.57.33.86.49.42.24.85.47,1.29.7.38.2.76.4,1.15.59.3.15.61.31.92.45.31.15.62.3.94.44.37.17.74.33,1.11.5.36.16.72.31,1.08.47.48.2.97.4,1.46.59.24.1.49.19.74.28.5.19,1.01.37,1.51.55.16.06.32.12.49.17.71.24,1.44.48,2.17.7.05.01.09.03.14.04,13.47,4.07,29.68,4.47,47.97-.15,0,0,0,0,0,0,6.44-1.63,13.13-3.88,20.06-6.81.05-.02.1-.04.16-.06.98-.42,1.96-.84,2.95-1.28-.24.93-.47,1.86-.7,2.78-.12.5-.24.99-.35,1.49-.08.33-.16.66-.23.99-3.22,13.86-4.81,26.79-5.01,38.65-.3,17.74,2.48,33.12,7.5,45.72,7.7,19.32,20.64,32.12,35.76,36.95.28.09.57.18.86.26.23.07.46.14.69.2,6.15,1.73,12.63,2.15,19.25,1.17,25.08-3.69,52.09-27.46,70.07-76.46.61-1.67,1.22-3.38,1.81-5.11.1-.28.2-.56.29-.85.85-2.5,1.16-3.93,1.5-4.46.43-.68.9.14,2.58,2.15.59.71,1.19,1.39,1.79,2.07,4.06,4.58,8.43,8.55,13.02,11.93,7.44,5.5,15.47,9.46,23.72,11.98,4.59,1.4,9.26,2.36,13.93,2.89,3.65.41,7.3.56,10.94.45,19.41-.58,38.17-8.44,51.83-22.46h0c21.28-21.82,30.22-58.56,10.13-105.91-4.16-9.79-9.55-20.04-16.34-30.71,175.97,11.85,105.59-142.07-26.18-128.34,74.37-100.88-17.73-172.02-82.96-58.83-20.99-75.03-73.26-101.37-108.35-87.67-.27.1-.53.21-.8.32-.23.1-.46.19-.7.29ZM1924.57,538.16c24.96.35,47.52,15.4,67.47,28.8,42.83,51.2-25.71,119.44-80.84,113.12-82.77-15.3-70.54-138.56,13.37-141.92Z"/>
  <path class="cls-9" d="M1911.2,680.09c55.13,6.32,123.66-61.92,80.84-113.12-19.95-13.39-42.5-28.45-67.47-28.8-83.91,3.36-96.14,126.62-13.37,141.92Z"/>
</svg>