<?xml version="1.0" encoding="UTF-8"?>
<svg id="_лой_1" data-name="—лой_1" xmlns="http://www.w3.org/2000/svg" viewBox="0 0 2054.35 2443.26">
  <defs>
    <style>
      .cls-1 {
        fill: none;
      }

      .cls-2 {
        fill: #ffcbbd;
      }

      .cls-3 {
        fill: #0c0809;
      }

      .cls-4 {
        fill: #acf2b1;
      }

      .cls-5 {
        fill: #ffa811;
      }

      .cls-6 {
        fill: #f28585;
      }
    </style>
  </defs>
  <path class="cls-1" d="M641.61,1579.61c-6.87,10.08-1.66,27.2,13.22,27.2-14.59,0-20-17.12-13.22-27.2Z"/>
  <path class="cls-1" d="M476.41,1547.02c-10.02,9.34-5.3,29.83,10.96,29.83-16,0-20.92-20.49-10.96-29.83Z"/>
  <path class="cls-1" d="M489.2,1542.47c16.02,0,20.94,20.56,10.92,29.88,10.09-9.32,5.38-29.88-10.92-29.88Z"/>
  <path class="cls-1" d="M574.63,1662.66c-10.09,9.32-5.38,29.88,10.91,29.88-16.02,0-20.94-20.56-10.91-29.88Z"/>
  <path class="cls-1" d="M587.38,1658.15c16,0,20.92,20.49,10.96,29.83,10.02-9.34,5.3-29.83-10.96-29.83Z"/>
  <path class="cls-1" d="M992.95,1670.38c-16.02,0-20.94-20.56-10.91-29.88-10.09,9.32-5.38,29.88,10.91,29.88Z"/>
  <path class="cls-1" d="M1007.96,1663.25c6.92-10.07,1.72-27.25-13.18-27.25,14.61,0,20.02,17.18,13.18,27.25Z"/>
  <path class="cls-1" d="M1023.99,1756.3c-16.02,0-20.94-20.56-10.91-29.88-10.09,9.32-5.38,29.88,10.91,29.88Z"/>
  <path class="cls-1" d="M961.68,1736.34c5.64-2.2,10.15-7.15,10.55-14.8-.4,7.64-4.91,12.6-10.55,14.8Z"/>
  <path class="cls-1" d="M1039.01,1749.16c6.92-10.07,1.71-27.25-13.19-27.25,14.61,0,20.02,17.18,13.19,27.25Z"/>
  <path class="cls-1" d="M656.66,1572.43c14.58,0,20,17.11,13.22,27.19,6.86-10.08,1.64-27.19-13.22-27.19Z"/>
  <path class="cls-1" d="M949.66,1704.47c-6.22,1.92-11.39,7.03-11.82,15.25.42-8.21,5.6-13.32,11.82-15.25Z"/>
  <path class="cls-1" d="M511,1417.49c38.64,46.57,122.64,63.77,193.83,62.04-71.78,1.47-156.11-16.58-193.83-62.04Z"/>
  <path class="cls-1" d="M644.16,1401.42c-34.74-9.62-37.16-13.06-35.86-9.97-1.17-2.91,1.58.48,35.86,9.97Z"/>
  <path class="cls-1" d="M685.71,1718.48c-6.92,10.07-1.72,27.25,13.18,27.25-14.61,0-20.02-17.18-13.18-27.25Z"/>
  <path class="cls-1" d="M629.07,1439.04c-27.45-5.04-53.55-13.62-73.93-26.73,20.46,13.17,46.54,21.73,73.93,26.73Z"/>
  <path class="cls-1" d="M609.82,1397.12c.44,8.89-4.2,14.43-10.21,16.71,6-2.28,10.64-7.81,10.21-16.71Z"/>
  <path class="cls-1" d="M575.37,1398.83c-.26-5.26,2.17-10.48,6.1-13.94-3.03,1.96-6.5,5.64-6.1,13.94Z"/>
  <path class="cls-1" d="M585.72,1382.15c.19-.09.38-.18.57-.26-.49-.2-.95-.38-1.42-.57.54.33.8.59.85.83Z"/>
  <path class="cls-1" d="M547.46,1366.53c3.43,1.59,7.07,3.02,10.7,4.35-4.39-1.7-7.82-3.06-10.7-4.35Z"/>
  <path class="cls-1" d="M700.72,1711.34c16.02,0,20.94,20.56,10.91,29.88,10.09-9.32,5.38-29.88-10.91-29.88Z"/>
  <path class="cls-1" d="M789.83,1607.69c-10.01,9.35-5.29,29.83,10.97,29.83-15.99,0-20.92-20.48-10.97-29.83Z"/>
  <path class="cls-1" d="M584.38,1341.95c31.13,12.4,55.74,21.57,85.26,28.81-24.94-6.31-51.04-15.18-85.26-28.81Z"/>
  <path class="cls-1" d="M802.63,1603.13c16.02,0,20.94,20.56,10.92,29.88,10.09-9.32,5.38-29.88-10.92-29.88Z"/>
  <path class="cls-1" d="M333.54,1290.88c2.75,7.38,5.34,14.84,7.72,22.38-17.4-55.17-35.12-84.8-59.12-111.84,6.81,7.85,13.28,16.04,19.25,24.69,10.46,15.12,19.81,31.76,32.16,64.78Z"/>
  <path class="cls-1" d="M1420.38,1132.44c-12.22-27.74-20.61-59.42-29.29-89.58,1.17,4.4,2.32,8.72,3.46,12.93,6.6,30.3,15.38,55.69,25.84,76.65Z"/>
  <path class="cls-1" d="M1802.71,1271.64c15.02,8.19,29.87,22.97,35.84,45.53-5.41-20.94-18.48-37.09-35.84-45.53Z"/>
  <path class="cls-1" d="M635.89,705.1c-1.7,1.87-3.33,3.62-4.92,5.26,3.71-3.55,6.94-6.56,9.83-8.45-1.62,1.06-3.28,2.12-4.91,3.19Z"/>
  <path class="cls-1" d="M592.06,738.64c6.84-2.83,12.88-6.41,18.23-10.26-7.28,5.03-13.04,7.55-18.23,10.26Z"/>
  <path class="cls-1" d="M1875.71,1345.02c.46-7.16.18-14.31-.75-21.35.94,7.04,1.21,14.19.75,21.35Z"/>
  <path class="cls-1" d="M580.17,856.79c-1.11,2.12-2.29,4.14-3.52,6.08,6.26-9.33,11.06-20.19,13.95-32.39-2.21,9.06-5.62,17.88-10.43,26.31Z"/>
  <path class="cls-1" d="M1739.05,1262.28c-1.27,4.02-2.44,8.08-3.51,12.17.01,0,.03,0,.04,0,.42-.02,1.12-4.34,3.47-12.17Z"/>
  <path class="cls-1" d="M485,910.3c5.61-1.3,11.29-2.58,16.97-3.95-5.67,1.37-11.35,2.65-16.97,3.95Z"/>
  <path class="cls-1" d="M230.76,1150.45c-2.09-.81-4.14-1.66-6.17-2.51,4.26,2.09,8.16,4.62,13.92,9.9-2.52-2.4-5.11-4.86-7.75-7.39Z"/>
  <path class="cls-1" d="M389.85,1254.02c-5.57-12.54-11.7-25.2-18.38-37.92,3.06,7.48,10.07,20.5,18.38,37.92Z"/>
  <path class="cls-1" d="M341.17,1314.48c-.85,10.63-4.49,35.63-7.02,65.3,2.35-21.79,5.53-43.54,7.02-65.3Z"/>
  <path class="cls-1" d="M1725.01,1350.92c-1.27,31.77.4,63.34,1.98,92.59-1.57-29.26-3.24-60.84-1.98-92.59Z"/>
  <path class="cls-1" d="M580.19,1419.64c-10.54-9.75-15.5-25.05-6.87-42.9h0c-8.65,17.9-3.68,33.19,6.87,42.9Z"/>
  <path class="cls-1" d="M433.93,1462.61c-.16,1.65-.33,3.31-.52,4.97-5.85,39.41-22.54,63.97-40.78,71.46,23.2-7.48,37.59-35.51,41.3-76.43Z"/>
  <path class="cls-1" d="M518.8,1198.03c-2.57,41.04-23.24,71.91-50,83.14,27.11-11.33,47.63-42.09,50-83.14Z"/>
  <path class="cls-1" d="M409.76,971.86c-2.96,12.47,1.72,21.22,15.32,38.2-13.35-17.26-17.79-26.54-15.32-38.2Z"/>
  <path class="cls-1" d="M548.46,889.54c-.59.34-1.18.68-1.78,1.01.03-.01.05-.03.08-.04.57-.32,1.14-.64,1.7-.97Z"/>
  <path class="cls-1" d="M274.21,1215.55c-71.63-14.22-69.16,110.83-29.51,102.21-39.49,8.59-42.07-116.41,29.51-102.21Z"/>
  <path class="cls-1" d="M364.57,1536.77c-12.73-7.81-23.72-25.41-29.32-53.7,4.34,25.34,13.16,45.63,29.32,53.7Z"/>
  <path class="cls-1" d="M1620.97,1362.33c7.61-67.67,18.94-132.95,5.83-180.41,12.64,45.73,1.54,111.88-5.83,180.41Z"/>
  <path class="cls-1" d="M253.32,1282.88c-3.57-21.31,1.07-30.8,9.18-32.92-8.12,2.1-12.75,11.58-9.18,32.92Z"/>
  <path class="cls-1" d="M1626.79,1181.92c-20.03,13.19-41.69,22.62-62.22,27.5-17.52,3.31-33.03,4.15-46.84,2.92,35.15,4.92,73.17-6.79,109.05-30.42Z"/>
  <path class="cls-1" d="M582.98,744.4c-.2.16-.4.31-.6.48.2.54.39,1.08.59,1.62-.25-.94-.27-1.56,0-2.1Z"/>
  <path class="cls-1" d="M1250.76,949.07c-56.21,29.48-123.99,76.38-172.22,54.13,48.34,22.31,116.04-24.64,172.22-54.13Z"/>
  <path class="cls-1" d="M938.55,737.94c-3.03-.09-6.19.05-9.47.38,3.28-.33,6.44-.46,9.47-.38Z"/>
  <path class="cls-1" d="M1744.73,1271.72c2.05-1.04,4.4-2.28,7.66-3.48-1.78.51-3.57,1.09-5.37,1.74-.71.65-1.48,1.22-2.28,1.74Z"/>
  <path class="cls-1" d="M1433.24,1726.11c14.59,0,20,17.12,13.22,27.2,6.87-10.08,1.66-27.2-13.22-27.2Z"/>
  <path class="cls-1" d="M1281.14,1391.32c50.13,2.86,132.07,12.03,192.92,30.95-59.02-18.75-138.61-28.45-192.92-30.95Z"/>
  <path class="cls-1" d="M1196.11,1420.5c-9.9,21.93-3.12,46.61,15.15,69.23-20.32-25.88-22.27-50.61-15.15-69.23Z"/>
  <path class="cls-1" d="M1492.09,1463.82c-63.3.82-132.73-15.49-192.6-36.11,59.85,20.61,129.28,36.93,192.6,36.11Z"/>
  <path class="cls-1" d="M1418.19,1733.28c-6.88,10.08-1.67,27.21,13.21,27.21-14.59,0-20-17.13-13.21-27.21Z"/>
  <path class="cls-1" d="M1280.68,1729.87c16,0,20.92,20.49,10.96,29.84,10.03-9.34,5.31-29.84-10.96-29.84Z"/>
  <path class="cls-1" d="M1195.65,1619.85c14.6,0,20.01,17.16,13.2,27.23,6.9-10.07,1.69-27.23-13.2-27.23Z"/>
  <path class="cls-1" d="M1265.64,1737.05c-6.88,10.08-1.67,27.21,13.21,27.21-14.59,0-20-17.13-13.21-27.21Z"/>
  <path class="cls-1" d="M1365.27,1657.74c-10.09,9.32-5.38,29.88,10.91,29.88-16.02,0-20.94-20.56-10.91-29.88Z"/>
  <path class="cls-1" d="M1378.02,1653.24c16.02,0,20.94,20.56,10.91,29.88,10.09-9.32,5.38-29.88-10.91-29.88Z"/>
  <path class="cls-1" d="M191.48,1007.92c.78,1.28,1.56,2.53,2.41,3.75-.48-2.53.12-1.45-2.41-3.75Z"/>
  <path class="cls-1" d="M1548,1500.49c-11.75,20.54-37.71,38.17-71.13,49.6,28.98-8.75,55.91-22.99,71.13-49.6Z"/>
  <path class="cls-1" d="M1531.71,1700.76c-6.92,10.07-1.71,27.25,13.19,27.25-14.61,0-20.02-17.17-13.19-27.25Z"/>
  <path class="cls-1" d="M1182.9,1624.35c-10.09,9.32-5.38,29.88,10.91,29.88-16.02,0-20.94-20.56-10.91-29.88Z"/>
  <path class="cls-1" d="M401.01,1413.57c-.97,4.97-.85,2.88-.72,5.94,1.4.43,1.41,1.86.72-5.94Z"/>
  <path class="cls-1" d="M1546.73,1693.62c16.02,0,20.94,20.56,10.91,29.88,10.09-9.32,5.38-29.88-10.91-29.88Z"/>
  <path class="cls-1" d="M1306.87,1506.26c12.99-1.04,25.26-8.71,30.73-25.25-5.47,16.53-17.74,24.2-30.73,25.25Z"/>
  <path class="cls-1" d="M1226.94,1438.65c16.51,7.23,21.04,9.12,27.49,11.5-7.12-2.81-16.13-6.53-27.49-11.5Z"/>
  <path class="cls-1" d="M1394.02,1490.74c-18.93-3.59-39.04-8.27-60.11-14.19,1.55.44,3.09.87,4.64,1.3,19.32,5.33,37.9,9.58,55.47,12.89Z"/>
  <path class="cls-1" d="M1311.32,1469.84c-.4,11.55-8.72,16.84-17.08,16.65,8.36.19,16.68-5.1,17.08-16.65Z"/>
  <path class="cls-1" d="M1279.67,1460.65c.53-.75.48-1.07-1.17-1.73,1.47.65,1.59,1.03,1.17,1.73Z"/>
  <path class="cls-1" d="M1238.13,1467.7c-7.36-9.4-11.24-18.28-11.46-25.25.22,6.98,4.1,15.85,11.46,25.25Z"/>
  <path class="cls-1" d="M904.8,1620.62c-9.18,58.95-17.64,110.81-13.79,143.06-3.82-32.03,4.64-83.95,13.79-143.06Z"/>
  <path class="cls-1" d="M1064.44,1438.92c-21.68,70.48-19.32,141.27-15.13,203.48-4.15-62.31-6.51-133.14,15.13-203.48Z"/>
  <path class="cls-1" d="M1271.91,1241.48c-77.67,16.97-160.38,66.77-202.8,183.81,41.73-114.68,124.6-165.99,202.8-183.81Z"/>
  <path class="cls-1" d="M1082.43,1623.32c-3.61-58.98-3.45-123.55,19.85-188.78-23.71,66.36-23.67,130.36-19.85,188.78Z"/>
  <path class="cls-1" d="M1031.75,2142.6c8.75-10.98,12.12-7.51,87.69-20.08-75.62,12.58-78.93,9.08-87.69,20.08Z"/>
  <path class="cls-1" d="M931.16,1788.52c-26.91-92.66,62.81-310.88,9.7-460.88,52.98,149.84-36.74,367.77-9.7,460.88Z"/>
  <path class="cls-1" d="M885.6,2039.39c.16-.06.31-.13.47-.22-.18.09-.02-.08-.47.22Z"/>
  <path class="cls-1" d="M954.03,2210.42c24.46-7.55,57.26-43.03,57.88-43.84-.61.81-33.75,36.4-57.88,43.84Z"/>
  <path class="cls-1" d="M916.22,2198.92c10.87,14.47,22.78,16.18,37.81,11.5-15.02,4.68-26.99,2.91-37.81-11.5Z"/>
  <path class="cls-1" d="M1058.01,2093.62c6.54-22.09,5.13-41.45-1.12-56.5,6.26,15.09,7.63,34.49,1.12,56.5Z"/>
  <path class="cls-1" d="M1443.81,1283.64c-17.09,7.91-161.98-61.04-270.92,41.99,108.86-102.93,253.58-33.97,270.92-41.99Z"/>
  <path class="cls-1" d="M705.41,1217.67c-10.57.51-20.63,3.18-29.82,6.08,9.23-2.9,19.3-5.57,29.82-6.08Z"/>
  <path class="cls-1" d="M1452.48,1265.44c-.32-1.81-.93-3.58-1.92-5.23-4.04-6.77-22.88-15.16-50.44-20.56,27.63,6.05,47,15.9,52.36,25.8Z"/>
  <path class="cls-1" d="M861.91,2010.93c-30.33,20.98-33.79,80.5,54.31,187.99-87.85-107.18-84.52-166.87-54.31-187.99Z"/>
  <path class="cls-2" d="M760.39,1385.62c1.37.15,2.74.29,4.14.44-54.3-26.06-124.99-41.09-180.15-44.12,34.22,13.63,60.32,22.49,85.26,28.81,24.62,6.04,52.66,10.74,90.74,14.87Z"/>
  <path class="cls-2" d="M1757.95,1218.85c-.64,1.11-1.27,2.22-1.88,3.34-.13.24-.25.47-.38.71-.48.88-.96,1.77-1.43,2.66-.24.45-.47.91-.71,1.37-.32.62-.65,1.24-.96,1.87-.64,1.26-1.26,2.53-1.87,3.8,62.91-13.13,111.04,29.67,122.57,81.63,0,.02,0,.03.01.05.17.74.32,1.49.46,2.24.05.26.11.53.16.79.1.51.18,1.02.27,1.54.09.5.19,1.01.27,1.51.05.29.08.58.13.86.11.73.23,1.46.33,2.2.01.09.02.17.03.26.94,7.04,1.21,14.19.75,21.35,0,.1-.02.2-.02.31-.06.93-.13,1.86-.22,2.8-.1,1.03-.21,2.07-.33,3.1-3.41,22.34-36.53,17.78-34.12-4.69.72-9.83-.02-19.08-2.01-27.58-.13-.54-.26-1.07-.4-1.6-.02-.06-.03-.12-.05-.19-5.97-22.56-20.82-37.34-35.84-45.53-14.46-7.03-31.89-8.72-50.33-3.4-3.26,1.2-5.61,2.44-7.66,3.48-1.95,1.26-4.16,2.12-6.51,2.5-.26.05-.53.08-.8.12-.15.02-.3.03-.45.04-.42.04-.86.06-1.32.06-.02,0-.05,0-.07,0,0,0,0,0,0,0-.01,0-.03,0-.04,0-2.36,8.98-4.25,18.09-5.76,27.28-.04.25-.08.5-.12.74-.32,1.99-.62,3.98-.91,5.98-.07.47-.13.94-.2,1.41-.23,1.67-.45,3.35-.66,5.03-.08.68-.17,1.35-.25,2.03-.12.98-.23,1.97-.34,2.95-.15,1.34-.29,2.69-.43,4.03-.08.84-.16,1.68-.24,2.52-.11,1.15-.21,2.31-.31,3.46-.08.9-.15,1.8-.22,2.7-.1,1.33-.2,2.65-.3,3.98-.04.55-.08,1.11-.12,1.66-.11,1.71-.22,3.43-.31,5.14-.03.46-.05.91-.07,1.37-.1,1.83-.18,3.65-.26,5.48-.01.24-.02.48-.03.72-1.26,31.75.41,63.33,1.98,92.59,3.4,63.02,6.32,115.28-21.74,135.51,0,0,0,0,0,0-1.71,1.23-3.53,2.34-5.47,3.33-.07.04-.14.07-.21.11-.9.45-1.84.88-2.8,1.28-.15.06-.3.12-.45.18-.94.38-1.91.74-2.91,1.07-.15.05-.3.09-.44.14-1.04.34-2.1.65-3.2.93-28.75,7-50.34-20.97-59.25-44.97-20.32-53.86-16.46-117.3-9.55-178.77,7.37-68.54,18.46-134.68,5.83-180.41-35.89,23.63-73.91,35.34-109.05,30.42-51.17-4.55-78.73-37.63-97.36-79.9-10.46-20.96-19.23-46.34-25.84-76.65-1.14-4.21-2.28-8.53-3.46-12.93-14.55-50.54-29.97-96.78-65.78-112.96-.07-.03-.13-.06-.2-.09-.76-.34-1.53-.67-2.31-.98-18.46-4.97-43.79,5.44-72.03,20.25-56.18,29.49-123.88,76.43-172.22,54.13-91.06-52.53-29.31-234.88-138.47-265.19-.51-.03-1.01-.05-1.53-.06-3.03-.09-6.19.05-9.47.38-.04,0-.09,0-.13.01-.36.04-.71.08-1.07.12-.2.02-.4.04-.61.07-.15.02-.31.04-.47.06-67.41,8.36-182.35,91.61-286.01-36.66-2.89,1.89-6.12,4.89-9.83,8.45-8.19,8.48-14.91,14.04-20.67,18.02-5.36,3.85-11.39,7.44-18.23,10.26-3.15,1.64-6.1,3.37-9.08,5.76-.27.54-.26,1.15,0,2.1,9.99,27.32,14.27,56.72,7.63,83.98-2.89,12.2-7.69,23.06-13.95,32.39-7.53,11.85-17.23,20.32-28.19,26.67-.56.33-1.13.65-1.7.97-.03.01-.05.03-.08.04-1.04.58-2.09,1.13-3.16,1.67-.29.15-.58.29-.86.43-.83.41-1.67.82-2.51,1.21-.28.13-.56.27-.84.4-1,.46-2.01.91-3.03,1.34-.41.17-.82.34-1.22.51-.69.29-1.39.57-2.09.85-.43.17-.87.35-1.3.51-.96.37-1.93.73-2.9,1.08-.53.19-1.06.38-1.59.56-.56.2-1.13.39-1.7.59-.57.19-1.14.39-1.71.57-.74.24-1.49.48-2.24.72-.82.26-1.64.51-2.46.76-.44.13-.87.26-1.31.39-.68.2-1.36.4-2.05.6-.25.07-.5.14-.74.21-1.39.39-2.79.78-4.19,1.15-.3.08-.6.16-.9.24-.78.21-1.57.41-2.35.61-.02,0-.05.01-.07.02-1.72.44-3.45.87-5.18,1.29-.11.03-.21.05-.32.08-5.67,1.37-11.35,2.65-16.97,3.95-.27.06-.55.13-.82.19-.91.21-1.83.43-2.73.64-.35.08-.69.16-1.04.24-1.02.24-2.05.49-3.06.74-.48.12-.97.24-1.45.36-.67.16-1.33.33-1.99.5-.48.12-.96.24-1.44.37-.97.25-1.94.5-2.9.76-.49.13-.97.26-1.45.4-.64.18-1.28.35-1.92.53-.47.13-.94.26-1.4.4-.96.28-1.91.56-2.86.85-.44.13-.88.27-1.32.41-.66.21-1.31.41-1.96.63-.42.14-.85.28-1.27.42-.95.32-1.9.65-2.84.98-.37.13-.73.27-1.09.4-.7.26-1.39.52-2.08.78-.36.14-.73.28-1.09.43-.95.38-1.89.76-2.81,1.16-.28.12-.55.24-.82.36-.74.32-1.47.66-2.19.99-.31.14-.62.29-.92.44-.93.45-1.85.9-2.75,1.38-.18.1-.36.2-.54.3-.77.41-1.53.84-2.29,1.27-.26.15-.52.3-.78.45-.9.53-1.78,1.07-2.65,1.64-.09.06-.17.12-.26.17-.8.52-1.58,1.07-2.35,1.62-.22.16-.44.32-.66.48-.84.62-1.67,1.26-2.48,1.92-10.26,18.56-16.78,30-19,39.35-2.47,11.66,1.97,20.94,15.32,38.2,10.63,13.27,26.71,31.57,48.87,60.61,35.04,46.07,47.14,90.76,44.85,127.37-2.37,41.04-22.89,71.81-50,83.14-.81.34-1.62.66-2.44.96-47.62,16.38-70.28-40.34-89.44-81.28-.22.51-.47,1.01-.72,1.5-.07.14-.15.27-.23.41-.2.36-.41.71-.63,1.05-.08.12-.15.24-.23.35-.58.87-1.22,1.68-1.92,2.43-.1.11-.21.2-.31.31-.23.23-.46.46-.7.67-.18.16-.36.32-.55.47-.14.12-.29.23-.44.35-.27.21-.54.41-.82.59-.01,0-.02.02-.03.02-1.02.68-.51,3.11,1.12,7.1,6.68,12.72,12.8,25.38,18.38,37.92,21.83,45.77,52.59,122.01,44.08,208.58-3.71,40.92-18.1,68.95-41.3,76.43-9.37,3.85-19.14,3.21-28.07-2.26-16.17-8.06-24.98-28.35-29.32-53.7-2.84-14.32-4.29-31.37-3.89-51.29-.42-17.38.93-34.71,2.8-52.01,2.53-29.67,6.17-54.67,7.02-65.3.03-.41.06-.82.09-1.23-2.38-7.53-4.97-15-7.72-22.38-7.75,3.25-17.63,1.31-22.22-8.84-10.55-17.42-34.85-35.69-48.82-32.07-8.12,2.11-12.75,11.6-9.18,32.92,3.66,13.25,8.66,29.25-8.62,34.88-39.65,8.62-42.12-116.43,29.51-102.21.17.03.34.07.51.11.46.09.91.19,1.37.29.6.14,1.2.28,1.81.44.03,0,.07.02.1.03,7.1,1.83,14.88,4.98,23.38,9.68-5.96-8.64-12.44-16.83-19.25-24.69-12.54-14.14-26.81-27.57-43.63-43.58-5.76-5.28-9.66-7.81-13.92-9.9-3.14-1.32-6.23-2.68-9.24-4.09-6.37-2.79-15.02-6.92-29.18-15.68-151.75,65.93,2.88,270.01,133.19,375.81,9.93,641.53,383.05,939.28,684.78,939.28s769.89-348.47,787.12-862.19c101.57-101.93,179.95-234.72,119.38-366.59-.03.02-.07.03-.1.05-43.74,20.97-99.51,25.46-152.59,4.33ZM1025.83,1721.91c14.89,0,20.1,17.18,13.19,27.25-2.83,4.18-7.75,7.14-15.02,7.14-16.3,0-21-20.56-10.91-29.88,2.94-2.73,7.14-4.51,12.75-4.51ZM982.03,1640.5c2.94-2.73,7.14-4.51,12.75-4.51,14.9,0,20.1,17.18,13.18,27.25-2.83,4.17-7.75,7.13-15.01,7.13-16.3,0-21-20.56-10.91-29.88ZM972.23,1721.55c-.4,7.65-4.91,12.6-10.55,14.8-10.41,4.06-24.64-1.29-23.84-16.63.42-8.22,5.6-13.33,11.82-15.25,10.26-3.17,23.34,2.35,22.57,17.08ZM500.12,1572.35c-2.94,2.73-7.14,4.51-12.75,4.51-16.27,0-20.99-20.49-10.96-29.83,2.94-2.76,7.16-4.55,12.79-4.55,16.3,0,21,20.56,10.92,29.88ZM598.34,1687.98c-2.94,2.76-7.16,4.55-12.79,4.55-16.3,0-21-20.56-10.91-29.88,2.94-2.73,7.14-4.51,12.75-4.51,16.27,0,20.99,20.49,10.96,29.83ZM669.88,1599.61c-2.83,4.21-7.76,7.2-15.06,7.2-14.87,0-20.09-17.12-13.22-27.2,2.83-4.2,7.76-7.18,15.05-7.18,14.87,0,20.08,17.11,13.22,27.19ZM711.63,1741.23c-2.94,2.73-7.14,4.51-12.75,4.51-14.9,0-20.1-17.18-13.18-27.25,2.83-4.17,7.75-7.13,15.01-7.13,16.3,0,21,20.56,10.91,29.88ZM813.55,1633.02c-2.94,2.73-7.14,4.51-12.75,4.51-16.27,0-20.98-20.48-10.97-29.83,2.94-2.76,7.16-4.56,12.8-4.56,16.3,0,21,20.56,10.92,29.88ZM809.03,1456.64c-20.92,13.76-60.2,21.98-104.2,22.88-71.19,1.73-155.19-15.47-193.83-62.04-37.09-61.78,9.97-117.25,77.62-110.03,66.5,3.5,189.75,31.94,238.25,77.34,16.62,22.84,4.25,57.22-17.84,71.84ZM1119.44,2122.52c-75.56,12.57-78.94,9.11-87.69,20.08-3.7,4.64-8.36,11.87-19.84,23.97-.61.82-33.41,36.3-57.88,43.84-15.04,4.68-26.94,2.97-37.81-11.5-88.1-107.49-84.64-167.02-54.31-187.99,25.56-17.87,70.36-8.13,95.47,23.84,15.72-15.62,34.78-33.91,58.84-30.84.49.06.97.13,1.46.2,15.6,2.41,29.62,13.07,37.62,29.47.02.04.04.08.06.12.17.34.33.69.49,1.04.09.2.19.39.27.59.09.19.17.39.26.58.16.36.32.72.47,1.08.02.04.03.07.04.11,6.25,15.05,7.66,34.4,1.12,56.5-.23.79-.48,1.58-.73,2.38,19.13-2.88,38.18-6.41,57.23-9.57,23.67-2.94,28.59,32.06,4.94,36.09ZM1171,1327.46c-.42.4-.83.8-1.25,1.2-25.22,24.78-48.39,59.03-67.47,105.89-23.3,65.23-23.47,129.79-19.85,188.78,4.15,63.45,12.77,120.31.29,166.41-11.69,39.47-41.19,75.25-82.94,83.53-62.19,12.75-104.84-54.91-108.78-109.59-3.84-32.24,4.61-84.1,13.79-143.06,18.79-121.31,40.53-272.88-34.86-344.88-44.59-40.37-103.94-62.91-164.53-58.06-10.53.51-20.6,3.18-29.82,6.08-22.41,7.08-39.68,15.61-46.65-1.96-5.94-18.13,10.72-23.53,24.56-27.28,39.81-14.56,83.25-14.41,124.41-5.75,90.39,23.84,138.09,72.99,161.17,134.01.56,1.48,1.1,2.97,1.63,4.46.05.13.1.27.15.4,53.12,150-36.61,368.22-9.7,460.88,8.16,23.62,26.94,51.59,54.47,51.97,82.2-16.22,70.52-95.62,63.69-198.08-4.2-62.21-6.56-132.99,15.13-203.48.72-2.25,1.46-4.48,2.22-6.68.11-.32.22-.63.33-.95.69-2.01,1.39-3.99,2.1-5.96,0-.01,0-.03.01-.04,42.42-117.04,125.13-166.85,202.8-183.81,48.06-10.95,94.34-9.26,128.22-1.84,27.55,5.41,46.4,13.8,50.44,20.56.99,1.65,1.6,3.42,1.92,5.23,3.46,6.39,1.09,12.79-8.67,18.2-17.34,8.02-162.06-60.94-270.92,41.99-.63.6-1.26,1.22-1.9,1.83ZM1208.85,1647.08c-2.83,4.18-7.76,7.15-15.03,7.15-16.3,0-21-20.56-10.91-29.88,2.94-2.73,7.14-4.51,12.75-4.51,14.89,0,20.1,17.16,13.2,27.23ZM1291.64,1759.71c-2.94,2.76-7.16,4.55-12.79,4.55-14.88,0-20.09-17.13-13.21-27.21,2.83-4.2,7.76-7.18,15.04-7.18,16.27,0,20.99,20.49,10.96,29.84ZM1388.93,1683.12c-2.94,2.73-7.14,4.51-12.75,4.51-16.3,0-21-20.56-10.91-29.88,2.94-2.73,7.14-4.51,12.75-4.51,16.3,0,21,20.56,10.91,29.88ZM1446.45,1753.31c-2.83,4.2-7.76,7.18-15.05,7.18-14.88,0-20.09-17.13-13.21-27.21,2.83-4.19,7.76-7.17,15.04-7.17,14.87,0,20.09,17.12,13.22,27.2ZM1476.87,1550.08c-72.5,24.8-180.1,20.37-253.71-47.16-4.52-4.41-8.46-8.82-11.89-13.19-18.28-22.63-25.06-47.31-15.15-69.23,9.52-24.91,35.24-38.92,54.86-30.2,7.67,0,17.98.32,30.17,1.02,54.31,2.5,133.9,12.2,192.92,30.95,52.88,16.45,89.8,40.27,76.05,73.73,0,.02-.02.04-.02.06-.26.64-.55,1.28-.85,1.93-.05.11-.1.22-.15.34-.34.72-.7,1.44-1.09,2.16-15.22,26.61-42.15,40.85-71.13,49.6ZM1557.65,1723.5c-2.94,2.73-7.14,4.51-12.75,4.51-14.89,0-20.1-17.17-13.19-27.25,2.83-4.18,7.75-7.14,15.02-7.14,16.3,0,21,20.56,10.91,29.88Z"/>
  <path class="cls-2" d="M1495.56,1500.39c-.38,0-.76.02-1.14.03-25.87.5-58.2-2.01-95.26-8.73-1.01-.18-2.03-.37-3.04-.56-.7-.13-1.4-.26-2.1-.39-17.57-3.31-36.15-7.56-55.47-12.89-.28,1.09-.6,2.14-.94,3.16-5.48,16.53-17.74,24.2-30.73,25.25-24.93,2.01-52.55-20.38-40.09-51.43-3.29-1.19-7.36-2.71-12.34-4.67-6.45-2.39-10.98-4.27-27.49-11.5-.23,1.18-.32,2.43-.28,3.75,0,.01,0,.03,0,.04.22,6.98,4.1,15.85,11.46,25.25.16.21.32.42.49.63.06.07.12.15.18.23.42.53.85,1.06,1.3,1.59.03.03.05.06.08.09,20.37,24.21,63.34,51.09,126.06,58,.2.02.4.04.6.06,3.8.41,7.68.74,11.63,1,2.38.16,4.77.29,7.2.39,38.93-2.18,83.8-6.15,116.33-29.49-1.26.06-2.55.1-3.85.14-.85.03-1.72.04-2.58.06Z"/>
  <path class="cls-2" d="M580.19,1419.64c-10.55-9.71-15.52-25-6.87-42.9-6.11-2.39-11.07-4.27-15.16-5.86-3.63-1.34-7.26-2.76-10.7-4.35-4.46-2-7.6-3.82-10.94-6.44-8.4,14.26-4.83,34.11,15.24,49.96,1.11.77,2.24,1.52,3.39,2.26,20.38,13.11,46.48,21.69,73.93,26.73.43.08.86.16,1.3.24.45.08.9.15,1.34.23,69.52,12.08,146.55,1.55,161.29-14.73-50.25-2.77-100.38-9.94-148.83-23.36-8.51,35.31-45.14,35.65-63.98,18.23Z"/>
  <path class="cls-2" d="M1492.09,1463.82c-49.54-19.73-139.62-31.48-192.6-36.11,59.86,20.62,129.3,36.93,192.6,36.11Z"/>
  <path class="cls-6" d="M1735.58,1274.44s0,0,0,0c.02,0,.05,0,.07,0,.46,0,.89-.03,1.32-.06.15-.01.3-.03.45-.04.27-.03.54-.07.8-.12,2.35-.38,4.56-1.24,6.51-2.5.81-.52,1.57-1.1,2.28-1.74,1.8-.65,3.59-1.22,5.37-1.74,18.44-5.32,35.87-3.63,50.33,3.4,17.36,8.44,30.43,24.59,35.84,45.53.02.06.03.12.05.19.14.53.27,1.06.4,1.6,1.99,8.5,2.74,17.76,2.01,27.58-2.41,22.47,30.72,27.03,34.12,4.69.13-1.03.24-2.07.33-3.1.09-.93.16-1.86.22-2.8,0-.1.02-.2.02-.31.46-7.16.18-14.31-.75-21.35-.01-.09-.02-.17-.03-.26-.1-.73-.21-1.46-.33-2.2-.04-.29-.08-.58-.13-.86-.08-.51-.18-1.01-.27-1.51-.09-.51-.18-1.03-.27-1.54-.05-.26-.11-.53-.16-.79-.15-.75-.3-1.5-.46-2.24,0-.02,0-.03-.01-.05-11.53-51.96-59.65-94.75-122.57-81.63-4.62,9.64-8.47,19.56-11.67,29.68-2.35,7.83-3.05,12.15-3.47,12.17Z"/>
  <path class="cls-6" d="M278.01,1216.42s-.07-.02-.1-.03c-.61-.16-1.21-.3-1.81-.44-.46-.11-.92-.2-1.37-.29-.17-.03-.34-.07-.51-.11-71.58-14.2-69.01,110.79-29.51,102.21,17.28-5.63,12.28-21.63,8.62-34.88-3.57-21.34,1.06-30.82,9.18-32.92,13.97-3.61,38.26,14.66,48.82,32.07,4.59,10.16,14.47,12.09,22.22,8.84-12.34-33.02-21.7-49.66-32.16-64.78-8.5-4.7-16.28-7.85-23.38-9.68Z"/>
  <path class="cls-4" d="M1306.87,1506.26c13-1.05,25.26-8.72,30.73-25.25.34-1.02.65-2.07.94-3.16-1.55-.43-3.09-.86-4.64-1.3-.39-.11-.78-.22-1.17-.33-1.44-.41-2.89-.83-4.33-1.24-1.04-.3-2.07-.6-3.12-.9-1.15-.34-2.3-.68-3.45-1.03-1.18-.35-2.36-.7-3.54-1.06-2.33-.71-4.66-1.42-6.98-2.15-.4,11.55-8.72,16.84-17.08,16.65-8.36-.19-16.75-5.87-17.29-16.25-.02-.4-.03-.78-.03-1.16,0-.07,0-.13,0-.2.05-5.17,1.98-7.15,2.74-8.23.42-.7.3-1.08-1.17-1.73-1.73-.69-5.24-1.76-11.72-4.09-12.46,31.06,15.16,53.44,40.09,51.43Z"/>
  <path class="cls-4" d="M580.19,1419.64c18.84,17.42,55.46,17.08,63.98-18.23-34.28-9.49-37.03-12.88-35.86-9.97.43,1.02,1.26,2.75,1.48,5.2.01.15.02.31.03.47.44,8.9-4.2,14.43-10.21,16.71-9.91,3.76-23.53-1.36-24.24-15-.41-8.29,3.06-11.98,6.1-13.94,1.27-1.12,2.7-2.05,4.25-2.74-.05-.24-.31-.5-.85-.83-4.26-1.71-8.1-3.23-11.55-4.57-8.63,17.85-3.67,33.15,6.87,42.9Z"/>
  <path class="cls-5" d="M1546.73,1693.62c-7.26,0-12.19,2.96-15.02,7.14-6.83,10.07-1.42,27.25,13.19,27.25,5.6,0,9.81-1.78,12.75-4.51,10.03-9.32,5.11-29.88-10.91-29.88Z"/>
  <path class="cls-5" d="M1433.24,1726.11c-7.29,0-12.21,2.98-15.04,7.17-6.79,10.08-1.38,27.21,13.21,27.21,7.29,0,12.22-2.98,15.05-7.18,6.79-10.08,1.37-27.2-13.22-27.2Z"/>
  <path class="cls-5" d="M1378.02,1653.24c-5.6,0-9.81,1.78-12.75,4.51-10.03,9.32-5.11,29.88,10.91,29.88,5.6,0,9.81-1.78,12.75-4.51,10.03-9.32,5.11-29.88-10.91-29.88Z"/>
  <path class="cls-5" d="M1280.68,1729.87c-7.29,0-12.21,2.98-15.04,7.18-6.79,10.08-1.38,27.21,13.21,27.21,5.63,0,9.85-1.8,12.79-4.55,9.96-9.34,5.04-29.84-10.96-29.84Z"/>
  <path class="cls-5" d="M1195.65,1619.85c-5.6,0-9.81,1.78-12.75,4.51-10.03,9.32-5.11,29.88,10.91,29.88,7.27,0,12.2-2.97,15.03-7.15,6.82-10.07,1.4-27.23-13.2-27.23Z"/>
  <path class="cls-5" d="M802.63,1603.13c-5.64,0-9.86,1.8-12.8,4.56-9.95,9.35-5.02,29.83,10.97,29.83,5.6,0,9.81-1.78,12.75-4.51,10.03-9.32,5.11-29.88-10.92-29.88Z"/>
  <path class="cls-5" d="M700.72,1711.34c-7.26,0-12.18,2.96-15.01,7.13-6.84,10.07-1.43,27.25,13.18,27.25,5.6,0,9.81-1.78,12.75-4.51,10.03-9.32,5.11-29.88-10.91-29.88Z"/>
  <path class="cls-5" d="M656.66,1572.43c-7.29,0-12.22,2.98-15.05,7.18-6.79,10.08-1.37,27.2,13.22,27.2,7.3,0,12.23-2.99,15.06-7.2,6.77-10.08,1.35-27.19-13.22-27.19Z"/>
  <path class="cls-5" d="M587.38,1658.15c-5.6,0-9.81,1.77-12.75,4.51-10.03,9.32-5.11,29.88,10.91,29.88,5.63,0,9.86-1.8,12.79-4.55,9.96-9.34,5.03-29.83-10.96-29.83Z"/>
  <path class="cls-5" d="M489.2,1542.47c-5.63,0-9.85,1.8-12.79,4.55-9.96,9.34-5.03,29.83,10.96,29.83,5.6,0,9.81-1.78,12.75-4.51,10.03-9.32,5.11-29.88-10.92-29.88Z"/>
  <path class="cls-5" d="M1023.99,1756.3c7.27,0,12.19-2.96,15.02-7.14,6.83-10.07,1.42-27.25-13.19-27.25-5.6,0-9.81,1.78-12.75,4.51-10.03,9.32-5.11,29.88,10.91,29.88Z"/>
  <path class="cls-5" d="M992.95,1670.38c7.26,0,12.18-2.96,15.01-7.13,6.84-10.07,1.43-27.25-13.18-27.25-5.6,0-9.81,1.78-12.75,4.51-10.03,9.32-5.11,29.88,10.91,29.88Z"/>
  <path class="cls-5" d="M949.66,1704.47c-6.22,1.92-11.4,7.04-11.82,15.25-.8,15.34,13.43,20.69,23.84,16.63,5.64-2.2,10.15-7.15,10.55-14.8.77-14.73-12.31-20.25-22.57-17.08Z"/>
  <path class="cls-6" d="M1114.5,2086.43c-19.05,3.16-38.1,6.7-57.23,9.57.25-.8.5-1.59.73-2.38,6.51-22.01,5.14-41.4-1.12-56.5-.02-.04-.03-.07-.04-.11-.15-.36-.31-.72-.47-1.08-.09-.19-.17-.39-.26-.58-.09-.2-.18-.39-.27-.59-.16-.35-.32-.7-.49-1.04-.02-.04-.04-.08-.06-.12-8-16.41-22.01-27.06-37.62-29.47-.48-.08-.97-.14-1.46-.2-24.06-3.06-43.12,15.22-58.84,30.84-25.11-31.97-69.91-41.71-95.47-23.84-30.21,21.12-33.54,80.81,54.31,187.99,10.82,14.41,22.79,16.18,37.81,11.5,24.13-7.44,57.27-43.03,57.88-43.84,11.48-12.11,16.15-19.33,19.84-23.97,8.76-11,12.06-7.5,87.69-20.08,23.65-4.04,18.73-39.03-4.94-36.09ZM885.6,2039.39c.45-.3.29-.13.47-.22-.16.09-.31.16-.47.22Z"/>
  <path class="cls-3" d="M1443.81,1283.64c9.76-5.41,12.13-11.82,8.67-18.2-5.36-9.9-24.73-19.75-52.36-25.8-33.88-7.42-80.16-9.12-128.22,1.84-78.2,17.82-161.08,69.13-202.8,183.81,0,.01,0,.03-.01.04-.71,1.97-1.41,3.96-2.1,5.96-.11.32-.22.63-.33.95-.75,2.21-1.49,4.43-2.22,6.68-21.64,70.34-19.28,141.17-15.13,203.48,6.83,102.46,18.51,181.86-63.69,198.08-27.53-.38-46.31-28.34-54.47-51.97-27.04-93.11,62.67-311.04,9.7-460.88-.05-.13-.1-.27-.15-.4-.53-1.49-1.07-2.98-1.63-4.46-23.08-61.02-70.78-110.17-161.17-134.01-41.16-8.66-84.59-8.81-124.41,5.75-13.84,3.75-30.5,9.16-24.56,27.28,6.96,17.57,24.24,9.04,46.65,1.96,9.2-2.91,19.26-5.57,29.82-6.08,60.59-4.84,119.94,17.69,164.53,58.06,75.38,72,53.65,223.57,34.86,344.88-9.16,59.1-17.61,111.03-13.79,143.06,3.94,54.69,46.59,122.34,108.78,109.59,41.75-8.28,71.25-44.06,82.94-83.53,12.47-46.1,3.86-102.96-.29-166.41-3.82-58.42-3.85-122.42,19.85-188.78,19.07-46.86,42.25-81.1,67.47-105.89.42-.41.83-.8,1.25-1.2.63-.61,1.26-1.23,1.9-1.83,108.94-103.03,253.83-34.08,270.92-41.99Z"/>
  <path class="cls-3" d="M1548,1500.49c.39-.73.75-1.45,1.09-2.16.05-.11.1-.22.15-.34.3-.65.58-1.29.85-1.93,0-.02.02-.04.02-.06,13.75-33.46-23.17-57.28-76.05-73.73-60.84-18.93-142.79-28.09-192.92-30.95-12.19-.7-22.51-1.02-30.17-1.02-19.62-8.72-45.34,5.29-54.86,30.2-7.12,18.63-5.17,43.35,15.15,69.23,3.43,4.37,7.37,8.77,11.89,13.19,73.62,67.53,181.21,71.96,253.71,47.16,33.41-11.43,59.38-29.06,71.13-49.6ZM1492.09,1463.82c-63.31.82-132.75-15.5-192.6-36.11,52.98,4.63,143.06,16.38,192.6,36.11ZM1385.66,1529.67c-2.43-.1-4.82-.23-7.2-.39-3.95-.26-7.83-.59-11.63-1-.2-.02-.4-.04-.6-.06-62.72-6.91-105.69-33.79-126.06-58-.03-.03-.05-.06-.08-.09-.45-.53-.87-1.06-1.3-1.59-.06-.08-.12-.15-.18-.23-.17-.21-.32-.42-.49-.63-7.36-9.4-11.24-18.27-11.46-25.25,0-.01,0-.03,0-.04-.04-1.32.05-2.58.28-3.75,11.36,4.98,20.37,8.69,27.49,11.5,4.99,1.97,9.05,3.48,12.34,4.67,6.48,2.34,9.98,3.4,11.72,4.09,1.65.66,1.7.98,1.17,1.73-.76,1.08-2.69,3.06-2.74,8.23,0,.06,0,.13,0,.2,0,.37,0,.75.03,1.16.54,10.38,8.93,16.06,17.29,16.25,8.36.19,16.68-5.1,17.08-16.65,2.32.73,4.65,1.45,6.98,2.15,1.19.36,2.36.71,3.54,1.06,1.15.34,2.3.69,3.45,1.03,1.04.31,2.08.6,3.12.9,1.44.42,2.88.83,4.33,1.24.39.11.78.22,1.17.33,21.07,5.92,41.18,10.6,60.11,14.19.7.13,1.4.26,2.1.39,1.02.19,2.03.38,3.04.56,37.06,6.72,69.39,9.23,95.26,8.73.38,0,.76-.02,1.14-.03.86-.02,1.73-.04,2.58-.06,1.31-.04,2.59-.09,3.85-.14-32.53,23.34-77.41,27.32-116.33,29.49Z"/>
  <path class="cls-3" d="M588.63,1307.45c-67.66-7.22-114.72,48.25-77.62,110.03,37.72,45.45,122.05,63.5,193.83,62.04,44-.9,83.28-9.12,104.2-22.88,22.09-14.62,34.47-49,17.84-71.84-48.5-45.41-171.75-73.84-238.25-77.34ZM764.53,1386.07c-1.4-.15-2.77-.29-4.14-.44-38.09-4.13-66.12-8.83-90.74-14.87-29.52-7.24-54.13-16.41-85.26-28.81,55.15,3.03,125.85,18.06,180.15,44.12ZM631.71,1439.51c-.45-.08-.9-.15-1.34-.23-.43-.08-.86-.16-1.3-.24-27.39-5-53.47-13.56-73.93-26.73-1.15-.74-2.28-1.49-3.39-2.26-20.07-15.85-23.64-35.7-15.24-49.96,3.34,2.62,6.48,4.44,10.94,6.44,2.88,1.29,6.3,2.65,10.7,4.35,4.1,1.59,9.05,3.47,15.16,5.86h0c3.45,1.35,7.29,2.86,11.55,4.57.48.19.94.38,1.42.57-.19.08-.38.17-.57.26-1.55.69-2.98,1.62-4.25,2.74-3.92,3.46-6.36,8.67-6.1,13.94.7,13.64,14.33,18.76,24.24,15,6-2.28,10.64-7.82,10.21-16.71,0-.16-.02-.32-.03-.47-.21-2.45-1.05-4.18-1.48-5.2-1.3-3.09,1.11.35,35.86,9.97,48.45,13.43,98.58,20.59,148.83,23.36-14.74,16.28-91.77,26.81-161.29,14.73Z"/>
  <path class="cls-5" d="M1883.26,531.85c94.71-245.74-200.96-575.65-471.91-356.31-75.29-127.54-214.13-141.59-224.37-147.41-64.81-35.59-149.75-39.06-214.25-.91-52.56,30.56-81.4,86.56-108.34,138.78C725.59-32.13,421.32,10.26,480.79,287.51,244.32,95.43-42.74,346.25,137.98,595.04c-164.47-18.75-161.13,142.78-97.16,248.47,19.13,29.22,41.19,56.31,65,81.94-19.91,75.59,9.2,171.47,109.52,218.4,3.01,1.41,6.1,2.77,9.24,4.09,2.03.85,4.09,1.69,6.17,2.51,2.64,2.53,5.22,4.99,7.75,7.39,16.82,16.01,31.08,29.44,43.63,43.58,24,27.05,41.72,56.67,59.12,111.84-.03.41-.06.82-.09,1.23-1.5,21.76-4.67,43.51-7.02,65.3-1.87,17.3-3.22,34.63-2.8,52.01-.4,19.91,1.05,36.97,3.89,51.29,5.6,28.28,16.59,45.89,29.32,53.7,8.92,5.47,18.7,6.11,28.07,2.26,18.24-7.49,34.94-32.05,40.78-71.46.19-1.66.35-3.31.52-4.97,8.51-86.58-22.25-162.81-44.08-208.58-8.31-17.42-15.32-30.43-18.38-37.92-1.63-3.99-2.14-6.42-1.12-7.1.01,0,.02-.02.03-.02.27-.19.55-.38.82-.59.15-.11.29-.23.44-.35.18-.15.37-.31.55-.47.24-.22.47-.44.7-.67.1-.1.21-.2.31-.31.7-.75,1.34-1.56,1.92-2.43.08-.12.15-.24.23-.35.22-.34.43-.69.63-1.05.08-.14.15-.27.23-.41.26-.49.5-.99.72-1.5,19.16,40.94,41.81,97.66,89.44,81.28.82-.3,1.63-.62,2.44-.96,26.76-11.22,47.43-42.1,50-83.14,2.29-36.61-9.81-81.3-44.85-127.37-22.16-29.04-38.23-47.34-48.87-60.61-13.6-16.98-18.28-25.73-15.32-38.2,2.22-9.35,8.73-20.78,19-39.35.81-.66,1.64-1.3,2.48-1.92.22-.16.44-.32.66-.48.77-.56,1.55-1.1,2.35-1.62.09-.06.17-.12.26-.17.87-.56,1.75-1.11,2.65-1.64.26-.15.52-.3.78-.45.75-.43,1.52-.86,2.29-1.27.18-.1.36-.2.54-.3.9-.47,1.82-.93,2.75-1.38.31-.15.62-.29.92-.44.72-.34,1.45-.67,2.19-.99.28-.12.55-.25.82-.36.93-.4,1.87-.78,2.81-1.16.36-.14.73-.28,1.09-.43.69-.27,1.38-.53,2.08-.78.36-.13.72-.27,1.09-.4.94-.34,1.89-.66,2.84-.98.42-.14.85-.28,1.27-.42.65-.21,1.3-.42,1.96-.63.44-.14.88-.28,1.32-.41.95-.29,1.9-.57,2.86-.85.46-.13.93-.27,1.4-.4.64-.18,1.27-.36,1.92-.53.48-.13.97-.27,1.45-.4.96-.26,1.93-.51,2.9-.76.48-.12.96-.24,1.44-.37.66-.17,1.33-.33,1.99-.5.48-.12.97-.24,1.45-.36,1.02-.25,2.04-.49,3.06-.74.34-.08.69-.16,1.04-.24.91-.21,1.82-.43,2.73-.64.27-.06.55-.13.82-.19,5.61-1.3,11.29-2.58,16.97-3.95.11-.03.21-.05.32-.08,1.73-.42,3.46-.85,5.18-1.29.02,0,.05-.01.07-.02.79-.2,1.57-.41,2.35-.61.3-.08.6-.16.9-.24,1.4-.37,2.8-.75,4.19-1.15.25-.07.5-.14.74-.21.68-.2,1.36-.4,2.05-.6.44-.13.87-.26,1.31-.39.82-.25,1.64-.5,2.46-.76.75-.24,1.49-.47,2.24-.72.57-.19,1.14-.38,1.71-.57.57-.19,1.13-.39,1.7-.59.53-.19,1.06-.37,1.59-.56.97-.35,1.94-.71,2.9-1.08.44-.17.87-.34,1.3-.51.7-.28,1.4-.56,2.09-.85.41-.17.82-.34,1.22-.51,1.02-.44,2.03-.88,3.03-1.34.28-.13.56-.27.84-.4.84-.39,1.68-.8,2.51-1.21.29-.14.58-.29.86-.43,1.06-.54,2.11-1.1,3.16-1.67.6-.33,1.19-.67,1.78-1.01,10.96-6.36,20.66-14.83,28.19-26.67,1.23-1.94,2.41-3.95,3.52-6.08,4.81-8.43,8.22-17.25,10.43-26.31,6.65-27.25,2.37-56.66-7.63-83.98-.2-.54-.39-1.08-.59-1.62.2-.17.4-.32.6-.48,2.97-2.39,5.92-4.12,9.08-5.76,5.2-2.71,10.95-5.23,18.23-10.26,5.76-3.98,12.49-9.54,20.67-18.02,1.59-1.64,3.22-3.39,4.92-5.26,1.63-1.06,3.28-2.12,4.91-3.19,103.66,128.27,218.6,45.02,286.01,36.66.15-.02.31-.04.47-.06.2-.02.4-.04.61-.07.36-.04.72-.08,1.07-.12.04,0,.09,0,.13-.01,3.28-.33,6.43-.46,9.47-.38.51.02,1.02.04,1.53.06,109.16,30.31,47.4,212.66,138.47,265.19,48.23,22.26,116-24.65,172.22-54.13,28.24-14.81,53.57-25.22,72.03-20.25.78.31,1.55.64,2.31.98.07.03.13.06.2.09,35.81,16.18,51.23,62.43,65.78,112.96,8.68,30.16,17.07,61.84,29.29,89.58,18.63,42.26,46.19,75.35,97.36,79.9,13.8,1.23,29.31.39,46.84-2.92,20.53-4.88,42.19-14.31,62.22-27.5,13.11,47.46,1.79,112.74-5.83,180.41-6.92,61.47-10.77,124.91,9.55,178.77,8.91,24,30.5,51.97,59.25,44.97,1.1-.28,2.16-.59,3.2-.93.15-.05.3-.09.44-.14,1-.33,1.96-.69,2.91-1.07.15-.06.3-.12.45-.18.96-.4,1.89-.82,2.8-1.28.07-.04.14-.07.21-.11,1.94-.99,3.77-2.1,5.47-3.33,0,0,0,0,0,0,28.06-20.23,25.14-72.49,21.74-135.51-1.58-29.25-3.25-60.82-1.98-92.59,0-.24.02-.48.03-.72.08-1.82.16-3.65.26-5.48.02-.46.05-.91.07-1.37.09-1.71.2-3.43.31-5.14.04-.55.08-1.11.12-1.66.09-1.33.19-2.66.3-3.98.07-.9.15-1.8.22-2.7.1-1.15.2-2.31.31-3.46.08-.84.16-1.68.24-2.52.13-1.35.28-2.69.43-4.03.11-.98.22-1.97.34-2.95.08-.68.17-1.35.25-2.03.21-1.68.43-3.35.66-5.03.07-.47.13-.94.2-1.41.29-2,.59-3.99.91-5.98.04-.25.08-.5.12-.74,1.51-9.19,3.4-18.3,5.76-27.28,1.07-4.08,2.24-8.14,3.51-12.17,3.2-10.12,7.05-20.04,11.67-29.68.61-1.27,1.23-2.54,1.87-3.8.32-.62.64-1.24.96-1.87.24-.46.47-.91.71-1.37.47-.89.95-1.77,1.43-2.66.13-.24.25-.47.38-.71.62-1.12,1.24-2.23,1.88-3.34,53.08,21.13,108.85,16.64,152.59-4.33,68.01-32.61,106.93-105.09,61.35-183.14,167.09-130.08,50.79-422.04-88.62-499.53ZM191.48,1007.92c2.53,2.3,1.92,1.22,2.41,3.75-.84-1.22-1.62-2.47-2.41-3.75ZM401.01,1413.57c.69,7.8.68,6.37-.72,5.94-.13-3.06-.25-.96.72-5.94Z"/>
</svg>