<?xml version="1.0" encoding="UTF-8"?>
<svg id="_лой_1" data-name="—лой_1" xmlns="http://www.w3.org/2000/svg" viewBox="0 0 1946.13 2555.39">
  <defs>
    <style>
      .cls-1 {
        fill: none;
      }

      .cls-2 {
        fill: #0c0809;
      }

      .cls-3 {
        fill: #fff;
      }

      .cls-4 {
        fill: #36114e;
      }

      .cls-5 {
        fill: #fac7b9;
      }

      .cls-6 {
        fill: #f15980;
      }
    </style>
  </defs>
  <path class="cls-1" d="M690.08,1699.89s-.08.07-.13.1c.04-.03.08-.07.13-.1Z"/>
  <path class="cls-1" d="M696.55,1693.32s-.03.05-.05.08c.02-.03.03-.05.05-.08Z"/>
  <path class="cls-1" d="M691.74,1698.57c-.11.09-.21.18-.32.27.11-.09.21-.18.32-.27Z"/>
  <path class="cls-1" d="M693.14,1697.32c-.11.11-.23.21-.34.32.12-.11.23-.21.34-.32Z"/>
  <path class="cls-1" d="M695.49,1694.78c-.04.06-.09.11-.14.16.04-.06.09-.11.14-.16Z"/>
  <path class="cls-1" d="M684.83,1703.18c-.2.11-.41.22-.62.33.21-.11.41-.22.62-.33Z"/>
  <path class="cls-1" d="M414.16,1683.09c2.89,18.55,22.36,28.05,46.59,33.03-23.92-5.07-43.63-14.66-46.59-33.03Z"/>
  <path class="cls-1" d="M686.6,1702.18c-.15.09-.3.17-.44.26.15-.09.3-.17.44-.26Z"/>
  <path class="cls-1" d="M414.15,1683.05c-.08-.53-.15-1.07-.21-1.62.05.55.13,1.08.21,1.62Z"/>
  <path class="cls-1" d="M413.89,1680.73c-.03-.37-.06-.74-.08-1.11.02.38.05.74.08,1.11Z"/>
  <path class="cls-1" d="M682.97,1704.15c-.24.12-.47.24-.71.35.24-.12.48-.23.71-.35Z"/>
  <path class="cls-1" d="M674.16,1707.83c-.59.21-1.2.42-1.81.62.61-.2,1.21-.41,1.81-.62Z"/>
  <path class="cls-1" d="M676.24,1707.07c-.53.2-1.08.4-1.62.59.55-.2,1.09-.39,1.62-.59Z"/>
  <path class="cls-1" d="M681.02,1705.08c-.26.12-.52.24-.79.36.27-.12.53-.24.79-.36Z"/>
  <path class="cls-1" d="M679,1705.96c-.72.3-1.46.6-2.21.89.75-.29,1.49-.59,2.21-.89Z"/>
  <path class="cls-1" d="M694.38,1696.06c-.1.1-.2.21-.29.31.1-.1.2-.2.29-.31Z"/>
  <path class="cls-1" d="M579.58,1482.77c.66-1.68.99-3.52.91-5.49-.2-5.19-1.93-8.49-5.05-10.49,4.39,3.77,6.04,10.46,4.14,15.99Z"/>
  <path class="cls-1" d="M714.28,1653.85c.42.69.82,1.37,1.22,2.05-.4-.68-.8-1.36-1.22-2.05Z"/>
  <path class="cls-1" d="M487.03,1747.78c-12.49-1.21-25.05-2.98-37.18-6.03,11.98,3.05,24.54,4.9,37.18,6.03Z"/>
  <path class="cls-1" d="M716.29,1657.28c.11.19.21.38.32.56-.1-.19-.21-.37-.32-.56Z"/>
  <path class="cls-1" d="M567.11,1491.71c-33.31,2.24-57.92,5.28-74.61,5.93,16.75-.63,41.42-3.7,74.61-5.93Z"/>
  <path class="cls-1" d="M531.94,1466.52c9.29-.63,19.84-1.41,31.81-2.42-8.01-.21-18.73,1.18-31.81,2.42Z"/>
  <path class="cls-1" d="M697.54,1691.63c-.07.14-.14.27-.21.41.08-.14.14-.27.21-.41Z"/>
  <path class="cls-1" d="M568.52,1491.52c-.46.07-.92.14-1.4.18.47-.04.94-.1,1.4-.18Z"/>
  <path class="cls-1" d="M698.8,1688.6c-.06.18-.12.36-.18.53.06-.18.12-.35.18-.53Z"/>
  <path class="cls-1" d="M698.25,1690.11c-.07.17-.14.34-.22.51.08-.17.15-.34.22-.51Z"/>
  <path class="cls-1" d="M699.2,1687.07c-.03.16-.08.32-.12.48.04-.16.08-.32.12-.48Z"/>
  <path class="cls-1" d="M448.07,1741.29c-.41-.11-.82-.21-1.22-.32.41.11.82.22,1.22.32Z"/>
  <path class="cls-1" d="M413.19,1726.81c-.23-.14-.47-.29-.7-.43.23.15.47.29.7.43Z"/>
  <path class="cls-1" d="M514.76,1749.27c9.03.22,17.9.25,26.43.25,47.56,0,101.06-2.43,138.27-14.29-43.15,13.27-108.64,14.22-164.7,14.03Z"/>
  <path class="cls-1" d="M975.7,2058.59c.14-.11.27-.2.41-.31-.14.11-.27.2-.41.31Z"/>
  <path class="cls-1" d="M1036.63,1831c-.43,78.73-3.33,157.33-12.03,194.52,8.7-37.19,11.6-115.79,12.03-194.52Z"/>
  <path class="cls-1" d="M1024.2,2027.19c-.39,1.57-.79,3.06-1.2,4.46.41-1.4.81-2.89,1.2-4.46Z"/>
  <path class="cls-1" d="M1036.69,1809.74c0,5.3-.01,10.62-.03,15.94.02-5.32.03-10.64.03-15.94Z"/>
  <path class="cls-1" d="M1036.56,1774.77c0,1.2.02,2.4.03,3.61,0-1.2-.02-2.41-.03-3.61Z"/>
  <path class="cls-1" d="M1036.64,1788.66c.02,5.2.04,10.44.04,15.7,0-5.26-.02-10.5-.04-15.7Z"/>
  <path class="cls-1" d="M1036.51,1767.94c0,.2,0,.39,0,.59,0-.2,0-.39,0-.59Z"/>
  <path class="cls-1" d="M1023.15,2035.32c.14,0,.28,0,.42.01-.14,0-.28-.01-.42-.01Z"/>
  <path class="cls-1" d="M1026.81,2035.7c.16.03.32.07.48.11-.16-.04-.32-.08-.48-.11Z"/>
  <path class="cls-1" d="M1024.42,2035.36c.16.01.32.03.48.04-.16-.02-.32-.03-.48-.04Z"/>
  <path class="cls-1" d="M1031.14,2037.32c.12.07.24.13.36.21-.12-.07-.24-.14-.36-.21Z"/>
  <path class="cls-1" d="M1029.01,2036.33c.15.06.3.11.44.17-.15-.06-.29-.11-.44-.17Z"/>
  <path class="cls-1" d="M1030.06,2036.76c.13.06.27.12.4.18-.13-.06-.27-.12-.4-.18Z"/>
  <path class="cls-1" d="M1025.64,2035.49c.17.02.33.05.49.08-.16-.03-.33-.05-.49-.08Z"/>
  <path class="cls-1" d="M1027.93,2035.97c.16.05.31.09.47.14-.15-.05-.31-.09-.47-.14Z"/>
  <path class="cls-1" d="M1036.37,1754.06c.02,1.36.03,2.73.04,4.1-.01-1.37-.03-2.74-.04-4.1Z"/>
  <path class="cls-1" d="M544.88,1643.76c-20.09.84-39.6,14.48-39.86,40.93.25-26.43,19.76-40.08,39.86-40.93Z"/>
  <path class="cls-1" d="M1203.35,2318.21c-.55.37-1.11.74-1.67,1.11.56-.37,1.11-.74,1.67-1.11Z"/>
  <path class="cls-1" d="M698.71,1683.63c-33.13-77.84-273.43-35.88-284.93-5.98,11.47-29.8,251.82-71.81,284.93,5.98Z"/>
  <path class="cls-1" d="M679.56,2179.62c.01-.06.02-.13.03-.19-.01.06-.02.13-.03.19Z"/>
  <path class="cls-1" d="M574.46,1680.24c1.24,13.57-7.11,28.15-25.31,28.15,18.26,0,26.58-14.58,25.31-28.15Z"/>
  <path class="cls-1" d="M549.54,1657.4c-20.74,0-28.68,18.83-24.27,33.6-4.38-14.78,3.59-33.6,24.27-33.6Z"/>
  <path class="cls-1" d="M533,1721.93c5.07.1,9.81.2,14.07.33,21.82-2.19,87.36-1.3,125.04-13.74-29.3,9.65-75.47,11.23-104.96,12.54-6.75.3-23.92.77-34.15.87Z"/>
  <path class="cls-1" d="M938.13,2068.98c.49.22.99.42,1.5.6-.51-.18-1-.38-1.5-.6Z"/>
  <path class="cls-1" d="M1033.28,1617.97c.02.49.04,1.03.06,1.59-.02-.56-.04-1.09-.06-1.59Z"/>
  <path class="cls-1" d="M940.12,2069.75c.36.12.72.24,1.08.34-.36-.1-.72-.22-1.08-.34Z"/>
  <path class="cls-1" d="M474.01,1472.37c4.9-1.75,12.43-2.68,23.77-3.56-8.65.27-17.54.92-23.77,3.56Z"/>
  <path class="cls-1" d="M978.6,2056.25c.33-.43.65-.85.98-1.28-.32.43-.65.86-.98,1.28Z"/>
  <path class="cls-1" d="M973.46,2060.29c.06-.05.13-.09.19-.14-.06.05-.13.09-.19.14Z"/>
  <path class="cls-1" d="M942.13,2070.32c.23.06.47.12.7.17-.24-.05-.47-.11-.7-.17Z"/>
  <path class="cls-1" d="M946.16,2070.91s.06,0,.09,0c-.03,0-.06,0-.09,0Z"/>
  <path class="cls-1" d="M944.14,2070.71c.13.02.25.04.38.06-.13-.02-.25-.04-.38-.06Z"/>
  <path class="cls-1" d="M671.49,1344.24c.58-2.95,1.16-5.87,1.73-8.76-2.07,8.41-3.82,13.78-5.65,17.2,1.87-2.27,3.27-5.12,3.92-8.44Z"/>
  <path class="cls-1" d="M1073.86,1424.68c-.13-.41-.25-.83-.36-1.26.11.43.23.86.36,1.26Z"/>
  <path class="cls-1" d="M1074.55,1426.51c-.16-.37-.3-.75-.45-1.14.14.39.29.77.45,1.14Z"/>
  <path class="cls-1" d="M1073.31,1422.7c-.11-.47-.19-.97-.27-1.47.08.5.17,1,.27,1.47Z"/>
  <path class="cls-1" d="M1072.92,1420.55c-.1-.74-.18-1.51-.22-2.31.04.8.12,1.57.22,2.31Z"/>
  <path class="cls-1" d="M1077.4,1431.02c-.25-.28-.48-.56-.71-.86.23.3.47.58.71.86Z"/>
  <path class="cls-1" d="M1076.33,1429.67c-.22-.3-.42-.62-.63-.95.2.33.41.64.63.95Z"/>
  <path class="cls-1" d="M1075.38,1428.17c-.19-.33-.36-.68-.54-1.04.17.36.35.7.54,1.04Z"/>
  <path class="cls-1" d="M785.06,1356.85c-1.32,24.55-3.09,36.69-7.05,42.19,4.14-5.08,5.8-16.61,7.05-42.19Z"/>
  <path class="cls-1" d="M1078.58,1432.21c-.28-.25-.55-.51-.81-.78.26.27.53.53.81.78Z"/>
  <path class="cls-1" d="M871.83,1180.1c2.51-55.9,5.95-124.64,10.45-209.24-3.72,69.92-7.6,139.52-10.45,209.24Z"/>
  <path class="cls-1" d="M1003.65,1420.94c.09-5.33.16-10.67.24-16.01-1,16-2.41,24.72-4.45,29.46,2.74-3.16,4.46-7.65,4.21-13.45Z"/>
  <path class="cls-1" d="M750.99,1382.11c-.43,5.07,1.05,10.18,3.84,14.06-1.69-4.6-2.86-12.59-3.37-26.57-.16,4.28-.32,8.46-.47,12.52Z"/>
  <path class="cls-1" d="M971.21,1422.29c.06,5.01,1.51,8.91,3.75,11.77-1.88-5-2.95-14.21-3.45-31.12-.1,6.45-.19,12.9-.3,19.34Z"/>
  <path class="cls-1" d="M768.21,992.92c-2.99.83-5.97,1.68-8.95,2.54,2.39-.69,5.3-1.52,8.95-2.54Z"/>
  <path class="cls-1" d="M900.08,1403.83c-.27-8.1-.41-17.39-.45-27.66-.67,22.68-1.44,34.4-3.21,40.42,2.4-3.11,3.86-7.38,3.66-12.76Z"/>
  <path class="cls-1" d="M867.64,1405.16c.14,5.89,2.14,10.25,5.08,13.18-2.38-4.08-4.15-11.85-5.18-26.64.03,4.48.06,8.97.11,13.46Z"/>
  <path class="cls-1" d="M1271.1,1333.07c2.1-3.49,3.13-8.01,2.3-13.42-.53-3.62-1.06-7.17-1.58-10.7.9,11.86.62,19.37-.72,24.12Z"/>
  <path class="cls-1" d="M1241.39,1326.06c.79,5.53,3.09,9.43,6.11,11.89-2.48-2.36-4.42-6.16-6.11-11.89Z"/>
  <path class="cls-1" d="M1229.84,1250.74c-6.49-50.05-16.99-126.26-39.26-240.98,0,0,0,0,0,0,15.47,79.69,27.18,160.42,39.26,240.98Z"/>
  <path class="cls-1" d="M1334.5,1244.87c-27.48-68.36-48.19-115.86-62.9-148.4,21.77,49.02,42.84,98.49,62.9,148.4Z"/>
  <path class="cls-1" d="M1193.36,1344.76c.06.63.09,1.24.12,1.84-.02-.61-.06-1.23-.12-1.84Z"/>
  <path class="cls-1" d="M1352.35,1255.05c9.07-2.55,16.74-13.22,11.66-25.88,5.07,12.64-2.59,23.33-11.66,25.88Z"/>
  <path class="cls-1" d="M1081.31,1434.16c-.37-.21-.74-.42-1.1-.66.36.24.73.46,1.1.66Z"/>
  <path class="cls-1" d="M1084.39,1435.43c-.98-.28-1.93-.65-2.84-1.14.91.48,1.87.86,2.84,1.14Z"/>
  <path class="cls-1" d="M1079.87,1433.25c-.31-.22-.62-.45-.92-.71.3.25.61.48.92.71Z"/>
  <path class="cls-1" d="M1085.85,1435.77c-.34-.06-.67-.14-1-.22.33.08.66.16,1,.22Z"/>
  <path class="cls-1" d="M1169.26,1364.25c2.34,1.59,5.11,2.33,8.45,2.33,2.77,0,5.21-.71,7.29-1.94-4.88,2.67-10.96,2.48-15.75-.39Z"/>
  <path class="cls-1" d="M1087.33,1435.95c-.29-.02-.58-.06-.87-.1.29.04.58.08.87.1Z"/>
  <path class="cls-1" d="M1161.36,1351.07c-2.8-24.17-5.98-54.32-9.44-87.24,3.45,44.82,4.98,72.15,9.44,87.24Z"/>
  <path class="cls-1" d="M1101.97,1322.54c.99,27.92,2.01,58.07,3.03,90.65,1.16-16.54-.4-44.41-3.03-90.65Z"/>
  <path class="cls-1" d="M576.13,1150.1c.4-1,.81-2,1.21-2.99-.4,1-.81,1.99-1.21,2.99Z"/>
  <path class="cls-1" d="M198.99,2013.78c-.09-.11-.17-.22-.25-.34.09.11.17.23.25.34Z"/>
  <path class="cls-1" d="M228.28,1950.25c11.57,0,21.13,3.84,28.14,9.97-8.4-7.52-18.45-10.53-28.14-9.97Z"/>
  <path class="cls-1" d="M261.77,1965.98c4.61,6.12,7.31,13.53,7.76,21.32-.31-7.35-2.74-14.75-7.76-21.32Z"/>
  <path class="cls-1" d="M256.9,1960.64c-.13-.12-.26-.23-.38-.34.23.21.46.42.69.63-.1-.1-.2-.2-.3-.29Z"/>
  <path class="cls-1" d="M202.03,2017.2c-1.1-1.11-2.11-2.25-3.03-3.42.94,1.2,1.95,2.34,3.03,3.42Z"/>
  <path class="cls-1" d="M556.25,1265.45c4.92,0,7.18.72,11.26-6.16-3.32,4.34-6.78,6.16-11.26,6.16Z"/>
  <path class="cls-1" d="M202.91,2018.06c-.17-.17-.35-.33-.52-.5.17.17.35.34.52.5Z"/>
  <path class="cls-1" d="M1379.69,1369.23c-13.73,0-18.65,11.66-16.08,21-2.46-9.34,2.63-21,16.08-21Z"/>
  <path class="cls-1" d="M1347.56,1511.02c6.64,12.89,29.97,10.32,30.71-7.31-.73,17.6-24.06,20.2-30.71,7.31Z"/>
  <path class="cls-1" d="M1345.83,1502.4c.77-18.5,26.49-20.41,31.57-5.21-5.08-15.21-30.8-13.32-31.57,5.21Z"/>
  <path class="cls-1" d="M201.24,1962.86c-6.79,7.2-10.99,17.09-10.43,28.69.07,1.4.21,2.78.42,4.15-1.68-11.87,2.31-24.07,10-32.84Z"/>
  <path class="cls-1" d="M1387.04,1462.95c-23.32.61-39.51,1.68-52.74,2.8,13.32-1.13,29.62-2.2,52.74-2.8Z"/>
  <path class="cls-1" d="M232.09,2028.99s.02,0,.02,0c10.49,0,19.69-4.71,26.35-11.92-6.97,7.04-16.48,11.34-26.37,11.92Z"/>
  <path class="cls-1" d="M1394.81,1388.78c1.66-9.05-3.75-19.55-15.12-19.55,11.34,0,16.77,10.5,15.12,19.55Z"/>
  <path class="cls-1" d="M871.77,1603.01c-4.43,4.47-3.62,10.29-3.46,16.22.92-4.69,1.73-8.95,3.46-16.22Z"/>
  <path class="cls-1" d="M1090.56,1056.19c-.6-22.31-1.15-45.92-1.64-70.89-1.28,8.16-.47,27.67,1.64,70.89Z"/>
  <path class="cls-1" d="M733.24,1046.31c-5.6,23.94-13.68,59.58-24.07,112.02,10.37-49.38,17.72-82.7,24.07-112.02Z"/>
  <path class="cls-1" d="M1032.29,2038.04c.13.09.25.19.38.28-.13-.09-.25-.19-.38-.28Z"/>
  <path class="cls-1" d="M655.16,1358.68c-.12,0-.23,0-.35-.01.12,0,.23,0,.35.01Z"/>
  <path class="cls-1" d="M653.52,1358.53c-.08-.01-.15-.03-.23-.04.08.01.15.03.23.04Z"/>
  <path class="cls-1" d="M764.99,1402.71c.36.05.72.09,1.09.12-.19-.02-.39-.05-.59-.07-.17-.02-.34-.03-.51-.05Z"/>
  <path class="cls-1" d="M757.35,996.01c-.3.09-.6.18-.9.27.29-.09.59-.17.9-.27Z"/>
  <path class="cls-1" d="M541.28,1239.78c1.44-3.9,2.88-7.78,4.32-11.64-1.45,3.88-2.89,7.76-4.32,11.64Z"/>
  <path class="cls-1" d="M1088,1435.98c.19,0,.37.03.56.03,6.13,0,10.28-1.49,12.93-6.46-3.35,4.39-8.48,6.61-13.48,6.43Z"/>
  <path class="cls-1" d="M548.52,1263.06c-.1-.06-.19-.13-.28-.2.09.07.19.14.28.2Z"/>
  <path class="cls-1" d="M549.39,1263.6c-.2-.11-.39-.24-.58-.36.19.12.38.25.58.36Z"/>
  <path class="cls-1" d="M641.88,1349.53c1.45,6.36,5.02,7.25,9.71,8.56-4.11-1.26-7.56-4.42-9.71-8.56Z"/>
  <path class="cls-1" d="M547.69,1262.46s0,0,0,0c0,0,0,0,0,0Z"/>
  <path class="cls-1" d="M556.25,1265.45c-2.48,0-4.8-.68-6.86-1.86,2.06,1.18,4.37,1.86,6.86,1.86Z"/>
  <path class="cls-1" d="M643.3,1318.43c16.23-81.47,43.27-212.77,63.44-304.79h0c-39.4,179.74-57.67,264.28-63.44,304.79Z"/>
  <path class="cls-1" d="M416.39,1728.71c-.11-.06-.22-.13-.33-.19.11.06.22.13.33.19Z"/>
  <path class="cls-1" d="M1009.56,2206.94c.57-.08,1.13-.19,1.7-.28-.57.09-1.13.19-1.7.28Z"/>
  <path class="cls-1" d="M891.79,2053.85c.34-.3.69-.58,1.04-.84-.35.26-.7.54-1.04.84Z"/>
  <path class="cls-1" d="M832.99,2173.3c.93.14,1.86.29,2.8.45-.94-.16-1.87-.31-2.8-.45Z"/>
  <path class="cls-1" d="M744.9,2201.43c-.02-.11-.06-.23-.08-.34.02.11.05.23.08.34Z"/>
  <path class="cls-1" d="M767.95,2313.67c65.36,39.41,152.21,59.42,236.22,58.29-3.74-.02-7.49-.08-11.22-.2-101.24-7.42-174.67-29.55-225-58.09Z"/>
  <path class="cls-1" d="M878.35,2099.24c.06,6.55.85,13.29,2.63,19.87.61,2.26,1.35,4.5,2.19,6.69-3.13-8.71-4.6-17.82-4.82-26.56Z"/>
  <path class="cls-1" d="M679.4,2180.68c-3.7,24.02,3.03,50.39,19.79,73.75.51.66,1.05,1.31,1.57,1.96-18.48-25.68-24.89-52.18-21.36-75.71Z"/>
  <path class="cls-1" d="M1204.66,2317.33c47.08-31.76,78.86-77.7,83.35-138.68-4.57,60.69-36.73,106.76-83.35,138.68Z"/>
  <path class="cls-1" d="M832.99,2173.3c-63.66-12.63-92.6,3.04-88.24,27.37-4.31-24.33,24.74-39.96,88.24-27.37Z"/>
  <path class="cls-1" d="M1541,1659.9c0,.37-.01.74-.01,1.11,0-.37.02-.75.01-1.11Z"/>
  <path class="cls-1" d="M1540.94,1663.47c-.05,1.25-.13,2.51-.24,3.79.11-1.29.19-2.55.24-3.79Z"/>
  <path class="cls-1" d="M1013.5,2206.3c1.26-.22,2.52-.46,3.78-.72-1.26.26-2.52.5-3.78.72Z"/>
  <path class="cls-1" d="M1064.58,2186.26c.79-.81,74.38-39.56,114.56-42.76-42.04,3.34-113.77,41.95-114.56,42.76Z"/>
  <path class="cls-1" d="M1017.44,2205.54c15.77-3.25,31.56-9.33,47.14-19.28-15.58,9.95-31.37,16.03-47.14,19.28Z"/>
  <path class="cls-1" d="M905.18,2050.14s-.01,0-.02,0c0,0,.01,0,.02,0Z"/>
  <path class="cls-1" d="M918.5,2066.65c-3.64,8.26-6.19,17.27-6.98,26.1.25-2.76.67-5.55,1.25-8.33,1.26-6.03,3.2-12.04,5.73-17.77Z"/>
  <path class="cls-1" d="M911.39,2102.63c-.01-.14-.02-.28-.03-.41,0,.14.02.28.03.41Z"/>
  <path class="cls-1" d="M905.67,2050.26c7.19,1.62,13.16,8.1,12.82,16.4.34-8.31-5.64-14.78-12.82-16.4Z"/>
  <path class="cls-1" d="M911.4,2094.22c.03-.37.05-.74.08-1.12-.03.37-.06.74-.08,1.12Z"/>
  <path class="cls-1" d="M911.28,2100.51c0-.13-.01-.27-.01-.4,0,.13.01.27.01.4Z"/>
  <path class="cls-1" d="M872.64,1702.78c-.52,128.25-6.86,290.65,19.15,351.07-26-60.39-19.67-222.85-19.15-351.07Z"/>
  <path class="cls-1" d="M911.24,2098.08c0-.15,0-.3,0-.44,0,.15,0,.3,0,.44Z"/>
  <path class="cls-1" d="M911.29,2096.13c.01-.3.03-.6.04-.9-.02.3-.03.6-.04.9Z"/>
  <path class="cls-1" d="M1008.51,2063.43c-.53-8.24-4-22.8,7.45-26.98-11.92,4.31-7.91,19.68-7.45,26.98Z"/>
  <path class="cls-1" d="M986.54,2118.15c14.3-18.64,22.68-43.81,21.97-54.72.46,7.1-7.47,34.7-21.97,54.72Z"/>
  <path class="cls-1" d="M938.11,2068.97c-56.81-25.47-33.56-289.78-38.18-430.73,4.43,135.24-19.53,405.1,38.18,430.73Z"/>
  <path class="cls-1" d="M1006.29,2066.68c-6.72,9.33-15.08,16.77-24.24,22.06,8.98-5.11,17.33-12.43,24.24-22.06Z"/>
  <path class="cls-1" d="M977.3,2091.23c.07-.03.13-.07.2-.1-.07.03-.13.07-.2.1Z"/>
  <path class="cls-1" d="M979.67,2090.04c.73-.38,1.46-.78,2.19-1.19-.72.41-1.46.8-2.19,1.19Z"/>
  <path class="cls-1" d="M1540.18,1669.36c-.05.18-.1.36-.15.54.05-.18.1-.36.15-.54Z"/>
  <path class="cls-1" d="M1716.68,1983.82c-1.21-2.73-2.11-5.61-2.67-8.57.56,2.97,1.46,5.85,2.67,8.57Z"/>
  <path class="cls-1" d="M1717.36,1985.28c-.21-.43-.42-.86-.62-1.29.2.44.4.87.62,1.29Z"/>
  <path class="cls-1" d="M1713.99,1975.15c-.11-.57-.2-1.15-.29-1.73.08.58.18,1.16.29,1.73Z"/>
  <path class="cls-1" d="M1720.5,1990.55c-.04-.05-.08-.1-.11-.16.04.05.08.1.11.16Z"/>
  <path class="cls-1" d="M1713.63,1972.81c-.05-.41-.11-.82-.15-1.23.04.41.09.82.15,1.23Z"/>
  <path class="cls-1" d="M1539.51,1671.59c-.04.12-.08.25-.12.37.04-.12.08-.25.12-.37Z"/>
  <path class="cls-1" d="M1718.86,1988.02c-.15-.25-.31-.5-.45-.75.14.25.3.5.45.75Z"/>
  <path class="cls-1" d="M1719.66,1989.31c-.1-.15-.21-.3-.3-.46.1.15.2.3.3.46Z"/>
  <path class="cls-1" d="M1787.91,1985.09c.03-.07.07-.14.1-.21-.03.07-.07.14-.1.21Z"/>
  <path class="cls-1" d="M1033.15,2038.69c.14.11.27.23.4.35-.13-.12-.26-.23-.4-.35Z"/>
  <path class="cls-1" d="M1779.44,1938.8c-7.94-7.33-17.43-10.55-26.7-10.46,9.27-.08,18.76,3.13,26.7,10.46Z"/>
  <path class="cls-1" d="M1788.16,1984.57c6.72-14.34,5.54-32.6-8.72-45.76,14.13,13.04,15.4,31.37,8.72,45.76Z"/>
  <path class="cls-1" d="M1752.06,1928.35c.1,0,.2,0,.3-.01-.1,0-.2,0-.3.01Z"/>
  <path class="cls-1" d="M1718.09,1986.68c-.19-.34-.38-.69-.55-1.04.18.35.37.69.55,1.04Z"/>
  <path class="cls-1" d="M1281.55,1723.63c35.33,2.21,71.4,2,88.1,2,19.32,0,39.52-.57,58.99-2.32-54.64,4.82-115.14.42-147.1.31Z"/>
  <path class="cls-1" d="M1361.94,1587.96c-3.69.02-7.46.05-11.31.11,46.7.28,110.99-1.01,151.62,17.38-38.92-18-98.91-17.75-140.31-17.5Z"/>
  <path class="cls-1" d="M1278.15,1695.57c-2.61-.27-5.25-.48-7.9-.66,2.57.23,5.2.45,7.9.66Z"/>
  <path class="cls-1" d="M1244.15,1633.09c26.37-9.27,72.02-16.2,118.27-17.94-40.38-.01-80.54,4.24-118.27,17.94Z"/>
  <path class="cls-1" d="M1429.72,1723.22c-.22.02-.44.04-.66.06.22-.02.44-.04.66-.06Z"/>
  <path class="cls-1" d="M1281.53,1723.63c-6.21-.73-12.66-1.12-19.19-1.47,6.29.58,12.73,1.07,19.19,1.47Z"/>
  <path class="cls-1" d="M1257.8,1598.72c24.45-6.27,50.96-8.08,74.92-10.16-24.69,1.01-51.04,3.61-74.92,10.16Z"/>
  <path class="cls-1" d="M1332.7,1688.16c-4.77-6.86-7.58-15.12-7.51-23.88-.1,11.18,3.65,18.78,7.51,23.88Z"/>
  <path class="cls-1" d="M1368.4,1637.58c-20.76,0-28.69,18.85-24.26,33.64-4.4-14.78,3.57-33.64,24.26-33.64Z"/>
  <path class="cls-1" d="M1368,1688.58c20.68,0,28.63-18.72,24.3-33.47,4.3,14.76-3.69,33.47-24.3,33.47Z"/>
  <path class="cls-1" d="M1341.52,1697.51c-.21-.17-.42-.35-.63-.52.76,2.25-11.52-.71-62.62-1.41,32.3,2.54,72.88,3.8,111.42,2.04-16.34.4-32.72.25-48.17-.11Z"/>
  <path class="cls-1" d="M1408.67,1664.95c.18-20.26-10.87-33.1-24.97-38.58,14.11,5.48,25.15,18.33,24.97,38.58Z"/>
  <path class="cls-1" d="M1511.06,1667.86c-.44.47-.92.93-1.39,1.39.48-.46.95-.92,1.39-1.39Z"/>
  <path class="cls-1" d="M1754.65,2007.15c-.77,0-1.52-.02-2.27-.05.75.03,1.51.05,2.27.05Z"/>
  <path class="cls-1" d="M1511.06,1667.86c7.78-24.85-12.02-36.41-35.14-42.44,26.36,8.3,41.57,21.91,35.14,42.44Z"/>
  <path class="cls-1" d="M1039.58,2076.17c-.07.39-.14.78-.21,1.17.07-.39.14-.78.21-1.17Z"/>
  <path class="cls-1" d="M1039.89,2074.32c-.06.41-.13.82-.2,1.23.07-.41.14-.82.2-1.23Z"/>
  <path class="cls-1" d="M1040.92,2062.85c0,.41-.02.82-.03,1.23.01-.41.02-.83.03-1.23Z"/>
  <path class="cls-1" d="M1040.16,2072.49c-.06.45-.13.9-.2,1.35.07-.45.13-.9.2-1.35Z"/>
  <path class="cls-1" d="M1040.8,2066.05c-.03.46-.06.92-.1,1.39.04-.47.07-.93.1-1.39Z"/>
  <path class="cls-1" d="M1040.88,2064.46c-.02.43-.04.85-.06,1.28.02-.43.04-.86.06-1.28Z"/>
  <path class="cls-1" d="M1040.7,2067.47c-.13,1.61-.31,3.26-.53,4.94.23-1.68.41-3.33.53-4.94Z"/>
  <path class="cls-1" d="M1038.85,2079.97c-.08.36-.15.73-.23,1.09.08-.36.16-.73.23-1.09Z"/>
  <path class="cls-1" d="M1039.24,2078.05c-.07.38-.15.75-.22,1.13.08-.38.15-.76.22-1.13Z"/>
  <path class="cls-1" d="M1035.41,2092.87c-.06.2-.13.4-.19.59.06-.2.13-.4.19-.59Z"/>
  <path class="cls-1" d="M1034.72,2094.96c-.06.17-.12.35-.18.52.06-.17.12-.35.18-.52Z"/>
  <path class="cls-1" d="M1036.05,2090.82c-.06.2-.13.41-.19.61.06-.21.13-.41.19-.61Z"/>
  <path class="cls-1" d="M1037.94,2083.97c-.07.3-.15.6-.22.91.08-.3.15-.6.22-.91Z"/>
  <path class="cls-1" d="M1038.42,2081.92c-.08.35-.16.69-.24,1.04.08-.35.16-.69.24-1.04Z"/>
  <path class="cls-1" d="M1037.21,2086.8c-.03.12-.07.25-.1.37.03-.12.07-.25.1-.37Z"/>
  <path class="cls-1" d="M1036.65,2088.79c-.06.2-.12.4-.18.6.06-.2.12-.4.18-.6Z"/>
  <path class="cls-1" d="M1037.22,2043.71c.44.81.85,1.67,1.21,2.57-.36-.91-.77-1.77-1.21-2.57Z"/>
  <path class="cls-1" d="M1036.09,2041.9c.12.17.24.35.36.53-.12-.18-.24-.35-.36-.53Z"/>
  <path class="cls-1" d="M1036.7,2042.82c.12.2.24.39.36.59-.12-.2-.24-.4-.36-.59Z"/>
  <path class="cls-1" d="M1035.43,2041.01c.13.16.25.31.37.48-.12-.16-.25-.32-.37-.48Z"/>
  <path class="cls-1" d="M1033.97,2097.13c-.04.12-.09.25-.13.37.04-.12.09-.25.13-.37Z"/>
  <path class="cls-1" d="M1033.95,2039.41c.13.13.26.26.39.39-.13-.13-.26-.26-.39-.39Z"/>
  <path class="cls-1" d="M911.89,2106.94c-.01-.06-.02-.13-.03-.19.01.06.02.13.03.19Z"/>
  <path class="cls-1" d="M1034.71,2040.18c.13.14.26.29.38.43-.13-.15-.25-.29-.38-.43Z"/>
  <path class="cls-1" d="M1039.98,2051.53c.07.32.13.65.19.98-.06-.33-.13-.66-.19-.98Z"/>
  <path class="cls-1" d="M1040.93,2061.24c0,.4,0,.81,0,1.22,0-.41,0-.81,0-1.22Z"/>
  <path class="cls-1" d="M1040.22,2052.8c.36,2.07.58,4.29.67,6.62-.09-2.34-.31-4.55-.67-6.62Z"/>
  <path class="cls-1" d="M1040.9,2059.67c.01.41.02.82.03,1.23,0-.41-.01-.82-.03-1.23Z"/>
  <path class="cls-1" d="M1038.55,2046.58c.1.27.2.54.29.81-.1-.27-.19-.55-.29-.81Z"/>
  <path class="cls-1" d="M1038.97,2047.76c.09.27.18.55.26.83-.08-.28-.17-.55-.26-.83Z"/>
  <path class="cls-1" d="M1039.69,2050.25c.07.3.15.6.21.91-.07-.31-.14-.61-.21-.91Z"/>
  <path class="cls-1" d="M1039.35,2048.98c.08.28.16.57.23.86-.08-.29-.15-.58-.23-.86Z"/>
  <path class="cls-1" d="M1288.58,2164.77c-.01,2.16-.06,4.3-.14,6.42.08-2.12.13-4.26.14-6.42Z"/>
  <path class="cls-1" d="M925.22,2131.01c-.16-.13-.31-.26-.46-.39.15.13.31.26.46.39Z"/>
  <path class="cls-1" d="M923.62,2129.62c-.14-.13-.29-.26-.43-.39.14.13.29.26.43.39Z"/>
  <path class="cls-1" d="M920.47,2126.36c-.13-.15-.26-.31-.38-.46.13.15.25.31.38.46Z"/>
  <path class="cls-1" d="M926.86,2132.28c11.81,8.59,22.92,9.93,32.92,6.77-11.71,3-23.26.26-32.92-6.77Z"/>
  <path class="cls-1" d="M921.78,2127.83s-.08-.1-.13-.14c.04.05.08.1.13.14Z"/>
  <path class="cls-1" d="M1033.14,2099.43s-.02.06-.04.1c.01-.03.02-.06.04-.1Z"/>
  <path class="cls-1" d="M1017.22,2036.05c-.43.12-.84.25-1.23.39.39-.14.8-.27,1.23-.39Z"/>
  <path class="cls-1" d="M1018.62,2035.73c-.34.07-.67.15-.99.23.32-.08.65-.16.99-.23Z"/>
  <path class="cls-1" d="M1020.16,2035.49c-.25.03-.48.07-.72.11.24-.04.47-.08.72-.11Z"/>
  <path class="cls-1" d="M913.37,2113.28c-.03-.09-.06-.18-.08-.26.03.09.06.18.08.26Z"/>
  <path class="cls-1" d="M919.19,2124.76c-.11-.14-.22-.29-.33-.43.11.15.22.29.33.43Z"/>
  <path class="cls-1" d="M914.77,2117.12s-.03-.07-.04-.11c.01.03.03.07.04.11Z"/>
  <path class="cls-1" d="M912.28,2109.08c-.02-.11-.04-.22-.06-.32.02.11.04.22.06.32Z"/>
  <path class="cls-1" d="M914.05,2115.3c-.05-.13-.1-.27-.15-.4.05.13.1.27.15.4Z"/>
  <path class="cls-1" d="M917.77,2122.75c-.04-.06-.08-.13-.12-.19.04.06.08.13.12.19Z"/>
  <path class="cls-1" d="M915.79,2119.29c-.07-.13-.13-.26-.2-.39.06.13.13.26.2.39Z"/>
  <path class="cls-1" d="M916.77,2121.1c-.09-.16-.18-.31-.27-.47.09.16.18.31.27.47Z"/>
  <path class="cls-1" d="M904.27,2155.72c10.56,9.19,23.64,15.5,37.74,17.21-9.8-1.45-20.08-5.36-30.73-12.32-2.5-1.52-4.83-3.16-7.01-4.89Z"/>
  <path class="cls-1" d="M1009.52,2141.08s-.01.02-.02.03c0,0,.01-.02.02-.03Z"/>
  <path class="cls-1" d="M1288.37,2172.52c-.08,1.76-.17,3.51-.29,5.25.12-1.74.21-3.49.29-5.25Z"/>
  <path class="cls-5" d="M635.82,1045.51c-2.01,1.05-4.01,2.14-6.01,3.22.09-.05.17-.09.26-.14,1.91-1.04,3.82-2.08,5.75-3.08Z"/>
  <path class="cls-5" d="M1340.89,1696.99c-3.12-2.55-5.89-5.53-8.19-8.84-3.86-5.1-7.6-12.7-7.51-23.88.33-34.76,34.03-47.42,58.5-37.91,14.11,5.48,25.15,18.33,24.97,38.58-.13,13.3-6.75,24.99-16.65,32.56,51.58-2.53,99.11-10.55,117.65-28.27.47-.46.94-.92,1.39-1.39,6.43-20.53-8.79-34.14-35.14-42.44-15.5-4.04-32.49-5.6-43.66-6.99-23.06-1.84-46.48-3.26-69.83-3.27-46.25,1.74-91.9,8.67-118.27,17.94-.86.31-1.72.61-2.58.93-20.53,7.39-40.67,32.02-23.85,52.41,6.5,2.93,26.17,6.12,52.54,8.47,2.65.18,5.28.39,7.9.66.04,0,.08,0,.12,0,51.1.7,63.38,3.66,62.62,1.41Z"/>
  <path class="cls-5" d="M413.89,1680.73c.02.24.03.47.06.71.06.55.13,1.08.21,1.62,0,.01,0,.03,0,.04,2.96,18.36,22.67,27.96,46.59,33.03,21.17,4.34,45.95,5.23,66.48,5.69-13.21-7.19-22.34-21.38-22.21-37.11.25-26.46,19.76-40.09,39.86-40.93,21.6-.92,43.87,12.94,43.62,41.61-.15,15.32-8.85,28.53-21.35,35.69,29.49-1.31,75.66-2.89,104.96-12.54.08-.03.16-.05.25-.08.61-.2,1.21-.41,1.81-.62.16-.05.31-.11.46-.17.55-.2,1.09-.39,1.62-.59.19-.07.37-.14.55-.22.75-.29,1.49-.59,2.21-.89.41-.17.82-.34,1.23-.52.27-.12.53-.24.79-.36.42-.19.83-.38,1.23-.57.24-.12.48-.23.71-.35.42-.21.84-.42,1.25-.64.21-.11.41-.22.62-.33.45-.25.89-.49,1.33-.75.15-.09.3-.17.44-.26,1.18-.7,2.3-1.44,3.34-2.2.04-.03.08-.07.13-.1.46-.34.91-.69,1.34-1.04.11-.09.21-.18.32-.27.36-.3.71-.61,1.06-.93.12-.11.23-.21.34-.32.33-.31.64-.63.95-.95.1-.1.2-.2.29-.31.34-.37.66-.74.97-1.12.04-.06.09-.11.14-.16.36-.45.69-.91,1.01-1.38.02-.03.03-.05.05-.08.28-.42.54-.85.78-1.28.08-.14.14-.27.21-.41.17-.33.34-.67.49-1.01.08-.17.15-.34.22-.51.13-.32.25-.65.37-.98.06-.18.12-.35.18-.53.11-.35.2-.7.28-1.06.04-.16.08-.32.12-.48.11-.52.2-1.04.26-1.58-.23-.63-.48-1.25-.74-1.86-33.12-77.79-273.47-35.78-284.93-5.98-.01.67,0,1.32.03,1.96.02.38.05.75.08,1.11Z"/>
  <path class="cls-5" d="M1179.14,2143.51c-40.18,3.2-113.77,41.95-114.56,42.76-15.58,9.95-31.37,16.03-47.14,19.28-.05.01-.11.02-.16.03-1.26.26-2.52.5-3.78.72-.75.13-1.49.24-2.24.36-.57.09-1.13.19-1.7.28-64.35,9.53-127.68-25.22-173.77-33.18-.94-.16-1.87-.31-2.8-.45-63.5-12.59-92.55,3.04-88.24,27.37.03.14.04.28.07.42.02.11.05.23.08.34,3.69,17.88,25.11,40.27,63.73,59.54,66.5,30.27,140.14,48.7,213.5,45.36,53.9-5.11,112.3-12.11,154.51-49.19,37.84-26.22,81.25-117.41,2.5-113.63Z"/>
  <path class="cls-5" d="M982.05,2088.73c-.07.04-.13.07-.2.11-.73.41-1.46.81-2.19,1.19-.72.38-1.44.74-2.16,1.09-.07.03-.13.07-.2.1-21.52,10.4-46.44,9.25-64.53-6.8-.58,2.78-1,5.57-1.25,8.33-.01.11-.02.23-.03.34-.03.37-.06.74-.08,1.12-.02.33-.04.67-.06,1-.02.3-.03.6-.04.9-.02.51-.03,1.01-.04,1.51,0,.15,0,.3,0,.44,0,.68,0,1.36.02,2.03,0,.13.01.27.01.4.02.57.05,1.14.08,1.71,0,.14.02.28.03.41.1,1.39.25,2.76.46,4.12.01.06.02.13.03.19.1.61.21,1.22.33,1.82.02.11.04.22.06.32.28,1.33.61,2.65,1,3.94.03.09.06.18.08.26.17.54.35,1.08.54,1.61.05.13.1.27.15.4.21.58.44,1.15.68,1.71.01.03.03.07.04.11.26.6.53,1.2.82,1.78.06.13.13.26.2.39.23.45.47.9.71,1.34.09.16.18.31.27.47.28.49.58.98.89,1.46.04.06.08.13.12.19.35.54.71,1.06,1.09,1.58.11.15.22.29.33.43.29.38.59.76.89,1.14.13.15.25.31.38.46.38.45.77.89,1.18,1.33.04.05.08.1.13.14.45.48.92.94,1.41,1.4.14.13.29.26.43.39.37.34.75.67,1.14,1,.15.13.31.26.46.39.53.43,1.07.86,1.64,1.27,11.07,2.81,22.2,5.11,33.41,6.61,10.04-3.33,18.93-11.17,26.27-20.73,14.5-20.02,22.43-47.62,21.97-54.72-.72,1.11-1.46,2.19-2.22,3.25-6.91,9.63-15.25,16.94-24.24,22.06Z"/>
  <path class="cls-5" d="M887.52,970.37c7.66-.76,15.34-1.4,23.02-1.9-7.69.5-15.36,1.14-23.02,1.9Z"/>
  <path class="cls-5" d="M978,967.38c9.84.34,19.69.86,29.53,1.63-9.84-.77-19.68-1.3-29.53-1.63Z"/>
  <path class="cls-5" d="M1882.71,1771.86c-56.45-42.02-126.15-48.26-195.02-49.66-28.9-269-161.76-530.89-397.54-665.94,25.67,57.01,50.39,114.61,73.86,172.91,5.08,12.66-2.58,23.34-11.66,25.88-6.7,1.89-14.18-.66-17.86-10.18-20.06-49.9-41.14-99.38-62.9-148.4-17.95-39.7-26.97-57.13-28.44-62.99-.34-.75-.68-1.5-1.02-2.24-11.08-5.22-15.91-15.84-13.25,5.5,26.76,160.3,40.22,236.26,42.94,272.22.52,3.53,1.05,7.09,1.58,10.7.83,5.41-.2,9.93-2.3,13.42-2.15,7.58-7.04,8.15-14.29,8.15-3.84,0-6.84-.93-9.3-3.27-3.02-2.46-5.31-6.36-6.11-11.89-3.86-13.08-6.48-36.21-11.55-75.32-12.09-80.56-23.8-161.28-39.26-240.98-.06,0-.1-.01-.14-.01-.1.05-.21,0,0,0,.06-.03.12-.11.08-.29-12.5-4.66-25.07-8.94-37.73-12.82,9.89,63.03,34.5,287.7,40.57,348.11.06.62.1,1.23.12,1.84.42,9.28-3.35,15.24-8.47,18.04-2.09,1.23-4.53,1.94-7.29,1.94-3.34,0-6.12-.73-8.45-2.33-4.1-2.46-7.26-6.88-7.9-13.17,0,0,0,0,0-.01-4.46-15.09-5.99-42.42-9.44-87.24-7.86-74.82-17.14-163.98-26.66-229.96-2.33-15.01-4.86-30.65-7.61-46.95-8.77-2.18-16.69-4.04-27.09-6.16-.74.76-1.28,2.17-1.65,4.54.49,24.97,1.04,48.58,1.64,70.89,2.45,50.25,6.67,132.56,11.42,266.35,2.63,46.24,4.19,74.11,3.03,90.65,0,.3.02.59.03.9.83,6.57-.73,11.78-3.55,15.47-2.65,4.97-6.8,6.46-12.93,6.46-.19,0-.37-.02-.56-.03-.22,0-.45-.01-.67-.03-.29-.02-.58-.06-.87-.1-.2-.03-.41-.05-.61-.09-.34-.06-.67-.14-1-.22-.15-.04-.31-.07-.46-.11-.98-.28-1.93-.66-2.84-1.14-.08-.04-.16-.09-.23-.14-.37-.21-.74-.42-1.1-.66-.12-.08-.23-.17-.34-.25-.31-.22-.62-.45-.92-.71-.13-.11-.25-.22-.37-.33-.28-.25-.55-.5-.81-.78-.13-.13-.25-.27-.37-.41-.25-.28-.48-.56-.71-.86-.12-.16-.24-.32-.36-.48-.22-.3-.42-.62-.63-.95-.11-.18-.22-.37-.33-.56-.19-.33-.36-.68-.54-1.04-.1-.21-.2-.41-.29-.63-.16-.37-.3-.75-.45-1.14-.08-.23-.17-.45-.25-.69-.13-.41-.25-.83-.36-1.26-.06-.24-.13-.47-.19-.72-.11-.47-.19-.97-.27-1.47-.04-.23-.08-.44-.12-.67-.1-.74-.18-1.51-.22-2.31-4.71-147.89-13.73-295.7-16.48-443.65-15.95-2.41-31.95-4.24-47.96-5.51-2.01,272.61-1.35,387.5-4.37,435.86-.08,5.34-.15,10.67-.24,16.01.25,5.8-1.47,10.29-4.21,13.45-2.75,6.37-6.64,5.53-12.25,5.53-5.86.01-9.75.73-12.23-5.86-2.24-2.86-3.69-6.76-3.75-11.77.11-6.45.2-12.9.3-19.34-1.45-49.57,2.03-165.37,4.37-435.61-20.48-.64-40.94-.3-61.34.9-12.29,241.45-13.35,354.79-14.92,407.93.04,10.26.19,19.55.45,27.66.2,5.39-1.27,9.65-3.66,12.76-2.17,7.37-5.86,6.22-12.73,6.22-4.38,0-8.11.42-10.96-4.47-2.94-2.93-4.94-7.29-5.08-13.18-.04-4.49-.08-8.97-.11-13.46-2.13-30.62-1.09-91.33,4.3-211.6,2.85-69.72,6.73-139.32,10.45-209.24-26.5,2.82-52.82,7.14-78.82,13.03-14.88,214.92-15.63,321.36-18.4,372.96-1.25,25.58-2.91,37.11-7.05,42.19-2.74,3.8-6.52,4.43-11.93,3.79-.37-.02-.73-.06-1.09-.12-4.17-.34-7.71.12-10.16-6.55-2.79-3.88-4.27-8.99-3.84-14.06.15-4.05.31-8.24.47-12.52-1.56-43.15,3.21-143.38,18.68-377.21-.64.18-1.29.36-1.93.54-3.65,1.02-6.57,1.85-8.95,2.54-.64.18-1.27.37-1.91.55-.31.09-.61.18-.9.27-1.41.42-2.82.84-4.22,1.27,0,0,0,0,0,0-3.76,1.17-5.4,1.79-9.31,3.06-.15.72-.3,1.45-.45,2.17.18,4.68-2.98,16.83-9.23,43.53-6.35,29.33-13.71,62.64-24.07,112.02-1.26,6.38-2.56,13-3.89,19.89-18.46,89.37-26.45,134.48-32.06,157.26-.57,2.89-1.15,5.81-1.73,8.76-.65,3.32-2.06,6.17-3.92,8.44-3.1,5.78-6.44,6.01-12,6.01-.14,0-.27-.01-.4-.01-.12,0-.23,0-.35-.01-.44-.02-.87-.07-1.3-.13-.08-.01-.15-.03-.23-.04-.58-.1-1.15-.23-1.71-.4-4.69-1.31-8.26-2.2-9.71-8.56-2.1-4.05-2.95-9.03-1.96-14.11,1.06-5.37,2.19-11.05,3.37-16.99,5.78-40.52,24.04-125.06,63.44-304.79-.13.04.02-.08.06-.27-15.57,6.02-30.93,12.63-46.07,19.79-40.39,97.03-62.68,153.56-75.93,186.49-7.51,20.7-12.25,33.08-17.29,39.66-4.08,6.88-6.34,6.16-11.26,6.16-2.48,0-4.8-.68-6.86-1.86,0,0,0,0,0,0-.2-.11-.39-.24-.58-.36-.1-.06-.19-.12-.29-.18-.1-.06-.19-.13-.28-.2-.19-.13-.37-.26-.56-.4,0,0,0,0,0,0-6.25-4.77-9.45-14.41-6.4-22.68,1.43-3.89,2.87-7.77,4.32-11.64,10.01-26.78,20.23-52.66,30.52-78.04.4-1,.81-1.99,1.21-2.99.42-1.03.83-2.05,1.25-3.07,11.83-29.08,23.93-58,36.03-86.93-214.34,121.86-360.87,353.19-367.1,680.59-117.12-14.34-255.63,46.55-247.14,178.22,11.8,107.43,125.84,164.67,224.7,164.56,22.02,0,44.4-.23,66.74-1.41,116.27,451.74,524.76,561.92,732.21,415.51,39.17,26.26,85.6,41.13,131.68,50.48,280.5,58.62,448.44-205.26,508.2-453.23,342.93-34.26,314.86-255.05,218.82-319.97ZM232.11,2028.99s-.01,0-.02,0c-9.87.58-20.13-2.56-28.62-10.39-.19-.18-.37-.36-.56-.54-.18-.17-.35-.33-.52-.5-.12-.12-.24-.24-.36-.36-1.08-1.09-2.1-2.22-3.03-3.42,0,0,0,0,0,0-.09-.11-.17-.22-.25-.34-4.22-5.47-6.63-11.56-7.5-17.74-.21-1.37-.36-2.75-.42-4.15-.56-11.59,3.64-21.49,10.43-28.69,6.66-7.59,16.09-12.61,27.02-12.61,0,0,.01,0,.02,0,9.69-.57,19.74,2.45,28.14,9.97.03.03.07.06.1.09.13.11.26.22.38.34.1.1.2.19.3.29,1.68,1.55,3.21,3.24,4.57,5.05,5.03,6.57,7.45,13.96,7.76,21.32,0,.13.02.26.03.4.58,11.98-3.91,22.13-11.1,29.38-6.66,7.21-15.86,11.92-26.35,11.92ZM1379.69,1369.23c11.37,0,16.78,10.5,15.12,19.55-1.25,6.86-6.55,12.89-16.43,12.89-8.13,0-13.13-5.2-14.77-11.44-2.56-9.34,2.36-21,16.08-21ZM1290.51,1443.77c30.57-8.21,63.92-6.1,95.46-8.62,18.13-.44,19.24,26.93,1.07,27.8-23.11.6-39.42,1.68-52.74,2.8-14.97,1.27-26.14,2.62-39.57,3.44-11.85-2.39-14.75-19.36-4.23-25.42ZM1378.27,1503.71c-.73,17.63-24.06,20.2-30.71,7.31-1.21-2.36-1.87-5.23-1.73-8.62.77-18.53,26.49-20.41,31.57-5.21.64,1.91.97,4.07.87,6.51ZM871.77,1603.01c-1.73,7.27-2.54,11.53-3.46,16.22-.16-5.93-.97-11.75,3.46-16.22ZM465.83,1481.39c.78-4.47,3.05-7.19,8.18-9.02,6.23-2.64,15.12-3.29,23.77-3.56,8.86-.68,20.06-1.33,34.15-2.29,13.08-1.24,23.8-2.63,31.81-2.42.77-.07,1.53-.13,2.31-.2,3.85-.33,7.01.85,9.38,2.89,3.12,2.01,4.85,5.3,5.05,10.49.07,1.97-.26,3.82-.91,5.49-1.46,4.25-5.03,7.79-11.06,8.75-.46.08-.93.14-1.4.18-33.19,2.23-57.86,5.29-74.61,5.93-21.52.84-29.86-2.29-26.68-16.24ZM419.91,1638.82c72.53-29.24,237.67-49.37,294.38,15.02.42.69.82,1.37,1.22,2.05.27.46.53.92.79,1.38.11.19.21.38.32.56,23.6,42.27,2.81,65.11-37.14,77.39-37.21,11.86-90.71,14.28-138.27,14.29-8.53,0-17.41-.03-26.43-.25-3.23-.01-6.43-.02-9.59-.04-5.99-.4-12.06-.86-18.14-1.45-12.64-1.13-25.2-2.98-37.18-6.03-.6-.15-1.19-.31-1.79-.46-.41-.11-.82-.21-1.22-.32-10.63-2.88-20.89-6.8-30.45-12.25-.11-.06-.22-.13-.33-.19-.97-.56-1.92-1.13-2.87-1.71-.23-.14-.47-.29-.7-.43-1.07-.67-2.13-1.36-3.18-2.07-34.27-23.14-31.36-73.38,10.59-85.48ZM500.34,2054.06c-44.22,0-81.13-36.91-81.13-81.13s36.91-81.13,81.13-81.13,81.13,36.91,81.13,81.13-36.91,81.13-81.13,81.13ZM1204.66,2317.33c-.43.3-.87.59-1.31.88-.56.37-1.11.74-1.67,1.11-53.9,35.74-126.24,53.06-197.51,52.64-84.01,1.13-170.86-18.88-236.22-58.29-30.58-17.34-52.63-37.05-67.19-57.28-.52-.65-1.06-1.3-1.57-1.96-16.76-23.37-23.49-49.74-19.79-73.75.05-.35.11-.71.17-1.06.01-.06.02-.13.03-.19,6.68-40.38,42.76-71.72,97.25-74.52,35.9-4.67,70.13,4.16,104.14,14.21-1.78-6.58-2.57-13.32-2.63-19.87-.52-20.31,5.68-38.65,13.44-45.4-26.01-60.42-19.67-222.82-19.15-351.07.09-21.98,0-42.97-.44-62.25-1.21-17.91,26.06-20.53,27.73-2.28,4.61,140.95-18.64,405.26,38.18,430.73,0,0,.01,0,.02,0,.49.22.99.42,1.5.6.16.06.33.11.5.16.36.12.72.24,1.08.34.3.09.61.16.92.23.23.06.47.12.7.17.43.09.87.16,1.31.22.13.02.25.04.38.06.54.07,1.09.12,1.65.15.03,0,.06,0,.09,0,7.77.39,16.78-2.94,27.21-10.63.06-.05.13-.09.19-.14.68-.5,1.36-1.03,2.05-1.57.14-.11.27-.2.41-.31.82-.65,1.65-1.33,2.49-2.03.33-.43.65-.85.98-1.28,28.86-38.27,38.12-89.66,25.97-434.68-1.33-17.89,26.08-20.53,27.73-2.31.02.49.04,1.03.06,1.59.63,18.16,2.32,71.42,3.03,134.5.02,1.36.03,2.73.04,4.1.03,3.24.07,6.49.09,9.78,0,.2,0,.39,0,.59.02,2.07.03,4.16.05,6.25,0,1.2.02,2.4.03,3.61.02,3.41.04,6.84.06,10.28.02,5.2.04,10.44.04,15.7,0,1.79,0,3.58,0,5.38,0,5.3-.01,10.62-.03,15.94,0,1.77-.02,3.54-.03,5.32-.43,78.73-3.33,157.33-12.03,194.52-.13.57-.27,1.13-.4,1.68-.39,1.57-.79,3.06-1.2,4.46-.38,1.3-.77,2.54-1.17,3.69.45-.02.89-.03,1.32-.03.14,0,.28,0,.42.01.29,0,.57.02.85.04.16.01.32.03.48.04.25.02.49.05.74.08.17.02.33.05.49.08.23.04.46.08.68.13.16.03.32.07.48.11.22.05.43.11.64.17.16.05.31.09.47.14.21.07.41.14.61.21.15.05.3.11.44.17.21.08.41.18.61.27.13.06.27.12.4.18.23.12.46.24.68.37.12.07.24.13.36.21.27.16.53.33.79.52.13.09.25.19.38.28.16.12.32.24.48.37.14.11.27.23.4.35.14.12.28.24.41.37.13.13.26.26.39.39.12.13.25.25.37.38.13.14.26.29.38.43.11.13.22.26.33.4.13.16.25.31.37.48.1.13.2.27.29.41.12.17.24.35.36.53.08.13.17.26.25.4.12.2.24.39.36.59.06.1.11.2.16.3.44.81.85,1.67,1.21,2.57.04.1.08.19.12.29.1.27.2.54.29.81.04.12.09.25.13.37.09.27.18.55.26.83.04.13.08.26.12.4.08.28.16.57.23.86.03.13.07.27.1.4.07.3.15.6.21.91.03.12.05.25.08.38.07.32.13.65.19.98.02.1.03.19.05.29.36,2.07.58,4.29.67,6.62,0,.08,0,.16,0,.24.01.41.02.82.03,1.23,0,.12,0,.23,0,.35,0,.4,0,.81,0,1.22,0,.13,0,.26,0,.39,0,.41-.02.82-.03,1.23,0,.13,0,.25-.01.38-.02.43-.04.85-.06,1.28,0,.1-.01.21-.02.31-.03.46-.06.92-.1,1.39,0,0,0,.02,0,.03-.13,1.61-.31,3.26-.53,4.94,0,.02,0,.05,0,.07-.06.45-.13.9-.2,1.35-.02.16-.05.32-.07.48-.06.41-.13.82-.2,1.23-.04.21-.07.42-.11.63-.07.39-.14.78-.21,1.17-.04.24-.09.47-.13.71-.07.38-.15.75-.22,1.13-.05.26-.11.52-.16.78-.08.36-.15.73-.23,1.09-.06.29-.13.57-.19.86-.08.35-.16.69-.24,1.04-.08.34-.16.67-.25,1.01-.07.3-.15.6-.22.91-.16.64-.33,1.28-.5,1.92-.03.12-.07.25-.1.37-.15.54-.3,1.08-.45,1.63-.06.2-.12.4-.18.6-.14.47-.28.95-.42,1.43-.06.2-.13.41-.19.61-.15.48-.3.96-.45,1.44-.06.2-.13.4-.19.59-.16.5-.33,1-.5,1.5-.06.17-.12.35-.18.52-.19.55-.38,1.1-.57,1.64-.04.12-.09.25-.13.37-.23.64-.47,1.28-.71,1.93-.01.03-.02.06-.04.1-4.53,12.1-10.92,24.4-18.87,35.41,38.27-10.95,72.59-34.94,111.19-46.21,65.49-25.32,154.89-3.94,163.16,76.04-.01,2.16-.06,4.3-.14,6.42-.02.44-.04.88-.06,1.33-.08,1.76-.17,3.51-.29,5.25-.02.29-.05.59-.07.88-4.5,60.98-36.27,106.92-83.35,138.68ZM1420.04,2024.58c-44.22,0-81.13-36.91-81.13-81.13s36.91-81.13,81.13-81.13,81.13,36.91,81.13,81.13-36.91,81.13-81.13,81.13ZM1540.98,1661.01c0,.82,0,1.63-.04,2.46-.05,1.24-.13,2.51-.24,3.79-.16.71-.34,1.41-.52,2.1-.05.18-.1.36-.15.54-.16.57-.33,1.13-.51,1.69-.04.12-.08.25-.12.37-11.13,33.37-57.63,46.55-109.67,51.26-.22.02-.44.04-.66.06-.14.01-.28.02-.42.04-19.48,1.75-39.67,2.32-58.99,2.32-16.7,0-52.78.2-88.1-2,0,0,0,0,0,0,0,0,0,0,0,0-6.46-.4-12.9-.89-19.19-1.47-22.66-1.23-46.32-2.03-64.62-15.14-16.52-19.7-18.78-47.94-4.04-69.43,15.81-21.17,38.87-32.39,64.11-38.86,23.88-6.55,50.23-9.15,74.92-10.16,2.28-.2,4.55-.4,6.78-.61,3.57.06,7.29.09,11.13.11,3.85-.06,7.62-.09,11.31-.11,41.4-.25,101.39-.5,140.31,17.5,23.12,10.47,38.57,27.31,38.75,54.44,0,.37-.01.74-.01,1.11ZM1754.65,2007.15c-.77,0-1.52-.02-2.27-.05-14.21-.63-25.22-7.18-31.88-16.55-.04-.05-.08-.1-.11-.16-.25-.36-.49-.72-.73-1.09-.1-.15-.21-.3-.3-.46-.17-.27-.33-.55-.5-.83-.15-.25-.31-.5-.45-.75-.11-.19-.21-.39-.32-.59-.19-.34-.38-.69-.55-1.04-.06-.12-.12-.24-.18-.37-.21-.43-.42-.86-.62-1.29-.02-.05-.05-.11-.07-.16-1.21-2.73-2.11-5.6-2.67-8.57,0-.03,0-.06-.02-.09-.11-.57-.2-1.15-.29-1.73-.03-.2-.05-.41-.07-.61-.05-.41-.11-.82-.15-1.23-.06-.62-.1-1.24-.13-1.87-1.16-24.09,18.15-40.81,38.7-41.35.1,0,.2,0,.3-.01.13,0,.26,0,.39,0,9.27-.09,18.76,3.13,26.7,10.46,14.26,13.16,15.44,31.42,8.72,45.76-.05.11-.1.21-.15.32-.03.07-.07.14-.1.21-6.06,12.6-18.26,22.06-33.25,22.06Z"/>
  <path class="cls-3" d="M588.5,1685.37c.25-28.67-22.02-42.53-43.62-41.61-20.09.86-39.6,14.5-39.86,40.93-.14,15.74,8.99,29.92,22.21,37.11,1.97.04,3.89.08,5.77.12,10.23-.09,27.4-.57,34.15-.87,12.5-7.16,21.21-20.38,21.35-35.69ZM525.28,1691c-4.41-14.78,3.52-33.6,24.27-33.6,15.48,0,23.83,11.04,24.91,22.85,1.28,13.57-7.05,28.15-25.31,28.15-13.05,0-21.04-7.85-23.87-17.4Z"/>
  <path class="cls-3" d="M1408.67,1664.95c.18-20.25-10.87-33.1-24.97-38.58-24.48-9.52-58.17,3.15-58.5,37.91-.08,8.76,2.73,17.02,7.51,23.88,2.3,3.31,5.07,6.29,8.19,8.84.21.17.41.35.63.52,15.45.36,31.83.51,48.17.11.78-.04,1.56-.07,2.34-.11,9.9-7.57,16.52-19.27,16.65-32.56ZM1368,1688.58c-13.04,0-21.02-7.84-23.86-17.36-4.43-14.78,3.5-33.64,24.26-33.64,13.11,0,21.11,7.93,23.91,17.53,4.32,14.76-3.62,33.47-24.3,33.47Z"/>
  <path class="cls-6" d="M959.78,2139.05c.16-.05.32-.11.49-.17-11.21-1.5-22.34-3.79-33.41-6.61,9.67,7.03,21.22,9.78,32.92,6.77Z"/>
  <path class="cls-6" d="M1288.37,2172.52c.02-.44.05-.88.06-1.33.08-2.12.13-4.26.14-6.42-8.27-79.98-97.67-101.37-163.16-76.04-38.6,11.27-72.92,35.25-111.19,46.21-1.51,2.1-3.09,4.15-4.71,6.14,0,0-.01.02-.02.03-17.21,21.11-40.52,35.8-67.49,31.82-14.1-1.71-27.17-8.02-37.74-17.21-10.34-8.23-17.09-18.74-21.1-29.91-.84-2.19-1.58-4.43-2.19-6.69-34.02-10.05-68.24-18.88-104.14-14.21-54.49,2.8-90.56,34.14-97.25,74.52-.01.06-.02.13-.03.19-.06.35-.11.71-.17,1.06-3.52,23.53,2.88,50.03,21.36,75.71,14.56,20.23,36.61,39.94,67.19,57.28,50.33,28.54,123.76,50.66,225,58.09,3.74.12,7.48.18,11.22.2,71.27.42,143.61-16.9,197.51-52.64.56-.37,1.12-.74,1.67-1.11.44-.29.88-.58,1.31-.88,46.62-31.91,78.79-77.99,83.35-138.68.02-.29.05-.59.07-.88.12-1.74.21-3.49.29-5.25ZM1176.64,2257.13c-42.22,37.09-100.61,44.08-154.51,49.19-73.36,3.34-147-15.09-213.5-45.36-38.62-19.27-60.04-41.66-63.73-59.54-.02-.11-.06-.23-.08-.34-.03-.14-.04-.28-.07-.42-4.36-24.33,24.58-40,88.24-27.37.93.14,1.86.29,2.8.45,46.09,7.96,109.43,42.72,173.77,33.18.57-.08,1.13-.19,1.7-.28.75-.12,1.49-.23,2.24-.36,1.26-.22,2.52-.46,3.78-.72.05-.01.11-.02.16-.03,15.77-3.25,31.56-9.33,47.14-19.28.79-.81,72.52-39.41,114.56-42.76,78.75-3.78,35.34,87.41-2.5,113.63Z"/>
  <path class="cls-2" d="M1502.25,1605.46c-40.63-18.39-104.92-17.11-151.62-17.38-3.84-.02-7.55-.06-11.13-.11-2.23.21-4.5.41-6.78.61-23.97,2.08-50.47,3.89-74.92,10.16-25.24,6.47-48.29,17.69-64.11,38.86-14.75,21.49-12.48,49.73,4.04,69.43,18.3,13.11,41.96,13.92,64.62,15.14,6.53.35,12.98.74,19.19,1.47,0,0,0,0,0,0,0,0,0,0,0,0,31.96.1,92.46,4.5,147.1-.31.14-.01.28-.02.42-.04.22-.02.44-.04.66-.06,52.04-4.71,98.54-17.89,109.67-51.26.04-.12.08-.25.12-.37.18-.56.35-1.12.51-1.69.05-.18.1-.36.15-.54.19-.69.36-1.39.52-2.1.11-1.29.19-2.55.24-3.79.03-.83.04-1.65.04-2.46,0-.37.02-.75.01-1.11-.18-27.13-15.63-43.97-38.75-54.44ZM1278.27,1695.58s-.08,0-.12,0c-2.69-.21-5.32-.43-7.9-.66-26.37-2.35-46.04-5.54-52.54-8.47-16.82-20.39,3.32-45.02,23.85-52.41.86-.32,1.72-.62,2.58-.93,37.73-13.7,77.89-17.95,118.27-17.94,23.35,0,46.77,1.43,69.83,3.27,11.17,1.4,28.17,2.95,43.66,6.99,23.12,6.03,42.92,17.59,35.14,42.44-.44.47-.91.93-1.39,1.39-18.54,17.71-66.07,25.74-117.65,28.27-.78.04-1.56.07-2.34.11-38.54,1.76-79.12.5-111.42-2.04Z"/>
  <path class="cls-2" d="M413.19,1726.81c.95.59,1.91,1.16,2.87,1.71.11.06.22.13.33.19,9.56,5.45,19.82,9.37,30.45,12.25.41.11.81.22,1.22.32.59.16,1.19.31,1.79.46,12.13,3.05,24.69,4.82,37.18,6.03,6.08.59,12.15,1.05,18.14,1.45,3.16.02,6.36.03,9.59.04,56.06.18,121.55-.77,164.7-14.03,39.95-12.28,60.74-35.12,37.14-77.39-.1-.19-.21-.37-.32-.56-.26-.46-.52-.92-.79-1.38-.4-.68-.8-1.36-1.22-2.05-56.7-64.4-221.85-44.26-294.38-15.02-41.96,12.11-44.86,62.35-10.59,85.48,1.05.71,2.11,1.4,3.18,2.07.23.15.47.29.7.43ZM698.71,1683.63c.26.61.51,1.23.74,1.86-.06.53-.15,1.06-.26,1.58-.03.16-.08.32-.12.48-.08.35-.18.71-.28,1.06-.06.18-.12.36-.18.53-.11.33-.24.66-.37.98-.07.17-.14.34-.22.51-.15.34-.32.68-.49,1.01-.07.14-.14.27-.21.41-.24.44-.5.86-.78,1.28-.02.03-.03.05-.05.08-.31.47-.65.93-1.01,1.38-.04.06-.09.11-.14.16-.31.38-.63.76-.97,1.12-.1.1-.2.21-.29.31-.3.32-.62.64-.95.95-.11.11-.23.21-.34.32-.34.31-.69.62-1.06.93-.11.09-.21.18-.32.27-.43.35-.88.7-1.34,1.04-.04.03-.08.07-.13.1-1.04.76-2.16,1.49-3.34,2.2-.15.09-.3.17-.44.26-.43.25-.88.5-1.33.75-.2.11-.41.22-.62.33-.41.22-.83.43-1.25.64-.24.12-.47.24-.71.35-.4.19-.82.39-1.23.57-.26.12-.52.24-.79.36-.4.18-.81.35-1.23.52-.72.3-1.46.6-2.21.89-.19.07-.37.15-.55.22-.53.2-1.08.4-1.62.59-.15.06-.31.11-.46.17-.59.21-1.2.42-1.81.62-.08.03-.16.05-.25.08-37.68,12.43-103.21,11.54-125.04,13.74-4.26-.14-9-.23-14.07-.33-1.88-.04-3.81-.08-5.77-.12-20.53-.45-45.31-1.35-66.48-5.69-24.23-4.97-43.7-14.47-46.59-33.03,0-.01,0-.03,0-.04-.08-.53-.16-1.07-.21-1.62-.02-.23-.04-.47-.06-.71-.03-.37-.06-.74-.08-1.11-.03-.65-.04-1.3-.03-1.96,11.5-29.9,251.8-71.86,284.93,5.98Z"/>
  <path class="cls-2" d="M574.46,1680.24c-1.08-11.81-9.43-22.85-24.91-22.85-20.67,0-28.65,18.83-24.27,33.6,2.83,9.54,10.82,17.4,23.87,17.4,18.2,0,26.55-14.58,25.31-28.15Z"/>
  <path class="cls-2" d="M1392.3,1655.11c-2.8-9.6-10.79-17.53-23.91-17.53-20.69,0-28.66,18.85-24.26,33.64,2.84,9.53,10.82,17.36,23.86,17.36,20.61,0,28.6-18.72,24.3-33.47Z"/>
  <path class="cls-2" d="M905.16,2050.14s.01,0,.02,0c.17.03.33.08.5.11,7.19,1.62,13.17,8.09,12.82,16.4-2.53,5.73-4.47,11.75-5.73,17.77,18.1,16.05,43.01,17.19,64.53,6.8.07-.03.14-.06.2-.1.72-.35,1.45-.71,2.16-1.09.73-.39,1.47-.78,2.19-1.19.07-.04.13-.07.2-.11,9.16-5.29,17.52-12.73,24.24-22.06.76-1.06,1.5-2.14,2.22-3.25-.47-7.3-4.47-22.67,7.45-26.98.01,0,.02,0,.03-.01.39-.14.8-.27,1.23-.39.13-.04.27-.06.41-.1.32-.08.65-.16.99-.23.26-.05.54-.09.81-.13.24-.04.47-.08.72-.11.54-.06,1.1-.11,1.68-.14.4-1.15.79-2.39,1.17-3.69.41-1.4.81-2.89,1.2-4.46.14-.55.27-1.11.4-1.68,8.7-37.19,11.6-115.79,12.03-194.52,0-1.77.02-3.54.03-5.32.02-5.32.03-10.64.03-15.94,0-1.8,0-3.59,0-5.38,0-5.26-.02-10.5-.04-15.7-.02-3.44-.04-6.87-.06-10.28,0-1.2-.02-2.41-.03-3.61-.02-2.09-.03-4.17-.05-6.25,0-.2,0-.39,0-.59-.03-3.28-.06-6.54-.09-9.78-.01-1.37-.03-2.74-.04-4.1-.71-63.08-2.41-116.34-3.03-134.5-.02-.56-.04-1.09-.06-1.59-1.65-18.22-29.06-15.58-27.73,2.31,12.15,345.02,2.88,396.42-25.97,434.68-.32.43-.65.86-.98,1.28-.84.7-1.67,1.38-2.49,2.03-.14.11-.27.2-.41.31-.69.54-1.37,1.07-2.05,1.57-.06.05-.13.09-.19.14-10.43,7.69-19.44,11.02-27.21,10.63-.03,0-.06,0-.09,0-.56-.03-1.1-.08-1.65-.15-.13-.02-.25-.04-.38-.06-.44-.06-.88-.13-1.31-.22-.24-.05-.47-.11-.7-.17-.31-.07-.62-.14-.92-.23-.36-.1-.72-.22-1.08-.34-.16-.06-.33-.11-.5-.16-.51-.18-1-.39-1.5-.6,0,0-.02,0-.02,0-57.7-25.63-33.75-295.49-38.18-430.73-1.67-18.25-28.94-15.62-27.73,2.28.44,19.28.52,40.27.44,62.25-.52,128.22-6.85,290.68,19.15,351.07.34-.3.69-.58,1.04-.84,3.85-2.87,8.26-3.65,12.33-2.87Z"/>
  <path class="cls-2" d="M492.51,1497.64c16.69-.65,41.3-3.69,74.61-5.93.49-.04.94-.11,1.4-.18,6.03-.96,9.6-4.5,11.06-8.75,1.9-5.52.25-12.22-4.14-15.99-2.37-2.04-5.53-3.22-9.38-2.89-.78.07-1.54.13-2.31.2-11.97,1.01-22.52,1.79-31.81,2.42-14.1.96-25.29,1.61-34.15,2.29-11.34.87-18.87,1.81-23.77,3.56-5.14,1.83-7.41,4.55-8.18,9.02-3.18,13.96,5.16,17.09,26.68,16.24Z"/>
  <path class="cls-2" d="M1294.74,1469.19c13.42-.82,24.59-2.16,39.57-3.44,13.22-1.13,29.41-2.2,52.74-2.8,18.17-.88,17.05-28.24-1.07-27.8-31.54,2.52-64.89.42-95.46,8.62-10.52,6.06-7.61,23.04,4.23,25.42Z"/>
  <path class="cls-6" d="M500.34,1891.79c-44.22,0-81.13,36.91-81.13,81.13s36.91,81.13,81.13,81.13,81.13-36.91,81.13-81.13-36.91-81.13-81.13-81.13Z"/>
  <path class="cls-6" d="M1420.04,1862.31c-44.22,0-81.13,36.91-81.13,81.13s36.91,81.13,81.13,81.13,81.13-36.91,81.13-81.13-36.91-81.13-81.13-81.13Z"/>
  <path class="cls-4" d="M756.45,996.28c.3-.09.6-.18.9-.27.64-.19,1.27-.37,1.91-.55,2.98-.86,5.97-1.71,8.95-2.54.64-.18,1.29-.36,1.93-.54-15.47,233.84-20.25,334.06-18.68,377.21.51,13.99,1.68,21.98,3.37,26.57,2.45,6.66,5.99,6.2,10.16,6.55.17.01.34.03.51.05.2.03.39.05.59.07,5.4.64,9.19,0,11.93-3.79,3.96-5.5,5.73-17.64,7.05-42.19,2.77-51.6,3.52-158.04,18.4-372.96,26-5.88,52.33-10.2,78.82-13.03-4.5,84.59-7.95,153.34-10.45,209.24-5.39,120.28-6.43,180.99-4.3,211.6,1.03,14.79,2.8,22.56,5.18,26.64,2.86,4.89,6.59,4.47,10.96,4.47,6.88,0,10.56,1.16,12.73-6.22,1.77-6.02,2.54-17.74,3.21-40.42,1.57-53.14,2.62-166.48,14.92-407.93,20.4-1.2,40.86-1.54,61.34-.9-2.34,270.23-5.82,386.03-4.37,435.61.49,16.91,1.56,26.12,3.45,31.12,2.48,6.58,6.37,5.87,12.23,5.86,5.61,0,9.5.84,12.25-5.53,2.04-4.73,3.45-13.45,4.45-29.46,3.02-48.36,2.36-163.25,4.37-435.86,16.02,1.27,32.01,3.09,47.96,5.51,2.74,147.95,11.77,295.76,16.48,443.65.04.8.12,1.57.22,2.31.03.23.08.45.12.67.08.5.17,1,.27,1.47.06.25.13.48.19.72.11.43.23.86.36,1.26.08.24.16.46.25.69.14.39.29.77.45,1.14.09.21.19.42.29.63.17.36.35.7.54,1.04.11.19.22.37.33.56.2.33.41.64.63.95.12.16.23.33.36.48.23.3.47.58.71.86.12.14.24.28.37.41.26.27.53.53.81.78.12.11.24.23.37.33.3.25.61.48.92.71.11.08.23.17.34.25.36.24.73.46,1.1.66.08.04.15.09.23.14.91.48,1.87.86,2.84,1.14.15.04.31.07.46.11.33.08.66.16,1,.22.2.04.41.06.61.09.29.04.58.08.87.1.22.02.45.02.67.03,5.01.18,10.13-2.05,13.48-6.43,2.82-3.69,4.38-8.9,3.55-15.47,0-.3-.02-.6-.03-.9-1.03-32.58-2.04-62.73-3.03-90.65-4.75-133.79-8.96-216.1-11.42-266.35-2.11-43.22-2.92-62.74-1.64-70.89.37-2.36.91-3.78,1.65-4.54,2.19-2.25,6.1,1.25,12.21,2.62,95.54-225.3,134.14-298.84,143.49-395.16-37.84-92.4-122.57,107.59-141.94,135.33,24.62-119.59,64.28-241.71,53.37-364.02-9.16-40.07-51.35-28.09-63.18,3.62-45.13,115.84-75.7,236.44-106.65,355.99,13.8-364.61,68.53-695.58.75-718.76-23.65-3.91-32.59,23.25-36.68,38.98-39.95,193.63-47.99,391.51-50.03,588.3-29.64-240.59-42.61-428.3-80.91-450.32-14.69-4.91-27.23,7.2-29.82,19.48-24.22,190.49-9.77,383.24-7.56,574.54-35.27-80.41-64.96-163.28-107.61-240.83-14.19-32.75-57.08-31.62-51.81,7.56,20.81,119.63,78.55,351.85,128.03,459.47,0,0,0,0,0,0,1.41-.43,2.81-.86,4.22-1.27ZM1007.53,969.01c-9.84-.77-19.69-1.29-29.53-1.63,9.85.34,19.69.86,29.53,1.63ZM910.54,968.47c-7.68.5-15.36,1.14-23.02,1.9,7.66-.76,15.34-1.4,23.02-1.9Z"/>
  <path class="cls-4" d="M1161.36,1351.07s0,0,0,.01c.64,6.3,3.8,10.71,7.9,13.17,4.79,2.87,10.87,3.06,15.75.39,5.12-2.8,8.89-8.76,8.47-18.04-.03-.61-.05-1.21-.12-1.84-6.07-60.42-30.69-285.08-40.57-348.11-.14-.93-34.36-9.63-35.16-9.82,2.54,13.57,5.09,29.49,7.63,47.05,9.52,65.98,18.8,155.14,26.66,229.96,3.46,32.92,6.64,63.07,9.44,87.24Z"/>
  <path class="cls-4" d="M1241.39,1326.06c1.69,5.73,3.63,9.53,6.11,11.89,2.46,2.34,5.46,3.27,9.3,3.27,7.25,0,12.14-.57,14.29-8.15,1.35-4.75,1.62-12.26.72-24.12-2.72-35.96-16.18-111.92-42.94-272.22-.69-4.16-1.39-8.36-2.11-12.63-28.53-12.59-34.96-14.19-36.19-14.34,22.27,114.72,32.78,190.92,39.26,240.98,5.07,39.1,7.69,62.24,11.55,75.32Z"/>
  <path class="cls-4" d="M1190.44,1009.75s.08,0,.14.01c0,0,0,0,0,0-.02-.1-.04-.2-.06-.3.03.18-.02.26-.08.29Z"/>
  <path class="cls-4" d="M1190.44,1009.75c-.21,0-.1.05,0,0h0Z"/>
  <path class="cls-4" d="M639.93,1335.42c-1,5.08-.14,10.06,1.96,14.11,2.15,4.14,5.6,7.3,9.71,8.56.56.17,1.13.31,1.71.4.08.01.15.03.23.04.43.07.86.11,1.3.13.11,0,.23,0,.35.01.13,0,.27.01.4.01,5.56,0,8.9-.23,12-6.01,1.83-3.42,3.58-8.79,5.65-17.2,5.61-22.78,13.6-67.9,32.06-157.26,1.33-6.89,2.63-13.51,3.89-19.89,10.39-52.45,18.47-88.09,24.07-112.02,6.25-26.7,9.4-38.85,9.23-43.53-.21-5.63-5.26-.47-15.55,3.13-16.77,5.89-19.78,7.59-20.18,7.72-20.17,92.02-47.22,223.33-63.44,304.79-1.18,5.94-2.31,11.62-3.37,16.99Z"/>
  <path class="cls-4" d="M706.74,1013.63h0c.02-.09.04-.18.06-.27-.04.2-.19.32-.06.27Z"/>
  <path class="cls-4" d="M576.13,1150.1c-10.29,25.37-20.51,51.26-30.52,78.04-1.44,3.86-2.89,7.74-4.32,11.64-3.04,8.27.16,17.91,6.4,22.68,0,0,0,0,0,0,.18.14.37.27.56.4.09.07.19.14.28.2.09.06.19.12.29.18.19.12.38.25.58.36,0,0,0,0,0,0,2.06,1.18,4.37,1.86,6.86,1.86,4.48,0,7.93-1.82,11.26-6.16,5.04-6.57,9.78-18.95,17.29-39.66,12.62-34.77,33.07-92.98,75.96-186.57-8.2,3.84-20.06,9.88-30.68,15.52-.09.05-.17.09-.26.14-5.68,3.02-10.99,5.92-15.17,8.31-11.96,28.71-24.05,57.52-36.06,87-.42,1.02-.83,2.05-1.25,3.07-.4.99-.81,1.99-1.21,2.99Z"/>
  <path class="cls-4" d="M1334.5,1244.87c3.68,9.52,11.15,12.07,17.86,10.18,9.07-2.55,16.73-13.24,11.66-25.88-23.47-58.3-48.19-115.9-73.86-172.91-.36-.81-27.16-14.8-27.97-15.21-13.69-7.02-20.58-13.78-19.02-7.57,1.48,5.86,10.49,23.29,28.44,62.99,14.71,32.54,35.42,80.03,62.9,148.4Z"/>
  <path class="cls-3" d="M1363.61,1390.23c1.64,6.24,6.64,11.44,14.77,11.44,9.89,0,15.19-6.03,16.43-12.89,1.64-9.05-3.78-19.55-15.12-19.55-13.45,0-18.54,11.66-16.08,21Z"/>
  <path class="cls-3" d="M1345.83,1502.4c-.14,3.39.52,6.26,1.73,8.62,6.64,12.89,29.97,10.29,30.71-7.31.1-2.45-.23-4.61-.87-6.51-5.08-15.21-30.8-13.29-31.57,5.21Z"/>
  <path class="cls-3" d="M904.27,2155.72c2.18,1.73,4.5,3.37,7.01,4.89,10.65,6.96,20.93,10.87,30.73,12.32,26.97,3.98,50.28-10.72,67.49-31.82,0,0,.01-.02.02-.03,1.63-2,3.2-4.05,4.71-6.14,7.95-11.01,14.33-23.31,18.87-35.41.01-.03.02-.06.04-.1.24-.64.48-1.29.71-1.93.04-.12.09-.25.13-.37.2-.55.39-1.1.57-1.64.06-.17.12-.35.18-.52.17-.5.33-1,.5-1.5.06-.2.13-.4.19-.59.15-.48.3-.96.45-1.44.06-.2.13-.41.19-.61.14-.48.28-.95.42-1.43.06-.2.12-.4.18-.6.16-.54.31-1.09.45-1.63.03-.12.07-.25.1-.37.17-.64.34-1.28.5-1.92.08-.3.15-.6.22-.91.08-.34.17-.67.25-1.01.08-.35.16-.69.24-1.04.07-.29.13-.58.19-.86.08-.36.16-.73.23-1.09.05-.26.11-.52.16-.78.08-.38.15-.76.22-1.13.05-.24.09-.47.13-.71.07-.39.14-.78.21-1.17.04-.21.07-.42.11-.63.07-.41.14-.82.2-1.23.03-.16.05-.32.07-.48.07-.45.13-.9.2-1.35,0-.02,0-.05,0-.07.23-1.68.41-3.33.53-4.94,0,0,0-.02,0-.03.04-.47.07-.93.1-1.39,0-.1.01-.21.02-.31.02-.43.04-.86.06-1.28,0-.13.01-.25.01-.38.01-.41.02-.83.03-1.23,0-.13,0-.26,0-.39,0-.41,0-.81,0-1.22,0-.12,0-.23,0-.35,0-.41-.01-.82-.03-1.23,0-.08,0-.16,0-.24-.09-2.34-.31-4.55-.67-6.62-.02-.1-.03-.19-.05-.29-.06-.33-.13-.66-.19-.98-.03-.13-.05-.25-.08-.38-.07-.31-.14-.61-.21-.91-.03-.14-.07-.27-.1-.4-.08-.29-.15-.58-.23-.86-.04-.13-.08-.27-.12-.4-.08-.28-.17-.55-.26-.83-.04-.13-.09-.25-.13-.37-.1-.27-.19-.55-.29-.81-.04-.1-.08-.19-.12-.29-.36-.91-.77-1.76-1.21-2.57-.05-.1-.11-.2-.16-.3-.12-.2-.24-.4-.36-.59-.08-.13-.16-.27-.25-.4-.12-.18-.24-.35-.36-.53-.1-.14-.19-.27-.29-.41-.12-.16-.25-.32-.37-.48-.11-.13-.22-.27-.33-.4-.13-.15-.25-.29-.38-.43-.12-.13-.24-.26-.37-.38-.13-.13-.26-.26-.39-.39-.13-.13-.27-.25-.41-.37-.13-.12-.26-.23-.4-.35-.16-.13-.32-.25-.48-.37-.13-.09-.25-.19-.38-.28-.26-.18-.52-.35-.79-.52-.12-.07-.24-.14-.36-.21-.22-.13-.45-.25-.68-.37-.13-.06-.27-.12-.4-.18-.2-.09-.4-.18-.61-.27-.15-.06-.29-.11-.44-.17-.2-.07-.4-.15-.61-.21-.15-.05-.31-.09-.47-.14-.21-.06-.42-.12-.64-.17-.16-.04-.32-.08-.48-.11-.22-.05-.45-.09-.68-.13-.16-.03-.33-.05-.49-.08-.24-.03-.49-.06-.74-.08-.16-.02-.32-.03-.48-.04-.28-.02-.56-.03-.85-.04-.14,0-.28-.01-.42-.01-.43,0-.87,0-1.32.03-.58.03-1.14.08-1.68.14-.25.03-.48.07-.72.11-.27.04-.55.08-.81.13-.34.07-.67.15-.99.23-.13.03-.28.06-.41.1-.43.12-.84.25-1.23.39-.01,0-.02,0-.03.01-11.44,4.18-7.98,18.74-7.45,26.98.71,10.92-7.67,36.08-21.97,54.72-7.34,9.57-16.24,17.41-26.27,20.73-.16.05-.32.11-.49.17-10,3.16-21.11,1.81-32.92-6.77-.57-.41-1.11-.84-1.64-1.27-.16-.13-.31-.26-.46-.39-.39-.33-.77-.66-1.14-1-.14-.13-.29-.26-.43-.39-.48-.46-.95-.92-1.41-1.4-.04-.05-.08-.1-.13-.14-.41-.43-.8-.88-1.18-1.33-.13-.15-.26-.31-.38-.46-.31-.37-.6-.75-.89-1.14-.11-.14-.22-.29-.33-.43-.38-.52-.75-1.04-1.09-1.58-.04-.06-.08-.13-.12-.19-.31-.48-.6-.97-.89-1.46-.09-.16-.18-.31-.27-.47-.25-.44-.48-.89-.71-1.34-.07-.13-.13-.26-.2-.39-.29-.59-.56-1.18-.82-1.78-.01-.03-.03-.07-.04-.11-.24-.56-.46-1.14-.68-1.71-.05-.13-.1-.27-.15-.4-.19-.53-.37-1.07-.54-1.61-.03-.09-.06-.18-.08-.26-.39-1.29-.72-2.6-1-3.94-.02-.11-.04-.22-.06-.32-.12-.6-.23-1.21-.33-1.82-.01-.06-.02-.13-.03-.19-.21-1.35-.36-2.73-.46-4.12-.01-.14-.02-.28-.03-.41-.04-.57-.07-1.13-.08-1.71,0-.13-.01-.27-.01-.4-.02-.67-.03-1.35-.02-2.03,0-.15,0-.3,0-.44,0-.5.02-1.01.04-1.51.01-.3.03-.6.04-.9.02-.33.04-.67.06-1,.03-.37.05-.74.08-1.12,0-.11.02-.23.03-.34.8-8.83,3.34-17.85,6.98-26.1.34-8.29-5.64-14.77-12.82-16.4-.17-.04-.33-.08-.5-.11,0,0-.01,0-.02,0-4.07-.78-8.48,0-12.33,2.87-.35.26-.7.54-1.04.84-7.76,6.75-13.96,25.08-13.44,45.4.22,8.75,1.69,17.85,4.82,26.56,4.01,11.17,10.76,21.68,21.1,29.91Z"/>
  <path class="cls-4" d="M269.56,1987.69c0-.13-.02-.26-.03-.4-.45-7.79-3.15-15.2-7.76-21.32-1.36-1.8-2.88-3.49-4.57-5.05-.23-.21-.45-.43-.69-.63-.03-.03-.07-.06-.1-.09-7.01-6.12-16.57-9.96-28.14-9.97,0,0-.01,0-.02,0-10.93,0-20.36,5.02-27.02,12.61-7.69,8.77-11.68,20.97-10,32.84.87,6.18,3.28,12.27,7.5,17.74.09.11.17.23.25.34,0,0,0,0,0,0,.92,1.17,1.94,2.31,3.03,3.42.12.12.24.24.36.36.17.17.35.33.52.5.19.18.37.36.56.54,8.49,7.84,18.74,10.97,28.62,10.39,9.89-.58,19.4-4.88,26.37-11.92,7.19-7.25,11.67-17.41,11.1-29.38Z"/>
  <path class="cls-4" d="M1788.16,1984.57c6.68-14.4,5.41-32.72-8.72-45.76-7.94-7.33-17.43-10.54-26.7-10.46-.13,0-.26,0-.39,0-.1,0-.2,0-.3.01-20.56.55-39.86,17.27-38.7,41.35.03.63.08,1.25.13,1.87.04.41.09.82.15,1.23.03.2.04.41.07.61.08.58.18,1.16.29,1.73,0,.03,0,.06.02.09.56,2.97,1.46,5.84,2.67,8.57.02.05.05.11.07.16.2.44.4.87.62,1.29.06.12.11.25.18.37.18.35.37.69.55,1.04.11.2.21.39.32.59.14.25.3.5.45.75.17.28.33.56.5.83.1.15.2.3.3.46.24.36.48.73.73,1.09.04.05.08.1.11.16,6.66,9.38,17.67,15.92,31.88,16.55.75.03,1.51.05,2.27.05,14.99,0,27.19-9.46,33.25-22.06.03-.07.07-.14.1-.21.05-.11.1-.21.15-.32Z"/>
</svg>