<?xml version="1.0" encoding="UTF-8"?>
<svg id="_лой_1" data-name="—лой_1" xmlns="http://www.w3.org/2000/svg" viewBox="0 0 2270.43 3256.81">
  <defs>
    <style>
      .cls-1 {
        fill: none;
      }

      .cls-2 {
        fill: #2cf5e8;
      }

      .cls-3 {
        fill: #0c0809;
      }

      .cls-4 {
        fill: #fff;
      }

      .cls-5 {
        fill: #8b1742;
      }

      .cls-6 {
        fill: #fac7b9;
      }

      .cls-7 {
        fill: #f28585;
      }

      .cls-8 {
        fill: #f15980;
      }
    </style>
  </defs>
  <path class="cls-1" d="M1243.75,1597.61c1.31-.13,2.62-.25,3.93-.37-1.31.12-2.62.24-3.93.37Z"/>
  <path class="cls-1" d="M1237.3,1598.26c1.07-.11,2.13-.22,3.2-.33-1.07.11-2.13.21-3.2.33Z"/>
  <path class="cls-1" d="M1320.93,1594.73c16.04,44.79,35.86,88.04,60.52,129.21,41.11-4.05,86.92-7.41,107.12-44.57,4.62-41.67-49.39-61.18-81.56-72.46-50.32-13.3-100.76-14.48-151.29-10.36,21.75-1.77,43.49-2.56,65.21-1.82Z"/>
  <path class="cls-1" d="M1222.83,1599.89c.25-.03.51-.06.76-.09-.25.03-.51.06-.76.09Z"/>
  <path class="cls-1" d="M1250.04,1597.03c1.5-.13,3-.26,4.49-.39-1.5.12-3,.26-4.49.39Z"/>
  <path class="cls-1" d="M974.89,1630.81c1.17-.01,2.35-.02,3.52-.04-1.17.02-2.35.03-3.52.04Z"/>
  <path class="cls-1" d="M988.94,1630.49c.77-.03,1.53-.06,2.3-.09-.77.03-1.53.06-2.3.09Z"/>
  <path class="cls-1" d="M971.76,1630.84c-2.13,0-4.27,0-6.4-.01,2.13.02,4.27.02,6.4.01Z"/>
  <path class="cls-1" d="M982.04,1630.69c.97-.02,1.95-.05,2.92-.08-.97.03-1.95.05-2.92.08Z"/>
  <path class="cls-1" d="M1013.77,1629.11s.05,0,.08,0c-.03,0-.05,0-.08,0Z"/>
  <path class="cls-1" d="M1215.87,1600.76c.08-.01.16-.02.24-.03-.08.01-.16.02-.24.03Z"/>
  <path class="cls-1" d="M1801.72,2261.74c3.05.21,6.11.41,9.18.62-3.07-.21-6.13-.42-9.18-.62Z"/>
  <path class="cls-1" d="M1519.79,1888.62c1.6.04,3.2.07,4.79.12-1.59-.04-3.18-.08-4.79-.12Z"/>
  <path class="cls-1" d="M1247.07,1187.77c20.77-6.48,33.42-14.4,31.66-24.59-14.93-8.93-32.97-14-52.82-16.35,6.11.73,12.05,1.71,17.78,2.99,1.11,12.64,2.24,25.29,3.38,37.96Z"/>
  <path class="cls-1" d="M1238.05,2278.27c-1.7.1-3.41.21-5.09.32,1.69-.11,3.39-.21,5.09-.32Z"/>
  <path class="cls-1" d="M1245.13,2277.85c-2,.11-3.99.23-5.97.34,1.98-.12,3.97-.23,5.97-.34Z"/>
  <path class="cls-1" d="M557.3,2014.65c134.72-37.19,279.36-39.3,420.22-28.33-149.62-13.03-297.69-12.4-420.22,28.33Z"/>
  <path class="cls-1" d="M1185.24,1914.55c-172.94,19.82-348.08,39.39-449.29,12,104.81,33.53,273.67,10.2,449.29-12Z"/>
  <path class="cls-1" d="M1719.22,2004.21c47.27-89.77-130.91-113.7-194.64-115.48,55.12,47.14,115.08,88.55,175.02,129.25,6.99-4.12,13.55-8.69,19.62-13.77Z"/>
  <path class="cls-1" d="M1360.23,2034.48c116.77,15.23,217.76,22.94,290.64,3.36-70.89,18.29-173.19,11.19-290.64-3.36Z"/>
  <path class="cls-1" d="M1224.18,1463.57c-1.62.05-3.25.09-4.89.13,1.63-.04,3.26-.08,4.89-.13Z"/>
  <path class="cls-1" d="M1234.64,1463.19c-1.11.05-2.22.09-3.33.13,1.11-.04,2.22-.09,3.33-.13Z"/>
  <path class="cls-1" d="M1261.9,1461.52c-1.23.1-2.46.2-3.69.3,1.24-.09,2.47-.19,3.69-.3Z"/>
  <path class="cls-1" d="M1240.14,1462.94c-1.21.06-2.43.12-3.65.17,1.22-.05,2.43-.11,3.65-.17Z"/>
  <path class="cls-1" d="M1251.72,1462.28c-3.36.22-6.75.42-10.16.6,3.42-.18,6.81-.37,10.16-.6Z"/>
  <path class="cls-1" d="M1267.71,1461c-1.5.14-3,.27-4.51.4,1.51-.13,3.01-.26,4.51-.4Z"/>
  <path class="cls-1" d="M1256.75,1461.92c-1.26.09-2.52.18-3.79.27,1.27-.09,2.53-.18,3.79-.27Z"/>
  <path class="cls-1" d="M1388.41,1384.02c-23.13-28.56-68.55-31.64-122.46-25.24,4.81,33.83,10.48,67.39,17.41,100.49,63.11-8.07,108.39-28.4,105.06-75.25Z"/>
  <path class="cls-1" d="M1282.51,1459.38c-1.12.14-2.24.28-3.37.41,1.13-.13,2.25-.27,3.37-.41Z"/>
  <path class="cls-1" d="M1277.75,1459.96c-1.3.15-2.6.29-3.91.43,1.31-.14,2.62-.28,3.91-.43Z"/>
  <path class="cls-1" d="M1273.02,1460.48c-1.64.17-3.29.34-4.95.49,1.66-.16,3.31-.32,4.95-.49Z"/>
  <path class="cls-1" d="M1216.87,1463.76c-.88.02-1.77.04-2.65.06.89-.02,1.77-.04,2.65-.06Z"/>
  <path class="cls-1" d="M1229.39,1463.4c-1.16.04-2.32.08-3.49.12,1.16-.04,2.33-.08,3.49-.12Z"/>
  <path class="cls-1" d="M944.34,1630.19c1.54.08,3.08.16,4.62.22-1.54-.06-3.08-.14-4.62-.22Z"/>
  <path class="cls-1" d="M935.32,1629.64c2.27.17,4.54.31,6.81.44-2.27-.13-4.54-.27-6.81-.44Z"/>
  <path class="cls-1" d="M951.56,1630.51c1.43.05,2.87.1,4.3.14-1.43-.04-2.87-.08-4.3-.14Z"/>
  <path class="cls-1" d="M1155.97,1378.48c-71.48,14.52-142.47,27.98-188.56,12.15.98.47,2.1.97,3.38,1.43,44.58,14.55,114.44.91,185.18-13.58Z"/>
  <path class="cls-1" d="M1231.23,2278.7c-1.47.1-2.94.19-4.39.3,1.45-.1,2.92-.2,4.39-.3Z"/>
  <path class="cls-1" d="M958.5,1630.72c1.51.03,3.03.06,4.54.07-1.51-.02-3.03-.04-4.54-.07Z"/>
  <path class="cls-1" d="M1211.37,1463.87c-.74.01-1.47.02-2.21.03.74-.01,1.47-.02,2.21-.03Z"/>
  <path class="cls-1" d="M1206.07,1463.94c-.58,0-1.15.01-1.73.02.58,0,1.15-.01,1.73-.02Z"/>
  <path class="cls-1" d="M108.42,2492.18c24.21,48.77,74.04,68.63,126.67,80.52,6.87-67.82,23.35-136.1,48.44-202.18-77.92-44.17-212.36,31.3-175.1,121.66Z"/>
  <path class="cls-1" d="M836.95,2263.83c1.44.55,2.85,1.13,4.25,1.72-1.41-.58-2.82-1.16-4.25-1.72Z"/>
  <path class="cls-1" d="M825.21,2259.7c-111-35.51-300.05-2.15-411.7,24.1,106.24-24.97,299.06-60.1,411.7-24.1Z"/>
  <path class="cls-1" d="M842.39,2266.02c1.78.75,3.53,1.52,5.26,2.32-1.73-.8-3.48-1.57-5.26-2.32Z"/>
  <path class="cls-1" d="M399.99,2316.28c3.04,1.21,10.05.69,20.31-.97-10.29,1.65-17.31,2.16-20.31.97Z"/>
  <path class="cls-1" d="M1245.42,2277.84c195.09-10.8,498.96,12.64,562.62,16.86-61.8-4.1-366.91-27.71-562.62-16.86Z"/>
  <path class="cls-1" d="M408.1,2285.08c1.26-.3,2.55-.6,3.84-.91-1.29.3-2.58.61-3.84.91Z"/>
  <path class="cls-1" d="M1801.3,2261.71c-539.36-36.38-682.52-17.94-729.42,18.03,47-35.78,190.66-54.37,729.42-18.03Z"/>
  <path class="cls-1" d="M487.52,2393.89c.69-.27,1.38-.55,2.08-.81-.7.27-1.39.54-2.08.81Z"/>
  <path class="cls-1" d="M825.58,2259.82c1.68.54,3.33,1.1,4.97,1.67-1.64-.57-3.29-1.13-4.97-1.67Z"/>
  <path class="cls-1" d="M831.35,2261.76c1.51.53,3,1.09,4.48,1.65-1.48-.56-2.97-1.12-4.48-1.65Z"/>
  <path class="cls-1" d="M831.34,2296.22c-.73-.31-.62-.28-1.1-.58.49.3.37.27,1.1.58,0,0,0,0,0,0Z"/>
  <path class="cls-1" d="M530.29,2586.09c63.53,13.54,154.08,7.65,211.38-23.7-57.37,31.37-148.05,37.19-211.38,23.7Z"/>
  <path class="cls-1" d="M795.79,2476.2c-12.28-96.02-216.95-117.13-306.02-83.19,89.12-33.96,293.76-12.65,306.02,83.19Z"/>
  <path class="cls-1" d="M760.19,2499.3c-.24.53-.52,1.06-.79,1.6.27-.53.54-1.07.79-1.6Z"/>
  <path class="cls-1" d="M758.99,2501.71c-.22.42-.47.85-.71,1.27.24-.42.49-.85.71-1.27Z"/>
  <path class="cls-1" d="M795.79,2476.2c.06.81.11,1.61.16,2.41-.04-.8-.09-1.6-.16-2.41Z"/>
  <path class="cls-1" d="M744.68,2560.7c-.12.07-.24.14-.37.21.12-.07.24-.14.37-.21Z"/>
  <path class="cls-1" d="M418.01,2501.73c4.37,35.14,35.53,68.52,112.28,84.36-76.64-15.82-107.86-49.21-112.28-84.36Z"/>
  <path class="cls-1" d="M743.17,2561.56c-.34.19-.68.39-1.03.58.35-.19.69-.39,1.03-.58Z"/>
  <path class="cls-1" d="M417.94,2501.17c-.02-.16-.03-.31-.05-.47.02.16.03.31.05.47Z"/>
  <path class="cls-1" d="M1096.3,2303.64c-.09.05-.19.09-.28.14.09-.05.19-.09.28-.14Z"/>
  <path class="cls-1" d="M1192.87,2281.91c-.33.03-.66.07-.99.1.33-.03.66-.07.99-.1Z"/>
  <path class="cls-1" d="M1098.86,2302.35c-.08.04-.16.07-.23.11.08-.04.16-.07.23-.11Z"/>
  <path class="cls-1" d="M1181.22,2283.21c-.08,0-.16.02-.24.03.08,0,.16-.02.24-.03Z"/>
  <path class="cls-1" d="M1101.52,2301.11s-.09.04-.13.05c.04-.02.09-.04.13-.05Z"/>
  <path class="cls-1" d="M1186.95,2282.55c-.19.02-.38.04-.57.06.19-.02.38-.04.57-.06Z"/>
  <path class="cls-1" d="M1211.29,2280.19c-.77.06-1.55.13-2.32.19.77-.07,1.54-.13,2.32-.19Z"/>
  <path class="cls-1" d="M1217.83,2279.66c-1,.08-2,.15-2.99.23.99-.08,1.99-.16,2.99-.23Z"/>
  <path class="cls-1" d="M1205.07,2280.73c-.63.06-1.27.11-1.9.17.63-.06,1.27-.11,1.9-.17Z"/>
  <path class="cls-1" d="M1198.91,2281.3c-.47.05-.96.09-1.43.14.47-.05.95-.09,1.43-.14Z"/>
  <path class="cls-1" d="M968.74,2750.04c.05.08.09.16.14.23-.05-.08-.1-.16-.14-.23Z"/>
  <path class="cls-1" d="M1048.42,2815.16c-1.44-.15-2.86-.3-4.23-.46,1.38.16,2.8.31,4.23.46Z"/>
  <path class="cls-1" d="M1050.62,2815.38c-.41-.04-.83-.08-1.24-.12.41.04.83.08,1.24.12Z"/>
  <path class="cls-1" d="M1052.58,2815.57c-.17-.02-.34-.03-.51-.05.17.02.34.03.51.05Z"/>
  <path class="cls-1" d="M1224.47,2279.17c-1.23.09-2.46.18-3.68.27,1.22-.09,2.45-.18,3.68-.27Z"/>
  <path class="cls-1" d="M1248.44,2816.04c14.85-1.09,18.29-14.2,14.08-23.43,4.05,9.24.32,22.37-14.08,23.43Z"/>
  <path class="cls-1" d="M1094.07,2304.87c-.16.09-.33.18-.49.27.16-.09.33-.18.49-.27Z"/>
  <path class="cls-1" d="M1091.81,2306.22c-.17.11-.35.21-.51.32.16-.11.35-.21.51-.32Z"/>
  <path class="cls-1" d="M1089.76,2307.59c-.19.13-.39.26-.57.39.18-.13.38-.26.57-.39Z"/>
  <path class="cls-1" d="M968.44,2749.54c-24.04-40.56,45.78-108.9,66.81-181.58-20.98,72.47-91.07,140.95-66.81,181.58Z"/>
  <path class="cls-1" d="M1116.7,625.27c-2.13,59.34-2.03,118.73-2.39,178.12,7.2-47.44,23.97-136.73,28.06-147.12,7.58,4.72,13.64,6.8,18.35,7.73-20.85-5.32-36.38-19.52-44.01-38.73Z"/>
  <path class="cls-1" d="M971.8,1496.36c.51-.07,1.02-.13,1.53-.2-.51.07-1.02.13-1.53.2Z"/>
  <path class="cls-1" d="M977.14,1495.68c.44-.05.88-.1,1.33-.16-.44.05-.89.1-1.33.16Z"/>
  <path class="cls-1" d="M982.68,1495.04c.32-.03.63-.07.95-.1-.32.03-.63.07-.95.1Z"/>
  <path class="cls-1" d="M1258.57,1495.02c.94-.05,1.89-.1,2.82-.16-.93.06-1.88.11-2.82.16Z"/>
  <path class="cls-1" d="M1293.15,1764.9c-52.1,1.48-143.55-.04-322.47-9.45-9.81-.37-19.64-.72-29.49-1,102.98,3.01,225.45,16.35,351.96,10.45Z"/>
  <path class="cls-1" d="M943.04,1597.68c6.4-30.73,10.76-64.03,13.57-98.92-105.55,19.27-125.29,90.96-13.57,98.92Z"/>
  <path class="cls-1" d="M1264.16,1494.69c.57-.04,1.14-.08,1.7-.12-.56.04-1.13.08-1.7.12Z"/>
  <path class="cls-1" d="M862.06,1754.86c-39.63,2.07-78.73,7.73-116.2,20.59-37.13,11.32-94.94,56.07-50.91,93.2,40.62,24.8,94.01,36.54,155.24,40.15-49.63-2.96-94.14-11.31-130.92-27.67,51.46-38.47,101.16-78.69,142.79-126.26Z"/>
  <path class="cls-1" d="M1006.39,1231.97c.88-.5,1.86-.99,2.91-1.47-6.67,2.02-13.15,4.23-19.41,6.65,5.35-1.96,10.86-3.7,16.5-5.18Z"/>
  <path class="cls-1" d="M1067.04,1128.63c-1.64.2-3.28.4-4.92.59,1.63-.19,3.27-.39,4.92-.59Z"/>
  <path class="cls-1" d="M988.49,1494.46c.13-.01.26-.02.38-.04-.13.01-.26.02-.38.04Z"/>
  <path class="cls-1" d="M1062.86,1251.19c-39.38,7.34-77.67,18.94-108.16,45.21-25.88,20.75-14.53,45.35,5.82,55.61-.32-19.58-.91-39.25-1.7-58.88,26.83-21.57,63.8-33.72,104.04-41.94Z"/>
  <path class="cls-1" d="M1231.48,1114.07c-1.41-.17-2.81-.31-4.22-.45,1.41.14,2.82.29,4.22.45Z"/>
  <path class="cls-1" d="M1236.15,1114.67c-.7-.1-1.39-.19-2.09-.28.7.09,1.39.18,2.09.28Z"/>
  <path class="cls-1" d="M1225.67,1113.47c-1.06-.1-2.12-.18-3.18-.26,1.06.08,2.12.17,3.18.26Z"/>
  <path class="cls-1" d="M963.07,1353.26c-.85-.4-1.71-.81-2.56-1.24.84.42,1.7.84,2.56,1.24Z"/>
  <path class="cls-1" d="M1256.8,1495.12c-32.78,1.65-71.37.31-111.38-1.14,39.99,1.45,78.57,2.8,111.38,1.14Z"/>
  <path class="cls-1" d="M1269.23,1494.32c.31-.02.63-.05.94-.08-.31.03-.62.05-.94.08Z"/>
  <path class="cls-1" d="M943.04,1597.68c39.84,2.84,84.63-1.33,131.52-7.69-48.33,6.27-94.71,10.31-131.52,7.69Z"/>
  <path class="cls-1" d="M1151.82,1346.54c-30.05,6.01-56.65,11.43-80.58,14.91,25.72-3.44,52.93-9.04,80.58-14.91Z"/>
  <path class="cls-1" d="M961.54,1497.9c.49-.08.98-.16,1.47-.23-.49.08-.98.15-1.47.23Z"/>
  <path class="cls-1" d="M473.54,2089.48c4.01-.77,7.13-2.81,8.5-3.94-.13.08-.26.15-.39.22-1.53,1.15-4.48,2.95-8.11,3.72Z"/>
  <path class="cls-1" d="M497.95,2076.63c122.09-64.88,278.85-72.89,440.98-61.04-162.1-11.87-318.84-3.87-440.98,61.04Z"/>
  <path class="cls-1" d="M1453.29,1855.25c-106.77,4.19-229.68,24.13-348.04,38.76,118.47-14.6,241.46-34.5,348.04-38.76Z"/>
  <path class="cls-1" d="M1458.78,1855.05c-1.27.04-2.54.09-3.81.14,1.27-.05,2.54-.09,3.81-.14Z"/>
  <path class="cls-1" d="M496.93,2077.18c-2.5,1.34-4.99,2.69-7.45,4.07,2.47-1.38,4.96-2.73,7.45-4.07Z"/>
  <path class="cls-1" d="M964.39,2017.61c-.39-.03-.78-.07-1.17-.1.39.03.78.07,1.17.1Z"/>
  <path class="cls-1" d="M947.53,2016.24c-2.61-.2-5.22-.4-7.83-.6,2.61.19,5.22.39,7.83.6Z"/>
  <path class="cls-1" d="M1101.4,1894.49c-.06,0-.13.02-.19.02.06,0,.13-.02.19-.02Z"/>
  <path class="cls-1" d="M956.03,2016.91c-1.53-.12-3.06-.25-4.59-.37,1.53.12,3.06.25,4.59.37Z"/>
  <path class="cls-1" d="M869.52,1754.52c1.46-.06,2.94-.11,4.41-.16-1.47.05-2.94.1-4.41.16Z"/>
  <path class="cls-1" d="M897.57,1753.88c1.27,0,2.55-.01,3.83-.02-1.28,0-2.55,0-3.83.02Z"/>
  <path class="cls-1" d="M890.21,1753.95c1.53-.02,3.06-.04,4.6-.05-1.53.01-3.07.03-4.6.05Z"/>
  <path class="cls-1" d="M905.28,1753.86c.84,0,1.68,0,2.52,0-.84,0-1.68,0-2.52,0Z"/>
  <path class="cls-1" d="M883.16,1754.08c1.62-.04,3.24-.07,4.87-.1-1.63.03-3.25.06-4.87.1Z"/>
  <path class="cls-1" d="M913.27,1753.9c.26,0,.52,0,.78,0-.26,0-.52,0-.78,0Z"/>
  <path class="cls-1" d="M855.41,1909.09c-1.71-.09-3.41-.18-5.11-.28,1.7.1,3.4.2,5.11.28Z"/>
  <path class="cls-1" d="M862.72,1754.83c1.35-.07,2.71-.13,4.07-.19-1.36.06-2.71.12-4.07.19Z"/>
  <path class="cls-1" d="M876.3,1754.27c1.58-.05,3.16-.09,4.75-.13-1.58.04-3.17.08-4.75.13Z"/>
  <path class="cls-1" d="M861.02,1909.36c-.77-.03-1.53-.07-2.3-.11.77.04,1.53.08,2.3.11Z"/>
  <path class="cls-1" d="M966.61,1497.1c.53-.08,1.07-.15,1.61-.23-.54.08-1.07.15-1.61.23Z"/>
  <path class="cls-1" d="M1113.69,615.67c-.07-.3-.14-.61-.21-.91.07.3.13.61.21.91Z"/>
  <path class="cls-1" d="M757.64,2504.1c-.22.36-.46.72-.68,1.08.23-.36.47-.72.68-1.08Z"/>
  <path class="cls-1" d="M1112.98,612.17c-.03-.16-.06-.33-.09-.49.03.16.06.33.09.49Z"/>
  <path class="cls-1" d="M1155.71,233.15c-5.17-2.27-10.33-5.35-15.44-9.3,5.63,4.38,10.78,7.3,15.44,9.3Z"/>
  <path class="cls-1" d="M1018.28,437.38c-4.45,1.31-9.2,2.13-14.26,2.39,3.96.05,8.69-.48,14.26-2.39Z"/>
  <path class="cls-1" d="M1139.66,223.38c-.32-.25-.64-.51-.96-.77.32.26.64.52.96.77Z"/>
  <path class="cls-1" d="M1067.99,1128.51c49.87-6.26,103.46-19.03,153.94-15.35-50.67-3.72-104.36,9.11-153.94,15.35Z"/>
  <path class="cls-1" d="M1100.27,891.73c-49.54.37-75.55,9.63-89.85,16.31,26.19-8.82,58.43-14.99,89.85-16.31Z"/>
  <path class="cls-1" d="M1114.54,618.94c-.1-.35-.19-.69-.29-1.04.09.35.19.69.29,1.04Z"/>
  <path class="cls-1" d="M1115.54,622.13c-.11-.32-.2-.64-.31-.96.1.32.2.64.31.96Z"/>
  <path class="cls-1" d="M964.78,800.2c18.69-8.89,30.38-24.62,35.01-41.98-5.23,18.21-18.29,33.91-35.01,41.98Z"/>
  <path class="cls-1" d="M1224.4,1146.65c.48.05.97.11,1.45.16-.48-.06-.96-.11-1.45-.16Z"/>
  <path class="cls-1" d="M1221.9,1146.39c.32.03.64.06.95.09-.32-.03-.64-.06-.95-.09Z"/>
  <path class="cls-1" d="M1151.5,1205.85c-24.07,3.12-48.85,6.01-73,9.76,22.7-3.24,48.1-6.35,73-9.76Z"/>
  <path class="cls-1" d="M1219.23,1146.14c.17.01.34.03.51.04-.17-.02-.34-.03-.51-.04Z"/>
  <path class="cls-1" d="M896.25,438.8c-.54.57-1.1,1.13-1.65,1.68.56-.55,1.11-1.11,1.65-1.68Z"/>
  <path class="cls-1" d="M986.11,1141.45c-.09.02-.18.04-.27.06.09-.02.18-.04.27-.06Z"/>
  <path class="cls-1" d="M937.51,129.61c.9-.06,1.79-.14,2.68-.24-.89.09-1.77.18-2.68.24Z"/>
  <path class="cls-1" d="M894.03,441.02c-.38.37-.77.73-1.16,1.09.39-.36.78-.72,1.16-1.09Z"/>
  <path class="cls-1" d="M892.25,442.67c-.43.38-.86.76-1.3,1.13.44-.37.87-.74,1.3-1.13Z"/>
  <path class="cls-1" d="M988.4,1140.99c-.3.06-.6.12-.91.18.3-.06.6-.12.91-.18Z"/>
  <path class="cls-1" d="M1050.96,1131.98c-.1.02-.2.04-.3.05.1-.02.2-.04.3-.05Z"/>
  <path class="cls-1" d="M1054.36,1131.33c-.15.03-.3.06-.45.09.15-.03.3-.06.45-.09Z"/>
  <path class="cls-1" d="M1052.72,1131.66c-.13.03-.27.05-.4.08.13-.03.27-.05.4-.08Z"/>
  <path class="cls-1" d="M1049.08,1132.31c-.05,0-.1.02-.15.03.05,0,.1-.02.15-.03Z"/>
  <path class="cls-1" d="M1058.68,1130.32c-.16.04-.32.08-.48.12.16-.04.32-.08.48-.12Z"/>
  <path class="cls-1" d="M1024.7,1135.59c-.29.04-.59.07-.88.11.29-.04.59-.07.88-.11Z"/>
  <path class="cls-1" d="M1055.9,1131c-.16.04-.32.07-.48.11.16-.04.32-.07.48-.11Z"/>
  <path class="cls-1" d="M1059.93,1129.97c-.14.04-.29.08-.44.13.15-.04.3-.08.44-.13Z"/>
  <path class="cls-1" d="M1057.34,1130.67c-.16.04-.32.08-.49.12.16-.04.33-.08.49-.12Z"/>
  <path class="cls-1" d="M1000.45,1138.87c-.63.1-1.26.2-1.88.3.63-.1,1.25-.2,1.88-.3Z"/>
  <path class="cls-1" d="M993.1,1140.1c-.47.08-.93.17-1.4.26.47-.09.93-.17,1.4-.26Z"/>
  <path class="cls-1" d="M997.97,1139.27c-.57.09-1.14.19-1.71.28.57-.1,1.14-.19,1.71-.28Z"/>
  <path class="cls-1" d="M995.5,1139.68c-.52.09-1.03.18-1.55.27.51-.09,1.03-.18,1.55-.27Z"/>
  <path class="cls-1" d="M990.74,1140.53c-.4.08-.81.15-1.21.23.4-.08.8-.16,1.21-.23Z"/>
  <path class="cls-1" d="M1022.7,1135.84c-.7.09-1.41.18-2.12.26.71-.09,1.41-.18,2.12-.26Z"/>
  <path class="cls-1" d="M1005.65,1138.09c-.79.11-1.57.23-2.36.35.78-.12,1.57-.23,2.36-.35Z"/>
  <path class="cls-1" d="M1020.46,1136.12c-4.86.61-9.83,1.25-14.78,1.97,4.95-.71,9.92-1.36,14.78-1.97Z"/>
  <path class="cls-1" d="M1003.01,1138.48c-.69.1-1.39.21-2.08.32.69-.11,1.38-.21,2.08-.32Z"/>
  <path class="cls-1" d="M1061.07,1129.6c-.11.04-.23.07-.34.11.11-.04.23-.07.34-.11Z"/>
  <path class="cls-1" d="M1274.01,1493.91c.09,0,.18-.02.28-.03-.09,0-.18.02-.28.03Z"/>
  <path class="cls-1" d="M816.89,3000.54c-.37-.43-.72-.86-1.06-1.3.35.44.69.87,1.06,1.3Z"/>
  <path class="cls-1" d="M818.54,3002.33c-.26-.27-.5-.54-.75-.82.25.27.49.55.75.82Z"/>
  <path class="cls-1" d="M820.33,3004.04c-.12-.11-.23-.22-.35-.34.12.11.23.23.35.34Z"/>
  <path class="cls-1" d="M815.38,2998.69c-.44-.58-.86-1.16-1.27-1.75.41.59.83,1.18,1.27,1.75Z"/>
  <path class="cls-1" d="M894.53,3000.92s-.04.04-.05.06c.02-.02.04-.04.05-.06Z"/>
  <path class="cls-1" d="M895.03,3000.35c8.01-9,12.91-20.78,12.25-34.14.65,13.35-4.24,25.14-12.25,34.14Z"/>
  <path class="cls-1" d="M1005.96,3008.5c11.83-9.25,19.81-23.33,19.27-39.88.54,16.55-7.44,30.63-19.27,39.88Z"/>
  <path class="cls-1" d="M1115.14,3001.79c14.67-9.45,24.83-25.96,23.31-45.9,1.52,19.92-8.64,36.43-23.31,45.9Z"/>
  <path class="cls-1" d="M1832.16,2410.98c-24.07-22.24-128.27-37.92-227.79-24.03,99.72-13.87,204,2.05,227.79,24.03Z"/>
  <path class="cls-1" d="M1475.09,2429.04c.88-.54,1.76-1.08,2.65-1.61-.89.53-1.77,1.07-2.65,1.61Z"/>
  <path class="cls-1" d="M1837.25,2416.47c.17.2.34.39.51.59-.17-.2-.34-.39-.51-.59Z"/>
  <path class="cls-1" d="M1839.77,2419.41c.08.09.16.19.23.28-.08-.09-.16-.19-.23-.28Z"/>
  <path class="cls-1" d="M1824.39,2553.69c21.28-17.69,35.15-39.36,38.63-62.63-3.53,22.64-17.09,44.13-38.63,62.63Z"/>
  <path class="cls-1" d="M1834.73,2413.68c.21.22.4.44.61.67-.2-.22-.4-.44-.61-.67Z"/>
  <path class="cls-1" d="M1600.33,2387.53l.12-.02-.12.02Z"/>
  <path class="cls-1" d="M941.73,3008.68c-.52-.45-1.03-.92-1.53-1.4.51.48,1.02.95,1.53,1.4Z"/>
  <path class="cls-1" d="M1602.36,2387.23c.59-.08,1.18-.17,1.78-.25-.59.08-1.18.17-1.78.25Z"/>
  <path class="cls-1" d="M1502.78,3016.57c12.26-8.59,20.77-19.9,16.71-36.17,3.56,14.28-2.78,26.22-16.71,36.17Z"/>
  <path class="cls-1" d="M814,2996.78c-11.86-17.46-8.55-42.06-8.94-65.41.39,23.32-2.93,47.94,8.94,65.41Z"/>
  <path class="cls-1" d="M921.59,2908.72c-.11-4.54,99.06-7.02,101.82-7.05,9.56-.12,12.53-1.95,13.29,2.53.01-.89.03-1.78.04-2.68,34.13-.36,68.31-.43,102.5.04,1.72.02,3.14-.17,4.3-.29-80.1-1.91-158.93-.33-222.12,5.69.4.29.16.86.18,1.78Z"/>
  <path class="cls-1" d="M1284.01,2998.76c20.32,13.31,49.95,13.2,67.1-7.52-17.14,20.7-46.77,20.82-67.1,7.52Z"/>
  <path class="cls-1" d="M1250.54,2905.84h0c.34,20.86.57,41.71,1.07,62.58.45-14.33-.58-33.76-1.07-62.58Z"/>
  <path class="cls-1" d="M1005.66,3008.74c-.12.09-.25.18-.37.28.12-.09.25-.18.37-.28Z"/>
  <path class="cls-1" d="M1283.47,2998.41s-.06-.04-.09-.06c.03.02.06.04.09.06Z"/>
  <path class="cls-1" d="M1352.79,2989.36c-.54.64-1.1,1.26-1.68,1.88.59-.62,1.15-1.25,1.68-1.88Z"/>
  <path class="cls-1" d="M1517.98,2973.87c.07.23.13.47.19.7-.06-.23-.13-.47-.19-.7Z"/>
  <path class="cls-1" d="M1516.96,2970.72c.06.17.13.34.19.51-.06-.17-.12-.34-.19-.51Z"/>
  <path class="cls-1" d="M1149.94,2978.75c-.05-.76-.09-1.52-.11-2.3.02.78.06,1.54.11,2.3Z"/>
  <path class="cls-1" d="M1373.52,2956.03c-.86,41.27,56.41,63.68,85.46,34.96-29.05,28.62-86.32,6-85.46-34.96Z"/>
  <path class="cls-1" d="M1150.09,2980.5s0-.04,0-.05c0,.02,0,.04,0,.05Z"/>
  <path class="cls-1" d="M1049.33,2993.53c-.38-.41-.76-.81-1.12-1.23.36.42.74.82,1.12,1.23Z"/>
  <path class="cls-1" d="M1047.84,2991.87c-.42-.5-.84-1.01-1.24-1.53.4.52.81,1.03,1.24,1.53Z"/>
  <path class="cls-1" d="M1149.82,2976.45c-.07-3.37-.12-6.74-.18-10.11.05,3.22.11,6.57.18,10.11Z"/>
  <path class="cls-1" d="M1051.06,2995.26c-.4-.38-.8-.75-1.18-1.14.38.39.78.76,1.18,1.14Z"/>
  <path class="cls-1" d="M1046.51,2990.21c-6.1-8.11-8.79-18.27-9.86-30.77.77,11.18,3.16,21.92,9.86,30.77Z"/>
  <path class="cls-1" d="M1053.57,2997.46c-.66-.53-1.29-1.07-1.91-1.63.61.55,1.25,1.1,1.91,1.63Z"/>
  <path class="cls-1" d="M1192.58,3022.74c8.99,1.61,18.33,1.02,26.88-2.12-8.54,2.9-17.88,3.56-26.88,2.12Z"/>
  <path class="cls-1" d="M1148.61,2906.67c-.03-1.66-.06-3.31-.09-4.97,11.29.19,22.58.44,33.86.75-12.01-.45-24.05-.83-36.06-1.13,1.22.43,1.9,1.79,2.29,5.35Z"/>
  <path class="cls-1" d="M1114.49,3002.21s0,0-.01,0c0,0,0,0,.01,0Z"/>
  <path class="cls-1" d="M1518.73,2976.71c.06.27.13.54.19.81-.06-.27-.13-.54-.19-.81Z"/>
  <path class="cls-1" d="M1775.12,2955.82c-.24,0-.48,0-.72,0,.24,0,.48,0,.72,0Z"/>
  <path class="cls-1" d="M1678.11,2802.55c.15-.3.28-.6.43-.9-.15.3-.28.6-.43.9Z"/>
  <path class="cls-1" d="M1552.33,2609.04c-8.66-1.52-17.53-3.1-26.41-4.96,48.05,11.52,108.96,15.05,167.92,4.54-42.2,7.09-90.18,7.96-141.51.42ZM1552.23,2609.03c.17.02.22.04.42.07l-.42-.07Z"/>
  <path class="cls-1" d="M1857.11,2782.94s.04.05.06.07c-.02-.02-.04-.05-.06-.07Z"/>
  <path class="cls-1" d="M1771.56,2742.55c.97,0,1.93.01,2.89.04-.96-.02-1.93-.04-2.89-.04Z"/>
  <path class="cls-1" d="M1706.42,2485.94c-.89-9.83-5.52-19.76-15.17-28.34-11.8-10.51-24.68-13.32-36.33-11.09,24.12-3.68,48.47,15.68,51.51,39.43Z"/>
  <path class="cls-1" d="M1617.59,2495.38c.94,9.75,5.57,19.59,15.14,28.09,11.8,10.5,24.67,13.31,36.32,11.09-24.03,3.65-48.29-15.55-51.47-39.18Z"/>
  <path class="cls-1" d="M1485.38,2462.45c-5.12,4.03-9.74,8.34-13.77,12.96-2,2.46-3.85,5.12-5.52,7.92,4.62-7.1,10.98-14.15,19.29-20.88Z"/>
  <path class="cls-1" d="M1617.49,2421.82c10.25-5.3,24.94-6.29,66.46-7.01,2.75-.05,5.5-.07,8.25-.08-34.82-.57-71.85,1.93-106.1,8.29,11.79-2.03,24.49-3.68,38.19-4.86-2.35,1.11-4.61,2.33-6.8,3.66Z"/>
  <path class="cls-1" d="M2138.87,2372.11c-44.32-24.96-97.88-25.03-147.17-12.54,29.3,61.73,52.7,119.29,70.52,172.88,116.66-39.88,127.55-127.55,76.65-160.35Z"/>
  <path class="cls-1" d="M1711.2,2541.47c24.01-23.47,27.89-56.37,16.88-83.4,11,27.07,7.06,60-16.88,83.4Z"/>
  <path class="cls-1" d="M1776.26,2955.77c54.12-2.02,104.96-45.29,103.86-108.52,1.1,63.22-49.74,106.5-103.86,108.52Z"/>
  <path class="cls-1" d="M756.12,2506.5c-.24.35-.5.71-.75,1.07.25-.36.51-.71.75-1.07Z"/>
  <path class="cls-1" d="M1798.89,2428.45c1.48.46,2.97.9,4.45,1.39-1.44-.47-2.93-.93-4.45-1.39Z"/>
  <path class="cls-1" d="M1858.34,2784.53c.13.17.26.33.39.5-.13-.17-.26-.33-.39-.5Z"/>
  <path class="cls-1" d="M1771.56,2742.55c-42.23,0-75.82,24.99-92.72,58.51,16.96-33.54,50.63-58.51,92.72-58.51Z"/>
  <path class="cls-1" d="M1859.54,2786.12c.23.32.47.63.7.96-.23-.32-.47-.64-.7-.96Z"/>
  <path class="cls-1" d="M1861.88,2789.43c10.84,15.99,17.33,34.97,18.17,55.17-.84-20.21-7.33-39.19-18.17-55.17Z"/>
  <path class="cls-1" d="M1860.71,2787.75c.33.47.67.94.99,1.41-.32-.48-.66-.94-.99-1.41Z"/>
  <path class="cls-1" d="M1654.21,2563.36c-.13,0-.26-.02-.39-.03.13,0,.26.02.39.03Z"/>
  <path class="cls-1" d="M1581.09,2484.16c.04-1.14.12-2.28.21-3.42-.09,1.14-.17,2.27-.21,3.42Z"/>
  <path class="cls-1" d="M1727.53,2456.76c.14.33.29.67.43,1-.14-.34-.29-.67-.43-1Z"/>
  <path class="cls-1" d="M1581.37,2479.92c.1-1.08.22-2.17.37-3.24-.15,1.08-.27,2.16-.37,3.24Z"/>
  <path class="cls-1" d="M1726.96,2455.45s.02.04.03.07c-.01-.02-.02-.04-.03-.07Z"/>
  <path class="cls-1" d="M1581.76,2476.54c.16-1.18.36-2.35.58-3.52-.22,1.17-.41,2.34-.58,3.52Z"/>
  <path class="cls-1" d="M1786.35,2540.41c47.25-28.83,64.8-69.01,16.99-110.57,47.77,41.52,30.23,81.72-16.99,110.57Z"/>
  <path class="cls-1" d="M1467.39,2543.01c-.1-.11-.19-.22-.29-.33.1.11.19.22.29.33Z"/>
  <path class="cls-1" d="M1683.95,2414.81c.8.3,1.6.61,2.38.93-.79-.32-1.58-.63-2.38-.93Z"/>
  <path class="cls-1" d="M1584.16,2465.41c1.06-3.61,2.39-7.13,3.96-10.54-1.57,3.4-2.9,6.92-3.96,10.54Z"/>
  <path class="cls-1" d="M1598.36,2438.49c.58-.72,1.18-1.42,1.79-2.11-.61.69-1.21,1.4-1.79,2.11Z"/>
  <path class="cls-1" d="M1582.43,2472.56c.46-2.38,1.03-4.74,1.71-7.07-.68,2.32-1.25,4.68-1.71,7.07Z"/>
  <path class="cls-1" d="M1600.91,2435.52c.62-.68,1.25-1.35,1.89-2.01-.64.66-1.27,1.33-1.89,2.01Z"/>
  <path class="cls-1" d="M1603.59,2432.71c.6-.6,1.22-1.19,1.84-1.77-.63.58-1.24,1.17-1.84,1.77Z"/>
  <path class="cls-1" d="M1595.99,2441.54c.66-.89,1.33-1.78,2.02-2.64-.7.86-1.37,1.75-2.02,2.64Z"/>
  <path class="cls-1" d="M1588.14,2454.83c1.02-2.21,2.16-4.38,3.39-6.49-1.23,2.11-2.36,4.27-3.39,6.49Z"/>
  <path class="cls-1" d="M1655.11,2563.39c18.7.77,38.02-5.32,54.09-20.04-16.07,14.72-35.39,20.81-54.09,20.04Z"/>
  <path class="cls-1" d="M1591.71,2448.02c.61-1.03,1.24-2.05,1.89-3.05-.66,1-1.28,2.02-1.89,3.05Z"/>
  <path class="cls-1" d="M1593.69,2444.84c.59-.9,1.21-1.79,1.84-2.66-.63.88-1.25,1.76-1.84,2.66Z"/>
  <path class="cls-1" d="M534.13,2453.96c.23-.62.46-1.24.71-1.85-.25.61-.48,1.23-.71,1.85Z"/>
  <path class="cls-1" d="M469.26,2914.75c-.95-.94-1.88-1.89-2.79-2.84.91.96,1.84,1.91,2.79,2.84Z"/>
  <path class="cls-1" d="M618.81,2762.68c-.14-.13-.28-.26-.41-.39.2.19.4.39.6.58-.06-.06-.12-.13-.19-.19Z"/>
  <path class="cls-1" d="M471.34,2916.74c-.42-.39-.84-.78-1.25-1.18.41.4.83.79,1.25,1.18Z"/>
  <path class="cls-1" d="M462.5,2907.46c-.23-.27-.46-.54-.68-.81.23.27.45.54.68.81Z"/>
  <path class="cls-1" d="M561.84,2462.46c5.54-13.3,17.31-24.16,31.2-27.87-15.99,2.61-26.66,14.07-31.2,27.87Z"/>
  <path class="cls-1" d="M466.2,2911.63c-.89-.94-1.75-1.9-2.59-2.86.84.97,1.71,1.92,2.59,2.86Z"/>
  <path class="cls-1" d="M546.08,2945.47c29.73,0,55.19-12.4,73.56-31.44-19.57,19.25-46.21,30.66-73.64,31.44.03,0,.06,0,.09,0Z"/>
  <path class="cls-1" d="M1404.01,2887.55c2.14.3,4.25.61,6.34.92-2.09-.31-4.2-.61-6.34-.92Z"/>
  <path class="cls-1" d="M625.45,2559.69c53.32-3.93,103.48-19.43,125.07-45.94-21.49,26.39-71.69,41.94-125.07,45.94Z"/>
  <path class="cls-1" d="M575.88,2410.5c21.68-.93,44.37-.13,66.57,2.86,63.11,8.5,138.31,40.31,117.91,85.57,25.84-57.03-96.31-96.86-194.88-87.83,3.44-.24,6.9-.44,10.4-.59Z"/>
  <path class="cls-1" d="M542.32,2732.21c29.65.02,55.47,10.98,74.48,28.58-21.96-20.56-48.56-29.32-74.48-28.58Z"/>
  <path class="cls-1" d="M1090.76,2868.24c1.83,0,3.66,0,5.49.01-1.83,0-3.66-.01-5.49-.01Z"/>
  <path class="cls-1" d="M1100.03,2868.26c1.16,0,2.33.01,3.49.02-1.16,0-2.33-.01-3.49-.02Z"/>
  <path class="cls-1" d="M1109.36,2868.31c.43,0,.87,0,1.3.01-.43,0-.87,0-1.3-.01Z"/>
  <path class="cls-1" d="M621.91,2765.84s.06.06.09.09c-.03-.03-.06-.06-.09-.09Z"/>
  <path class="cls-1" d="M892.93,2877.24c59.14-6.25,127.13-8.99,195.95-9-68.69,0-136.66,2.73-195.95,9Z"/>
  <path class="cls-1" d="M626.67,2771.24c13.85,16.84,22.42,37.86,23.91,60.47-1.13-21.02-8.65-42.1-23.91-60.47Z"/>
  <path class="cls-1" d="M624.77,2768.99c.25.29.5.58.75.88-.25-.29-.49-.59-.75-.88Z"/>
  <path class="cls-1" d="M469.88,2762.48c-19.98,19.04-32.91,46.07-32.35,78.29,0,.22.01.43.02.64-.3-29.43,11.76-58.28,32.33-78.93Z"/>
  <path class="cls-1" d="M885.22,2878.08c2.32-.26,4.65-.51,6.99-.76-2.34.25-4.68.5-6.99.76Z"/>
  <path class="cls-1" d="M472.25,2444.74c-14.63,13.51-23.03,31.27-22,53.9-.92-20.26,8.08-39.18,22-53.9Z"/>
  <path class="cls-1" d="M529.91,2471.03c.04-.34.08-.69.13-1.03-.05.34-.08.68-.13,1.03Z"/>
  <path class="cls-1" d="M1515.86,2967.89c.11.25.21.5.31.75-.1-.25-.21-.5-.31-.75Z"/>
  <path class="cls-1" d="M530.31,2468.28c.05-.3.09-.6.14-.89-.05.3-.09.6-.14.89Z"/>
  <path class="cls-1" d="M530.78,2465.72c.06-.31.12-.62.18-.93-.07.31-.12.62-.18.93Z"/>
  <path class="cls-1" d="M529.58,2474.04c.04-.47.08-.95.13-1.42-.05.47-.09.95-.13,1.42Z"/>
  <path class="cls-1" d="M681.41,2492.25c-.05.34-.09.68-.15,1.02.05-.34.1-.68.15-1.02Z"/>
  <path class="cls-1" d="M681.62,2490.73c-.01.11-.02.21-.04.32.01-.11.02-.21.04-.32Z"/>
  <path class="cls-1" d="M529.33,2477.9c.03-.88.08-1.76.14-2.64-.06.88-.11,1.76-.14,2.64Z"/>
  <path class="cls-1" d="M529.27,2481.05c0-1.04.02-2.09.06-3.15-.04,1.06-.06,2.11-.06,3.15Z"/>
  <path class="cls-1" d="M639.49,2452.87c-3.19-4.83-7.48-9.04-12.89-12.25,1.92,1.29,3.82,2.75,5.69,4.42,2.82,2.51,5.21,5.13,7.2,7.84Z"/>
  <path class="cls-1" d="M582.27,2553.3c24.46,8.02,52.92,4.17,75.18-16.21-22.25,20.38-50.72,24.22-75.18,16.21Z"/>
  <path class="cls-1" d="M657.45,2537.09c13.36-12.22,21.1-27.49,23.73-43.32-2.64,15.84-10.38,31.12-23.73,43.32Z"/>
  <path class="cls-1" d="M567.43,2504.17c3.01,4.23,6.87,7.95,11.65,10.88-1.79-1.23-3.56-2.59-5.31-4.15-2.43-2.16-4.53-4.42-6.34-6.73Z"/>
  <path class="cls-1" d="M612.78,2521.38c16.06-2.54,26.84-14.02,31.43-27.87-5.58,13.35-17.46,24.22-31.43,27.87Z"/>
  <path class="cls-1" d="M531.33,2463.2c.08-.33.15-.66.23-.99-.08.33-.15.66-.23.99Z"/>
  <path class="cls-1" d="M532.6,2458.5c.14-.46.28-.93.43-1.39-.15.46-.28.93-.43,1.39Z"/>
  <path class="cls-1" d="M531.94,2460.8c.1-.38.2-.77.31-1.15-.11.38-.21.77-.31,1.15Z"/>
  <path class="cls-1" d="M573.23,2411.65c-18.2,8.37-31.32,23.11-38.27,40.17,6.97-17.11,20.13-31.83,38.27-40.17Z"/>
  <path class="cls-1" d="M533.34,2456.21c.18-.54.36-1.08.55-1.61-.19.53-.37,1.07-.55,1.61Z"/>
  <path class="cls-1" d="M752.57,2511.32c-.65.81-1.33,1.62-2.05,2.44.71-.82,1.39-1.63,2.05-2.44Z"/>
  <path class="cls-1" d="M1504.5,2951.08c.14.14.29.28.43.43-.14-.14-.29-.28-.43-.43Z"/>
  <path class="cls-1" d="M1487.92,2939.16c.17.09.34.17.51.26-.17-.09-.34-.17-.51-.26Z"/>
  <path class="cls-1" d="M1506.68,2953.38c.1.11.19.23.29.34-.1-.11-.19-.23-.29-.34Z"/>
  <path class="cls-1" d="M1508.35,2955.36c.15.19.31.38.46.57-.15-.19-.3-.38-.46-.57Z"/>
  <path class="cls-1" d="M1485.31,2937.86c.22.1.43.21.65.32-.22-.11-.43-.21-.65-.32Z"/>
  <path class="cls-1" d="M1479.55,2935.34c.29.12.58.23.87.35-.29-.12-.58-.24-.87-.35Z"/>
  <path class="cls-1" d="M1482.39,2936.52c.18.08.35.15.53.23-.18-.08-.35-.15-.53-.23Z"/>
  <path class="cls-1" d="M1490.76,2940.71c.15.09.31.18.46.27-.15-.09-.3-.18-.46-.27Z"/>
  <path class="cls-1" d="M754.43,2508.9c-.32.43-.67.87-1.01,1.31.34-.44.69-.87,1.01-1.31Z"/>
  <path class="cls-1" d="M1495.87,2943.92c.06.04.11.08.17.12-.06-.04-.11-.08-.17-.12Z"/>
  <path class="cls-1" d="M1493.12,2942.13c.18.11.35.22.53.33-.17-.11-.35-.22-.53-.33Z"/>
  <path class="cls-1" d="M1510.18,2957.75c.06.09.13.17.19.26-.06-.09-.13-.17-.19-.26Z"/>
  <path class="cls-1" d="M1500.39,2947.34c.06.05.13.1.2.16-.06-.05-.13-.1-.2-.16Z"/>
  <path class="cls-1" d="M1502.54,2949.2c.16.14.31.29.46.43-.15-.14-.31-.29-.46-.43Z"/>
  <path class="cls-1" d="M1498,2945.46c.17.13.35.26.52.39-.17-.13-.34-.26-.52-.39Z"/>
  <path class="cls-1" d="M1513.2,2962.48c.12.21.24.41.35.62-.11-.21-.23-.41-.35-.62Z"/>
  <path class="cls-1" d="M1048.49,3061.63c-60.67-1.67-111.85-4.43-141.24-6.41,45.32,3.84,95.44,5.62,141.24,6.41Z"/>
  <path class="cls-1" d="M1514.76,2965.42c.07.14.13.28.19.42-.07-.14-.13-.28-.19-.42Z"/>
  <path class="cls-1" d="M1502.35,3016.88c-.18.13-.38.26-.56.38.19-.13.38-.25.56-.38Z"/>
  <path class="cls-1" d="M1466.51,3034.94c6.46-2.98,14.2-6.18,21.77-9.95-45.42,21.84-133.48,32.04-228.77,35.99,70.02-1.03,140.26-4.55,207-26.05Z"/>
  <path class="cls-1" d="M1476.48,2934.17c.33.12.67.24,1,.37-.33-.12-.66-.25-1-.37Z"/>
  <path class="cls-1" d="M776.43,3028.38c-.53-.33-1.07-.64-1.59-.98.51.33,1.05.65,1.59.98Z"/>
  <path class="cls-1" d="M1445.55,2926.86s-.03,0-.05,0c12.21,2.22,22.83,4.52,29.15,6.66-9.12-3.14-19.01-5.27-29.1-6.65Z"/>
  <path class="cls-1" d="M1511.8,2960.14c.13.2.26.41.38.62-.13-.21-.25-.41-.38-.62Z"/>
  <path class="cls-2" d="M1139.66,223.38c.21.16.41.32.61.48,5.11,3.95,10.28,7.02,15.44,9.3,4.34,1.86,8.26,2.93,11.77,3.66-.01.06-.02.12-.04.19,57.46,12.57,107.94-66.48,57.76-113.39-73.2-60.21-148.24,46.11-88.43,97.41.65.56,1.29,1.08,1.92,1.6.32.26.64.52.96.77Z"/>
  <path class="cls-2" d="M892.25,442.67c.21-.19.42-.38.63-.57.39-.36.78-.72,1.16-1.09.19-.18.38-.36.56-.54.56-.55,1.11-1.1,1.65-1.68,26.14-27.52,24.18-68.27-1.79-92.64-42.08-39.64-111.54-7.89-109.3,49.89,2.09,53.89,65.8,80.89,105.34,48.13.15-.12.29-.25.44-.38.44-.37.87-.74,1.3-1.13Z"/>
  <path class="cls-5" d="M996.48,310.13c9.61-2.85-2.31-21.65-27.49-190.13-7.93,4.93-17.52,8.27-28.8,9.38-.89.1-1.78.18-2.68.24,9.62,62.38,20.65,124.56,30.68,186.87,7.93-4.02,17.12-6.36,27.47-6.36.28,0,.54,0,.82,0Z"/>
  <path class="cls-2" d="M968.99,120c48.62-30.21,34.84-120-35.59-120-35.38,0-64.91,29.54-64.91,64.91s31.49,67.17,69.02,64.7c.91-.06,1.79-.15,2.68-.24,11.28-1.11,20.87-4.45,28.8-9.38Z"/>
  <path class="cls-5" d="M1100.27,891.73c11.72-.49,23.31-.32,34.44.65,24-188.17,41.95-220.55,39.08-226.29-4.56-.32-8.92-1.03-13.08-2.09-4.71-.93-10.77-3.01-18.35-7.73-4.08,10.39-20.86,99.68-28.06,147.12.36-59.38.26-118.78,2.39-178.12-.42-1.05-.8-2.1-1.16-3.15-.11-.32-.21-.64-.31-.96-.24-.74-.48-1.49-.69-2.23-.1-.35-.19-.69-.29-1.04-.2-.74-.39-1.49-.56-2.23-.07-.3-.14-.61-.21-.91-.19-.87-.36-1.73-.51-2.59-.03-.16-.06-.33-.09-.49-2.37-14.18.3-27.74,6.4-39.37,7.05-111.2,27.57-226.3,48.15-335.3.01-.06.02-.12.04-.19-3.51-.73-7.43-1.8-11.77-3.66-4.66-1.99-9.81-4.92-15.44-9.3-.2-.16-.41-.32-.61-.48-.32-.25-.64-.51-.96-.77-.64-.52-1.27-1.04-1.92-1.6-26.38,204.53-49.69,117.05-56.45,667.28-8.85-153.17-23.93-306.07-47.32-457.63-4.44,2.86-9.35,5.14-14.72,6.72-5.57,1.91-10.3,2.44-14.26,2.39-4.78.25-9.83-.01-15.14-.84-7.29,5.36,10.52,51.76,35.59,341.29-30.84-117.6-69.9-234.61-128.23-341.43-.54.57-1.09,1.13-1.65,1.68-.19.18-.37.36-.56.54-.38.37-.77.73-1.16,1.09-.21.19-.42.38-.63.57-.43.38-.86.76-1.3,1.13-.15.12-.29.25-.44.38-6.25,5.18-13.43,9.19-21.25,11.59,38.15,72.48,67.92,148.09,92.64,225.49.05.02.1.04.15.06,21.62,7.9,38.95,26.84,40.16,57.2.26,6.73-.62,13.37-2.44,19.71-4.63,17.36-16.32,33.09-35.01,41.98-.25.12-.51.24-.76.36-.24.11-.47.23-.71.33,27.07,84.17,24.92,110.06,30.39,113.5,5.22-2.24,10.82-4.37,16.73-6.36,14.29-6.68,40.31-15.95,89.85-16.31Z"/>
  <path class="cls-2" d="M1112.89,611.67c.03.16.06.33.09.49.15.86.32,1.73.51,2.59.07.3.13.61.21.91.17.74.36,1.48.56,2.23.09.35.18.69.29,1.04.21.74.45,1.48.69,2.23.1.32.2.64.31.96.36,1.05.74,2.1,1.16,3.15,7.63,19.21,23.15,33.41,44.01,38.73,4.15,1.06,8.52,1.77,13.08,2.09,1.89.13,3.82.21,5.78.21,53.79,0,85.17-71.58,41.8-112.22-35.89-33.75-84-16.23-102.07,18.23-6.1,11.63-8.78,25.2-6.4,39.37Z"/>
  <path class="cls-2" d="M999.78,758.22c1.82-6.34,2.7-12.98,2.44-19.71-1.21-30.36-18.54-49.3-40.16-57.2-38.91-14.22-91.73,7.31-89.58,62.41,1.32,32.95,27.27,62.27,67.48,62.27,8.48,0,16.62-1.97,24.07-5.44.25-.12.51-.24.76-.36,16.71-8.07,29.78-23.77,35.01-41.98Z"/>
  <path class="cls-2" d="M1004.03,439.78c5.05-.26,9.81-1.08,14.26-2.39,5.37-1.58,10.28-3.87,14.72-6.72,45.91-29.52,41.34-119.89-36.52-120.53-.27,0-.54,0-.82,0-10.35,0-19.54,2.33-27.47,6.36-47.51,24.11-49.66,109.28,18.09,122.02.88.16,1.74.31,2.6.44,5.31.82,10.36,1.08,15.14.84Z"/>
  <path class="cls-6" d="M1204.34,1463.96c.58,0,1.15-.01,1.73-.02,1.03-.01,2.06-.03,3.09-.04.74-.01,1.47-.02,2.21-.03.95-.02,1.9-.03,2.84-.05.89-.02,1.77-.04,2.65-.06.81-.02,1.62-.03,2.43-.05,1.63-.04,3.26-.08,4.89-.13.58-.02,1.15-.04,1.72-.06,1.16-.04,2.33-.07,3.49-.12.64-.02,1.28-.05,1.92-.07,1.11-.04,2.22-.09,3.33-.13.62-.03,1.23-.05,1.85-.08,1.22-.05,2.43-.11,3.65-.17.47-.02.95-.05,1.42-.07,3.42-.18,6.81-.37,10.16-.6.41-.03.82-.06,1.24-.08,1.27-.09,2.53-.18,3.79-.27.49-.04.97-.07,1.46-.11,1.24-.09,2.47-.19,3.69-.3.43-.04.86-.07,1.29-.11,1.51-.13,3.01-.26,4.51-.4.12-.01.24-.02.36-.03,1.66-.16,3.31-.32,4.95-.49.27-.03.54-.06.82-.09,1.31-.14,2.62-.28,3.91-.43.47-.05.93-.11,1.39-.16,1.13-.13,2.25-.27,3.37-.41.28-.04.56-.07.85-.11-6.93-33.1-12.6-66.66-17.41-100.49-34.4,4.09-72.25,12.04-109.97,19.7-70.74,14.49-140.6,28.13-185.18,13.58-1.28-.47-2.4-.96-3.38-1.43-1.86-.64-3.67-1.32-5.44-2.06-2.9,1.17-.03,15.4-3.1,75.47,46.25-9.69,150.98.9,245.46-.08Z"/>
  <path class="cls-6" d="M985.84,1141.51c.09-.02.18-.04.27-.06.46-.1.92-.19,1.38-.28.3-.06.6-.12.91-.18.37-.07.75-.15,1.13-.22.4-.08.8-.16,1.21-.23.32-.06.64-.12.96-.18.47-.09.93-.17,1.4-.26.28-.05.57-.1.85-.15.51-.09,1.03-.18,1.55-.27.25-.04.5-.08.75-.13.57-.1,1.14-.19,1.71-.28.2-.03.4-.07.6-.1.63-.1,1.25-.2,1.88-.3.16-.03.32-.05.48-.08.69-.11,1.38-.21,2.08-.32.09-.01.19-.03.28-.04.78-.12,1.57-.23,2.36-.35.01,0,.02,0,.03,0,4.95-.71,9.92-1.36,14.78-1.97.04,0,.08-.01.12-.02.71-.09,1.41-.18,2.12-.26.38-.05.75-.09,1.12-.14.29-.04.59-.07.88-.11,8.95-1.11,17.35-2.12,24.23-3.26.05,0,.1-.02.15-.03.54-.09,1.06-.18,1.58-.27.1-.02.2-.04.3-.05.46-.08.91-.16,1.36-.25.13-.03.27-.05.4-.08.4-.08.8-.15,1.19-.23.15-.03.3-.06.45-.09.36-.07.71-.15,1.06-.23.16-.04.32-.07.48-.11.33-.07.64-.15.96-.22.16-.04.33-.08.49-.12.3-.07.58-.15.87-.22.16-.04.32-.08.48-.12.28-.07.54-.15.81-.23.15-.04.3-.08.44-.13.28-.08.54-.17.8-.25.11-.04.23-.07.34-.11.36-.12.72-.25,1.05-.38,1.63-.19,3.27-.39,4.92-.59.32-.04.63-.08.95-.12,49.58-6.24,103.27-19.07,153.94-15.35.19.01.38.03.57.04,1.06.08,2.12.17,3.18.26.53.05,1.06.1,1.59.15,1.41.14,2.82.29,4.22.45.86.1,1.72.2,2.58.32.7.09,1.39.18,2.09.28,1.31.18,2.62.38,3.93.59.19.03.38.05.57.09-5-56.1-10.31-111.62-17.74-165.66-6.24-36.79-43.4-53.42-88.2-57.31-11.13-.97-22.73-1.15-34.44-.65-31.42,1.33-63.66,7.49-89.85,16.31-5.91,1.99-11.51,4.12-16.73,6.36-.64.27-1.28.55-1.91.82-74.03,32.71-56.33,36.46-40.88,244.41,2.96-8.99,17.3-14.41,34.94-18.12Z"/>
  <path class="cls-6" d="M1009.3,1230.5c12.9-5.9,38.59-10.51,69.2-14.88,24.15-3.75,48.93-6.64,73-9.76,36.24-4.96,71.41-10.55,95.58-18.09-1.14-12.66-2.27-25.32-3.38-37.96-5.73-1.27-11.67-2.26-17.78-2.99-.02,0-.04,0-.07,0-.48-.06-.96-.11-1.45-.16-.51-.06-1.03-.12-1.54-.17-.32-.03-.64-.06-.95-.09-.72-.07-1.44-.14-2.16-.21-.17-.02-.34-.03-.51-.04-45.13-3.92-98.53,5.05-145.81,14.22-63.48,12.44-115.8,25.48-121.83,8.65,2,27.54,3.84,55.81,5.36,84.34,9.95-6.33,21.04-11.84,32.94-16.21,6.26-2.42,12.74-4.63,19.41-6.65Z"/>
  <path class="cls-6" d="M1062.86,1251.19c-40.24,8.22-77.21,20.37-104.04,41.94.79,19.63,1.38,39.3,1.7,58.88.85.43,1.7.83,2.56,1.24,29.23,13.65,66.77,13.73,108.17,8.19,23.93-3.48,50.52-8.9,80.58-14.91,36.66-7.78,74.08-16,109.77-20.22-4.45-35.14-8.15-70.48-11.49-105.83-30.83,8.54-67.96,13.18-106.1,18.13-.05,0-.1.02-.15.02-26.03,4.45-53.77,7.49-80.99,12.56Z"/>
  <path class="cls-6" d="M642.45,2413.36c28.75,16.26,42.89,47.54,39.17,77.37-.01.11-.02.21-.04.32-.05.4-.11.8-.17,1.2-.05.34-.09.68-.15,1.02-.03.17-.06.34-.09.51-2.63,15.83-10.36,31.1-23.73,43.32-22.25,20.38-50.72,24.22-75.18,16.21-29.38-9.63-52.97-36.39-53-72.25,0-1.04.02-2.09.06-3.15.03-.88.08-1.76.14-2.64.03-.41.07-.81.11-1.22.04-.47.08-.95.13-1.42.06-.53.13-1.06.2-1.59.04-.34.08-.69.13-1.03.08-.57.18-1.15.27-1.72.05-.3.09-.6.14-.89.1-.56.21-1.11.33-1.67.06-.31.12-.62.18-.93.11-.53.24-1.06.37-1.59.08-.33.15-.66.23-.99.12-.47.25-.94.38-1.41.1-.38.2-.77.31-1.15.11-.39.23-.77.35-1.15.14-.46.28-.93.43-1.39.1-.3.21-.6.31-.9.18-.54.36-1.08.55-1.61.08-.21.16-.42.24-.64.23-.62.46-1.24.71-1.85.04-.09.08-.19.12-.28,6.95-17.07,20.07-31.81,38.27-40.17.87-.4,1.75-.78,2.64-1.15-3.5.15-6.96.36-10.4.59-37.75,3.46-72.03,14.08-93.23,33.65-13.92,14.71-22.93,33.63-22,53.9,9.73,47.18,95.95,66.9,175.2,61.06,53.38-3.99,103.58-19.55,125.07-45.94.71-.82,1.4-1.63,2.05-2.44.3-.37.57-.74.85-1.11.34-.44.69-.87,1.01-1.31.33-.45.63-.89.94-1.33.25-.36.51-.71.75-1.07.29-.44.56-.88.84-1.31.23-.36.47-.72.68-1.08.23-.38.43-.75.64-1.13.24-.42.49-.85.71-1.27.15-.27.27-.54.41-.81.27-.53.54-1.07.79-1.6.06-.13.11-.25.16-.38,20.4-45.25-54.8-77.07-117.91-85.57Z"/>
  <path class="cls-6" d="M1381.46,1723.93c-24.67-41.17-44.48-84.42-60.52-129.21-21.72-.74-43.46.05-65.21,1.82-.4.03-.79.06-1.19.1-1.5.12-3,.26-4.49.39-.79.07-1.57.14-2.36.21-1.31.12-2.62.24-3.93.37-1.09.11-2.17.21-3.26.32-1.07.11-2.13.21-3.2.33-4.57.48-9.14.99-13.71,1.54-.25.03-.51.06-.76.09-2.24.27-4.48.55-6.72.83-.08.01-.16.02-.24.03-67.2,8.55-134.55,23.31-202.03,28.34-.03,0-.05,0-.08,0-7.51.56-15.02,1-22.53,1.29-.77.03-1.53.06-2.3.09-1.32.05-2.65.09-3.97.13-.97.03-1.95.05-2.92.08-1.21.03-2.42.06-3.63.08-1.17.02-2.35.03-3.52.04-1.05.01-2.09.03-3.14.03-2.13,0-4.27,0-6.4-.01-.77,0-1.54-.02-2.31-.03-1.51-.02-3.03-.04-4.54-.07-.88-.02-1.76-.04-2.64-.07-1.43-.04-2.87-.08-4.3-.14-.86-.03-1.73-.06-2.59-.1-1.54-.06-3.08-.14-4.62-.22-.74-.04-1.47-.07-2.21-.12-2.27-.13-4.54-.27-6.81-.44-8.64,31.44-14.26,48.08-46.19,91.57,64.68-.26,114.54,2.96,162.65,6.21,98.84,4.36,210.37,8.23,329.68-3.48Z"/>
  <path class="cls-6" d="M1466.09,2483.33c-10.88,18.32-13.87,42.95,1.01,59.35.1.11.19.22.29.33.54.58,1.09,1.15,1.67,1.7,79.06,60.06,238.97,43.48,317.29-4.3,47.22-28.85,64.76-69.05,16.99-110.57-1.48-.48-2.96-.93-4.45-1.39-26.8-8.01-65.17-13.04-106.69-13.73-2.75.01-5.5.04-8.25.08.8.3,1.6.61,2.38.93,18.86,7.75,32.86,22.39,40.63,39.71.01.02.02.04.03.07.18.41.36.83.53,1.24.14.33.29.67.43,1,.04.1.08.2.12.3,11.01,27.04,7.14,59.93-16.88,83.4-.65.63-1.31,1.26-1.99,1.88-16.07,14.72-35.39,20.81-54.09,20.04-.3-.01-.6-.02-.9-.03-.13,0-.26-.02-.39-.03-38.72-2.24-74.42-33.83-72.73-79.17.04-1.14.12-2.28.21-3.42.02-.27.05-.55.07-.82.1-1.08.22-2.17.37-3.24,0-.05.01-.09.02-.14.16-1.18.36-2.35.58-3.52.03-.15.06-.31.09-.46.46-2.39,1.03-4.75,1.71-7.07,0-.03.02-.05.02-.08,1.06-3.61,2.39-7.13,3.96-10.54,0-.01.01-.03.02-.04,1.03-2.22,2.16-4.38,3.39-6.49.06-.11.13-.22.19-.33.61-1.03,1.24-2.05,1.89-3.05.03-.04.05-.08.08-.12.59-.9,1.21-1.79,1.84-2.66.15-.22.31-.43.47-.64.66-.89,1.33-1.78,2.02-2.64.11-.14.23-.27.34-.41.58-.72,1.18-1.42,1.79-2.11.25-.29.5-.57.76-.85.62-.68,1.25-1.35,1.89-2.01.26-.27.53-.53.79-.8.6-.6,1.22-1.19,1.84-1.77.15-.14.3-.3.46-.44,4.11-3.76,7.5-6.57,11.59-8.68,2.19-1.33,4.46-2.56,6.8-3.66-13.7,1.18-26.4,2.83-38.19,4.86-40,7.43-76.21,20.15-100.72,39.43-8.31,6.72-14.66,13.78-19.29,20.88Z"/>
  <path class="cls-6" d="M557.3,2014.65c122.53-40.74,270.6-41.37,420.22-28.33,135.08,10.52,266.68,33.04,382.7,48.17,117.45,14.55,219.75,21.65,290.64,3.36,18.03-4.84,34.33-11.37,48.73-19.85-59.95-40.7-119.9-82.11-175.02-129.25-1.59-.04-3.19-.08-4.79-.12-92.9-2-213.18,12.02-334.54,25.93-175.62,22.2-344.47,45.54-449.29,12-19.38-5.24-36.05-12.21-49.48-21.23-51.03,37.36-102.4,74.24-148.1,115.99,1.27-.48,2.56-.93,3.83-1.4,3.38-1.3,6.24-2.45,8.41-3.42,2.22-.63,4.45-1.24,6.68-1.86Z"/>
  <path class="cls-6" d="M941.2,1754.45c-9.05-.26-18.1-.45-27.15-.54-.26,0-.52,0-.78,0-1.82-.02-3.65-.03-5.47-.03-.84,0-1.68,0-2.52,0-1.29,0-2.59,0-3.88,0-1.28,0-2.56,0-3.83.02-.92,0-1.84.01-2.75.02-1.54.01-3.07.03-4.6.05-.73.01-1.45.02-2.18.03-1.63.03-3.26.06-4.87.1-.7.02-1.4.03-2.1.05-1.59.04-3.17.08-4.75.13-.79.03-1.58.05-2.37.08-1.48.05-2.95.1-4.41.16-.91.04-1.82.08-2.73.12-1.36.06-2.72.12-4.07.19-.22.01-.44.02-.66.04-41.63,47.58-91.33,87.8-142.79,126.26,36.78,16.37,81.29,24.71,130.92,27.67.04,0,.08,0,.12,0,1.7.1,3.4.19,5.11.28,1.1.06,2.21.11,3.31.16.77.04,1.53.08,2.3.11,72.4,3.11,155.06-4.44,240.18-14.85.06,0,.13-.02.19-.02,1.28-.16,2.57-.32,3.86-.48,118.36-14.63,241.27-34.57,348.04-38.76.56-.02,1.12-.04,1.68-.06,1.27-.05,2.54-.09,3.81-.14,9.39-.33,18.64-.53,27.75-.59-77.13-73.56-80.8-99.9-86.43-99.69-17.85,2.66-35.7,4.77-53.51,6.43-12.23,1.57-28.23,2.98-53.44,3.7-126.51,5.9-248.98-7.44-351.96-10.45Z"/>
  <path class="cls-6" d="M1519.49,2980.4c-.17-.98-.37-1.94-.58-2.88-.06-.27-.13-.54-.19-.81-.17-.72-.35-1.44-.55-2.14-.06-.23-.13-.47-.19-.7-.26-.89-.54-1.77-.84-2.64-.06-.17-.12-.34-.19-.51-.25-.7-.51-1.4-.79-2.08-.1-.25-.21-.5-.31-.75-.29-.69-.6-1.37-.91-2.05-.07-.14-.13-.28-.19-.42-.38-.79-.78-1.56-1.2-2.32-.11-.21-.23-.41-.35-.62-.33-.58-.67-1.16-1.02-1.72-.13-.21-.25-.41-.38-.62-.46-.72-.94-1.44-1.43-2.13-.06-.09-.13-.17-.19-.26-.44-.62-.9-1.22-1.37-1.82-.15-.19-.3-.38-.46-.57-.45-.56-.91-1.11-1.38-1.64-.1-.11-.19-.23-.29-.34-.57-.64-1.15-1.26-1.75-1.87-.14-.14-.29-.28-.43-.43-.49-.49-.99-.97-1.5-1.45-.15-.14-.31-.29-.46-.43-.64-.58-1.29-1.15-1.96-1.71-.06-.05-.13-.1-.2-.16-.61-.5-1.23-1-1.86-1.48-.17-.13-.34-.26-.52-.39-.65-.48-1.3-.96-1.97-1.42-.06-.04-.11-.08-.17-.12-.73-.5-1.47-.99-2.22-1.47-.18-.11-.35-.22-.53-.33-.63-.39-1.26-.77-1.9-1.15-.15-.09-.31-.18-.46-.27-.77-.44-1.54-.87-2.33-1.29-.17-.09-.34-.17-.51-.26-.64-.34-1.3-.66-1.95-.99-.22-.11-.43-.21-.65-.32-.79-.38-1.59-.75-2.39-1.11-.18-.08-.35-.15-.53-.23-.65-.28-1.31-.56-1.97-.83-.29-.12-.58-.24-.87-.35-.69-.27-1.38-.54-2.08-.81-.33-.12-.66-.25-1-.37-.46-.17-.92-.33-1.38-.49,2.01,27.87-4.98,46.35-16.11,57.31-29.05,28.72-86.32,6.31-85.46-34.96-.02-13.27-1.29-26.5-2.41-39.73-3.26-.38-6.56-.75-9.88-1.11,1.66,27.29,8.11,54.58-8.45,74.18-.54.64-1.1,1.26-1.68,1.88-17.15,20.72-46.78,20.82-67.1,7.52-.18-.12-.36-.23-.53-.34-.03-.02-.06-.04-.09-.06-12.15-8.19-20.82-21.25-21.22-37.59-.82-18.06-2.57-36.24-3.69-54.41-2.64-.17-5.28-.34-7.93-.5.48,28.82,1.51,48.25,1.07,62.58,0,.35.01.69.02,1.04.69,28.4-13.86,44.94-32.16,51.16-8.56,3.15-17.9,3.73-26.88,2.12-20.99-3.35-40.06-18.09-42.49-42.24,0-.02,0-.04,0-.05-.06-.56-.11-1.12-.15-1.69-.05-.76-.09-1.53-.11-2.3-.07-3.54-.13-6.89-.18-10.11-.36-19.89-.64-39.78-1.03-59.68-.39-3.55-1.07-4.91-2.29-5.35-.93-.02-1.85-.05-2.78-.07-1.17.13-2.58.32-4.3.29-.68,18.21-2.32,36.57-.78,54.35,1.53,19.94-8.64,36.44-23.31,45.9-.22.14-.43.28-.65.42,0,0,0,0-.01,0-18.11,11.32-42.81,11.97-60.92-4.76-.66-.53-1.3-1.07-1.91-1.63-.21-.19-.39-.38-.59-.57-.4-.38-.8-.75-1.18-1.14-.19-.19-.37-.39-.55-.59-.38-.41-.76-.81-1.12-1.23-.12-.14-.24-.29-.36-.43-.43-.51-.84-1.02-1.24-1.53-.03-.04-.06-.09-.1-.13-6.7-8.85-9.09-19.59-9.86-30.77-1.28-14.9-.27-33.13.05-55.24-.75-4.48-3.73-2.65-13.29-2.53.53,21.37,1.4,42.72,1.66,64.08.09.97.14,1.92.17,2.87.54,16.55-7.44,30.63-19.27,39.88-.1.08-.2.16-.3.24-.12.09-.25.18-.37.28-18.03,13.66-44.57,16.26-63.57-.33-.52-.45-1.03-.92-1.53-1.4-27.25-24.66-14.41-65.97-18.6-98.56-.02-.92.22-1.49-.18-1.78-5.01.48-9.92.98-14.73,1.52,1.71,17.9-.42,37.85.46,55.7.06.69.11,1.38.14,2.06.66,13.36-4.24,25.14-12.25,34.14-.17.19-.33.38-.5.57-.02.02-.04.04-.05.06-17.88,19.45-50.47,25.34-72.2,4.72-.67-.54-1.32-1.09-1.94-1.65-.12-.11-.23-.22-.35-.34-.49-.46-.98-.91-1.44-1.38-.26-.27-.5-.54-.75-.82-.3-.32-.61-.64-.9-.97-.37-.43-.72-.86-1.06-1.3-.15-.18-.31-.36-.45-.55-.44-.58-.86-1.16-1.27-1.75-.04-.05-.08-.1-.11-.16-11.87-17.47-8.55-42.09-8.94-65.41-34.27,17.31-51.92,46.32-30.23,96.03.53.34,1.06.65,1.59.98,23.18,13.73,73.09,21.95,130.82,26.84,29.39,1.98,80.56,4.74,141.24,6.41,54.22.93,102.36.47,129.24.35,27.08-.57,54.41-.59,81.78-1,95.3-3.95,183.35-14.15,228.77-35.99,4.68-2.33,9.29-4.88,13.5-7.73.19-.13.38-.25.56-.38.15-.1.29-.2.44-.3,13.93-9.95,20.27-21.89,16.71-36.17Z"/>
  <path class="cls-6" d="M1274.01,1493.91c-1.27.12-2.55.23-3.84.34-.31.03-.63.05-.94.08-1.12.09-2.24.17-3.37.25-.56.04-1.13.08-1.7.12-.92.06-1.84.12-2.77.18-.93.06-1.88.11-2.82.16-.59.03-1.18.07-1.77.1-32.8,1.66-71.38.32-111.38-1.14-53.15-1.92-108.78-4.03-156.55.44-.13.01-.26.02-.38.04-1.63.15-3.25.32-4.86.49-.32.03-.63.07-.95.1-1.41.15-2.82.31-4.22.48-.44.05-.89.1-1.33.16-1.28.15-2.54.32-3.81.48-.51.07-1.02.13-1.53.2-1.2.16-2.4.33-3.58.51-.54.08-1.07.15-1.61.23-1.21.18-2.4.37-3.59.56-.49.08-.98.15-1.47.23-1.66.27-3.31.56-4.94.86-2.81,34.89-7.17,68.2-13.57,98.92,36.81,2.62,83.19-1.42,131.52-7.69,38.18-5.18,77.76-11.81,117.22-17.28,45.61-6.85,87.18-12.41,117.51-12.48-7.01-22.45-13.13-45.27-18.62-68.32-5.21.8-10.68,1.45-16.38,1.98-.09,0-.18.02-.28.03Z"/>
  <path class="cls-6" d="M1940.98,2267.9c-56.99-87.77-130.63-163.97-212.54-228.22-138.57,93.57-458.11,3.98-764.05-22.08-.39-.03-.78-.07-1.17-.1-2.4-.2-4.8-.4-7.19-.59-1.53-.12-3.06-.25-4.59-.37-1.3-.1-2.6-.2-3.9-.3-2.61-.2-5.22-.4-7.83-.6-.26-.02-.51-.04-.77-.05-162.14-11.85-318.89-3.84-440.98,61.04-.34.18-.68.37-1.02.55-2.5,1.34-4.99,2.69-7.45,4.07-2.49,1.4-4.97,2.83-7.43,4.28-1.37,1.13-4.49,3.17-8.5,3.94-2.37.5-5.03.56-7.77-.31-54.91,56.03-103.46,118.46-140.39,188.08-270-126.92-526.24,305.61-93.07,399.01,2.64,53.74,11.93,106.25,28.34,156.17,25.53,245.18,225.29,348.47,469.96,385.43,322.37,57.55,616.01,42.59,789.89,11.13,388.3-48.43,659.34-193.92,569.45-597.17,313.88-103.41,188.96-473.81-148.97-363.91ZM235.09,2572.71c-52.62-11.89-102.45-31.76-126.67-80.52-37.25-90.35,97.19-165.83,175.1-121.66-25.09,66.08-41.57,134.36-48.44,202.18ZM940.79,2683.79c18.62-39.37,46.6-74.04,60.48-115.74,23.29-76.09,9.82-159.02,39.14-233.97,8.81-19.3,10.68-38.5,31.48-54.33,46.9-35.98,190.06-54.41,729.42-18.03.14,0,.28.02.43.03,3.05.21,6.11.41,9.18.62,20.69,1.96,18.57,33.89-2.86,32.34-63.66-4.22-367.53-27.66-562.62-16.86-.1,0-.19.01-.29.02-2,.11-3.99.23-5.97.34-.37.02-.74.05-1.11.07-1.7.1-3.41.21-5.09.32-.58.04-1.15.08-1.73.12-1.47.1-2.94.19-4.39.3-.79.06-1.58.11-2.37.17-1.23.09-2.46.18-3.68.27-.99.07-1.97.15-2.96.23-1,.08-2,.15-2.99.23-1.19.1-2.37.2-3.56.3-.77.06-1.55.13-2.32.19-1.31.11-2.6.23-3.9.35-.63.06-1.27.11-1.9.17-1.43.13-2.85.27-4.26.41-.47.05-.96.09-1.43.14-1.55.15-3.08.31-4.61.47-.33.03-.66.07-.99.1-1.66.17-3.3.35-4.93.54-.19.02-.38.04-.57.06-1.74.2-3.46.4-5.16.6-.08,0-.16.02-.24.03-33.92,4.07-61.43,9.87-79.46,17.87-.04.02-.09.04-.13.05-.87.39-1.71.78-2.53,1.18-.08.04-.16.07-.23.11-.8.39-1.57.78-2.32,1.18-.09.05-.19.09-.28.14-.67.36-1.31.72-1.95,1.09-.16.09-.33.18-.49.27-.61.36-1.19.72-1.76,1.08-.17.11-.35.21-.51.32-.53.34-1.03.7-1.54,1.05-.19.13-.39.26-.57.39-.67.49-1.32.98-1.93,1.48-46.63,76.03-29.22,174.94-51.59,257.01-.14.5-.28,1-.43,1.5-21.03,72.68-90.84,141.02-66.81,181.58.1.17.2.33.3.5.05.08.09.16.14.23,19.07,30.25,91.82,44.72,278.96,33.31,7.2-.53,12.29,3.58,14.68,9.03,4.21,9.23.77,22.33-14.08,23.43-46.04,3.34-140.35,4.7-195.86-.47-.17-.02-.34-.03-.51-.05-.49-.05-.97-.09-1.45-.14-.41-.04-.83-.08-1.24-.12-.32-.03-.64-.07-.96-.1-1.44-.15-2.86-.3-4.23-.46-74.67-4.9-139.13-50.28-103.4-130.92ZM399.99,2316.28c-12.53-5.93-10.94-26.5,2.74-29.91,1.76-.43,3.55-.85,5.36-1.29,1.27-.3,2.55-.61,3.84-.91.52-.12,1.04-.25,1.57-.37,111.65-26.25,300.7-59.61,411.7-24.1.12.04.25.07.37.11,1.68.54,3.33,1.1,4.97,1.67.27.09.54.18.81.27,1.51.53,3,1.09,4.48,1.65.37.14.75.27,1.12.42,1.44.56,2.85,1.13,4.25,1.72.39.16.79.31,1.18.48,1.78.75,3.53,1.52,5.26,2.32,15.95,10.97.84,35.91-15.82,28.14-141.09-49.92-344.93,8.18-411.52,18.83-10.25,1.66-17.26,2.18-20.31.97ZM487.52,2393.89c.69-.27,1.38-.55,2.08-.81.06-.02.12-.04.17-.06,89.07-33.94,293.73-12.84,306.02,83.19.06.81.11,1.61.16,2.41,1.89,36.6-19.03,63.57-51.26,82.09-.12.07-.24.14-.37.21-.38.22-.76.43-1.14.64-.34.19-.68.39-1.03.58-.16.09-.32.17-.48.26-57.3,31.35-147.85,37.24-211.38,23.7-76.75-15.85-107.91-49.23-112.28-84.36-.02-.19-.05-.38-.07-.56-.02-.16-.03-.31-.05-.47-4.7-42.5,29.43-87.36,69.63-106.81ZM619.64,2914.03c-18.36,19.05-43.82,31.44-73.56,31.44-.03,0-.06,0-.09,0-25.99.74-52.66-8.06-74.66-28.73-.42-.39-.84-.78-1.25-1.18-.19-.19-.39-.36-.58-.55-.08-.08-.16-.17-.24-.25-.95-.93-1.88-1.88-2.79-2.84-.09-.1-.18-.19-.27-.29-.88-.94-1.75-1.89-2.59-2.86-.38-.43-.74-.87-1.12-1.31-.23-.27-.46-.54-.68-.81-16.53-19.78-24.04-42.67-24.27-65.24,0-.21-.02-.43-.02-.64-.56-32.22,12.38-59.25,32.35-78.29,18.3-18.38,43.32-30.27,72.35-30.27.03,0,.06,0,.1,0,25.92-.74,52.52,8.02,74.48,28.58.54.5,1.06,1,1.59,1.5.14.13.28.26.41.39.06.06.12.13.19.19.99.97,1.96,1.96,2.91,2.97.03.03.06.06.09.09.94,1,1.87,2.02,2.77,3.05.25.29.5.58.75.88.39.46.77.91,1.15,1.38,15.26,18.37,22.77,39.45,23.91,60.47.11,1.73.19,3.46.22,5.2.55,31.56-11.86,58.14-31.15,77.12ZM1133.64,3094.38c-85.95-3.92-330,8.56-385.31-47.35-25.15-26.63-22.84-69.13-6.46-99.72,26.75-48.07,85.21-61.47,135.71-68.36,2.53-.3,5.07-.6,7.64-.88,2.32-.26,4.65-.51,6.99-.76.24-.03.48-.05.72-.08,59.29-6.26,127.26-8.99,195.95-9,.63,0,1.25,0,1.88,0,1.83,0,3.66,0,5.49.01,1.26,0,2.52,0,3.78.01,1.16,0,2.33.01,3.49.02,1.95.01,3.89.02,5.84.04.43,0,.87,0,1.3.01,108.09.87,216.16,8.27,293.35,19.22,2.14.3,4.25.61,6.34.92,49.18,7.78,112.94,11.52,133.94,65.11,66.87,163.44-320.2,137.6-410.65,140.8ZM1525.92,2604.08c-29.66-6.23-59.31-15.72-80.74-37.44-41.29-41.59-15.48-110.34,29.91-137.6.88-.54,1.76-1.08,2.65-1.61,34.65-20.75,78.05-33.34,122.59-39.91l.12-.02c.64-.09,1.28-.18,1.91-.28.59-.08,1.18-.17,1.78-.25.08-.01.16-.02.23-.03,99.52-13.89,203.71,1.79,227.79,24.03.88.9,1.73,1.8,2.57,2.7.21.22.4.44.61.67.65.71,1.29,1.42,1.92,2.13.17.2.34.39.51.59.68.78,1.35,1.57,2.01,2.35.08.09.16.19.23.28,19.7,23.69,26.64,48.14,23.02,71.37-3.48,23.26-17.35,44.93-38.63,62.63-29.93,25.71-75.29,45.65-130.56,54.93-58.95,10.51-119.87,6.98-167.92-4.54ZM1776.26,2955.77c-.38.01-.76.04-1.15.05-.24,0-.48,0-.72,0-26.41.52-53.47-8.81-75.56-30.48-36.43-35.78-39.34-84.61-20.73-122.8.14-.3.28-.6.43-.9.1-.2.21-.39.31-.59,16.9-33.52,50.49-58.51,92.72-58.51.97,0,1.93.01,2.89.04,34.55.83,63.76,16.59,82.65,40.36.02.02.04.05.06.07.4.5.78,1.01,1.17,1.51.13.17.26.33.39.5.27.36.54.73.81,1.1.23.32.47.64.7.96.16.22.31.45.47.67.33.47.67.94.99,1.41.06.09.12.18.18.26,10.84,15.98,17.33,34.96,18.17,55.17.04.88.06,1.77.08,2.66,1.1,63.23-49.74,106.5-103.86,108.52ZM2062.22,2532.46c-17.82-53.59-41.23-111.15-70.52-172.88,49.29-12.5,102.85-12.43,147.17,12.54,50.9,32.8,40.01,120.47-76.65,160.35Z"/>
  <path class="cls-6" d="M830.23,2295.64c.48.3.38.27,1.1.58-.37-.19-.73-.36-1.1-.58Z"/>
  <path class="cls-8" d="M626.67,2771.24c-.38-.46-.77-.92-1.15-1.38-.25-.29-.49-.59-.75-.88-.9-1.04-1.83-2.05-2.77-3.05-.03-.03-.06-.06-.09-.09-.95-1.01-1.92-2-2.91-2.97-.2-.2-.4-.39-.6-.58-.52-.51-1.05-1.01-1.59-1.5-19.01-17.6-44.84-28.55-74.48-28.58-.03,0-.06,0-.1,0-29.03,0-54.05,11.89-72.35,30.27-20.57,20.65-32.64,49.51-32.33,78.93.23,22.56,7.74,45.45,24.27,65.24.23.27.45.54.68.81.37.44.73.87,1.12,1.31.84.96,1.7,1.91,2.59,2.86.09.1.18.19.27.29.9.96,1.84,1.9,2.79,2.84.08.08.16.17.24.25.19.19.39.36.58.55.41.4.83.79,1.25,1.18,22,20.68,48.67,29.48,74.66,28.73,27.43-.78,54.08-12.2,73.64-31.44,19.29-18.97,31.7-45.56,31.15-77.12-.03-1.74-.1-3.48-.22-5.2-1.48-22.62-10.06-43.63-23.91-60.47Z"/>
  <path class="cls-8" d="M1861.88,2789.43c-.06-.09-.12-.18-.18-.26-.32-.48-.66-.94-.99-1.41-.16-.22-.31-.45-.47-.67-.23-.32-.47-.64-.7-.96-.27-.37-.53-.73-.81-1.1-.13-.17-.26-.33-.39-.5-.39-.51-.78-1.01-1.17-1.51-.02-.02-.04-.05-.06-.07-18.89-23.76-48.1-39.52-82.65-40.36-.96-.02-1.93-.04-2.89-.04-42.09,0-75.76,24.97-92.72,58.51-.1.2-.21.39-.31.59-.15.3-.28.6-.43.9-18.61,38.19-15.71,87.02,20.73,122.8,22.08,21.67,49.14,31,75.56,30.48.24,0,.48,0,.72,0,.38-.01.76-.04,1.15-.05,54.12-2.02,104.96-45.3,103.86-108.52-.02-.89-.04-1.77-.08-2.66-.84-20.2-7.33-39.18-18.17-55.17Z"/>
  <path class="cls-3" d="M1044.18,2814.71c1.38.16,2.8.31,4.23.46.32.03.63.07.96.1.41.04.83.08,1.24.12.48.05.96.1,1.45.14.17.02.34.03.51.05,55.51,5.17,149.82,3.81,195.86.47,14.4-1.06,18.13-14.19,14.08-23.43-2.39-5.45-7.47-9.56-14.68-9.03-187.14,11.41-259.89-3.06-278.96-33.31-.05-.08-.1-.16-.14-.23-.1-.17-.2-.33-.3-.5-24.26-40.63,45.83-109.11,66.81-181.58.14-.5.29-1,.43-1.5,22.37-82.08,4.96-180.98,51.59-257.01.61-.5,1.26-.99,1.93-1.48.18-.13.38-.26.57-.39.5-.35,1-.7,1.54-1.05.16-.11.35-.21.51-.32.57-.36,1.15-.73,1.76-1.08.16-.09.33-.18.49-.27.64-.37,1.28-.73,1.95-1.09.09-.05.19-.09.28-.14.76-.4,1.53-.79,2.32-1.18.08-.04.16-.07.23-.11.82-.4,1.66-.79,2.53-1.18.04-.02.09-.04.13-.05,18.03-8,45.54-13.8,79.46-17.87.08,0,.16-.02.24-.03,1.7-.2,3.42-.4,5.16-.6.19-.02.38-.04.57-.06,1.63-.18,3.27-.36,4.93-.54.33-.03.66-.07.99-.1,1.53-.16,3.06-.32,4.61-.47.47-.05.95-.09,1.43-.14,1.41-.14,2.83-.27,4.26-.41.63-.06,1.27-.11,1.9-.17,1.3-.12,2.59-.23,3.9-.35.77-.07,1.54-.13,2.32-.19,1.18-.1,2.36-.2,3.56-.3.99-.08,1.99-.16,2.99-.23.99-.08,1.97-.15,2.96-.23,1.22-.09,2.45-.18,3.68-.27.79-.06,1.57-.12,2.37-.17,1.45-.1,2.92-.2,4.39-.3.58-.04,1.15-.08,1.73-.12,1.69-.11,3.39-.21,5.09-.32.37-.02.74-.05,1.11-.07,1.98-.12,3.97-.23,5.97-.34.1,0,.19-.01.29-.02,195.71-10.84,500.82,12.76,562.62,16.86,21.43,1.55,23.55-30.37,2.86-32.34-3.07-.21-6.13-.42-9.18-.62-.14,0-.28-.02-.43-.03-538.76-36.33-682.42-17.74-729.42,18.03-20.8,15.83-22.67,35.03-31.48,54.33-29.32,74.96-15.85,157.89-39.14,233.97-13.88,41.7-41.85,76.37-60.48,115.74-35.73,80.64,28.73,126.02,103.4,130.92Z"/>
  <path class="cls-3" d="M420.3,2315.31c66.6-10.65,270.44-68.76,411.52-18.83,16.66,7.77,31.77-17.16,15.82-28.14-1.73-.8-3.48-1.57-5.26-2.32-.39-.16-.79-.31-1.18-.48-1.41-.58-2.82-1.16-4.25-1.72-.37-.14-.75-.28-1.12-.42-1.48-.56-2.97-1.12-4.48-1.65-.27-.09-.54-.18-.81-.27-1.64-.57-3.29-1.13-4.97-1.67-.12-.04-.25-.08-.37-.11-112.64-36-305.46-.87-411.7,24.1-.53.12-1.04.25-1.57.37-1.29.3-2.58.61-3.84.91-1.82.43-3.61.86-5.36,1.29-13.68,3.41-15.27,23.98-2.74,29.91,3,1.19,10.02.68,20.31-.97ZM831.34,2296.22s0,0,0,0c-.74-.31-.62-.28-1.1-.58.37.22.74.4,1.1.58Z"/>
  <path class="cls-4" d="M534.96,2451.82c-.04.09-.08.19-.12.28-.25.61-.48,1.23-.71,1.85-.08.21-.17.42-.24.64-.19.53-.37,1.07-.55,1.61-.1.3-.21.6-.31.9-.15.46-.28.93-.43,1.39-.12.38-.24.77-.35,1.15-.11.38-.21.77-.31,1.15-.13.47-.26.94-.38,1.41-.08.33-.15.66-.23.99-.12.53-.25,1.06-.37,1.59-.07.31-.12.62-.18.93-.11.55-.23,1.11-.33,1.67-.05.3-.09.6-.14.89-.09.57-.19,1.14-.27,1.72-.05.34-.08.68-.13,1.03-.07.53-.14,1.06-.2,1.59-.05.47-.09.95-.13,1.42-.04.41-.08.81-.11,1.22-.06.88-.11,1.76-.14,2.64-.04,1.06-.06,2.11-.06,3.15.03,35.85,23.62,62.62,53,72.25,24.46,8.02,52.92,4.17,75.18-16.21,13.35-12.2,21.09-27.48,23.73-43.32.03-.17.06-.34.09-.51.05-.34.1-.68.15-1.02.06-.4.12-.8.17-1.2.01-.11.02-.21.04-.32,3.72-29.83-10.42-61.11-39.17-77.37-22.2-2.99-44.89-3.79-66.57-2.86-.89.37-1.77.75-2.64,1.15-18.14,8.34-31.3,23.06-38.27,40.17ZM593.04,2434.58c10.57-2.83,22.36-1.5,33.55,6.04,5.42,3.22,9.7,7.43,12.89,12.25,9.65,13.06,10.03,27.97,4.72,40.64-4.59,13.85-15.37,25.32-31.43,27.87-10.64,2.78-22.49,1.36-33.71-6.33-4.78-2.92-8.64-6.65-11.65-10.88-10.44-13.3-11.01-28.68-5.58-41.72,4.53-13.8,15.21-25.26,31.2-27.87Z"/>
  <path class="cls-4" d="M1605.89,2430.5c-.16.14-.3.29-.46.44-.63.58-1.24,1.17-1.84,1.77-.27.26-.53.53-.79.8-.64.66-1.27,1.33-1.89,2.01-.26.28-.51.57-.76.85-.61.69-1.21,1.4-1.79,2.11-.11.14-.23.27-.34.41-.7.86-1.37,1.75-2.02,2.64-.16.21-.31.43-.47.64-.63.88-1.25,1.76-1.84,2.66-.03.04-.05.08-.08.12-.66,1-1.28,2.02-1.89,3.05-.06.11-.13.22-.19.33-1.23,2.11-2.36,4.27-3.39,6.49,0,.01-.01.03-.02.04-1.57,3.41-2.9,6.93-3.96,10.54,0,.03-.02.05-.02.08-.68,2.32-1.25,4.68-1.71,7.07-.03.15-.06.31-.09.46-.22,1.17-.41,2.34-.58,3.52,0,.05-.01.09-.02.14-.15,1.08-.27,2.16-.37,3.24-.03.27-.05.55-.07.82-.09,1.14-.17,2.28-.21,3.42-1.69,45.34,34.01,76.92,72.73,79.17.13,0,.26.02.39.03.3.02.6.02.9.03,18.7.77,38.02-5.32,54.09-20.04.68-.62,1.34-1.25,1.99-1.88,23.94-23.4,27.88-56.33,16.88-83.4-.04-.1-.08-.2-.12-.3-.14-.34-.29-.67-.43-1-.18-.41-.35-.83-.53-1.24-.01-.02-.02-.04-.03-.07-7.77-17.32-21.77-31.96-40.63-39.71-.78-.32-1.58-.63-2.38-.93-41.52.72-56.21,1.71-66.46,7.01-4.1,2.12-7.49,4.93-11.59,8.68ZM1654.91,2446.51c11.65-2.23,24.53.59,36.33,11.09,9.66,8.58,14.28,18.51,15.17,28.34,1.4,10.96-1.72,22.85-11.5,33.85-7.84,8.8-16.83,13.4-25.87,14.77-11.65,2.22-24.53-.6-36.32-11.09-9.57-8.51-14.2-18.34-15.14-28.09-1.48-11.02,1.61-23.01,11.47-34.1,7.84-8.8,16.83-13.4,25.86-14.77Z"/>
  <path class="cls-4" d="M814,2996.78c.04.05.08.1.11.16.41.59.83,1.18,1.27,1.75.14.19.3.36.45.55.35.44.69.87,1.06,1.3.29.33.6.65.9.97.25.27.49.55.75.82.46.47.95.93,1.44,1.38.12.11.23.23.35.34.62.56,1.27,1.11,1.94,1.65,21.73,20.62,54.32,14.73,72.2-4.72.02-.02.04-.04.05-.06.17-.19.34-.38.5-.57,8.01-9,12.91-20.79,12.25-34.14-.03-.68-.08-1.37-.14-2.06-.88-17.85,1.25-37.8-.46-55.7-45.18,5.01-81.04,12.52-101.62,22.92.39,23.35-2.92,47.95,8.94,65.41Z"/>
  <path class="cls-4" d="M921.59,2908.72c4.19,32.59-8.64,73.9,18.6,98.56.51.48,1.02.95,1.53,1.4,19,16.59,45.54,13.99,63.57.33.12-.09.25-.18.37-.28.1-.08.2-.16.3-.24,11.83-9.25,19.81-23.34,19.27-39.88-.03-.95-.08-1.9-.17-2.87-.26-21.36-1.12-42.71-1.66-64.08-2.76.03-101.93,2.52-101.82,7.05Z"/>
  <path class="cls-4" d="M1036.73,2901.51c-.01.91-.02,1.79-.04,2.68-.31,22.11-1.33,40.35-.05,55.24,1.07,12.5,3.77,22.66,9.86,30.77.03.04.06.09.1.13.4.52.81,1.03,1.24,1.53.12.14.24.29.36.43.36.42.74.82,1.12,1.23.18.2.36.4.55.59.38.39.78.76,1.18,1.14.2.19.39.38.59.57.61.55,1.25,1.1,1.91,1.63,18.11,16.73,42.8,16.08,60.92,4.76,0,0,0,0,.01,0,.22-.14.43-.28.65-.42,14.67-9.46,24.83-25.98,23.31-45.9-1.54-17.78.1-36.14.78-54.35-34.19-.46-68.37-.4-102.5-.04Z"/>
  <path class="cls-4" d="M1148.61,2906.67c.39,19.89.67,39.78,1.03,59.68.06,3.37.12,6.74.18,10.11.02.78.06,1.54.11,2.3.04.57.09,1.13.15,1.69,0,.02,0,.04,0,.05,2.43,24.15,21.5,38.88,42.49,42.24,9,1.44,18.35.78,26.88-2.12,18.3-6.22,32.86-22.76,32.16-51.16,0-.35-.01-.69-.02-1.04-.5-20.87-.73-41.73-1.07-62.58-22.41-1.39-45.24-2.53-68.16-3.39-11.29-.32-22.57-.57-33.86-.75.03,1.66.06,3.31.09,4.97Z"/>
  <path class="cls-4" d="M1283.38,2998.35s.06.04.09.06c.18.12.36.23.53.34,20.32,13.3,49.96,13.19,67.1-7.52.59-.62,1.15-1.25,1.68-1.88,16.55-19.59,10.1-46.89,8.45-74.18-32.12-3.53-66.84-6.51-102.76-8.85,1.12,18.17,2.87,36.36,3.69,54.41.4,16.35,9.07,29.4,21.22,37.59Z"/>
  <path class="cls-4" d="M1458.98,2990.99c11.13-10.97,18.13-29.44,16.11-57.31-.15-.05-.3-.11-.45-.16-6.32-2.14-16.93-4.44-29.15-6.66-22.17-3.88-47.27-7.42-74.39-10.56,1.13,13.23,2.39,26.46,2.41,39.73-.85,40.96,56.41,63.58,85.46,34.96Z"/>
  <path class="cls-3" d="M473.54,2089.48c3.63-.77,6.58-2.57,8.11-3.72.13-.08.26-.15.39-.22,2.46-1.45,4.94-2.88,7.43-4.28,2.47-1.38,4.96-2.73,7.45-4.07.34-.18.68-.37,1.02-.55,122.15-64.91,278.88-72.92,440.98-61.04.26.02.51.04.77.05,2.61.19,5.22.39,7.83.6,1.3.1,2.6.2,3.9.3,1.53.12,3.06.25,4.59.37,2.4.2,4.79.39,7.19.59.39.03.78.07,1.17.1,305.94,26.06,625.48,115.65,764.05,22.08.47-.31.95-.61,1.41-.93,98-88.98-48.31-170.06-132.45-175.7-33.27-6.43-70.64-8.88-110.86-8.6-9.11.06-18.36.26-27.75.59-1.27.04-2.54.09-3.81.14-.56.02-1.12.04-1.68.06-106.58,4.26-229.57,24.16-348.04,38.76-1.29.16-2.57.32-3.86.48-.06,0-.13.02-.19.02-85.12,10.41-167.78,17.96-240.18,14.85-.77-.03-1.53-.07-2.3-.11-1.11-.05-2.21-.1-3.31-.16-1.71-.09-3.41-.18-5.11-.28-.04,0-.08,0-.12,0-61.23-3.61-114.62-15.34-155.24-40.15-44.03-37.13,13.78-81.89,50.91-93.2,37.47-12.86,76.57-18.52,116.2-20.59.22-.01.44-.03.66-.04,1.36-.07,2.71-.13,4.07-.19.91-.04,1.82-.08,2.73-.12,1.47-.06,2.94-.11,4.41-.16.79-.03,1.58-.06,2.37-.08,1.58-.05,3.17-.09,4.75-.13.7-.02,1.4-.04,2.1-.05,1.62-.04,3.25-.07,4.87-.1.73-.01,1.45-.02,2.18-.03,1.53-.02,3.07-.04,4.6-.05.92,0,1.84-.02,2.75-.02,1.28,0,2.55-.01,3.83-.02,1.29,0,2.59,0,3.88,0,.84,0,1.68,0,2.52,0,1.82,0,3.65.02,5.47.03.26,0,.52,0,.78,0,9.05.09,18.11.28,27.15.54,9.85.28,19.68.63,29.49,1,178.92,9.41,270.37,10.93,322.47,9.45,25.21-.72,41.21-2.13,53.44-3.7,20.23-2.59,30.16-5.59,54.46-6.49,78.08-3.32,171.23-65.84,90.53-139.89-75.09-64.05-186.94-57.79-299.81-42.12-39.46,5.48-79.04,12.11-117.22,17.28-46.9,6.36-91.68,10.53-131.52,7.69-111.71-7.96-91.98-79.65,13.57-98.92,1.63-.3,3.28-.58,4.94-.86.49-.08.98-.16,1.47-.23,1.19-.19,2.39-.38,3.59-.56.53-.08,1.07-.15,1.61-.23,1.19-.17,2.38-.34,3.58-.51.51-.07,1.02-.13,1.53-.2,1.26-.17,2.53-.33,3.81-.48.44-.05.88-.1,1.33-.16,1.4-.16,2.8-.32,4.22-.48.32-.03.63-.07.95-.1,1.61-.17,3.23-.33,4.86-.49.13-.01.26-.02.38-.04,47.76-4.47,103.4-2.36,156.55-.44,40,1.45,78.6,2.79,111.38,1.14.6-.03,1.18-.06,1.77-.1.94-.05,1.89-.1,2.82-.16.93-.06,1.85-.12,2.77-.18.57-.04,1.14-.08,1.7-.12,1.13-.08,2.25-.17,3.37-.25.31-.02.63-.05.94-.08,1.29-.11,2.57-.22,3.84-.34.09,0,.18-.02.28-.03,5.7-.53,11.18-1.18,16.38-1.98,8.53-1.31,16.37-2.99,23.37-5.14,63.6-4.9,150.49-77.23,87.87-137.54-37.34-26.58-86.9-29.23-140.32-22.91-35.69,4.22-73.1,12.45-109.77,20.22-27.64,5.86-54.86,11.47-80.58,14.91-41.41,5.54-78.94,5.47-108.17-8.19-.86-.4-1.71-.81-2.56-1.24-20.36-10.26-31.7-34.86-5.82-55.61,30.49-26.28,68.79-37.87,108.16-45.21,27.22-5.07,54.96-8.11,80.99-12.56.05,0,.1-.02.15-.02,64.76-10.02,221.41-21.58,152.07-103.82-17.79-10.36-36.59-16.41-55.99-19.53-1.31-.21-2.61-.41-3.93-.59-.7-.1-1.39-.19-2.09-.28-.86-.11-1.72-.21-2.58-.32-1.41-.16-2.81-.32-4.22-.45-.53-.05-1.06-.1-1.59-.15-1.06-.09-2.12-.18-3.18-.26-.19-.01-.38-.03-.57-.04-50.49-3.68-104.07,9.09-153.94,15.35-.32.04-.63.08-.95.12-1.64.2-3.28.4-4.92.59-.33.13-.68.25-1.05.38-.11.04-.23.07-.34.11-.26.09-.52.17-.8.25-.14.04-.29.08-.44.13-.26.08-.53.15-.81.23-.16.04-.32.08-.48.12-.28.07-.57.15-.87.22-.16.04-.32.08-.49.12-.31.07-.63.15-.96.22-.16.04-.32.07-.48.11-.35.08-.7.15-1.06.23-.15.03-.3.06-.45.09-.39.08-.78.16-1.19.23-.13.03-.27.05-.4.08-.44.08-.9.17-1.36.25-.1.02-.2.04-.3.05-.52.09-1.05.18-1.58.27-.05,0-.1.02-.15.03-6.88,1.14-15.28,2.15-24.23,3.26-.29.04-.59.07-.88.11-.37.05-.75.09-1.12.14-.7.09-1.41.18-2.12.26-.04,0-.08.01-.12.02-4.86.61-9.83,1.25-14.78,1.97-.01,0-.02,0-.03,0-.79.11-1.57.23-2.36.35-.09.01-.19.03-.28.04-.69.1-1.39.21-2.08.32-.16.02-.32.05-.48.08-.63.1-1.26.2-1.88.3-.2.03-.4.06-.6.1-.57.09-1.14.19-1.71.28-.25.04-.5.08-.75.13-.52.09-1.03.18-1.55.27-.29.05-.57.1-.85.15-.47.08-.93.17-1.4.26-.32.06-.64.12-.96.18-.4.08-.81.15-1.21.23-.38.07-.75.15-1.13.22-.3.06-.6.12-.91.18-.46.09-.92.19-1.38.28-.09.02-.18.04-.27.06-17.64,3.71-31.99,9.13-34.94,18.12-.62,1.9-.75,3.95-.28,6.18,3.35,20.44,57.16,7.3,122.81-5.45,47.27-9.18,100.68-18.15,145.81-14.22.17.01.34.03.51.04.72.06,1.44.13,2.16.21.32.03.64.06.95.09.52.05,1.03.11,1.54.17.48.05.97.11,1.45.16.02,0,.04,0,.07,0,19.85,2.35,37.89,7.42,52.82,16.35,1.76,10.19-10.89,18.11-31.66,24.59-24.17,7.54-59.33,13.13-95.58,18.09-24.89,3.41-50.3,6.52-73,9.76-30.61,4.37-56.3,8.98-69.2,14.88-1.06.48-2.03.97-2.91,1.47-5.64,1.48-11.15,3.22-16.5,5.18-11.9,4.37-22.99,9.87-32.94,16.21-57.08,36.34-76.58,100.07,3.82,134.72.4.17.8.33,1.2.5,1.77.73,3.59,1.42,5.44,2.06,46.08,15.84,117.07,2.37,188.56-12.15,37.72-7.66,75.57-15.61,109.97-19.7,53.91-6.4,99.33-3.32,122.46,25.24,3.33,46.86-41.94,67.18-105.06,75.25-.28.04-.56.07-.85.11-1.12.14-2.24.28-3.37.41-.46.05-.93.11-1.39.16-1.3.15-2.6.29-3.91.43-.27.03-.54.06-.82.09-1.64.17-3.29.34-4.95.49-.12.01-.24.02-.36.03-1.5.14-3,.27-4.51.4-.43.04-.86.07-1.29.11-1.23.1-2.46.2-3.69.3-.49.04-.97.07-1.46.11-1.26.09-2.52.18-3.79.27-.41.03-.82.06-1.24.08-3.36.22-6.75.42-10.16.6-.47.02-.95.05-1.42.07-1.21.06-2.43.12-3.65.17-.61.03-1.23.05-1.85.08-1.11.05-2.22.09-3.33.13-.64.02-1.28.05-1.92.07-1.16.04-2.32.08-3.49.12-.57.02-1.15.04-1.72.06-1.62.05-3.25.09-4.89.13-.81.02-1.62.04-2.43.05-.88.02-1.77.04-2.65.06-.95.02-1.89.03-2.84.05-.74.01-1.47.02-2.21.03-1.03.02-2.06.03-3.09.04-.58,0-1.15.01-1.73.02-94.49.98-199.22-9.62-245.46.08-2.36.5-4.58,1.04-6.63,1.65-120.5,15.45-184.38,140.86-16.93,163.96,2.27.17,4.54.31,6.81.44.74.04,1.47.08,2.21.12,1.54.08,3.08.16,4.62.22.86.04,1.73.07,2.59.1,1.43.05,2.87.1,4.3.14.88.02,1.76.05,2.64.07,1.51.03,3.03.06,4.54.07.77,0,1.54.03,2.31.03,2.13.02,4.27.02,6.4.01,1.05,0,2.09-.02,3.14-.03,1.17-.01,2.35-.02,3.52-.04,1.21-.02,2.42-.05,3.63-.08.97-.02,1.95-.05,2.92-.08,1.32-.04,2.65-.08,3.97-.13.77-.03,1.53-.06,2.3-.09,7.51-.3,15.02-.73,22.53-1.29.02,0,.05,0,.08,0,67.47-5.03,134.83-19.79,202.03-28.34.08-.01.16-.02.24-.03,2.24-.28,4.48-.56,6.72-.83.25-.03.51-.06.76-.09,4.57-.55,9.14-1.06,13.71-1.54,1.07-.11,2.13-.22,3.2-.33,1.09-.11,2.17-.22,3.26-.32,1.31-.13,2.62-.25,3.93-.37.79-.07,1.57-.14,2.36-.21,1.5-.13,3-.26,4.49-.39.4-.03.79-.06,1.19-.1,50.53-4.12,100.97-2.94,151.29,10.36,32.17,11.28,86.18,30.79,81.56,72.46-20.19,37.17-66.01,40.53-107.12,44.57-119.31,11.71-230.84,7.84-329.68,3.48-198.18-8.74-345.33-19.47-401.78,89.38-5.96,40.9,7.92,69.35,36.48,88.54,13.42,9.02,30.1,15.98,49.48,21.23,101.21,27.39,276.35,7.81,449.29-12,121.37-13.91,241.65-27.93,334.54-25.93,1.6.03,3.2.07,4.79.12,63.74,1.78,241.92,25.71,194.64,115.48-6.07,5.08-12.63,9.65-19.62,13.77-14.4,8.49-30.7,15.01-48.73,19.85-72.88,19.58-173.87,11.87-290.64-3.36-116.02-15.13-247.62-37.65-382.7-48.17-140.86-10.97-285.51-8.86-420.22,28.33-2.23.61-4.46,1.22-6.68,1.86-2.17.97-5.03,2.12-8.41,3.42-31.89,12.3-109.67,38.65-81.21,66.74,1.59,1.2,3.2,2,4.77,2.5,2.74.86,5.4.81,7.77.31Z"/>
  <path class="cls-3" d="M417.94,2501.17c.02.19.05.38.07.56,4.42,35.16,35.64,68.54,112.28,84.36,63.32,13.49,154.01,7.67,211.38-23.7.16-.09.32-.17.48-.26.35-.19.69-.39,1.03-.58.38-.21.77-.43,1.14-.64.12-.07.24-.14.37-.21,32.24-18.52,53.15-45.49,51.26-82.09-.04-.8-.09-1.6-.16-2.41-12.26-95.83-216.89-117.15-306.02-83.19-.06.02-.12.04-.17.06-.7.27-1.39.54-2.08.81-40.2,19.45-74.33,64.31-69.63,106.81.02.16.03.31.05.47ZM760.36,2498.92c-.06.13-.11.25-.16.38-.25.53-.52,1.06-.79,1.6-.14.27-.26.54-.41.81-.22.42-.47.85-.71,1.27-.21.38-.42.75-.64,1.13-.22.36-.46.72-.68,1.08-.28.44-.54.87-.84,1.31-.24.35-.5.71-.75,1.07-.31.44-.61.89-.94,1.33-.32.43-.67.87-1.01,1.31-.29.37-.56.74-.85,1.11-.65.81-1.33,1.62-2.05,2.44-21.58,26.5-71.75,42-125.07,45.94-79.25,5.84-165.47-13.88-175.2-61.06-1.03-22.62,7.37-40.39,22-53.9,21.19-19.57,55.47-30.19,93.23-33.65,98.57-9.02,220.71,30.8,194.88,87.83Z"/>
  <path class="cls-3" d="M1552.65,2609.1c-.2-.03-.25-.05-.42-.07l.42.07Z"/>
  <path class="cls-3" d="M1693.84,2608.62c55.27-9.28,100.62-29.22,130.56-54.93,21.54-18.5,35.1-39.99,38.63-62.63,3.62-23.23-3.32-47.68-23.02-71.37-.08-.09-.16-.19-.23-.28-.66-.78-1.33-1.57-2.01-2.35-.17-.2-.34-.39-.51-.59-.63-.71-1.27-1.42-1.92-2.13-.2-.22-.4-.44-.61-.67-.84-.9-1.69-1.8-2.57-2.7-23.79-21.98-128.07-37.9-227.79-24.03-.08.01-.16.02-.23.03-.59.08-1.18.17-1.78.25-.64.09-1.28.18-1.91.28l-.12.02c-44.54,6.57-87.94,19.16-122.59,39.91-.89.53-1.77,1.07-2.65,1.61-45.39,27.27-71.2,96.01-29.91,137.6,21.43,21.72,51.08,31.21,80.74,37.44,8.88,1.86,17.75,3.44,26.41,4.96,51.32,7.53,99.31,6.66,141.51-.42ZM1485.38,2462.45c24.5-19.29,60.71-32,100.72-39.43,34.26-6.36,71.28-8.86,106.1-8.29,41.52.68,79.89,5.72,106.69,13.73,1.52.45,3.01.91,4.45,1.39,47.81,41.56,30.26,81.74-16.99,110.57-78.32,47.79-238.23,64.37-317.29,4.3-.58-.56-1.14-1.13-1.67-1.7-.1-.11-.19-.22-.29-.33-14.88-16.4-11.89-41.04-1.01-59.35,1.67-2.81,3.52-5.47,5.52-7.92,4.02-4.62,8.65-8.93,13.77-12.96Z"/>
  <path class="cls-2" d="M561.84,2462.46c-5.43,13.04-4.86,28.42,5.58,41.72,1.82,2.31,3.91,4.56,6.34,6.73,1.75,1.55,3.52,2.92,5.31,4.15,11.22,7.7,23.07,9.11,33.71,6.33,13.97-3.65,25.84-14.52,31.43-27.87,5.3-12.68,4.93-27.58-4.72-40.64-2-2.7-4.38-5.33-7.2-7.84-1.87-1.67-3.77-3.13-5.69-4.42-11.19-7.54-22.98-8.86-33.55-6.04-13.89,3.71-25.66,14.57-31.2,27.87Z"/>
  <path class="cls-2" d="M1617.59,2495.38c3.18,23.64,27.43,42.83,51.47,39.18,9.03-1.37,18.03-5.97,25.87-14.77,9.78-11,12.9-22.89,11.5-33.85-3.04-23.75-27.38-43.11-51.51-39.43-9.03,1.38-18.02,5.97-25.86,14.77-9.85,11.09-12.95,23.07-11.47,34.1Z"/>
  <path class="cls-7" d="M1410.35,2888.46c-2.09-.31-4.2-.61-6.34-.92-77.18-10.95-185.26-18.35-293.35-19.22-.43,0-.87,0-1.3-.01-1.95-.01-3.89-.02-5.84-.04-1.16,0-2.33-.01-3.49-.02-1.26,0-2.52,0-3.78-.01-1.83,0-3.66-.01-5.49-.01-.63,0-1.25,0-1.88,0-68.82.01-136.8,2.75-195.95,9-.24.03-.48.05-.72.08-2.34.25-4.68.5-6.99.76-2.56.29-5.11.58-7.64.88-50.5,6.88-108.96,20.28-135.71,68.36-16.38,30.59-18.69,73.08,6.46,99.72,55.3,55.91,299.36,43.43,385.31,47.35,90.45-3.2,477.52,22.64,410.65-140.8-21-53.59-84.76-57.33-133.94-65.11ZM1502.78,3016.57c-.15.1-.29.2-.44.3-.19.13-.37.26-.56.38-4.21,2.85-8.83,5.4-13.5,7.73-7.57,3.77-15.31,6.96-21.77,9.95-66.74,21.5-136.98,25.02-207,26.05-27.37.4-54.71.43-81.78,1-26.88.11-75.02.58-129.24-.35-45.8-.79-95.92-2.57-141.24-6.41-57.73-4.89-107.64-13.11-130.82-26.84-.54-.32-1.08-.65-1.59-.98-21.69-49.71-4.04-78.72,30.23-96.03,20.58-10.4,56.44-17.91,101.62-22.92,4.81-.53,9.72-1.04,14.73-1.52,63.19-6.01,142.02-7.6,222.12-5.69.93.02,1.85.04,2.78.07,12.01.3,24.05.68,36.06,1.13,22.92.86,45.75,2,68.16,3.39h0c2.65.16,5.29.33,7.93.5,35.92,2.33,70.64,5.31,102.76,8.85,3.32.37,6.61.74,9.88,1.11,27.12,3.14,52.22,6.67,74.39,10.56.02,0,.03,0,.05,0,10.09,1.39,19.98,3.51,29.1,6.65.15.05.3.11.45.16.46.16.92.32,1.38.49.33.12.67.24,1,.37.7.26,1.39.53,2.08.81.29.12.58.23.87.35.66.27,1.32.55,1.97.83.18.08.35.15.53.23.81.36,1.6.73,2.39,1.11.22.1.43.21.65.32.66.32,1.31.65,1.95.99.17.09.34.17.51.26.79.42,1.56.85,2.33,1.29.15.09.31.18.46.27.64.37,1.28.76,1.9,1.15.18.11.35.22.53.33.75.48,1.49.96,2.22,1.47.06.04.11.08.17.12.67.46,1.32.94,1.97,1.42.17.13.35.26.52.39.63.48,1.25.98,1.86,1.48.06.05.13.1.2.16.67.56,1.32,1.13,1.96,1.71.16.14.31.29.46.43.51.47,1.01.95,1.5,1.45.14.14.29.28.43.43.6.61,1.18,1.23,1.75,1.87.1.11.19.23.29.34.47.54.93,1.09,1.38,1.64.15.19.31.38.46.57.47.6.93,1.2,1.37,1.82.06.09.13.17.19.26.49.7.97,1.41,1.43,2.13.13.2.26.41.38.62.35.57.69,1.14,1.02,1.72.12.21.24.41.35.62.42.76.82,1.53,1.2,2.32.07.14.13.28.19.42.32.67.62,1.35.91,2.05.11.25.21.5.31.75.28.68.54,1.38.79,2.08.06.17.13.34.19.51.3.86.58,1.74.84,2.64.07.23.13.47.19.7.2.7.38,1.42.55,2.14.06.27.13.54.19.81.21.95.41,1.9.58,2.88,4.06,16.27-4.44,27.59-16.71,36.17Z"/>
</svg>