<?xml version="1.0" encoding="UTF-8"?>
<svg id="_лой_1" data-name="—лой_1" xmlns="http://www.w3.org/2000/svg" viewBox="0 0 2107.66 2798.95">
  <defs>
    <style>
      .cls-1, .cls-2 {
        fill: none;
      }

      .cls-3 {
        fill: #ffcbbd;
      }

      .cls-2 {
        stroke: #ffcbbd;
        stroke-linecap: round;
        stroke-linejoin: round;
      }

      .cls-4 {
        fill: #0c0809;
      }

      .cls-5 {
        fill: #211b17;
      }

      .cls-6 {
        fill: #acf2b1;
      }

      .cls-7 {
        fill: #f5c400;
      }

      .cls-8 {
        fill: #f1035d;
      }

      .cls-9 {
        fill: #f28585;
      }
    </style>
  </defs>
  <path class="cls-1" d="M1051.14,2047.58c-.4-.78-.8-1.56-1.19-2.35.39.79.78,1.57,1.19,2.35Z"/>
  <path class="cls-1" d="M1049.64,2044.58c-.42-.86-.83-1.71-1.23-2.57.4.86.81,1.72,1.23,2.57Z"/>
  <path class="cls-1" d="M1033.72,1997.49c-.12-.53-.22-1.07-.34-1.61.11.54.22,1.07.34,1.61Z"/>
  <path class="cls-1" d="M1028.44,1961.78c.06.61.1,1.22.16,1.82.05.51.11,1.01.16,1.51.18,1.83.37,3.66.59,5.48,0,.06.01.12.02.18.5,4.31,1.09,8.57,1.76,12.78.03.21.07.42.1.62.27,1.7.57,3.39.87,5.08.12.68.25,1.37.38,2.04.18.95.37,1.89.56,2.83.66,3.26,1.37,6.48,2.16,9.66-.45-1.8-.87-3.62-1.28-5.43,1.36,6.24,2.94,12.35,4.78,18.33-11.69-39.82-12.91-85.55-11.12-134.68-1.16,28.1-1.35,54.86.87,79.77Z"/>
  <path class="cls-1" d="M1048.25,2041.66c-.44-.95-.87-1.9-1.29-2.84.42.94.85,1.89,1.29,2.84Z"/>
  <path class="cls-1" d="M1051.35,2047.98c.03.06.06.12.09.17.49.93.99,1.86,1.5,2.78.06.12.13.23.19.35.49.88,1,1.75,1.51,2.61.09.15.18.3.27.44.38.63.77,1.24,1.17,1.86-3.54-5.54-6.56-11.68-9.3-17.79.06.14.12.28.18.41,1.36,3.04,2.82,6.12,4.39,9.16Z"/>
  <path class="cls-1" d="M1058.38,2059.61c-.24-.33-.46-.67-.69-1-.17-.25-.35-.5-.52-.75-.1-.15-.2-.29-.3-.44.49.74,1,1.47,1.51,2.19Z"/>
  <path class="cls-1" d="M1058.71,2060.07c.07.09.14.18.21.27-.31-.42-.62-.85-.92-1.29.14.2.28.41.42.62.1.13.19.26.29.4Z"/>
  <path class="cls-1" d="M1054.51,2053.68c-.42-.71-.83-1.42-1.24-2.13.4.72.82,1.43,1.24,2.13Z"/>
  <path class="cls-1" d="M1056.38,2056.69c-.46-.7-.9-1.42-1.34-2.14.44.72.89,1.43,1.34,2.14Z"/>
  <path class="cls-1" d="M1052.76,2050.63c-.4-.73-.8-1.46-1.19-2.2.39.74.78,1.47,1.19,2.2Z"/>
  <path class="cls-1" d="M1056.77,2057.28c.1.16.22.31.32.47-.34-.51-.68-1.02-1.01-1.54.13.2.25.41.38.61.1.15.2.31.3.46Z"/>
  <path class="cls-1" d="M1019.93,1588.3c-.26-1.06-.52-2.11-.79-3.17.27,1.06.53,2.11.79,3.17Z"/>
  <path class="cls-1" d="M1029.2,1847.16c.17-3.14.35-6.28.53-9.44-.25,4.21-.5,8.4-.74,12.57.07-1.04.14-2.09.21-3.13Z"/>
  <path class="cls-1" d="M1015.81,1572.73c-.47-1.66-.97-3.31-1.46-4.97.5,1.66.99,3.31,1.46,4.97Z"/>
  <path class="cls-1" d="M1010.88,1556.65c-.9-2.73-1.83-5.45-2.79-8.17.96,2.72,1.89,5.44,2.79,8.17Z"/>
  <path class="cls-1" d="M1013.45,1564.74c-.62-2-1.26-4.01-1.91-6.01.65,2,1.29,4,1.91,6.01Z"/>
  <path class="cls-1" d="M1017.97,1580.59c-.36-1.36-.73-2.72-1.11-4.09.37,1.36.75,2.72,1.11,4.09Z"/>
  <path class="cls-1" d="M1034.2,1703.53c0-.27-.01-.54-.02-.82,0,.27.01.54.02.82Z"/>
  <path class="cls-1" d="M1034.4,1714.39c0-1.14-.02-2.28-.04-3.43,0-.37-.01-.74-.02-1.11.03,1.51.04,3.02.06,4.53Z"/>
  <path class="cls-1" d="M1023.23,1602.84c-.05-.25-.1-.5-.16-.75.05.25.1.5.16.75Z"/>
  <path class="cls-1" d="M1021.69,1595.77c-.16-.71-.32-1.42-.48-2.12.16.71.32,1.42.48,2.12Z"/>
  <path class="cls-1" d="M791.57,1390.18c38.99,11.27,74.29,27.98,104.29,55.07,2.42,2.03,4.77,4.11,7.07,6.21-34.85-34.44-74.86-51.55-111.36-61.28Z"/>
  <path class="cls-1" d="M1040.99,2098.14c-.42-.38-.83-.77-1.25-1.16.41.39.83.78,1.25,1.16Z"/>
  <path class="cls-1" d="M727.36,1336.4c-12.92-2.12-26.34-3.31-35.87.13,9.73-2.78,23.31-1.89,35.87-.13Z"/>
  <path class="cls-1" d="M777.56,1386.74c49.65,13.25,88.21,33.26,118.05,58.31-30.43-27.38-66.27-44.11-105.87-55.35-4.11-1.07-8.18-2.05-12.19-2.96Z"/>
  <path class="cls-1" d="M1043.2,2100.1c-.55-.47-1.1-.96-1.65-1.45.55.49,1.09.97,1.65,1.45Z"/>
  <path class="cls-1" d="M678.89,1358.99c-.18-.74-.31-1.46-.43-2.16.4,4.64,2.44,9.01,6.12,12.23-1.87-1.81-3.35-3.99-4.44-6.41,1.14,2.52,2.69,4.75,4.64,6.58,3.66,3.12,8.89,5.12,15.73,5.12,2.55,0,5.18.1,7.85.27-16.62-3.22-27.49-7.23-29.46-15.63Z"/>
  <path class="cls-1" d="M1136.88,1916.68c.29-.16.58-.3.87-.45-.3.14-.59.29-.87.45Z"/>
  <path class="cls-1" d="M1025.43,1612.03c-4.85-26-12.03-51.78-22.41-77.05,1.74,4.42,3.44,8.91,5.07,13.5,7.59,21.41,13.23,42.61,17.34,63.55Z"/>
  <path class="cls-1" d="M1059.6,2061.26c-.21-.27-.41-.55-.62-.83-.07-.1-.15-.19-.22-.29.28.38.56.75.84,1.12Z"/>
  <path class="cls-1" d="M1154.77,2058.17c-.04.1-.07.2-.11.3.04-.1.07-.2.11-.3Z"/>
  <path class="cls-1" d="M1152.98,1915.2c.1.03.2.05.29.09-.1-.03-.2-.06-.29-.09Z"/>
  <path class="cls-1" d="M1152.05,2065.14c-.33.76-.65,1.53-.99,2.28.34-.75.67-1.52.99-2.28Z"/>
  <path class="cls-1" d="M1082.41,2076.82c.62.12,1.26.22,1.9.31-.64-.08-1.27-.19-1.9-.31Z"/>
  <path class="cls-1" d="M1165.73,1932.25s0,0,0-.01c0,.07,0,.15,0,.22,0-.07,0-.14,0-.21Z"/>
  <path class="cls-1" d="M1136.5,1916.89c-4.94,2.78-8.7,7.77-9.29,15.04.61-7.12,4.35-12.19,9.29-15.04Z"/>
  <path class="cls-1" d="M1165.57,1930.19c-.94-7.87-6.03-12.85-12.22-14.88,5.82,2.05,10.71,6.94,12.22,14.88Z"/>
  <path class="cls-1" d="M1060.7,2062.66c-.13-.16-.25-.31-.37-.47.06.08.12.16.18.23.07.08.13.16.2.24Z"/>
  <path class="cls-1" d="M1060.32,2062.17c-.14-.18-.28-.35-.42-.53.2.26.4.52.61.77-.06-.08-.12-.16-.18-.24Z"/>
  <path class="cls-1" d="M1152.84,2063.24c.37-.9.72-1.81,1.07-2.73-.36.95-.74,1.89-1.12,2.83.02-.03.03-.06.05-.1Z"/>
  <path class="cls-1" d="M1031.44,2088.09c2.48,2.98,5.08,5.8,7.8,8.41-.57-.55-1.14-1.11-1.7-1.69-2.12-2.16-4.14-4.41-6.09-6.73Z"/>
  <path class="cls-1" d="M1043.24,2100.14c15.35,13.14,34,19.87,55.13,14.68.15-.05.29-.1.44-.14-18.09,4.51-37.78.64-55.58-14.53Z"/>
  <path class="cls-1" d="M994.37,1708.78c.84,32.19.02,64.72-1.15,96.61.92-11.43,1.71-21.71,2.16-30.45.46-23.46.09-45.47-1.01-66.16Z"/>
  <path class="cls-1" d="M1150.97,2067.54c-6.09,13.33-14.65,24.57-24.69,32.9,10.88-8.69,18.87-19.94,24.73-32.9h-.03s0,0,0,0Z"/>
  <path class="cls-1" d="M506.48,1493.21c.55.48,1.1.96,1.65,1.44-.63-.56-1.24-1.11-1.85-1.64.07.07.13.14.2.2Z"/>
  <path class="cls-1" d="M568.81,1541.25c.47.16.94.3,1.4.46-.47-.15-.94-.3-1.4-.46Z"/>
  <path class="cls-1" d="M491.61,1600.76c.02-.15.03-.3.05-.45-.02.05-.04.1-.06.14,0,.1,0,.21,0,.31,0,0,.01,0,.02,0Z"/>
  <path class="cls-1" d="M497.16,1578.54c-.22-.09-.68-.29-1.4-.64.14.12.27.24.37.36,1.37.74,1.25.71.08.11.56.75.43,1.63-.07,3.16.7-1.56,1.15-2.38,1.02-2.99Z"/>
  <path class="cls-1" d="M414.65,1588.6c-6.35,3.55-8.76,8.7-9.2,13.75,1.27-5.46,4.99-10.44,9.2-13.75ZM405.88,1600.59c.09-.63.02-.3.19-.88-.15.68-.16.75-.19.88ZM410.72,1591.72c-.42.44-.31.28.18-.2-.12.15-.09.1-.18.2Z"/>
  <path class="cls-1" d="M491.56,1600.75c0-.1,0-.18,0-.27-.19.28-.51.27-1.16.12-.01,0-.02,0-.03,0,0,0,0,0-.01,0h0c-1.66-.52-60.18-14.34-60.99-14.34-.25-.06-.5-.11-.76-.16,0,0,0,0,0,0,4.48,1.12,58.07,14.58,62.94,14.66Z"/>
  <path class="cls-1" d="M457.04,1555.74c-.16-.15-.32-.3-.48-.45.03.04.06.08.09.11.05.05.1.1.16.15.06.05.11.09.18.15.02.01.03.03.05.04Z"/>
  <path class="cls-1" d="M480.99,1570.28s.02,0,.03.01c0,0-.02-.01-.03-.02,0,0,0,0,0,0Z"/>
  <path class="cls-1" d="M456.99,1555.7s-.08-.06-.12-.09c.05.04.09.09.14.13.08.06.17.14.29.23-.07-.06-.14-.12-.2-.18-.03-.03-.07-.06-.1-.08Z"/>
  <path class="cls-1" d="M457.34,1556.01c-.12-.1-.22-.18-.3-.24,5.21,4.78,14.46,9.74,21.25,13.16-1.64-.89-4.21-2.35-8.21-4.7-5.06-2.77-9.57-5.36-12.74-8.22Z"/>
  <path class="cls-1" d="M476.99,1568.03c-.54-.27-1.81-.96-4.13-2.28-.6-.33-1.2-.65-1.79-.98,2.82,1.61,5.82,3.27,8.76,4.88.04.02.09.04.14.06-.55-.31-1.11-.62-1.69-.95-.43-.25-.86-.49-1.29-.73Z"/>
  <path class="cls-1" d="M480.19,1569.83s-.08-.03-.12-.05c.28.15.55.3.83.45.03.01.05.03.08.04,0,0,0,0,0,0-.26-.14-.53-.29-.79-.44Z"/>
  <path class="cls-1" d="M487.43,1573.6c.06.03.11.06.17.09,5.64,2.67,8.8,4.31,9.54,4.76-.35-1.12-2.84-1.53-9.71-4.85Z"/>
  <path class="cls-1" d="M823.18,1622.06c-19.43,16.14-52.97,23.96-87.56,27.47,49.89-4.98,74.62-16.52,87.56-27.47Z"/>
  <path class="cls-1" d="M541.24,1572.77c-.35-.15-.7-.3-1.05-.46.35.15.7.3,1.05.46Z"/>
  <path class="cls-1" d="M734.66,1649.63c-.58.06-1.15.11-1.73.17.58-.05,1.15-.11,1.73-.17Z"/>
  <path class="cls-1" d="M486.64,1573.22s0,0,0,0c0,0,.01.01.02.02,0,0,0,0,0,0,0,0,0-.03-.03-.03Z"/>
  <path class="cls-1" d="M545.03,1574.38c.13.05.26.11.39.16.27.11.54.22.81.33-.4-.16-.8-.33-1.2-.49Z"/>
  <path class="cls-1" d="M781.81,1544.14c9.56,3.83,18.06,8.12,25.18,12.71-7.19-4.65-15.69-8.92-25.18-12.71Z"/>
  <path class="cls-1" d="M777.14,1542.34c.13.05.26.1.39.15-.13-.05-.26-.1-.39-.15Z"/>
  <path class="cls-1" d="M843.35,1558.58c1.48.24,2.85.6,4.11,1.05-1.27-.49-2.6-.83-4.11-1.05Z"/>
  <path class="cls-1" d="M779.47,1543.22c.52.2,1.05.4,1.56.61-.52-.2-1.04-.41-1.56-.61Z"/>
  <path class="cls-1" d="M807.19,1556.98c.65.42,1.28.84,1.91,1.26-.62-.42-1.26-.84-1.91-1.26Z"/>
  <path class="cls-1" d="M685.71,1611.82s0,0,0,0c0,0,0,0,0,0Z"/>
  <path class="cls-1" d="M503.87,1442.53c-1.47,0-2.88.11-4.21.32,5.82.28,10.42,2.06,14.44,4.66-4.03-3.1-7.43-4.99-10.23-4.99Z"/>
  <path class="cls-1" d="M585.19,1503.91c.61,0,1.35-.17,2.29-.49-1.02.31-1.79.49-2.29.49Z"/>
  <path class="cls-1" d="M453.19,1550.41s0,0,0,0c.39,1.55,1.61,3.21,3.36,4.89-.03-.04-.06-.08-.1-.13-1.46-1.46-2.57-3-3.2-4.68-.01-.03-.03-.05-.06-.08Z"/>
  <path class="cls-1" d="M501.88,1642.22s-.04,0-.08,0h.01s.08.02.13.04c.19.01.35.02.49.02,0-.02,0-.04,0-.06-.19,0-.37,0-.54,0Z"/>
  <path class="cls-1" d="M626.18,1690.93c51.44,5.91,109.44,3.42,156.74-9.32-2.92.62-6.25,1.27-9.65,1.9-46.9,9.81-101.73,10.81-147.09,7.42Z"/>
  <path class="cls-1" d="M410.31,1618.38c0,.12.03.24.09.37-.05-.12-.07-.24-.08-.36,0,0,0,0,0,0Z"/>
  <path class="cls-1" d="M487.38,1573.62c.44.22.87.43,1.27.62-.11-.06-.22-.12-.34-.18-.25-.13-.49-.26-.72-.38-.29-.14-.57-.27-.87-.41.23.12.44.23.66.34Z"/>
  <path class="cls-1" d="M475.05,1522.89c2.5.99,5.44,2.35,8.59,3.93-5.13-3.11-6.01-3.85-8.59-3.93Z"/>
  <path class="cls-1" d="M536.13,1517.94c.76.57,1.47,1.07,2.14,1.53-.66-.48-1.37-.99-2.14-1.56,0,0,0,.02,0,.02Z"/>
  <path class="cls-1" d="M511.25,1541.75h-.06c-.74-.37-1.46-.73-2.17-1.09,3.79,2.12,6.88,3.82,8.7,4.67-1.21-.57-2.99-1.84-6.47-3.58Z"/>
  <path class="cls-1" d="M670.12,1486.36c1.35-.07.83-.04,1.67-.07-.08,0-.24,0-.44.02,64.57-1.97,157.01,22.43,192.21,70.13-18.94-27.9-52.3-43.56-88.07-55.6-61.4-18.42-108.57-16.74-140.68-10.95,9.89-1.56,21.69-2.84,35.81-3.55-.22,0-.42.02-.52.02ZM859.17,1550.54c-.06-.06-.12-.12-.19-.19-.41-.56-.58-.79.19.19Z"/>
  <path class="cls-1" d="M542.14,1521.92c.46.26.87.5,1.24.7-.98-.69-2.33-1.56-4.06-2.73.91.64,1.9,1.35,2.82,2.03Z"/>
  <path class="cls-1" d="M545.49,1524.72c-.76.89-3.95,2.3-9.8,6.75,6.18-4.69,9.85-5.51,9.8-6.75Z"/>
  <path class="cls-1" d="M519.5,1545.81c.24,0,.58-.34,1.29-1.1-1.17,1.03-1.81,1.19-2.95.68,1.06.49,1.66.66,1.66.43Z"/>
  <path class="cls-1" d="M458.36,1526.62c-5.39,3.82-6.93,8.73-6.94,13.15.69-5.27,3.52-9.99,6.94-13.15Z"/>
  <path class="cls-1" d="M453.23,1550.47s-.01-.02-.02-.04c-.01-.01-.02-.02-.03-.04.05.06.04.06.06.08,0,0,0,0,0,0Z"/>
  <path class="cls-1" d="M1080.6,2076.42c.37.09.74.18,1.12.26-.38-.08-.75-.16-1.12-.26Z"/>
  <path class="cls-1" d="M503.41,1490.49c.2.18.41.37.61.55-.04-.04-.09-.08-.13-.13-.16-.14-.32-.28-.48-.42Z"/>
  <path class="cls-1" d="M484.64,1453c-.93,1.68-1.6,3.47-2.01,5.31.28-1.1.64-2.24,1.12-3.43.28-.67.58-1.29.89-1.88Z"/>
  <path class="cls-1" d="M535.66,1517.35c.27.27.43.46.45.56.22.02.89.41,1.77,1-.69-.48-1.43-.99-2.23-1.55Z"/>
  <path class="cls-1" d="M533.63,1465.19c3.64,3.25,7.02,6.12,10.18,8.69-7.07-5.94-13.33-11.84-18.82-16.9,2.74,2.76,5.51,5.6,8.64,8.21Z"/>
  <path class="cls-1" d="M1218.36,514.71c-1.87.77-3.74,1.54-5.61,2.29,1.87-.75,3.74-1.52,5.61-2.29Z"/>
  <path class="cls-1" d="M739.62,495.27c-.77-.78-1.44-1.61-2.02-2.47.58.87,1.25,1.69,2.02,2.47Z"/>
  <path class="cls-1" d="M737.44,492.56c-.61-.95-1.11-1.94-1.51-2.96.4,1.02.9,2.01,1.51,2.96Z"/>
  <path class="cls-1" d="M735.86,489.42c-.12-.33-.24-.66-.34-.99.1.33.22.67.34.99Z"/>
  <path class="cls-1" d="M740.74,496.33c-.21-.18-.41-.37-.61-.55.2.19.4.37.61.55Z"/>
  <path class="cls-1" d="M1204.17,520.35c-2.07.79-4.15,1.57-6.23,2.33,2.08-.76,4.15-1.54,6.23-2.33Z"/>
  <path class="cls-1" d="M734.97,485.97c-.04-.24-.06-.47-.09-.71.03.24.05.47.09.71Z"/>
  <path class="cls-1" d="M982.89,554.45c-.78-.04-1.57-.07-2.35-.11.78.04,1.57.08,2.35.11Z"/>
  <path class="cls-1" d="M1197.2,522.94c-2.25.82-4.5,1.63-6.75,2.41,2.25-.79,4.5-1.59,6.75-2.41Z"/>
  <path class="cls-1" d="M706.58,525.38c18.41-7.02,37.12-13.42,55.99-19.33-.44-.17-.89-.33-1.33-.5-2.23,1.82-17.44,5.34-54.66,19.83Z"/>
  <path class="cls-1" d="M743.96,498.56c-.16-.09-.32-.19-.48-.28.16.09.32.19.48.28Z"/>
  <path class="cls-1" d="M742.34,497.55c-.14-.09-.28-.18-.41-.28.13.1.28.19.41.28Z"/>
  <path class="cls-1" d="M735.45,488.18c-.16-.54-.28-1.08-.38-1.62.1.55.23,1.09.38,1.62Z"/>
  <path class="cls-1" d="M303.17,1416.69c-7.18-9.12-12.17-11.71-21.3-17.47,9.27,5.86,14.41,8.78,21.3,17.47Z"/>
  <path class="cls-1" d="M809.75,484.58c-16.73-5.6-33.32-11.83-49.73-18.66-6.89-2.72-12.93-1.51-17.39,1.73,5.23-3.8,29.43,5.35,67.12,16.92Z"/>
  <path class="cls-1" d="M1195.64,484.48c-70.89,27.41-144.45,37.35-217.69,33.26,66.16,4.32,141.06-2.28,217.69-33.26Z"/>
  <path class="cls-1" d="M193.4,1729.34c.7-1.05,1.4-2.08,2.09-3.09-.69,1.02-1.39,2.04-2.09,3.09Z"/>
  <path class="cls-1" d="M260.63,1707.52c-1.11.95-2.22,1.93-3.33,2.94,1.1-.99,2.2-1.98,3.33-2.94Z"/>
  <path class="cls-1" d="M1283.67,457.01c-4.17-5.76-8.17-7.85-13.56-7.2,5.14.19,10.1,2.42,13.56,7.2Z"/>
  <path class="cls-1" d="M260.63,1707.52c28.98-6,19.3-50.13-16.46-31.39,35.71-18.7,45.35,25.41,16.46,31.39Z"/>
  <path class="cls-1" d="M987.44,554.66c68.08,2.86,136.1-5.95,202.79-29.23-66.53,23.2-134.61,32.04-202.79,29.23Z"/>
  <path class="cls-1" d="M1254.37,455.87c-6.58,3.39-14.74,8.03-25.2,13.49,8.39-4.18,16.79-8.66,25.19-13.49,0,0,0,0,0,0Z"/>
  <path class="cls-1" d="M734.8,484.33c0-.15-.02-.29-.03-.44,0,.15.02.29.03.44Z"/>
  <path class="cls-1" d="M734.78,482.4c0-.06,0-.13.01-.19,0,.06,0,.13-.01.19Z"/>
  <path class="cls-1" d="M447.26,1146.59c-.05.08-.11.17-.16.25.05-.08.11-.17.16-.25Z"/>
  <path class="cls-1" d="M1366.61,949.6c-13.97,6.08-28.21,12.73-43.27,19.1,15.06-6.37,29.3-13.02,43.27-19.1Z"/>
  <path class="cls-1" d="M754.54,905.68c-1.43.2-2.86.41-4.29.63,1.43-.22,2.86-.43,4.29-.63Z"/>
  <path class="cls-1" d="M442.15,1154.76c-52.41,84.73-93.3,185.06-114.86,291.61,21.4-105.7,62.21-206.34,114.86-291.61Z"/>
  <path class="cls-1" d="M444.7,1150.66c-.55.87-1.09,1.74-1.63,2.62.54-.87,1.09-1.74,1.63-2.62Z"/>
  <path class="cls-1" d="M2014.2,1543.7c-2.54,1.11-5.15,1.53-7.5,1.57,2.63.02,5.18-.52,7.5-1.57Z"/>
  <path class="cls-1" d="M1477.65,928.66c-2.1-.32-4.18-.59-6.24-.82,2.06.23,4.14.5,6.24.82Z"/>
  <path class="cls-1" d="M2019.64,1539.91s-.03.03-.05.05c.02-.02.03-.03.05-.05Z"/>
  <path class="cls-1" d="M1746.5,1353.41c18.78,64.82,31.83,111.86,45.8,116.87-13.95-5.01-27.01-52.05-45.8-116.87Z"/>
  <path class="cls-1" d="M2006.43,1545.27s-.04,0-.06,0c.02,0,.04,0,.06,0Z"/>
  <path class="cls-1" d="M1859.34,1395.08c-3.35-.23-3.63-2.46-.91-9.23,3.83-11.57,7.41-23.28,10.55-35.09-3.82,14.04-8.59,29.03-14.38,45.43,1.58-.39,3.15-.76,4.74-1.1Z"/>
  <path class="cls-1" d="M1211.16,517.63c-1.93.76-3.86,1.52-5.79,2.26,1.93-.74,3.86-1.5,5.79-2.26Z"/>
  <path class="cls-1" d="M1948.13,1400.04c-28.7-9.6-50.47-9.79-65.55-8.21,22.51-1.52,45.02,1.56,65.55,8.21Z"/>
  <path class="cls-1" d="M2022.7,1454.14c-11.91-21.59-31.37-34.76-53.57-45.85-1.96-.88-3.88-1.7-5.78-2.5,25.63,11.11,46.93,28.01,59.35,48.36Z"/>
  <path class="cls-1" d="M714.09,1600.95c5.03.04,8.44.07,11.3.07-3.66-.02-7.42-.04-11.3-.07Z"/>
  <path class="cls-1" d="M1227.33,510.92c-2.42,1.05-4.84,2.08-7.26,3.09,2.42-1.01,4.84-2.04,7.26-3.09Z"/>
  <path class="cls-1" d="M1967.42,1452.29c0-2.03-27.31-18.27-65.29-20.23,35.83,2.53,73.9,16.75,87.73,44.82,2.13,4.33,3.4,8.27,4.04,11.91-1.03-11.42-7.39-23.76-26.48-36.49Z"/>
  <path class="cls-1" d="M2020.19,1539.31c.83-.92,1.57-1.93,2.22-3.03.32-.56.64-1.14.96-1.75-.32.57-.64,1.15-.98,1.72-.67,1.16-1.42,2.16-2.2,3.06Z"/>
  <path class="cls-1" d="M1833.86,1445.92c-1.89,3.18-3.9,6.17-6.04,8.9,2.78-3.12,5.62-6.41,8.76-9.6-2.63,1.64-3.47,2.42-2.72.7Z"/>
  <path class="cls-1" d="M1794.02,1470.57c10.27,1.58,17.39-1.03,23.47-5.66-6.65,4.7-14.36,6.99-23.47,5.66Z"/>
  <path class="cls-1" d="M1990.4,1512.52c-2.34,6.14-4.56,11.64-3.17,17.6-.5-5.16,1.29-11.08,3.17-17.6Z"/>
  <path class="cls-1" d="M1206.9,1453.71c-3.47.73-6.62.64-9.61-.46,2.14.87,4.37,1.34,6.59,1.42.97-.26,1.97-.58,3.03-.96Z"/>
  <path class="cls-1" d="M1248.14,1431.6c69.7-38.38,122.01-52.82,160.95-57.78-16.38,1.49-31.89,3.99-47.58,7.94-49.19,14.32-86.27,34.29-113.38,49.84Z"/>
  <path class="cls-1" d="M1362.06,1381.59c3.96-.99,7.85-1.88,11.67-2.68-3.85.79-7.75,1.67-11.69,2.66-.43.12-.84.25-1.26.37.25-.06.49-.12.74-.19.18-.05.36-.11.54-.16Z"/>
  <path class="cls-1" d="M1504.44,1369.1c.61-.43,1.18-.9,1.73-1.39-5.26,3.15-13.56,4.23-24.33,4.55,2.58.06,5.2.12,7.85.19,6.14-.4,11.07-1.35,14.75-3.35Z"/>
  <path class="cls-1" d="M1867.33,1654.08c.15,0,.3,0,.44.02-.15,0-.3-.01-.44-.02Z"/>
  <path class="cls-1" d="M1500.64,1371.16c1.89-.67,3.56-1.58,5.03-2.79-.39.26-.8.5-1.22.73-1.16.82-2.43,1.51-3.8,2.06Z"/>
  <path class="cls-1" d="M1869.17,1654.2c.09,0,.18.02.27.03-.09,0-.18-.02-.27-.03Z"/>
  <path class="cls-1" d="M1512.15,1350.09c-.22-1.67-.6-3.11-.95-4.2.4,1.48.72,2.88.95,4.2Z"/>
  <path class="cls-1" d="M1326.93,1350.86c-5.04,1.77-10.51,3.88-16.25,6.24,9.23-3.61,18.1-6.72,26.75-9.38-4.28,1.14-7.84,2.2-10.5,3.13Z"/>
  <path class="cls-1" d="M1078.86,2075.92c.29.09.57.17.86.26-.29-.08-.58-.17-.86-.26Z"/>
  <path class="cls-1" d="M1256.62,1426.42c15.49-8.64,29.7-15.99,43.08-22.19-17.1,7.64-31.23,15.28-43.08,22.19Z"/>
  <path class="cls-1" d="M1203.87,1454.67c-.17.05-.35.1-.51.14,4.45.32,9.06-1.01,13.08-4.58-.04.02-.07.04-.11.05-3.54,3.07-7.97,4.54-12.45,4.39Z"/>
  <path class="cls-1" d="M1489.69,1372.46c-3.04.2-6.36.26-9.98.24,5.66.24,10.5.3,14.6-.17-.19.01-.39.03-.58.04-1.36-.04-2.7-.07-4.04-.11Z"/>
  <path class="cls-1" d="M1511.03,1345.41c-.06-.16-.11-.31-.16-.45.06.15.11.3.16.45Z"/>
  <path class="cls-1" d="M1061.27,2063.36c.17.2.34.4.51.59-.17-.2-.34-.39-.51-.59Z"/>
  <path class="cls-1" d="M758.5,1341.72c59.28,11.13,110.64,31.75,152.7,65.11-40.94-33.31-90.85-53.49-152.7-65.11Z"/>
  <path class="cls-1" d="M1075.82,2074.78c.1.04.2.09.3.13-.1-.04-.2-.09-.3-.13Z"/>
  <path class="cls-1" d="M1867.3,1692.17c-.63-.56-1.26-1.11-1.88-1.61.65.52,1.26,1.07,1.88,1.61Z"/>
  <path class="cls-1" d="M1062.6,2064.88s.08.08.12.13c-.04-.04-.08-.08-.12-.13Z"/>
  <path class="cls-1" d="M1484.4,1332.15c-19.83-2.99-47.43-1.43-74.29,1.94,9.63-.76,19.46-1.21,29.68-1.44,19.73-.52,34.09-1,44.61-.5Z"/>
  <path class="cls-1" d="M1184.78,1437.34c0-5.26,1.02-9.24,2.81-12.46-3.67,5.99-3.73,12.11-1.58,17.24-.6-1.51-1.03-3.12-1.23-4.79Z"/>
  <path class="cls-1" d="M1512.51,1352.74c.08.77.13,1.51.14,2.22.75-4.45-.11-8.19-2.3-11.28.16.37.32.76.47,1.15,1.1,2.61,1.65,5.29,1.69,7.91Z"/>
  <path class="cls-1" d="M1233.32,1394.53c-13.19,7.15-24.6,13.76-32.38,18.74,3.65-2.12,7.71-4.31,11.93-7.08,7.05-4.11,13.85-7.99,20.45-11.66Z"/>
  <path class="cls-1" d="M1077.23,2075.35c.21.08.43.16.64.24-.22-.08-.43-.16-.64-.24Z"/>
  <path class="cls-1" d="M1848.89,1664.2c.03-.06.06-.12.1-.18-.03.06-.07.12-.1.18Z"/>
  <path class="cls-1" d="M1848.36,1665.33s.04-.09.06-.13c-.02.04-.04.09-.06.13Z"/>
  <path class="cls-1" d="M1865.55,1654.1c.18,0,.36-.02.55-.02-.18,0-.36.01-.55.02Z"/>
  <path class="cls-1" d="M1850.09,1662.2c.08-.11.15-.22.23-.33-.08.11-.15.22-.23.33Z"/>
  <path class="cls-1" d="M1847.94,1666.44s0,0,0-.01c0,0,0,0,0,.01Z"/>
  <path class="cls-1" d="M1861.64,1689.45c-.08-.03-.17-.06-.25-.09.08.03.17.06.25.09Z"/>
  <path class="cls-1" d="M1850.84,1661.18c.11-.14.22-.27.33-.4-.11.13-.22.27-.33.4Z"/>
  <path class="cls-1" d="M1855.18,1686.23s0,0,0,0c0,0,0,0,0,0Z"/>
  <path class="cls-1" d="M1863.55,1690.06c-.08-.02-.16-.04-.23-.07.08.02.16.04.23.07Z"/>
  <path class="cls-1" d="M1859.8,1688.73c-.05-.02-.11-.05-.16-.07.05.02.11.05.16.07Z"/>
  <path class="cls-1" d="M1849.47,1663.16c.05-.09.11-.18.17-.27-.06.09-.11.18-.17.27Z"/>
  <path class="cls-1" d="M1851.69,1660.2c.14-.15.29-.31.44-.46-.15.15-.3.3-.44.46Z"/>
  <path class="cls-1" d="M1860.94,1654.77c.25-.06.5-.12.76-.18-.26.06-.51.12-.76.18Z"/>
  <path class="cls-1" d="M1863.83,1654.24c.3-.04.61-.07.92-.09-.31.02-.62.05-.92.09Z"/>
  <path class="cls-1" d="M1857.94,1655.8c.42-.18.86-.35,1.3-.51-.44.16-.88.33-1.3.51Z"/>
  <path class="cls-1" d="M1862.11,1654.51c.37-.07.74-.14,1.13-.19-.38.06-.76.12-1.13.19Z"/>
  <path class="cls-1" d="M1859.41,1655.23c.48-.17.98-.32,1.48-.45-.51.13-1,.28-1.48.45Z"/>
  <path class="cls-1" d="M1853.41,1658.58c.33-.27.66-.53,1.01-.78-.35.25-.68.51-1.01.78Z"/>
  <path class="cls-1" d="M1852.41,1659.48c.26-.25.52-.48.79-.72-.27.23-.53.47-.79.72Z"/>
  <path class="cls-1" d="M1856.48,1656.51c.43-.23.86-.44,1.31-.64-.45.2-.89.41-1.31.64Z"/>
  <path class="cls-1" d="M1854.52,1657.72c.61-.43,1.25-.83,1.92-1.19-.67.36-1.31.76-1.92,1.19Z"/>
  <path class="cls-1" d="M1433.99,1617.76c-.22-3.05-1.16-6.15-2.98-9.12,1.82,2.96,2.76,6.07,2.98,9.12Z"/>
  <path class="cls-1" d="M1312.67,2146.03s0,0,0-.01c0,0,0,0,0,.01Z"/>
  <path class="cls-1" d="M1349.84,2150.2s-.02.07-.04.1c.01-.03.02-.07.04-.1Z"/>
  <path class="cls-1" d="M1314.52,2151.68c-.07-.14-.13-.28-.2-.43.07.14.13.29.2.43Z"/>
  <path class="cls-1" d="M1351.12,2144.85c-.01.12-.03.23-.04.35.01-.12.03-.23.04-.35Z"/>
  <path class="cls-1" d="M1349.53,2150.94c-.13.28-.25.56-.39.84.14-.28.26-.56.39-.84Z"/>
  <path class="cls-1" d="M1626.84,1570.41c1.55,0,1.49.01,2.02.07,0,.01.01.02.02.03.85,0,1.7.09,2.52.25-1.16-.35-2.11-.66-2.84-.96-.04.29-.52.48-1.72.61Z"/>
  <path class="cls-1" d="M921.05,2326.06c-.11-.45-26.87-6.78-50.29-13.39,42.5,13.75,49.29,10.79,51.17,16.52-.37-2.03-.62-3.12-.88-3.12Z"/>
  <path class="cls-1" d="M959.49,2423.44c13.34,18.28,29.75,33.12,49.73,43.39-18.24-9.73-35.2-23.98-49.73-43.39Z"/>
  <path class="cls-1" d="M835.34,2298.71c.32.28.65.55.99.82-.01-.05-.03-.1-.03-.15-.34-.21-.65-.43-.96-.67Z"/>
  <path class="cls-1" d="M1121.13,2477.08c25.26-6.96,48.64-19.81,67.95-37.05-19.48,17.14-42.97,29.95-67.95,37.05Z"/>
  <path class="cls-1" d="M1391.96,1904.51c.02-.06.04-.11.07-.17-.02.06-.04.11-.07.17Z"/>
  <path class="cls-1" d="M1095.57,2212.4c8.09-6.81,18.23-13.27,29.92-16.99-10.61,3.23-20.78,8.94-29.92,16.99Z"/>
  <path class="cls-1" d="M1575,1910.37c-.06-.2-.12-.39-.18-.59.1.34.19.7.29,1.05-.04-.16-.07-.31-.11-.46Z"/>
  <path class="cls-1" d="M1341.51,2125.71c5.14,3.2,9.24,9.17,9.63,15.73.07.97.07,1.91.01,2.84.5-7.25-2.85-14.71-9.64-18.57Z"/>
  <path class="cls-1" d="M1316.61,2130.78c-3.19,3.82-4.98,8.89-4,14.88-.79-5.43.8-10.76,4-14.88Z"/>
  <path class="cls-1" d="M1334.5,2123.28c1.9.14,3.81.72,5.64,1.65-2.83-1.69-6.38-2.19-10-1.66,1.41-.14,2.86-.15,4.36.01Z"/>
  <path class="cls-1" d="M1319.05,2157.82h-.06c-1.81-1.81-3.2-3.72-4.24-5.68,4.06,7.93,12.79,13.18,23.57,9.21.23-.09.43-.18.65-.28-6.41,2.66-14.11,2.05-19.92-3.25Z"/>
  <path class="cls-1" d="M1339.02,2161.04c4.82-2.01,8.17-5.36,10.11-9.27-2.17,4.26-5.85,7.48-10.11,9.27Z"/>
  <path class="cls-1" d="M1191.33,2208.19c-8.4-6.4-17.34-10.82-26.47-13.34,3.47,1.01,6.99,2.31,10.58,3.96,5.83,2.61,11.11,5.8,15.89,9.38Z"/>
  <path class="cls-1" d="M1640.44,1560.14c.32-.19.65-.39.98-.59-.04.02-.08.05-.13.07-.29.18-.57.35-.85.52Z"/>
  <path class="cls-1" d="M1626.5,1567.34s.02.03.03.04c.04-.02.08-.05.14-.09-.09.03-.15.05-.17.05Z"/>
  <path class="cls-1" d="M1300.54,2286.17c-7.48,5.34-14.02,9.66-19.75,13.16,7.58-4.09,14.71-8.58,19.75-13.16Z"/>
  <path class="cls-1" d="M1241.36,2321.04c.02.53.04,1.11.07,1.75-.02-.58-.04-1.16-.07-1.75Z"/>
  <path class="cls-1" d="M1296.69,2252.25s-.07-.03-.11-.04c.06.03.12.06.18.08-.02-.01-.05-.03-.07-.04Z"/>
  <path class="cls-1" d="M833,2273.06c-3.72,5.65-4.86,13.1-2.21,19.36-2.02-5.77-.7-13.16,2.21-19.36Z"/>
  <path class="cls-1" d="M1227.31,2257.19c-.57-1.33-1.15-2.63-1.73-3.92,1.79,4,3.26,7.73,4.45,11.02-.72-2.1-1.59-4.45-2.72-7.1Z"/>
  <path class="cls-1" d="M1241.44,2317.13c.73-.38,3.01-1.3,6.33-2.66-4.44,1-5.92.79-6.33,2.66Z"/>
  <path class="cls-1" d="M1267.77,2260.53c8.73-4.93,16.23-9.13,18.03-9.7-5.07,1.16-10.22,4.8-18.03,9.7Z"/>
  <path class="cls-1" d="M1191.34,2208.2c.44.33.87.67,1.3,1-.43-.34-.87-.67-1.3-1Z"/>
  <path class="cls-1" d="M930.13,2219.5c8.22-10.96,17.83-19.54,28.23-25.57-29.6,16.14-51.73,49.69-51.73,87.45.02,0,.03,0,.05,0,0-12.79,8.21-42.06,23.45-61.88Z"/>
  <path class="cls-1" d="M1626.77,1567.67c.16-.2.41-.41.72-.62-.43.2-.75.33-.92.39.06.08.13.16.2.23Z"/>
  <path class="cls-1" d="M1072.43,2234.83c-17-29.21-38.28-44.46-59.88-49.32,22.1,5.28,43.51,21.28,59.88,49.32Z"/>
  <path class="cls-1" d="M1294.52,2251.4c-3.06-1.04-5.75-1.19-8.44-.62,3.05-.45,5.89-.18,8.44.62Z"/>
  <path class="cls-1" d="M859.19,2266.9c-1.38-.47-2.63-.9-3.68-1.28-5.94-2.17-11.29-1.48-15.59.91,4.98-1.83,11.81-1.3,19.27.37Z"/>
  <path class="cls-1" d="M1234.44,2277.72c0,.28.5.23,1.39-.08-.75.08-1.29-.14-1.72-.7.16.51.27.79.32.79Z"/>
  <path class="cls-1" d="M1498.87,1842.83c-16.06-3.34-32.89-2.58-48.85,3.31,15.74-5.36,32.63-6.32,48.85-3.31Z"/>
  <path class="cls-1" d="M1090.85,2216.61c-.53.33-1.36,1.16-2.39,2.33.77-.77,1.57-1.55,2.39-2.33Z"/>
  <path class="cls-1" d="M1428.63,1856.77c1.52-1.03,3.07-1.99,4.64-2.92-1.23.61-2.8,1.59-4.64,2.92Z"/>
  <path class="cls-1" d="M1449.96,1568.43s0,0,.01,0c-18.48-.63-34.36-1.19-50.28-2.33,13.02,1.19,39.05,2.76,103.63,3.64-17.91-.31-35.74-.73-53.33-1.3,0,0-.02,0-.03,0Z"/>
  <path class="cls-1" d="M1385.17,1944.42c-.01,1.04-.04.4-.05-1.1-.33-11.82,1.5-24.03,5.85-36.2-.86,2.35-1.65,4.76-2.32,7.23-12.82,46.34,6.02,83.91,36.34,105.18-23.33-17.43-38.62-44.92-39.81-75.11ZM1406.53,2001.76c-1.17-1.49-2.33-3.06-3.46-4.7-1.95-2.73-3.51-5.1-3.9-6.03,1.24,2.08,2.55,4.09,3.9,6.03,1.08,1.51,2.28,3.14,3.46,4.7,2.2,2.81,4.44,5.35,6.59,7.51-.61,0-3.56-3.53-6.59-7.51Z"/>
  <path class="cls-1" d="M1489.68,1536.07c-41.61-9.92-94.57-11.22-149.95,18.46,46.25-24.56,100.03-29.2,149.95-18.46Z"/>
  <path class="cls-1" d="M1309.27,1568.92s.02-.05.03-.08c0,.03-.02.05-.03.08Z"/>
  <path class="cls-1" d="M1381.54,1564.53s-.02,0-.02,0h.01,0s0,0,0,0Z"/>
  <path class="cls-1" d="M1434.03,1618.65c0-.2,0-.4-.01-.6.01.2,0,.4.01.6Z"/>
  <path class="cls-1" d="M1574.04,1570.33c-1.6-.44-5.02-2.27-10.06-4.94,2.64,1.6,5.25,3.24,7.81,4.93.75,0,1.5,0,2.25,0Z"/>
  <path class="cls-1" d="M1411.82,1553.88c-10.19,0-18.03,3.17-23.2,6.05,7.58-4.1,15.68-6,23.71-6.04-.17,0-.34,0-.51,0Z"/>
  <path class="cls-1" d="M1420.18,1554.44c8.62,1.24,16.91,4.55,24.06,9.49-4.8-3.48-12.67-7.95-24.06-9.49Z"/>
  <path class="cls-1" d="M1364.82,1602.44c18.59,2.43,33.34,3.17,35.5,3.39-12.33-1.26-24.39-2.24-35.5-3.39Z"/>
  <path class="cls-1" d="M1434.04,1619.38s0,.08,0,.12c0-.04,0-.08,0-.12Z"/>
  <path class="cls-1" d="M1568.63,1609.71c-32.25-.83-76.98-2.37-138.44-2.37.43.02,4.57.15,37.77,1.04,18.14,0,9.5,1.1,100.67,1.33Z"/>
  <path class="cls-1" d="M1368.18,1639.24c9.97,15.16,27.39,25.2,47.3,25.2-19.9,0-37.33-10.03-47.3-25.2Z"/>
  <path class="cls-1" d="M1413.86,1638.69c-15.32,0-25.13-20.18-13.54-32.86-11.64,12.74-1.76,32.86,13.54,32.86Z"/>
  <path class="cls-1" d="M1359.33,1608.04c0-.3.04-.59.05-.89-.01.3-.04.6-.05.89Z"/>
  <path class="cls-1" d="M1367.96,1638.93c-.33-.51-.64-1.04-.95-1.56.31.52.62,1.05.95,1.56Z"/>
  <path class="cls-1" d="M1365.08,1633.91c-.1-.19-.18-.38-.27-.57.09.19.18.38.27.57Z"/>
  <path class="cls-1" d="M1366.46,1636.46c-.2-.35-.39-.72-.58-1.07.19.36.38.72.58,1.07Z"/>
  <path class="cls-1" d="M1335.42,1556.88c-.41,0-.85-.01-1.3-.03,1.46.17,2.99.39,4.58.64-.97-.2-2.05-.4-3.27-.61Z"/>
  <path class="cls-1" d="M1645.68,1585.54c.13.53.24,1.07.33,1.6-.07-.5-.18-1.04-.33-1.6Z"/>
  <path class="cls-1" d="M1645.45,1584.74c.07.22.13.44.19.67-.06-.22-.12-.44-.19-.67Z"/>
  <path class="cls-1" d="M1318.56,1521.56c0,.32-9.38,4.62-9.38,5.59,0,0,0,.03-.06.03-.27.19-.53.38-.8.57,4.34-2.74,8.95-5.4,13.81-7.95-1.19.58-2.38,1.16-3.57,1.76ZM1309.48,1526.97c-.18.05-.91.53,1.34-.84-.45.28-.9.56-1.34.84Z"/>
  <path class="cls-1" d="M1726.57,1581.16c-.08-.03-.18-.05-.27-.08.13.04.26.08.39.13-.04-.02-.08-.04-.12-.05Z"/>
  <path class="cls-1" d="M1308.51,1571.75c.09-.43.18-.87.29-1.31-.12.48-.21.91-.29,1.31Z"/>
  <path class="cls-1" d="M1646.15,1588.16s0-.03-.01-.05c0,0,0,.02,0,.02,0,0,0,.02,0,.02Z"/>
  <path class="cls-1" d="M1575.27,1911.39c.89,3.12,1.64,6.33,2.24,9.63-.43-2.61-.22-1.58.24,1.26.11.67.21,1.35.32,2.03.04.24.07.47.11.72-.02-.14-.04-.28-.07-.42.37,2.5.68,5.04.88,7.64,4.04,46.51-29.18,95.62-78.41,105-.48.09-.96.15-1.45.23,2.24-.29,2.13-.3-2.27.36-.04,0-.09,0-.13,0-.59.08-1.18.15-1.77.22,32.81-3.44,64.03-23.98,79.16-67.05,7.24-21.6,6.78-42.2.96-60.39.06.23.12.48.18.75Z"/>
  <path class="cls-1" d="M1646.19,1588.76c.03.39.05.77.05,1.15h0s0,0,.02,0c0,.21,1.67.28,4.58.19-2.56-.18-4.2-.73-4.63-1.76.59,2.02.22,1.69-.01.41Z"/>
  <path class="cls-1" d="M1732.38,1614.49s-.06.05-.09.08c.03-.03.06-.05.09-.08Z"/>
  <path class="cls-1" d="M1359.85,1601.9h0c-.14,1.01-.26,2.02-.34,3.02.08-1,.2-2.01.34-3.02Z"/>
  <path class="cls-1" d="M1736.58,1590.91c.13.27.25.53.36.8.02.05.04.09.06.14.24.58.46,1.16.65,1.74.11.31.22.62.32.92-1.58-5.89-5.53-11.05-11.01-13.19,4.35,1.73,7.65,5.3,9.61,9.59Z"/>
  <path class="cls-1" d="M1703.51,1582.93c-10.72,1.73-23.27,4.09-33.91,5.64,8.26-.95,17.99-2.37,27.97-4.38,2.18-.45,4.15-.87,5.95-1.26Z"/>
  <path class="cls-1" d="M1308.32,1572.85c.05-.3.09-.6.15-.9-.06.32-.11.62-.15.9Z"/>
  <path class="cls-1" d="M1322.77,1594.5c.65.17,1.3.33,1.94.49-6.31-2.35-11.1-5.39-13.89-9.45,1.81,3.53,5.23,7.23,11.95,8.95Z"/>
  <path class="cls-1" d="M1308.08,1577.49h0c-82.62,84.36,100.96,113.84,214.91,91.16-113.92,22.64-297.43-6.91-214.91-91.16Z"/>
  <path class="cls-1" d="M1614.45,1609.96c6,.11,11.93.09,17.75-.71,4.98-1.35,8.14-3.73,10.16-6.37-4.41,4.43-12.99,6.41-27.91,7.08Z"/>
  <path class="cls-1" d="M1737.3,1592.63c-.08-.25-.18-.52-.3-.78-.02-.05-.04-.09-.06-.14-.06-.14-.13-.28-.2-.42,1.95,4.46,2.47,9.62,1.26,14.25.27-.95.46-1.93.58-2.92.03-.29.07-.57.09-.86,0-.11.01-.22.02-.32.02-.38.04-.77.04-1.15,0-.05,0-.1,0-.15,0-.9-.07-1.79-.18-2.68-.03-.22-.07-.44-.1-.67-.02-.13-.04-.27-.07-.4-.17-.94-.42-1.87-.72-2.8-.12-.32-.23-.64-.36-.96Z"/>
  <path class="cls-1" d="M1295.02,2251.58c.18.06.35.13.53.2-.18-.07-.35-.13-.53-.2Z"/>
  <path class="cls-1" d="M492.28,1599.52c-.03.38-.05.81-.05,1.29,0-.42.02-.85.05-1.29Z"/>
  <path class="cls-1" d="M492.23,1600.82c-.11,0-.2,0-.28,0,.26.29.7,0,.28,0Z"/>
  <path class="cls-1" d="M841.34,1597.51c-.3.02-.6.03-.9.05.02,0,.04,0,.06,0,.25-.02.51-.04.84-.06Z"/>
  <path class="cls-1" d="M1733.37,1613.58c.07-.07.15-.15.22-.22-.07.07-.14.15-.22.22Z"/>
  <path class="cls-1" d="M535.65,1570.25c-22.21-11.1-11.37-51.83,26.24-31.39-37.66-20.46-48.5,20.27-26.24,31.39Z"/>
  <path class="cls-1" d="M642.22,1599.79c3.02,21.22,16.58,35.79,33.15,42.57-16.57-6.78-30.13-21.36-33.15-42.57Z"/>
  <path class="cls-1" d="M1072.66,2235.23c.58.99,1.15,2,1.71,3.02-.56-1.03-1.14-2.03-1.71-3.02Z"/>
  <path class="cls-1" d="M565.74,1908.46c3.39-17.77,11.37-34.48,22.48-48.1-11.35,13.53-19.3,30.17-22.48,48.1Z"/>
  <path class="cls-1" d="M1635.05,1647.14c.47-.84.92-1.68,1.36-2.53-.25.47-.53.95-.82,1.45-.17.36-.35.72-.54,1.08Z"/>
  <path class="cls-1" d="M1639.79,1636.8c-.07.21-.14.43-.21.66.8-2.12,1.5-4.29,2.09-6.5-.22.27-.39.58-.53.96-.24,1.07-.55,2.63-1.34,4.88Z"/>
  <path class="cls-1" d="M1254.48,1651.8c-3.78-5.68-6.56-11.71-8.23-18.06,3.03,13.62,11.28,26.33,25.76,37.19-7.18-5.84-13.11-12.21-17.53-19.13Z"/>
  <path class="cls-1" d="M1256.51,1654.7c4.93,6.79,11.38,13.06,19.09,18.8.17.12.35.23.53.35-7.88-5.83-14.5-12.22-19.62-19.15Z"/>
  <path class="cls-1" d="M408.12,1615.75c1.12,2.29,2.16,3.43,2.17,2.58-.19-.2-.37-.4-.55-.6-.61-.65-1.15-1.31-1.63-1.98Z"/>
  <path class="cls-1" d="M492.4,1598.14c0,.16-.07.62-.12,1.27.03-.43.07-.87.13-1.32,0,.02-.01.03-.02.05Z"/>
  <path class="cls-1" d="M840.28,1597.55c-.29.01-.48.02-.61.01.12.02.24.02.36.02.14,0,.28-.02.42-.02-.05,0-.1,0-.16-.01Z"/>
  <path class="cls-1" d="M675.77,1642.52c-.13-.05-.26-.1-.39-.15.13.05.26.1.39.15Z"/>
  <path class="cls-1" d="M669.61,1543.07c.37-.21.74-.41,1.11-.61-.37.2-.74.4-1.11.61Z"/>
  <path class="cls-1" d="M671.08,1542.26c.26-.14.52-.27.78-.4-.26.13-.52.26-.78.4Z"/>
  <path class="cls-1" d="M1647.16,1629.49c2.83-.18,7.05-.29,13.46-.64,4.14-.37,8.35-.75,12.56-1.14,5.27-.61,10.58-1.32,15.73-2.08-18.06,2.23-36.12,3.28-43.48,3.86.5,0,1.08,0,1.73,0Z"/>
  <path class="cls-1" d="M1723.19,1618.97c-.62.2-1.26.4-1.91.6,1.63-.42,3.01-.82,4.1-1.2-.16.05-.32.11-.48.16-.09.05-.7.2-1.71.44Z"/>
  <path class="cls-1" d="M672.56,1541.5c.14-.07.28-.13.42-.2-.14.07-.28.13-.42.2Z"/>
  <path class="cls-1" d="M857.69,1585.82c2.42-5.35,2.52-11.65.06-16.84,2.3,5.22,2.09,11.49-.06,16.84Z"/>
  <path class="cls-1" d="M653.82,1556.95c.26-.33.52-.65.78-.97-.26.32-.52.64-.78.97Z"/>
  <path class="cls-1" d="M714.09,1600.95c-4.03,12.25-18,16.68-27.84,11.17,9.84,5.52,23.8,1.1,27.84-11.17Z"/>
  <path class="cls-1" d="M669.56,1543.1c-5.26,3.03-10.2,7.13-14.56,12.38,4.36-5.25,9.29-9.35,14.56-12.38Z"/>
  <path class="cls-1" d="M678.44,1560.44c54.27,3.64,110.66,1.24,157.2-2.15.03,0,.07,0,.1,0-5.58.14-13.21.78-24.59,1.4-11.56.62-12.84,1.33-69.79,1.89-20.97.2-42.01.03-62.93-1.13Z"/>
  <path class="cls-1" d="M1641.98,1629.91c-1.3,0-1.64,5.62-5.43,14.09,1.57-2.97,2.57-5.33,3.24-7.2.71-2.28.94-3.82,1.34-4.88.22-.99.37-1.58.79-1.92,0-.02.01-.04.02-.06.02,0,.04,0,.06,0,.05-.04.11-.07.16-.1-.11.03-.18.05-.18.07Z"/>
  <path class="cls-1" d="M644.11,1597.21c-15.54-1.7-31.53-4.08-47.16-7.37,13.72,2.95,28.84,5.45,44.94,7.15.74.08,1.48.15,2.23.23Z"/>
  <path class="cls-1" d="M674.07,1540.79s0,0,0,0c0,0,0,0,0,0Z"/>
  <path class="cls-1" d="M1659.67,1628.94c-5.92.48-9.86.54-12.52.55-1.58.1-2.72.23-3.57.43,6.2-.08,13.53-.56,21.25-1.31-1.5.09-2.91.17-4.22.24-.32.03-.63.06-.95.09Z"/>
  <path class="cls-1" d="M840.02,1597.59c-.98.06-1.98.12-3.02.18.7-.04,1.39-.08,2.11-.13-.35,1.49-.81,2.93-1.31,4.34,1.1-2.42,1.88-4.02,3.09-4.39-.13,0-.26-.02-.39-.03-.16.01-.33.02-.47.02Z"/>
  <path class="cls-1" d="M1569.15,1523.78c-34.14-18.42-99.33-44.81-181.62-26.88,1.72-.35,3.46-.69,5.21-1.02,51.25-10.05,116.31-3.16,176.4,27.9Z"/>
  <path class="cls-1" d="M653.37,1826.69s0,0,.04,0c4.81-.35,9.5-.35,14.07-.05-5.1-.39-10.28-.37-15.51.08.46,0,.92-.03,1.38-.03,0,0,.02,0,.02,0Z"/>
  <path class="cls-1" d="M1644.56,1518.16c-9.97-2.01-22.31,5.18-32.15,11.89,12.71-8.09,23.97-12.83,32.15-11.89Z"/>
  <path class="cls-1" d="M940.13,2390.25c3.14,6.76,6.57,13.24,10.27,19.42-19.59-33.21-25.41-63.02-27.74-76.3.85,7.45,2.13,22.65,17.47,56.88Z"/>
  <path class="cls-1" d="M839.62,1597.57s-.02,0-.03,0c0,0,.02,0,.03,0Z"/>
  <path class="cls-1" d="M959.49,2423.43c-.26-.35-.52-.72-.79-1.07.26.36.52.71.79,1.07Z"/>
  <path class="cls-1" d="M1595.18,1539.04s0,.02.01.02c0-.01,0-.02,0-.03h0s-.01,0-.01,0Z"/>
  <path class="cls-1" d="M1658.23,1541.75c0,.13,0,.25,0,.38,0,.24-.03.48-.06.72.6-1.98.87-4.23.67-6.78.06,1.79-.1,3.72-.61,5.69Z"/>
  <path class="cls-1" d="M745.44,1876.5c-.2-.38-.35-.69-.47-.95-2.33-3.99-4.92-7.79-7.76-11.39,3.12,4.03,5.94,8.28,8.42,12.71-.06-.12-.12-.25-.19-.37Z"/>
  <path class="cls-1" d="M751.87,1960.76c-1.12,2.66-2.39,5.29-3.8,7.87-2.6,5.27-5.67,10.34-9.18,15.14-1.55,2.19-3.16,4.29-4.84,6.3.31.23-1.13,1.7-3.11,3.54-2.26,2.46-4.62,4.78-7.06,6.94,12.15-10.14,22.02-23.45,28-39.79Z"/>
  <path class="cls-1" d="M779.18,1600.51c12.69-.25,21.89-.64,34.01-1.32-9.36.49-20.49.97-34.01,1.32Z"/>
  <path class="cls-1" d="M1255.92,1653.89c.13.18.26.36.39.54-.13-.18-.26-.36-.39-.54Z"/>
  <path class="cls-1" d="M588.3,1860.26c.06-.08.13-.15.19-.22-.06.07-.13.15-.19.22Z"/>
  <path class="cls-1" d="M592.92,1995.66c-2.71-2.71-5.2-5.5-7.51-8.34,2.17,3.31,2.86,4.42-1.25-1.55-1.46-1.87-2.83-3.76-4.12-5.67,16.8,30.86,48.82,44.99,81.15,43.95-24.75-.06-49.52-9.63-68.27-28.38Z"/>
  <path class="cls-1" d="M888.13,2276.21c7.54,2.72,14.01,4.94,17.94,5.15-2-.35-9.29-2.49-17.94-5.15Z"/>
  <path class="cls-1" d="M1657.79,1530.81c-.69-1.68-1.45-3.18-2.27-4.5,1.72,3.72,2.67,8.79,2.7,15.41.82-3.22.8-6.85-.44-10.91Z"/>
  <path class="cls-8" d="M490.37,1600.6s.02,0,.03,0c0,0-.03,0-.04-.01h0s0,0,.01,0Z"/>
  <path class="cls-8" d="M410.72,1591.72c.09-.09.06-.04.18-.2-.49.47-.6.64-.18.2Z"/>
  <path class="cls-8" d="M491.59,1600.75c0-.1,0-.2,0-.31,0,.02-.02.03-.03.04,0,.09,0,.17,0,.27,0,0,.02,0,.03,0Z"/>
  <path class="cls-8" d="M406.06,1599.72c-.17.58-.1.25-.19.88.03-.13.04-.2.19-.88Z"/>
  <path class="cls-8" d="M410.32,1618.37s0,0,0,0c0,0,0,0,0,.01,0,0,0,0,0,0,0,0,0,0,0-.01Z"/>
  <path class="cls-8" d="M303.17,1416.69c5.49,6.93,12.1,17.52,22.82,36.2.42-2.17.85-4.34,1.29-6.51,21.56-106.55,62.45-206.88,114.86-291.61.31-.5.61-.99.92-1.48.54-.87,1.09-1.75,1.63-2.62.8-1.28,1.6-2.55,2.4-3.82.05-.08.11-.17.16-.25,82.61-130.37,192.96-223.17,302.99-240.28,1.43-.22,2.86-.43,4.29-.63,154,41.62,286.23,187.38,568.8,63.01,15.06-6.36,29.3-13.02,43.27-19.1,33.89-14.74,66.21-26.09,104.79-21.75,2.06.23,4.14.5,6.24.82,161.01,61.77,228.29,284.74,268.85,424.74,18.79,64.82,31.85,111.87,45.8,116.87.58.11,1.15.2,1.72.29,9.1,1.33,16.82-.96,23.47-5.66,3.67-2.79,6.96-6.32,10.33-10.1,2.14-2.73,4.15-5.72,6.04-8.9,1.45-3.31,8.83-15.94,20.75-49.73,5.78-16.4,10.55-31.39,14.38-45.43,3.43-12.9,6.34-25.92,8.45-39.02.04,0,.08,0,.12,0,8.16-51.28,1.28-93.58-17.06-156.31-70.86-325.89-289.55-659.76-571.91-731.63,20.16-47.31,28.47-101.53,20.28-160.31-27.38-244.53-353.78-354.91-521.75-173.25-100.19,98.4-116.12,260.64-44.48,377.43,4.46-3.24,10.5-4.46,17.39-1.73,16.4,6.82,32.99,13.05,49.73,18.66,41.9,12.87,100.47,28.74,168.21,33.16,73.24,4.1,146.8-5.84,217.69-33.26,11.15-4.51,22.33-9.53,33.53-15.12,10.46-5.47,18.62-10.1,25.2-13.49,4.37-4.04,10.17-6.26,15.75-6.06,5.39-.66,9.38,1.44,13.56,7.2,18.64,27.18-39.12,43.18-56.34,53.91-2.42,1.05-4.84,2.08-7.26,3.09-.57.24-1.14.46-1.71.7-1.87.77-3.74,1.54-5.61,2.29-.53.21-1.06.41-1.59.62-1.93.76-3.86,1.52-5.79,2.26-.4.15-.8.3-1.21.45-2.07.79-4.15,1.57-6.23,2.33-.24.09-.49.18-.74.26-2.25.82-4.5,1.63-6.75,2.41-.08.03-.15.05-.23.08-66.69,23.27-134.71,32.09-202.79,29.23-1.52-.06-3.03-.14-4.55-.21-.78-.04-1.57-.07-2.35-.11-73.2-3.86-146.46-21.06-217.97-48.28-18.87,5.91-37.59,12.31-55.99,19.33,37.22-14.49,52.43-18.01,54.66-19.83-5.21-1.99-10.41-4.03-15.59-6.13-.59-.27-1.14-.56-1.68-.86-.16-.09-.32-.19-.48-.28-.39-.23-.77-.48-1.14-.73-.14-.09-.28-.18-.41-.28-.42-.3-.81-.62-1.18-.94-.21-.18-.41-.37-.61-.55-.18-.16-.35-.33-.51-.5-.77-.78-1.44-1.61-2.02-2.47-.05-.08-.11-.16-.16-.24-.61-.95-1.11-1.94-1.51-2.96-.02-.06-.05-.12-.07-.18-.12-.33-.24-.66-.34-.99-.03-.08-.05-.17-.07-.25-.15-.54-.28-1.08-.38-1.62-.04-.2-.08-.39-.11-.59-.04-.24-.06-.47-.09-.71-.03-.31-.06-.62-.08-.94,0-.15-.02-.29-.03-.44-.02-.5-.01-.99.01-1.49,0-.06,0-.13.01-.19.12-2.17.61-4.32,1.44-6.34-104.65,35.06-207.41,88.01-289.22,162.73-142.67,133.41-267.52,390.98-272.05,681.2-26.05,62.25-19.5-2.93,106.91,79.43,9.12,5.76,14.12,8.35,21.3,17.47Z"/>
  <path class="cls-8" d="M782.92,1681.61c3.24-.87,6.42-1.79,9.55-2.76-6.21,1.73-12.63,3.28-19.21,4.66,3.4-.63,6.73-1.27,9.65-1.9Z"/>
  <path class="cls-8" d="M1489.69,1372.46c-2.66-.07-5.27-.13-7.85-.19-2.62.08-5.38.12-8.29.13,2.15.12,4.2.22,6.16.31,3.62.02,6.95-.04,9.98-.24Z"/>
  <path class="cls-8" d="M1489.69,1372.46c1.34.04,2.68.07,4.04.11.2,0,.39-.02.58-.04,2.34-.27,4.44-.7,6.32-1.37,1.37-.55,2.64-1.24,3.8-2.06-3.68,2-8.61,2.96-14.75,3.35Z"/>
  <path class="cls-8" d="M1504.44,1369.1c.42-.23.83-.47,1.22-.73.43-.35.84-.73,1.24-1.14-.24.16-.48.33-.73.48-.55.49-1.12.96-1.73,1.39Z"/>
  <path class="cls-8" d="M1510.82,1344.82s.03.09.05.13c.05.14.11.29.16.45.04.13.09.25.14.38,0,.04.02.07.03.11.35,1.09.73,2.53.95,4.2.16.92.28,1.8.36,2.65-.05-2.62-.59-5.3-1.69-7.91Z"/>
  <path class="cls-8" d="M1216.33,1450.29c-3.43,1.65-6.54,2.82-9.43,3.43-1.05.38-2.06.7-3.03.96,4.48.15,8.91-1.32,12.45-4.39Z"/>
  <path class="cls-8" d="M1362.06,1381.59c-.18.05-.36.11-.54.16,15.68-3.94,31.2-6.45,47.58-7.94.02,0,.04,0,.06,0-11.23.98-23.09,2.57-35.42,5.1-3.82.8-7.71,1.69-11.67,2.68Z"/>
  <path class="cls-8" d="M1197.29,1453.26c-.62-.23-1.24-.5-1.85-.81,2.45,1.33,5.16,2.17,7.92,2.37.17-.04.34-.09.51-.14-2.22-.07-4.45-.55-6.59-1.42Z"/>
  <path class="cls-8" d="M1360.78,1381.94c-23.83,6.97-43.95,14.63-61.08,22.29-13.37,6.21-27.59,13.55-43.08,22.19-3.82,2.23-7.41,4.39-10.79,6.45.77-.43,1.54-.85,2.31-1.27,27.11-15.56,64.18-35.53,113.38-49.84-.25.06-.49.12-.74.19Z"/>
  <path class="cls-8" d="M501.8,1642.22h0c-.14,0-.27,0-.4,0,.2.02.38.03.54.04-.05-.02-.09-.04-.13-.04h-.01Z"/>
  <path class="cls-8" d="M480.98,1570.27s0,0,0,0c0,0,.01,0,.02,0,0,0,0,0,0,0,0,0,0,0,0,0Z"/>
  <path class="cls-8" d="M457.08,1555.78s-.03-.03-.05-.04c-.02-.01-.03-.03-.05-.04.03.02.07.05.1.08Z"/>
  <path class="cls-8" d="M496.13,1578.26s.06.07.08.11c1.17.59,1.29.63-.08-.11Z"/>
  <path class="cls-8" d="M479.19,1569.38c.59.3,1.16.58,1.71.85-.28-.15-.55-.3-.83-.45-.29-.13-.64-.29-.88-.4Z"/>
  <path class="cls-8" d="M456.81,1555.55s.04.03.06.05c.04.03.08.06.12.09-.06-.05-.12-.1-.18-.15Z"/>
  <path class="cls-8" d="M470.08,1564.22c4,2.35,6.57,3.81,8.21,4.7.24.12.47.24.71.36.1.04.36.15.83.36-2.93-1.6-5.93-3.27-8.76-4.88-.33-.18-.67-.36-1-.54Z"/>
  <path class="cls-8" d="M486.67,1573.26s0,0,0,0c0,0,0,0,0,0,0,.01.03.03.03.04.24.12.46.23.69.34-.22-.11-.43-.23-.66-.34-.02,0-.03-.01-.05-.02Z"/>
  <path class="cls-8" d="M1031.22,1984.18c-.03-.21-.07-.41-.1-.62.03.21.07.41.1.62Z"/>
  <path class="cls-8" d="M1029.36,1970.78c0-.06-.01-.12-.02-.18,0,.06.01.12.02.18Z"/>
  <path class="cls-8" d="M1032.47,1991.3c-.13-.68-.25-1.36-.38-2.04.12.68.25,1.36.38,2.04Z"/>
  <path class="cls-8" d="M1028.75,1965.12c-.05-.51-.11-1.01-.16-1.51.05.51.1,1.01.16,1.51Z"/>
  <path class="cls-8" d="M1033.03,1994.13c.12.58.23,1.17.35,1.75.11.54.22,1.07.34,1.61.06.29.13.58.19.87.41,1.82.83,3.63,1.28,5.43-.79-3.18-1.5-6.4-2.16-9.66Z"/>
  <path class="cls-8" d="M1028.44,1961.78c-2.23-24.91-2.03-51.67-.87-79.77.42-11.44.99-23.07,1.64-34.85-.07,1.04-.14,2.09-.21,3.13-2.26,39.49-3.7,76.99-.56,111.5Z"/>
  <path class="cls-8" d="M1010.88,1556.65c.23.69.44,1.39.67,2.08.65,2,1.29,4,1.91,6.01.31,1.01.6,2.01.9,3.02.49,1.66.99,3.31,1.46,4.97.36,1.26.7,2.52,1.05,3.78.37,1.36.75,2.72,1.11,4.09.4,1.51.79,3.02,1.17,4.53.27,1.06.53,2.11.79,3.17.44,1.78.86,3.56,1.27,5.35.16.71.32,1.42.48,2.12.48,2.11.94,4.21,1.39,6.32.05.25.1.5.16.75,7,33.42,10.08,66.87,10.95,99.87,0,.27.01.54.02.82.05,2.11.11,4.22.14,6.33,0,.37.01.74.02,1.11-.42-32.94-2.81-66.11-8.93-98.93-4.12-20.94-9.75-42.14-17.34-63.55.97,2.72,1.89,5.44,2.79,8.17Z"/>
  <path class="cls-8" d="M680.13,1362.64c1.09,2.42,2.58,4.6,4.44,6.41.07.06.13.12.2.17-1.95-1.83-3.5-4.06-4.64-6.58Z"/>
  <path class="cls-8" d="M1595.19,1539.04h0s0,0-.01,0c0,0,0,0,0,0h.01Z"/>
  <path class="cls-8" d="M1150.97,2067.53h.03s.03-.07.05-.1c.34-.75.67-1.52.99-2.28.27-.63.53-1.27.79-1.9-.02.03-.04.06-.05.1-.58,1.41-1.18,2.81-1.81,4.19Z"/>
  <path class="cls-8" d="M1165.83,1936.38c-.04-1.38-.07-2.76-.11-4.12,0,.07,0,.14,0,.21.03,1.3.07,2.6.1,3.92Z"/>
  <path class="cls-8" d="M789.75,1389.69c39.6,11.24,75.44,27.98,105.87,55.35.08.07.17.14.25.21-30.01-27.1-65.3-43.8-104.29-55.07-.61-.16-1.22-.33-1.82-.49Z"/>
  <path class="cls-8" d="M1646.19,1588.76c.23,1.27.6,1.61.01-.41-.02-.06-.04-.12-.06-.19,0,0,0-.02,0-.02.02.21.04.42.05.62Z"/>
  <path class="cls-8" d="M409.75,1617.73c.18.2.35.41.55.6,0,0,0,0,0,0-.14-.14-.29-.31-.45-.49-.03-.04-.07-.07-.1-.1Z"/>
  <path class="cls-8" d="M1738.38,1596.39c-.11-.63-.24-1.26-.41-1.88-.1-.3-.2-.61-.32-.92.31.93.55,1.87.72,2.8Z"/>
  <path class="cls-8" d="M1736.58,1590.91c.06.13.11.25.16.38.07.14.13.28.2.42-.12-.27-.23-.54-.36-.8Z"/>
  <path class="cls-8" d="M1736.94,1591.71s.04.09.06.14c-.02-.05-.04-.09-.06-.14Z"/>
  <path class="cls-8" d="M1737.66,1593.59c-.19-.58-.41-1.17-.65-1.74.11.26.22.53.3.78.13.33.24.64.36.96Z"/>
  <path class="cls-8" d="M1738.7,1601.44c0,.11-.01.22-.02.32,0-.11.01-.22.02-.32Z"/>
  <path class="cls-8" d="M1738.45,1596.79c.04.22.07.44.1.67-.03-.22-.07-.44-.1-.67Z"/>
  <path class="cls-8" d="M1738.73,1600.14c0,.05,0,.1,0,.15,0-.05,0-.1,0-.15Z"/>
  <path class="cls-8" d="M1737.52,1607.13c.54-1.46.89-2.97,1.06-4.51-.12.99-.31,1.97-.58,2.92-.14.54-.3,1.07-.48,1.59Z"/>
  <path class="cls-8" d="M1256.51,1654.7c-.07-.09-.13-.18-.2-.27-.13-.18-.26-.36-.39-.54-.5-.69-.98-1.39-1.45-2.09,4.42,6.91,10.35,13.29,17.53,19.13,1.16.87,2.35,1.73,3.59,2.58-7.72-5.73-14.17-12-19.09-18.8Z"/>
  <path class="cls-8" d="M1645.43,1629.5c-1.72.14-2.86.25-3.27.34-.06.03-.11.06-.16.1.52,0,1.05,0,1.59-.01.85-.2,1.99-.33,3.57-.43-.65,0-1.22,0-1.73,0Z"/>
  <path class="cls-8" d="M1660.62,1628.86c-6.41.34-10.63.45-13.46.64,2.65-.01,6.59-.08,12.52-.55.31-.03.63-.06.95-.09Z"/>
  <path class="cls-8" d="M1636.55,1644c-.3.67-.62,1.35-.96,2.06.29-.5.56-.98.82-1.45,1.19-2.32,2.25-4.71,3.17-7.15.08-.23.15-.45.21-.66-.66,1.88-1.66,4.23-3.24,7.2Z"/>
  <path class="cls-8" d="M1664.84,1628.61c2.74-.27,5.53-.57,8.34-.9-4.21.39-8.42.76-12.56,1.14,1.31-.07,2.72-.15,4.22-.24Z"/>
  <path class="cls-8" d="M1732.23,1614.6c-.44.34-.81.63-1.25.97h0c.45-.31.89-.65,1.3-.99.03-.03.06-.05.09-.08.25-.21.49-.44.72-.66-.28.25-.56.5-.86.74v.03Z"/>
  <path class="cls-8" d="M1724.91,1618.53c.16-.05.32-.1.48-.16.38-.13.72-.25,1.02-.38,1.58-.61,2.98-1.36,4.24-2.21-2,1.15-4.52,2.21-7.45,3.18,1.01-.24,1.62-.39,1.71-.44Z"/>
  <path class="cls-8" d="M1639.79,1636.8c.79-2.25,1.11-3.8,1.34-4.88-.4,1.06-.63,2.6-1.34,4.88Z"/>
  <path class="cls-8" d="M1641.13,1631.92c.14-.38.31-.69.53-.96.09-.32.18-.64.26-.96-.42.34-.57.93-.79,1.92Z"/>
  <path class="cls-8" d="M1641.42,1559.55c1.7-1.03,3.48-2.18,5.33-3.49h.06s-.06,0-.1,0c-1.76,1.25-3.6,2.45-5.42,3.56.04-.02.08-.05.13-.07Z"/>
  <path class="cls-8" d="M1626.53,1567.38s.03.04.04.05c.17-.06.48-.19.92-.39.11-.08.23-.15.35-.23-.55.24-.96.41-1.17.49-.06.03-.1.06-.14.09Z"/>
  <path class="cls-8" d="M1658.23,1541.72s0,.02,0,.03c.51-1.97.67-3.9.61-5.69-.12-1.53-.4-3.15-.9-4.91-.05-.12-.1-.23-.15-.35,1.24,4.06,1.26,7.69.44,10.91Z"/>
  <path class="cls-8" d="M1048.25,2041.66c.05.11.11.23.16.34.4.86.81,1.71,1.23,2.57.11.22.21.44.32.65.39.79.78,1.57,1.19,2.35.07.13.14.27.21.4-1.58-3.03-3.03-6.12-4.39-9.16.42.94.85,1.89,1.29,2.84Z"/>
  <path class="cls-8" d="M1058.76,2060.14c.07.1.15.19.22.29-.02-.03-.04-.06-.06-.09-.07-.09-.14-.18-.21-.27.02.02.03.05.05.07Z"/>
  <path class="cls-8" d="M1058.42,2059.67c-.15-.2-.28-.41-.42-.62-.1-.15-.21-.3-.31-.44.23.33.46.67.69,1,.01.02.03.04.04.06Z"/>
  <path class="cls-8" d="M1056.87,2057.43c.1.15.2.29.3.44-.03-.04-.05-.08-.08-.11-.11-.16-.22-.31-.32-.47.03.05.06.1.09.14Z"/>
  <path class="cls-8" d="M1060.5,2062.42c-.06-.08-.12-.16-.18-.23,0,0,0,0,0-.01.06.08.12.16.18.24,0,0,0,0,0,0Z"/>
  <path class="cls-8" d="M1051.58,2048.43c.39.74.78,1.47,1.19,2.2.06.1.12.21.17.31-.51-.92-1.01-1.85-1.5-2.78.05.09.09.18.14.27Z"/>
  <path class="cls-8" d="M1053.27,2051.55c.4.72.82,1.43,1.24,2.13.04.07.09.15.13.22-.52-.86-1.02-1.73-1.51-2.61.05.08.09.17.14.25Z"/>
  <path class="cls-8" d="M1055.04,2054.55c.44.72.89,1.43,1.34,2.14.03.04.06.09.09.13-.13-.2-.26-.41-.38-.61,0,0,0,0,0,0-.39-.62-.79-1.23-1.17-1.86.04.07.08.14.13.21Z"/>
  <path class="cls-8" d="M670.12,1486.36c.1,0,.3-.01.52-.02.14,0,.27-.01.41-.02.1,0,.21,0,.31,0,.19,0,.36-.01.44-.02-.85.03-.33,0-1.67.07Z"/>
  <path class="cls-8" d="M537.89,1518.91c-.89-.58-1.55-.98-1.77-1,0,0,0,0,0,0,.77.56,1.48,1.08,2.14,1.56,1.53,1.05,2.82,1.83,3.88,2.44-.91-.67-1.9-1.39-2.82-2.03-.45-.31-.93-.63-1.44-.98Z"/>
  <path class="cls-8" d="M503.89,1490.91s.09.08.13.13c.81.73,1.63,1.45,2.45,2.17-.07-.07-.13-.13-.2-.2-.81-.72-1.6-1.42-2.38-2.1Z"/>
  <path class="cls-8" d="M453.24,1550.49s0,0,0,0c-.01-.02,0-.02-.06-.08,0,0,0,0,0,0,.03.03.04.06.06.08Z"/>
  <path class="cls-8" d="M859.17,1550.54c-.77-.98-.6-.75-.19-.19.07.07.13.13.19.19Z"/>
  <path class="cls-8" d="M1309.48,1526.97c.44-.28.89-.55,1.34-.84-2.24,1.37-1.51.88-1.34.84Z"/>
  <path class="cls-8" d="M1403.07,1997.07c-1.35-1.94-2.66-3.95-3.9-6.03.39.93,1.95,3.3,3.9,6.03Z"/>
  <path class="cls-8" d="M1413.13,2009.27c-2.16-2.16-4.39-4.71-6.59-7.51,3.04,3.99,5.98,7.51,6.59,7.51Z"/>
  <path class="cls-8" d="M1406.53,2001.76c-1.19-1.56-2.38-3.18-3.46-4.7,1.13,1.63,2.29,3.2,3.46,4.7Z"/>
  <path class="cls-8" d="M1385.17,1944.42c-.01-.37-.04-.73-.05-1.1,0,1.5.03,2.14.05,1.1Z"/>
  <path class="cls-8" d="M745.62,1876.87c2.96,5.27,5.44,10.79,7.44,16.46-2.11-6.24-4.83-12.19-8.1-17.78.12.26.27.57.47.95.07.12.12.25.19.37Z"/>
  <path class="cls-8" d="M734.05,1990.07c-1.01,1.22-2.06,2.39-3.11,3.54,1.99-1.84,3.42-3.31,3.11-3.54Z"/>
  <path class="cls-8" d="M738.89,1983.77c3.51-4.81,6.58-9.87,9.18-15.14-.63,1.14-1.27,2.28-1.96,3.41-2.21,4.17-4.63,8.07-7.22,11.73Z"/>
  <path class="cls-8" d="M653.35,1826.69s0,0,0,0c.02,0,.03,0,.05,0-.03,0-.05,0-.04,0,0,0-.02,0-.02,0Z"/>
  <path class="cls-3" d="M1496.86,2037.85c4.4-.66,4.51-.65,2.27-.36-.8.13-1.6.26-2.4.37.04,0,.09,0,.13,0Z"/>
  <path class="cls-3" d="M1578.17,1925.04c-.04-.25-.07-.49-.11-.72.02.1.03.2.04.31.02.14.04.27.07.42Z"/>
  <path class="cls-3" d="M1577.51,1921.02c.08.42.16.84.24,1.26-.45-2.84-.66-3.87-.24-1.26Z"/>
  <path class="cls-3" d="M1381.52,1564.54s.02,0,.02,0c2.29-1.77,4.66-3.29,7.08-4.6,5.16-2.88,13-6.05,23.2-6.05.17,0,.34,0,.51,0,2.63-.01,5.26.18,7.85.55,11.39,1.55,19.26,6.01,24.06,9.49,2,1.38,3.91,2.88,5.72,4.51,0,0,.02,0,.03,0,17.59.58,35.43,1,53.33,1.3,19.19.26,41.8.46,68.47.57-2.56-1.69-5.17-3.33-7.81-4.93-14-7.41-40.38-21.22-74.3-29.31-49.92-10.75-103.7-6.1-149.95,18.46-1.44.77-2.87,1.54-4.31,2.35,1.22.21,2.3.41,3.27.61,11.2,1.78,25.41,5.28,42.82,7.05Z"/>
  <path class="cls-3" d="M1568.63,1609.71c-91.16-.23-82.53-1.33-100.67-1.33.38,28.96-23.22,56.05-52.49,56.05-19.92,0-37.33-10.03-47.3-25.2-.07-.1-.14-.21-.21-.31-.33-.51-.64-1.04-.95-1.56-.18-.3-.38-.6-.56-.91-.2-.35-.39-.72-.58-1.07-.27-.49-.54-.98-.8-1.48-.1-.19-.18-.38-.27-.57-3.74-7.62-5.74-16.21-5.48-25.3,0-.3.04-.59.05-.89.03-.74.06-1.48.13-2.23.08-1,.2-2.01.34-3.02-13.9-1.56-26.09-3.53-35.14-6.9-.64-.16-1.29-.33-1.94-.49-6.72-1.73-10.15-5.42-11.95-8.95-1.6-2.33-2.55-5-2.74-8.07-82.52,84.25,100.99,113.8,214.91,91.16,49.25-9.8,85.48-29.35,81.61-58.43-9.77.1-21.64-.13-35.97-.5Z"/>
  <path class="cls-3" d="M653.82,1556.95c.26-.33.52-.65.78-.97.13-.17.27-.34.4-.5,4.37-5.26,9.3-9.35,14.56-12.38.02,0,.03-.02.05-.03.37-.21.74-.41,1.11-.61.12-.06.24-.13.36-.2.26-.14.52-.27.78-.4.24-.12.47-.24.71-.36.14-.07.28-.13.42-.2.36-.17.73-.35,1.09-.51,0,0,0,0,0,0,23.79-10.67,52.74-1.42,67.29,20.78,56.95-.55,58.23-1.26,69.79-1.89-.67-.48-1.36-.96-2.06-1.44-.62-.42-1.26-.84-1.91-1.26-.07-.04-.13-.09-.2-.13-7.12-4.59-15.61-8.88-25.18-12.71-.26-.1-.52-.21-.78-.31-.52-.2-1.04-.41-1.56-.61-.64-.25-1.28-.49-1.94-.74-.13-.05-.26-.1-.39-.15-51.99-19.23-130.65-24.08-191.35,3.98,20.89,5.58,43.58,9.42,67.06,11.92.32-.44.64-.87.97-1.29Z"/>
  <path class="cls-3" d="M472.86,1565.75c2.32,1.32,3.59,2.01,4.13,2.28-1.39-.78-2.77-1.54-4.13-2.28Z"/>
  <path class="cls-3" d="M837,1597.77c-6.5.4-14.22.92-23.81,1.42-12.12.68-21.32,1.07-34.01,1.32-8.84.23-18.7.4-29.74.48-7.36,41.2-44.92,53.03-73.67,41.52-.13-.05-.26-.1-.39-.15,0,0,0,0-.01,0-16.57-6.78-30.13-21.35-33.15-42.57-.13-.92-.24-1.86-.33-2.81-16.1-1.7-31.22-4.2-44.94-7.15-17.75-3.73-35.04-8.62-50.72-14.97-.27-.11-.54-.22-.81-.33-9.44,10.78-15.18,23.53-14.93,38.34,18.62,32.22,67.25,33.69,100.25,37.84,42.25,2.2,75.68,1.55,102.19-.93.58-.05,1.15-.11,1.73-.17.32-.03.65-.06.97-.1,34.59-3.52,68.12-11.33,87.56-27.47,9.32-7.89,12.52-15.47,14.61-20.07.51-1.41.96-2.85,1.31-4.34-.72.04-1.41.09-2.11.13Z"/>
  <path class="cls-3" d="M839.03,1597.4s.06.02.09.03c0,0,0,0,.01-.01-.04,0-.07,0-.11-.01Z"/>
  <path class="cls-3" d="M492.4,1598.14c-.76,1.71-.67,2.41-.44,2.66.08,0,.17,0,.28,0,0-.48.02-.92.05-1.29,0-.04,0-.07,0-.11.05-.65.11-1.11.12-1.27Z"/>
  <path class="cls-5" d="M839.14,1597.41s-.01.01-.01.01c.16.06.32.11.46.14,0,0,.02,0,.03,0,.02,0,.03,0,.05,0,.13,0,.32,0,.61-.01-.38-.03-.76-.08-1.14-.14Z"/>
  <path class="cls-5" d="M426.75,1585.81s-.08,0-.02,0c0,0,.14,0,.02,0Z"/>
  <path class="cls-5" d="M409.85,1617.83c-.91-1.05-1.91-2.47-.72-.89.38.47.75.94,1.19,1.38,0,.02,0,.04.01.06.81.81,1.36,1.25,2.22,1.97.94.78-2.09-1.14-2.22-1.97,0,0,0,0,0,0,0,0,0,0,0,.01,0,.12.03.24.08.36,2.84,6.9,78.9,22.35,90.95,23.47.17,0,.35,0,.54,0,.17,0,.35,0,.54,0,0,.02,0,.04,0,.06,0,0,0,0,0,0,16.97,24.97,66.25,42.05,123.74,48.65,45.36,3.39,100.19,2.39,147.09-7.42,6.57-1.38,12.99-2.93,19.21-4.66,51.84-16.03,88.43-45.37,84.65-90.73-2.68-12.08-7.35-22.54-13.56-31.68-35.21-47.7-127.65-72.11-192.21-70.13-.1,0-.21,0-.31,0-.14,0-.27.02-.41.02-14.12.72-25.93,2-35.81,3.55-25.2,4.55-41.12,11.62-47.35,13.52-.93.31-1.68.49-2.29.49-2.78-6.02-9.75-7.83-9.75-8.62-11.96-5.98-22.47-13.71-31.63-21.4-3.16-2.58-6.54-5.45-10.18-8.69-3.13-2.61-5.9-5.45-8.64-8.21-4.04-3.72-7.66-6.98-10.88-9.46-4.02-2.6-8.61-4.39-14.44-4.66-7.16,1.13-12.24,5.12-15.02,10.14-.31.59-.61,1.21-.89,1.88-.48,1.2-.84,2.33-1.12,3.43-.49,2.18-.61,4.43-.35,6.63,1.63,6.54,10.81,16.23,21.13,25.55.16.14.32.28.48.42.78.68,1.57,1.38,2.38,2.1.61.54,1.22,1.08,1.85,1.64,12.38,10.73,25.01,20.21,27.54,22.7.79.56,1.53,1.08,2.23,1.55.51.35.99.67,1.44.98,1.73,1.17,3.07,2.05,4.06,2.73,1.92,1.07,2.65,1.45,2.11,2.1.05,1.24-3.62,2.06-9.8,6.75-9.57,7.44-12.97,11.54-14.9,13.24-.71.76-1.04,1.1-1.29,1.1,0,.24-.6.06-1.66-.43-.04-.02-.08-.04-.12-.06-1.82-.85-4.91-2.55-8.7-4.67-13.8-6.96-21.09-11.24-25.38-13.85-3.15-1.57-6.08-2.94-8.59-3.93-1.82-.05-4.5.22-10.14.22-.03,0-.05,0-.1.05-.56.16-1.12.41-1.62.66-.09,0-.05.03-.12.03,0,0-.06,0-.06.03-.49.25-1.06.57-1.44.82,0,.05-.06.02-.06.06-1.17.59-2.21,1.21-3.14,1.87-3.42,3.16-6.25,7.88-6.94,13.15-.02,7.36,4.17,13.36,1.8,10.66,0,.01.01.02.02.04,0,0,0,0,0,0s0,0,0,0c.63,1.68,1.74,3.21,3.2,4.68.04.04.08.08.12.13.15.15.32.3.48.45.02.01.03.03.05.04.07.06.13.12.2.18.02.02.03.03.05.05,3.17,2.85,7.68,5.44,12.74,8.22.33.18.66.36,1,.54.59.32,1.19.65,1.79.98,1.36.74,2.73,1.5,4.13,2.28.43.24.86.48,1.29.73.58.33,1.14.65,1.69.95.07.04.15.08.22.12.27.15.53.3.79.44,0,0,0,0,0,0,.01,0,.02.01.03.02,3.14,1.55,5.32,2.61,5.61,2.93.27.13.54.26.79.39,6.87,3.32,9.37,3.73,9.71,4.85,0,.03.02.06.02.08.12.6-.32,1.43-1.02,2.99-.77,2.33-2.39,6.18-3.76,13.5-.52,3.1-.47,4.62-.72,5.27-.02.15-.03.3-.05.45,0,0-.01,0-.02,0,0,0-.02,0-.03,0-4.87-.08-58.46-13.54-62.94-14.66,0,0,0,0,0,0-4.78-.93-10.21.39-12.99,1.97-.34.17-.65.36-.97.54-4.21,3.31-7.93,8.29-9.2,13.75-.46,5.24,1.18,10.34,2.67,13.39.48.67,1.02,1.33,1.63,1.98.03.04.07.07.1.1ZM561.9,1538.85c2.27.83,4.58,1.63,6.91,2.4.47.16.94.3,1.4.46,5.06,1.66,10.26,3.19,15.58,4.61,60.7-28.06,139.36-23.22,191.35-3.98.13.05.26.1.39.15.65.24,1.29.49,1.94.74.52.2,1.05.4,1.56.61.26.1.52.21.78.31,9.49,3.79,17.98,8.06,25.18,12.71.07.04.14.09.2.13.64.42,1.28.84,1.91,1.26.7.48,1.39.96,2.06,1.44,11.38-.62,19.01-1.26,24.59-1.4,2.81-.19,5.34-.07,7.6.3,1.51.22,2.84.56,4.11,1.05,5.15,1.83,8.49,5.27,10.3,9.35,2.46,5.2,2.35,11.49-.06,16.84-2.78,6.89-8.78,12.23-16.8,11.77-1.21.38-1.99,1.97-3.09,4.39-2.08,4.6-5.29,12.18-14.61,20.07-12.94,10.95-37.67,22.5-87.56,27.47-.32.03-.65.06-.97.1-.57.06-1.15.11-1.73.17-26.51,2.47-59.94,3.12-102.19.93-33-4.16-81.63-5.63-100.25-37.84-.25-14.81,5.5-27.56,14.93-38.34-.13-.05-.26-.11-.39-.16-1.28-.53-2.54-1.06-3.79-1.61-.35-.15-.7-.3-1.05-.46-1.53-.68-3.04-1.36-4.54-2.07-22.25-11.12-11.42-51.86,26.24-31.39ZM492.28,1599.52c-.03.44-.05.87-.05,1.29.43,0-.02.28-.28,0-.23-.25-.31-.95.44-2.66,0-.02.01-.03.02-.05-.06.45-.1.89-.13,1.32,0,.04,0,.07,0,.11Z"/>
  <path class="cls-5" d="M1737.52,1607.13c.19-.52.34-1.05.48-1.59,1.21-4.64.68-9.8-1.26-14.25-.06-.13-.11-.26-.16-.38-1.97-4.29-5.27-7.86-9.61-9.59-.09-.04-.18-.08-.28-.11-.13-.05-.26-.08-.39-.13-3.3-.96-12.13.13-22.79,1.85-1.79.39-3.77.82-5.95,1.26-9.97,2.01-19.7,3.43-27.97,4.38-7.78,1.13-14.52,1.83-18.77,1.53-2.91.1-4.58.02-4.58-.19,0,0,0,0-.02,0,.21,5.72-.85,9.92-3.87,12.96-2.02,2.64-5.18,5.02-10.16,6.37-5.83.8-11.75.82-17.75.71-3.02.13-6.3.22-9.85.25,3.87,29.08-32.36,48.63-81.61,58.43-113.96,22.69-297.53-6.8-214.91-91.16-.09-1.45-.02-3,.24-4.64.04-.28.09-.58.15-.9.01-.07.02-.13.04-.2.08-.41.17-.83.29-1.31.15-.53.31-1.03.48-1.53,0-.03.02-.05.03-.08,3.94-11.63,12.11-13.48,24.82-11.99.45.02.89.03,1.3.03,1.44-.81,2.87-1.58,4.31-2.35,55.38-29.68,108.34-28.38,149.95-18.46,33.93,8.09,60.31,21.9,74.3,29.31,5.03,2.67,8.45,4.49,10.06,4.94,14.31.06,29.78.09,46.5.09,3.38,0,5.22,0,6.29,0,1.21-.13,1.68-.33,1.72-.61-1.9-.76-2.39-1.38-1.79-2.12-.07-.08-.13-.15-.2-.23-.01-.02-.03-.04-.04-.05-.01-.01-.02-.03-.03-.04.03,0,.08-.02.17-.05.22-.07.63-.24,1.17-.49,2.15-1.36,6.77-3.24,12.59-6.67.28-.17.57-.34.85-.52,1.82-1.12,3.66-2.31,5.42-3.56-3.31-.06,8.36-2.91,11.46-13.21.03-.24.06-.48.06-.72,0-.13,0-.25,0-.38,0-.01,0-.02,0-.03-.04-6.61-.98-11.69-2.7-15.41-2.99-4.83-6.77-7.31-10.97-8.15-8.18-.94-19.44,3.8-32.15,11.89-9.83,6.7-17.17,12.91-17.21,9.01,0,0-.01-.01-.01-.02,0,0,0,0,0,0-1.24-.04-10.36-6.81-26.02-15.25-60.09-31.06-125.15-37.95-176.4-27.9-1.75.32-3.49.66-5.21,1.02-20.79,4.53-42.66,11.88-65.4,22.91-4.86,2.55-9.47,5.21-13.81,7.95-43.63,30.81-69.79,71.32-62.08,105.98,1.67,6.36,4.45,12.38,8.23,18.06.47.7.95,1.4,1.45,2.09.13.18.25.36.39.54.07.09.13.18.2.27,5.12,6.93,11.75,13.32,19.62,19.15.62.42,1.23.83,1.87,1.24,92.2,61.47,310.22,55.12,357.05-27.96.19-.36.37-.72.54-1.08.35-.7.66-1.39.96-2.06,3.79-8.46,4.13-14.09,5.43-14.09,0-.02.06-.05.18-.07.41-.09,1.55-.2,3.27-.34,7.35-.58,25.42-1.64,43.48-3.86,13.16-1.94,25.2-4.21,32.38-6.07.65-.2,1.29-.4,1.91-.6,2.93-.97,5.45-2.03,7.45-3.18.11-.08.23-.14.34-.22h0c.44-.35.81-.63,1.25-.97v-.03c.3-.24.59-.49.86-.74.09-.08.18-.16.27-.25.08-.07.14-.15.22-.22,1.8-1.84,3.1-3.97,3.94-6.23Z"/>
  <path class="cls-9" d="M1499.13,2037.49c.48-.08.96-.15,1.45-.23,49.23-9.38,82.45-58.49,78.41-105-.2-2.6-.51-5.14-.88-7.64-.02-.1-.03-.2-.04-.31-.1-.68-.2-1.36-.32-2.03-.07-.42-.16-.84-.24-1.26-.6-3.3-1.35-6.51-2.24-9.63-.05-.19-.1-.38-.16-.56-.1-.35-.19-.7-.29-1.05-11.36-34.32-41.91-59.86-75.95-66.95-16.22-3.01-33.11-2.05-48.85,3.31-4.94,1.82-9.8,4.12-14.52,6.95-.48,0-1.25.27-2.23.76-1.57.92-3.12,1.89-4.64,2.92-9.9,7.15-27.24,24.29-36.6,47.57-.02.06-.04.11-.07.17-.34.86-.67,1.74-1,2.62-4.35,12.17-6.18,24.38-5.85,36.2.01.37.03.73.05,1.1,1.2,30.19,16.48,57.68,39.81,75.11,20.22,14.18,45.54,21.1,69.98,18.54.59-.07,1.18-.14,1.77-.22.8-.11,1.6-.24,2.4-.37Z"/>
  <path class="cls-9" d="M581.7,1982.16c-.5-.66-1.88-2.8-2.85-4.32.39.76.79,1.51,1.19,2.25,1.29,1.91,2.67,3.81,4.12,5.67-.68-1-1.5-2.19-2.47-3.6Z"/>
  <path class="cls-9" d="M730.93,1993.61c1.06-1.15,2.1-2.32,3.11-3.54,1.68-2.01,3.29-4.11,4.84-6.3,2.6-3.66,5.02-7.57,7.22-11.73.69-1.13,1.33-2.26,1.96-3.41,1.41-2.58,2.68-5.21,3.8-7.87,3.32-9.08,5.45-19.09,6.1-30.01.84-13.19-.97-25.8-4.91-37.42-1.99-5.67-4.48-11.19-7.44-16.46-2.49-4.43-5.3-8.68-8.42-12.71-16.76-21.26-41.98-35.41-69.73-37.52-4.57-.3-9.26-.3-14.07.05-.02,0-.03,0-.05,0,0,0,0,0,0,0-.46,0-.92.02-1.38.03-7.04.61-14.16,2.01-21.28,4.28-16.44,5.48-30.96,15.74-42.2,29.04-.06.08-.13.15-.19.22-.03.03-.05.07-.08.1-11.1,13.63-19.08,30.34-22.48,48.1-3.71,21-.86,43.77,10.84,65.41-.37-.45,5.75,8.73,8.84,13.44,2.3,2.84,4.79,5.63,7.51,8.34,18.75,18.75,43.52,28.32,68.27,28.38,22.42-.72,44.96-8.72,62.68-23.5,2.44-2.16,4.8-4.48,7.06-6.94Z"/>
  <path class="cls-9" d="M574.08,1969.07c-3.76-7.53-2.03-3.89-.27-.5.49,1.1,1.1,2.18.27.5Z"/>
  <path class="cls-9" d="M1833.86,1445.92c-.75,1.72.09.94,2.72-.7.16-.16.32-.33.48-.49,13.36-10.02,38.61-14.53,65.07-12.67,37.98,1.96,65.29,18.2,65.29,20.23,19.09,12.73,25.45,25.08,26.48,36.49,1.7,9.62-.96,17.06-3.5,23.74-1.88,6.52-3.68,12.44-3.17,17.6.42,1.79,1.16,3.62,2.32,5.52,4.91,6.54,11.04,9.47,16.82,9.63.02,0,.04,0,.06,0,.09,0,.17,0,.26,0,2.35-.04,4.97-.46,7.5-1.57,2-.9,3.83-2.16,5.39-3.74.02-.02.03-.03.05-.05.19-.19.37-.39.55-.6.79-.89,1.53-1.9,2.2-3.06.33-.57.66-1.15.98-1.72,7.44-14.1,12.58-39.99,6.88-62.16-1.97-6.7-4.52-12.74-7.55-18.24-12.43-20.35-33.72-37.25-59.35-48.36-5.27-2.21-10.35-4.11-15.22-5.74-20.53-6.66-43.04-9.73-65.55-8.21-11.75,1.23-19.45,3.52-23.23,3.26-1.58.34-3.16.71-4.74,1.1-11.92,33.79-19.3,46.42-20.75,49.73Z"/>
  <path class="cls-6" d="M741.37,1561.57c-14.55-22.2-43.5-31.45-67.29-20.78,0,0,0,0,0,0-.37.16-.73.34-1.09.51-.14.07-.28.13-.42.2-.24.12-.47.24-.71.36-.26.13-.52.26-.78.4-.12.06-.24.13-.36.2-.37.2-.74.4-1.11.61-.02,0-.03.02-.05.03-5.27,3.03-10.2,7.13-14.56,12.38-.14.16-.27.33-.4.5-.26.32-.52.64-.78.97-.33.42-.65.85-.97,1.29,8.45.9,17,1.63,25.6,2.21,20.92,1.16,41.95,1.33,62.93,1.13Z"/>
  <path class="cls-6" d="M642.22,1599.79c3.02,21.21,16.58,35.79,33.15,42.57,0,0,0,0,.01,0,.13.05.26.1.39.15,28.75,11.51,66.31-.33,73.67-41.52-7.46.06-15.46.07-24.05.03-2.86,0-6.27-.03-11.3-.07-4.04,12.27-18,16.69-27.84,11.17-.18-.1-.37-.19-.55-.3,0,0,0,0,0,0-3.86-2.34-7.02-6.27-8.59-11.93-10.56-.58-21.67-1.45-33.01-2.69-.74-.08-1.48-.15-2.23-.23.09.95.2,1.88.33,2.81Z"/>
  <path class="cls-6" d="M1359.38,1607.15c-.01.3-.04.6-.05.89-.26,9.09,1.74,17.68,5.48,25.3.09.19.18.38.27.57.25.5.53.99.8,1.48.19.36.38.72.58,1.07.18.31.37.61.56.91.31.52.62,1.05.95,1.56.07.11.14.21.21.31,9.98,15.17,27.41,25.2,47.3,25.2,29.26,0,52.87-27.09,52.49-56.05-33.21-.89-37.34-1.02-37.77-1.04h-.04c.3.43.59.86.86,1.3,1.82,2.97,2.76,6.07,2.98,9.12,0,.09.02.19.03.28.01.2,0,.4.01.6,0,.25.02.49.02.74,0,.04,0,.08,0,.12-.21,10.17-8.52,19.19-20.18,19.19-15.3,0-25.17-20.13-13.54-32.86-2.16-.22-16.91-.96-35.5-3.39-1.68-.17-3.33-.35-4.97-.54-.14,1.01-.26,2.02-.34,3.02-.06.75-.09,1.49-.13,2.23Z"/>
  <path class="cls-6" d="M1449.96,1568.43c-1.8-1.62-3.72-3.13-5.72-4.51-7.15-4.94-15.43-8.25-24.06-9.49-2.59-.37-5.22-.56-7.85-.55-8.03.04-16.13,1.95-23.71,6.04-2.42,1.31-4.79,2.83-7.08,4.6,0,0,0,0,0,0h0c5.94,0,8.38.68,18.16,1.57,15.92,1.14,31.8,1.71,50.28,2.33,0,0,0,0-.01,0Z"/>
  <path class="cls-4" d="M1351.14,2141.44c-.39-6.57-4.49-12.53-9.63-15.73-.29-.17-.58-.34-.89-.49-.16-.11-.33-.19-.49-.29-1.82-.93-3.73-1.51-5.64-1.65-1.5-.17-2.96-.16-4.36-.01-4.98.72-10.07,3.38-13.52,7.52-3.2,4.11-4.78,9.45-4,14.88.02.12.03.24.05.36,0,0,0,0,0,.01.1.57.23,1.14.39,1.73.32,1.2.75,2.37,1.26,3.5.07.14.13.29.2.43.07.15.15.3.22.45,1.04,1.96,2.43,3.87,4.24,5.68h.06c5.81,5.3,13.51,5.91,19.92,3.25.02,0,.04-.02.06-.02,4.26-1.78,7.95-5.01,10.11-9.27h0c.14-.27.26-.56.39-.84.09-.21.19-.42.28-.64.01-.03.02-.07.04-.1.63-1.61,1.04-3.3,1.23-5,.01-.12.03-.23.04-.35.02-.19.02-.38.04-.57.06-.92.06-1.87-.01-2.84Z"/>
  <path class="cls-4" d="M691.49,1336.52c-7.51,2.71-12.6,8.3-13.12,18.59,0,.57.03,1.14.08,1.71.12.7.26,1.42.43,2.16,1.97,8.41,12.84,12.41,29.46,15.63,10.85.7,22.43,2.61,32.72,3.97,12.8,2.33,24.94,5.06,36.5,8.14,4.01.9,8.07,1.88,12.19,2.96.61.16,1.22.32,1.82.49,36.5,9.74,76.51,26.85,111.36,61.28,70.84,64.53,88.87,159.37,91.43,257.32,1.09,20.69,1.46,42.7,1.01,66.16-.45,8.74-1.24,19.02-2.16,30.45-3.24,88.18-9.09,171.52,10.47,229.61,5.85,19,15.32,38.13,27.76,53.08,1.95,2.32,3.98,4.57,6.09,6.73.57.58,1.13,1.13,1.7,1.69.17.16.33.32.5.47.41.39.83.78,1.25,1.16.19.17.38.35.57.52.55.49,1.1.98,1.65,1.45.01.01.03.02.04.04,17.8,15.17,37.48,19.04,55.58,14.53,10.74-3.29,19.81-8.13,27.46-14.24,10.04-8.33,18.6-19.56,24.69-32.9,0,0,0,0,0,0,.63-1.38,1.23-2.78,1.81-4.19.39-.94.76-1.88,1.12-2.83.26-.68.51-1.35.76-2.04.04-.1.07-.2.11-.3,12.59-35.32,12.1-80.7,11.06-121.79-.03-1.32-.07-2.62-.1-3.92,0-.07,0-.15,0-.22-.02-.7-.07-1.38-.15-2.05-1.52-7.94-6.4-12.83-12.22-14.88-.03,0-.05-.02-.07-.03-.1-.03-.2-.06-.29-.09-4.94-1.51-10.51-1.18-15.23,1.04-.29.14-.59.29-.87.45-.13.07-.25.14-.38.21-4.94,2.85-8.69,7.92-9.29,15.04-.06.73-.09,1.48-.09,2.25.31,39.56,8,135.12-42.81,142.94-.64-.08-1.27-.19-1.9-.31-.24-.04-.47-.1-.7-.15-.38-.08-.75-.16-1.12-.26-.29-.07-.58-.16-.87-.24-.29-.08-.58-.17-.86-.26-.33-.1-.66-.21-.98-.33-.22-.08-.43-.16-.64-.24-.38-.14-.75-.29-1.12-.44-.1-.04-.2-.09-.3-.13-5-2.17-9.32-5.58-13.1-9.77-.04-.04-.08-.08-.12-.13-.28-.31-.55-.62-.82-.93-.17-.2-.34-.39-.51-.59-.19-.23-.38-.46-.57-.7-.07-.08-.13-.16-.2-.24,0,0,0,0,0,0-.2-.26-.41-.52-.61-.77-.1-.13-.2-.25-.29-.38-.28-.37-.56-.74-.84-1.12-.02-.02-.03-.05-.05-.07-.1-.13-.19-.26-.29-.4-.01-.02-.03-.04-.04-.06-.51-.72-1.02-1.45-1.51-2.19-.03-.05-.06-.1-.09-.14-.1-.15-.2-.3-.3-.46-.03-.04-.06-.09-.09-.13-.46-.7-.9-1.42-1.34-2.14-.04-.07-.08-.14-.13-.21-.09-.15-.18-.3-.27-.44-.04-.07-.09-.15-.13-.22-.42-.71-.83-1.42-1.24-2.13-.05-.08-.09-.17-.14-.25-.07-.12-.13-.23-.19-.35-.06-.1-.12-.21-.17-.31-.4-.73-.8-1.46-1.19-2.2-.05-.09-.09-.18-.14-.27-.03-.06-.06-.12-.09-.17-.07-.13-.14-.27-.21-.4-.4-.78-.8-1.56-1.19-2.35-.11-.22-.21-.44-.32-.65-.42-.86-.83-1.71-1.23-2.57-.05-.11-.11-.23-.16-.34-.44-.95-.87-1.89-1.29-2.84-.06-.14-.12-.28-.18-.41-1.41-3.14-2.74-6.28-4.03-9.32-1.48-4.07-2.83-8.21-4.06-12.41-1.84-5.98-3.42-12.09-4.78-18.33-.06-.29-.13-.58-.19-.87-.11-.54-.23-1.07-.34-1.61-.12-.58-.23-1.17-.35-1.75-.19-.94-.38-1.88-.56-2.83-.13-.68-.25-1.36-.38-2.04-.3-1.68-.6-3.37-.87-5.08-.03-.21-.07-.41-.1-.62-.67-4.21-1.26-8.47-1.76-12.78,0-.06-.01-.12-.02-.18-.21-1.82-.4-3.65-.59-5.48-.05-.51-.11-1.01-.16-1.51-.06-.6-.1-1.22-.16-1.82-3.14-34.5-1.71-72.01.56-111.5.24-4.17.49-8.36.74-12.57,2.27-39.89,5.03-81.4,4.67-123.33-.02-1.51-.03-3.02-.06-4.53-.04-2.11-.09-4.22-.14-6.33,0-.27-.01-.54-.02-.82-.87-33.01-3.95-66.45-10.95-99.87-.05-.25-.1-.5-.16-.75-.45-2.11-.91-4.21-1.39-6.32-.16-.71-.32-1.42-.48-2.12-.41-1.78-.84-3.57-1.27-5.35-.26-1.06-.52-2.11-.79-3.17-.38-1.51-.77-3.02-1.17-4.53-.36-1.36-.73-2.72-1.11-4.09-.35-1.26-.69-2.52-1.05-3.78-.47-1.66-.97-3.31-1.46-4.97-.3-1.01-.59-2.01-.9-3.02-.62-2-1.26-4.01-1.91-6.01-.22-.69-.44-1.39-.67-2.08-.9-2.72-1.83-5.45-2.79-8.17-1.63-4.59-3.32-9.08-5.07-13.5-2.19-5.34-4.53-10.66-7.02-15.95-23.23-48.11-50.94-84.65-84.8-112.21-42.06-33.36-93.42-53.97-152.7-65.11-7.62-.6-19.16-3.36-31.14-5.32-12.56-1.77-26.14-2.65-35.87.13Z"/>
  <path class="cls-4" d="M1186.01,1442.13c1.83,4.39,5.28,8.06,9.43,10.32.61.32,1.23.58,1.85.81,2.99,1.09,6.14,1.19,9.61.46,2.89-.61,5.99-1.78,9.43-3.43.04-.02.07-.04.11-.05.23-.21.46-.42.69-.64,9.88-6.02,19.45-11.58,28.71-16.72,3.38-2.06,6.96-4.22,10.79-6.45,11.85-6.92,25.97-14.55,43.08-22.19,17.13-7.66,37.26-15.32,61.08-22.29.42-.12.84-.25,1.26-.37,3.94-.99,7.84-1.87,11.69-2.66,12.34-2.54,24.19-4.12,35.42-5.1,27.8-3.54,48.78-2.26,64.4-1.42,2.91,0,5.67-.05,8.29-.13,10.77-.33,19.08-1.4,24.33-4.55.25-.15.49-.32.73-.48,1.42-1.47,2.63-3.29,3.62-5.54,1.08-2.41,1.77-4.65,2.12-6.73-.01-.71-.06-1.45-.14-2.22-.08-.85-.2-1.73-.36-2.65-.24-1.32-.55-2.72-.95-4.2,0-.04-.02-.07-.03-.11-.04-.13-.09-.25-.14-.38-.05-.15-.11-.3-.16-.45-.02-.04-.03-.09-.05-.13-.15-.4-.31-.78-.47-1.15-4.27-6.04-13.6-9.66-25.95-11.53-10.51-.5-24.88-.02-44.61.5-10.22.23-20.05.68-29.68,1.44-28.45,3.58-56.05,9.21-72.68,13.64-8.64,2.66-17.52,5.76-26.75,9.38-24.35,10.02-53.71,24.59-77.36,37.42-6.6,3.67-13.4,7.55-20.45,11.66-4.22,2.77-8.28,4.96-11.93,7.08-4.88,3.12-8.35,5.61-9.91,7.17-1.39,1.46-2.53,2.95-3.44,4.45-1.79,3.22-2.81,7.2-2.81,12.46.2,1.67.62,3.27,1.23,4.79Z"/>
  <path class="cls-4" d="M1628.85,1570.47c-.53-.06-.47-.07-2.02-.07-1.07,0-2.91,0-6.29,0-16.73,0-32.19-.03-46.5-.09-.76,0-1.5,0-2.25,0-26.68-.11-49.28-.31-68.47-.57-64.58-.88-90.61-2.45-103.63-3.64-9.79-.89-12.23-1.57-18.16-1.57h-.01c-17.41-1.77-31.63-5.27-42.82-7.05-1.59-.25-3.11-.47-4.58-.64-12.7-1.5-20.87.36-24.82,11.99,0,.03-.02.05-.03.08-.17.49-.33,1-.48,1.53-.11.44-.2.88-.29,1.31-.01.07-.02.13-.04.2-.06.3-.11.6-.15.9-.26,1.64-.33,3.18-.24,4.64h0c.19,3.07,1.13,5.74,2.74,8.07,2.79,4.06,7.58,7.09,13.89,9.45,9.05,3.37,21.24,5.34,35.14,6.9h0c1.63.18,3.29.36,4.97.54,11.12,1.15,23.17,2.12,35.5,3.39-11.59,12.69-1.78,32.86,13.54,32.86,11.66,0,19.97-9.02,20.18-19.19,0-.04,0-.08,0-.12,0-.25,0-.49-.02-.74,0-.2,0-.4-.01-.6,0-.09-.02-.19-.03-.28-.22-3.05-1.16-6.15-2.98-9.12-.27-.44-.55-.87-.86-1.3h.04c61.47,0,106.19,1.53,138.44,2.37,14.33.37,26.2.6,35.97.5,3.55-.04,6.83-.12,9.85-.25,14.92-.67,23.51-2.65,27.91-7.08,3.03-3.04,4.09-7.24,3.87-12.96h0c0-.39-.02-.78-.05-1.16-.01-.21-.03-.42-.05-.62,0,0,0-.02,0-.02-.01-.07-.04-.13-.04-.2-.02-.24-.05-.5-.09-.76-.09-.54-.2-1.07-.33-1.6-.01-.04-.02-.09-.04-.13-.06-.22-.12-.45-.19-.67-1.5-4.9-5.61-11.51-12.98-13.68-.38-.11-.73-.21-1.07-.31-.83-.16-1.67-.25-2.52-.25,0,0-.01-.02-.02-.03Z"/>
  <path class="cls-4" d="M840.49,1597.57s-.04,0-.06,0c-.14,0-.28.02-.42.02.15,0,.31,0,.47-.02Z"/>
  <path class="cls-4" d="M535.65,1570.25c1.49.71,3.01,1.39,4.54,2.07.35.15.7.3,1.05.46,1.25.54,2.52,1.08,3.79,1.61.4.16.8.33,1.2.49,15.68,6.35,32.97,11.24,50.72,14.97,15.64,3.29,31.62,5.68,47.16,7.37,11.35,1.24,22.45,2.11,33.01,2.69,1.57,5.65,4.73,9.58,8.59,11.93,0,0,0,0,0,0,.18.11.36.2.55.3,9.84,5.51,23.8,1.07,27.84-11.17,3.88.03,7.64.06,11.3.07,8.59.04,16.59.02,24.05-.03,11.04-.08,20.9-.25,29.74-.48,13.52-.35,24.65-.83,34.01-1.32,9.59-.5,17.31-1.02,23.81-1.42,1.04-.06,2.04-.13,3.02-.18-.12,0-.24,0-.36-.02-.02,0-.03,0-.05,0,0,0-.02,0-.03,0-.15-.02-.3-.08-.46-.14-.03-.01-.06-.01-.09-.03.04,0,.07,0,.11.01.38.06.76.11,1.14.14.05,0,.1,0,.16.01.3-.02.6-.04.9-.05-.33.01-.6.04-.84.06.13.01.26.02.39.03,8.02.46,14.03-4.88,16.8-11.77,2.16-5.35,2.37-11.62.06-16.84-1.8-4.08-5.14-7.52-10.3-9.35-1.26-.45-2.63-.8-4.11-1.05-2.27-.37-4.79-.49-7.6-.3-.03,0-.07,0-.1,0-46.54,3.39-102.94,5.79-157.2,2.15-8.6-.58-17.15-1.31-25.6-2.21-23.48-2.5-46.17-6.33-67.06-11.92-5.31-1.42-10.51-2.95-15.58-4.61-.47-.15-.94-.3-1.4-.46-2.33-.78-4.64-1.57-6.91-2.4-37.62-20.44-48.46,20.29-26.24,31.39Z"/>
  <path class="cls-9" d="M1241.42,2322.79c-.02-.64-.05-1.22-.07-1.75-.05-1.24-.09-2.48-.17-3.73,0-.03.09-.09.26-.18.41-1.87,1.89-1.66,6.33-2.66,7.7-3.14,20.92-8.62,33.02-15.14,5.72-3.51,12.26-7.82,19.75-13.16,3.17-2.88,5.51-5.8,6.62-8.67,3.32-8.79-.69-20.31-10.4-25.21-.06-.03-.12-.06-.18-.08-.35-.16-.69-.3-1.03-.43-.18-.07-.35-.13-.53-.2-.17-.06-.34-.12-.5-.18-2.55-.81-5.38-1.07-8.44-.62-.09.02-.19.04-.28.06-1.8.57-9.3,4.77-18.03,9.7-4.4,2.76-9.65,5.92-16.2,9.25-9.39,4.77-13.52,7.62-15.73,7.85-.89.31-1.39.36-1.39.08-.06,0-.16-.28-.32-.79-1.18-1.53-1.66-5.56-4.08-12.64-1.19-3.29-2.66-7.02-4.45-11.02-8.89-19.46-20.27-34.05-32.94-44.07-.43-.34-.86-.67-1.3-1,0,0,0,0-.01,0-4.78-3.58-10.06-6.77-15.89-9.38-3.58-1.64-7.11-2.95-10.58-3.96-13.08-3.62-26.55-3.35-39.37.55-11.69,3.72-21.83,10.18-29.92,16.99-1.46,1.29-2.91,2.63-4.32,4.04-.1,0-.24.07-.4.17-.82.78-1.62,1.56-2.39,2.33-4.9,5.57-14.09,18.57-14.09,19.31-.56-1.02-1.13-2.03-1.71-3.02-.08-.13-.16-.27-.23-.4-16.36-28.04-37.78-44.04-59.88-49.32-18.69-4.2-37.62-.62-54.2,8.42-10.4,6.03-20.01,14.61-28.23,25.57-15.24,19.82-23.45,49.09-23.45,61.88-.01,0-.03,0-.05,0h0c0,.06-.2.04-.56-.02-3.93-.22-10.4-2.43-17.94-5.15-9.9-3.05-21.53-6.78-28.95-9.31-7.46-1.67-14.29-2.2-19.27-.37-2.8,1.56-5.15,3.84-6.92,6.53-2.9,6.2-4.22,13.59-2.21,19.36.98,2.31,2.47,4.45,4.54,6.29.31.23.62.46.96.67,0,.05.02.1.03.15,1.52,1.17,3.29,2.2,5.36,3.03,11.2,4.13,20.81,7.43,29.07,10.11,23.42,6.61,50.18,12.94,50.29,13.39.26,0,.51,1.1.88,3.12.34,1.05.52,2.39.73,4.18,2.32,13.28,8.14,43.09,27.74,76.3,2.63,4.38,5.39,8.62,8.31,12.68.26.36.52.72.79,1.07,0,0,0,0,0,.01,14.54,19.4,31.49,33.66,49.73,43.39,6.96,3.58,14.36,6.6,22.21,9.02,30.19,9.44,61.14,9.1,89.69,1.23,24.97-7.1,48.46-19.91,67.95-37.05,32.59-29.1,53.56-70.65,52.35-117.24ZM1108.38,2479.97s.03,0,.05,0c-.02,0-.03,0-.05,0Z"/>
  <path class="cls-3" d="M2057.25,1365.84c-47.87-46.8-114.84-59.95-179.7-54.12-.04,0-.08,0-.12,0-2.11,13.1-5.02,26.12-8.45,39.02-3.14,11.81-6.72,23.52-10.55,35.09-2.72,6.77-2.44,9,.91,9.23,3.78.26,11.48-2.03,23.23-3.26,15.09-1.58,36.85-1.39,65.55,8.21,4.87,1.63,9.94,3.53,15.22,5.74,1.9.8,3.82,1.62,5.78,2.5,22.2,11.1,41.66,24.26,53.57,45.85,3.03,5.5,5.58,11.54,7.55,18.24,5.7,22.17.56,48.06-6.88,62.16-.32.6-.64,1.19-.96,1.75-.64,1.1-1.39,2.11-2.22,3.03-.18.2-.36.4-.55.6-.02.02-.03.03-.05.05-1.57,1.58-3.39,2.84-5.39,3.74-2.32,1.04-4.87,1.59-7.5,1.57-.09,0-.17,0-.26,0-.02,0-.04,0-.06,0-5.78-.16-11.91-3.09-16.82-9.63-1.16-1.9-1.9-3.73-2.32-5.52-1.39-5.96.84-11.45,3.17-17.6,2.54-6.68,5.2-14.12,3.5-23.74-.64-3.63-1.91-7.58-4.04-11.91-13.83-28.07-51.9-42.29-87.73-44.82-26.46-1.87-51.7,2.64-65.07,12.67-.16.16-.32.33-.48.49-3.15,3.19-5.99,6.48-8.76,9.6-3.37,3.78-6.66,7.3-10.33,10.1-6.07,4.63-13.2,7.24-23.47,5.66-.57-.09-1.13-.18-1.72-.29-13.97-5.02-27.02-52.06-45.8-116.87-40.56-140-107.84-362.97-268.85-424.74-2.1-.32-4.18-.59-6.24-.82-38.58-4.34-70.9,7.01-104.79,21.75-13.97,6.08-28.21,12.73-43.27,19.1-282.57,124.36-414.8-21.39-568.8-63.01-1.43.2-2.86.41-4.29.63-110.03,17.11-220.38,109.91-302.99,240.28-.05.08-.11.17-.16.25-.8,1.27-1.6,2.54-2.4,3.82-.54.87-1.09,1.74-1.63,2.62-.31.49-.61.99-.92,1.48-52.65,85.27-93.47,185.91-114.86,291.61-.44,2.17-.87,4.34-1.29,6.51-10.71-18.68-17.32-29.27-22.82-36.2-6.89-8.69-12.02-11.61-21.3-17.47-237.67-154.84-367.96,93.23-217.69,227.32,33.12,38.77,79.59,74.26,129.21,102.8.7-1.05,1.4-2.08,2.09-3.09,19.27-28.23,35.7-43.32,48.67-50.11,35.77-18.74,45.44,25.38,16.46,31.39-1.13.96-2.23,1.95-3.33,2.94-10.51,9.59-20.74,22.07-30.54,36.78,55.66,27.83,45.12,13.28,50.05,38.76,12.52,60.99,6.3,154.42,52.06,313.16-14.76,39.37,249.02,684.76,681,678.25,218.23,70.16,394.38-38.45,535.13-218.38,90.3-116.38,207.37-433.36,250.87-549.36,28.68-87.96,46.4-179.05,56.9-270.59.88-.56,23.88-15.33,33.94-22.28-6.62-10.75-13.18-19.09-19.4-24.63-.63-.54-1.24-1.09-1.88-1.61-.64-.15-1.26-.32-1.86-.5-.08-.02-.16-.04-.23-.07-.58-.17-1.14-.36-1.68-.55-.08-.03-.17-.06-.25-.09-.54-.2-1.07-.41-1.59-.62-.05-.02-.11-.05-.16-.07-1.66-.72-3.15-1.54-4.47-2.44,0,0,0,0,0,0-7.61-5.21-9.53-13.11-7.24-19.78,0,0,0,0,0-.01.13-.37.27-.74.42-1.1.02-.04.04-.09.06-.13.15-.34.3-.67.47-1,.03-.06.06-.12.1-.18.15-.29.31-.58.48-.86.05-.09.11-.18.17-.27.15-.23.3-.47.46-.69.08-.11.15-.22.23-.33.17-.23.35-.46.53-.69.11-.14.22-.27.33-.4.17-.2.34-.39.52-.58.14-.15.29-.31.44-.46.09-.09.18-.18.27-.27.25-.25.52-.48.79-.72.07-.06.14-.12.21-.18.33-.27.66-.53,1.01-.78.03-.02.07-.05.1-.08.61-.43,1.25-.83,1.92-1.19.01,0,.03-.01.04-.02.43-.23.86-.44,1.31-.64.05-.02.1-.04.15-.06.42-.18.86-.35,1.3-.51.06-.02.11-.04.17-.06.48-.17.98-.32,1.48-.45.01,0,.03,0,.04-.01.25-.06.5-.12.76-.18.14-.03.27-.06.41-.08.37-.07.74-.14,1.13-.19.2-.03.39-.05.59-.08.3-.04.61-.07.92-.09.27-.02.53-.04.8-.05.18,0,.36-.02.55-.02.41,0,.82,0,1.23,0,.15,0,.29,0,.44.02.46.02.92.05,1.39.1.09,0,.18.02.27.03,12.71,1.37,29.63,12.15,47.57,40.77,20.29-15.12,40.97-30.74,60.66-46.8,122.23-80.42,177.93-174.7,79.58-282.35ZM1187.59,1424.89c.92-1.5,2.05-2.99,3.44-4.45,1.57-1.57,5.03-4.05,9.91-7.17,7.78-4.98,19.19-11.59,32.38-18.74,23.65-12.83,53.01-27.4,77.36-37.42,5.74-2.36,11.2-4.47,16.25-6.24,2.66-.93,6.22-1.99,10.5-3.13,16.64-4.43,44.24-10.06,72.68-13.64,26.85-3.38,54.45-4.94,74.29-1.94,12.34,1.86,21.67,5.49,25.95,11.53,2.19,3.1,3.05,6.83,2.3,11.28-.35,2.08-1.04,4.32-2.12,6.73-1,2.25-2.2,4.08-3.62,5.54-.4.41-.81.79-1.24,1.14-1.47,1.21-3.14,2.11-5.03,2.79-1.88.67-3.98,1.11-6.32,1.37-4.11.47-8.94.41-14.6.17-1.95-.08-4-.19-6.16-.31-15.62-.84-36.6-2.12-64.4,1.42-.02,0-.04,0-.06,0-38.94,4.96-91.26,19.4-160.95,57.78-.77.42-1.54.84-2.31,1.27-9.26,5.14-18.83,10.7-28.71,16.72-.23.22-.46.43-.69.64-4.02,3.57-8.63,4.9-13.08,4.58-2.77-.2-5.47-1.04-7.92-2.37-4.15-2.25-7.59-5.92-9.43-10.32-2.14-5.13-2.09-11.25,1.58-17.24ZM911.2,1406.83c33.86,27.55,61.57,64.09,84.8,112.21,2.49,5.29,4.82,10.61,7.02,15.95,10.38,25.27,17.56,51.05,22.41,77.05,6.12,32.82,8.52,66,8.93,98.93.01,1.14.03,2.28.04,3.43.36,41.93-2.4,83.44-4.67,123.33-.18,3.16-.36,6.3-.53,9.44-.65,11.78-1.22,23.41-1.64,34.85-1.78,49.12-.57,94.86,11.12,134.68,1.23,4.2,2.58,8.34,4.06,12.41,1.29,3.04,2.62,6.18,4.03,9.32,2.74,6.11,5.76,12.25,9.3,17.79,0,0,0,0,0,0,.33.52.67,1.03,1.01,1.54.03.04.05.08.08.11.17.25.34.5.52.75.1.15.21.3.31.44.3.43.61.86.92,1.29.02.03.04.06.06.09.2.28.41.56.62.83.1.13.2.25.29.38.14.18.28.36.42.53,0,0,0,0,0,.01.12.16.25.32.37.47.19.24.38.47.57.7.17.2.34.4.51.59.27.31.54.63.82.93.04.04.08.08.12.13,3.79,4.19,8.1,7.6,13.1,9.77.1.04.2.09.3.13.37.16.74.3,1.12.44.21.08.43.16.64.24.33.11.65.22.98.33.29.09.57.18.86.26.29.08.58.16.87.24.37.09.74.18,1.12.26.23.05.46.11.7.15.62.12,1.25.22,1.9.31,50.81-7.81,43.13-103.38,42.81-142.94,0-.77.03-1.52.09-2.25.59-7.27,4.35-12.26,9.29-15.04.13-.07.25-.14.38-.21.29-.15.58-.31.87-.45,4.71-2.21,10.29-2.55,15.23-1.04.1.03.2.06.29.09.03,0,.05.02.07.03,6.19,2.03,11.28,7.01,12.22,14.88.08.66.13,1.34.15,2.05,0,0,0,0,0,.01.04,1.37.07,2.75.11,4.12,1.04,41.09,1.53,86.47-11.06,121.79-.04.1-.07.2-.11.3-.25.68-.5,1.36-.76,2.04-.35.92-.7,1.83-1.07,2.73-.26.64-.52,1.27-.79,1.9-.33.77-.66,1.53-.99,2.28-.02.04-.03.07-.05.1-5.85,12.96-13.85,24.21-24.73,32.9-7.65,6.11-16.71,10.95-27.46,14.24-.15.05-.29.1-.44.14-21.13,5.19-39.78-1.54-55.13-14.68-.01-.01-.03-.02-.04-.04-.55-.47-1.1-.96-1.65-1.45-.19-.17-.38-.34-.57-.52-.42-.38-.83-.77-1.25-1.16-.17-.16-.33-.31-.5-.47-2.71-2.62-5.32-5.43-7.8-8.41-12.44-14.95-21.9-34.08-27.76-53.08-19.56-58.09-13.71-141.43-10.47-229.61,1.17-31.89,1.99-64.42,1.15-96.61-2.56-97.95-20.59-192.79-91.43-257.32-2.31-2.1-4.65-4.18-7.07-6.21-.08-.07-.17-.14-.25-.21-29.85-25.05-68.41-45.06-118.05-58.31-11.56-3.08-23.7-5.81-36.5-8.14-10.28-1.36-21.86-3.27-32.72-3.97-2.67-.17-5.3-.27-7.85-.27-6.84,0-12.06-2-15.73-5.12-.07-.06-.13-.11-.2-.17-3.67-3.22-5.72-7.59-6.12-12.23-.05-.57-.08-1.13-.08-1.71.51-10.29,5.61-15.88,13.12-18.59,9.53-3.44,22.94-2.25,35.87-.13,11.98,1.97,23.52,4.72,31.14,5.32,61.85,11.61,111.77,31.79,152.7,65.11ZM426.73,1585.82c-.06,0,.02,0,.02,0,.12,0-.02,0-.02,0ZM410.3,1618.33c-.01.85-1.05-.29-2.17-2.58-1.5-3.05-3.13-8.16-2.67-13.39.44-5.05,2.85-10.2,9.2-13.75.32-.18.63-.37.97-.54,2.78-1.59,8.22-2.9,12.99-1.97.25.05.51.1.76.16.82,0,59.33,13.82,60.99,14.34.01,0,.03,0,.04.01.64.15.97.16,1.16-.12,0-.01.02-.03.03-.04.02-.04.04-.09.06-.14.24-.65.2-2.17.72-5.27,1.37-7.32,3-11.17,3.76-13.5.5-1.53.63-2.4.07-3.16-.03-.04-.05-.08-.08-.11-.1-.12-.23-.24-.37-.36.72.35,1.18.56,1.4.64,0-.03-.02-.06-.02-.08-.74-.45-3.91-2.1-9.54-4.76.23.12.47.25.72.38.12.06.22.12.34.18-.41-.2-.83-.4-1.27-.62-.23-.11-.45-.22-.69-.34,0,0-.02-.03-.03-.04,0,0-.01-.01-.02-.02,0,0,0,0,0,0,.03,0,.03.02.03.03,0,0,0,0,0,0,.02,0,.03.01.05.02.3.14.59.28.87.41-.06-.03-.11-.06-.17-.09-.26-.12-.52-.25-.79-.39-.29-.32-2.47-1.37-5.61-2.93,0,0-.02,0-.03-.01,0,0-.01,0-.02,0-.03-.01-.05-.03-.08-.04-.54-.27-1.11-.55-1.71-.85.23.11.58.27.88.4.04.02.08.04.12.05-.07-.04-.15-.08-.22-.12-.05-.02-.1-.04-.14-.06-.48-.21-.73-.32-.83-.36-.23-.12-.47-.23-.71-.36-6.79-3.42-16.05-8.38-21.25-13.16.08.07.18.14.3.24-.02-.02-.03-.03-.05-.05-.12-.09-.21-.17-.29-.23-.05-.04-.09-.09-.14-.13-.02-.02-.04-.03-.06-.05-.05-.05-.1-.1-.16-.15-.03-.03-.06-.07-.09-.11-.04-.04-.08-.08-.12-.13.04.05.07.09.1.13-1.74-1.69-2.97-3.34-3.36-4.89.01.02.02.02.03.04,2.37,2.69-1.82-3.3-1.8-10.66.01-4.42,1.55-9.33,6.94-13.15.93-.66,1.97-1.29,3.14-1.87,0-.04.06-.01.06-.06.37-.25.95-.57,1.44-.82,0-.03.06-.03.06-.03.08,0,.03-.03.12-.03.5-.25,1.06-.5,1.62-.66.05-.05.06-.05.1-.05,5.64,0,8.32-.28,10.14-.22,2.58.08,3.46.81,8.59,3.93,4.3,2.61,11.59,6.89,25.38,13.85.71.36,1.43.72,2.17,1.09h.06c3.48,1.74,5.26,3.01,6.47,3.58.04.02.08.04.12.06,1.14.51,1.78.35,2.95-.68,1.94-1.7,5.33-5.8,14.9-13.24,5.86-4.45,9.05-5.85,9.8-6.75.55-.65-.18-1.03-2.11-2.1-.37-.21-.78-.44-1.24-.7-1.06-.61-2.36-1.4-3.88-2.44-.67-.46-1.38-.97-2.14-1.53,0,0,0-.02,0-.02,0,0,0,0,0,0-.02-.1-.18-.29-.45-.56-2.53-2.49-15.16-11.97-27.54-22.7-.55-.48-1.1-.96-1.65-1.44-.82-.72-1.64-1.45-2.45-2.17-.2-.18-.41-.37-.61-.55-10.33-9.32-19.5-19.02-21.13-25.55-.26-2.2-.14-4.45.35-6.63.41-1.84,1.08-3.63,2.01-5.31,2.79-5.03,7.86-9.02,15.02-10.14,1.33-.21,2.73-.32,4.21-.32,2.8,0,6.21,1.89,10.23,4.99,3.22,2.48,6.84,5.74,10.88,9.46,5.49,5.06,11.75,10.97,18.82,16.9,9.16,7.69,19.67,15.42,31.63,21.4,0,.8,6.97,2.61,9.75,8.62.5,0,1.27-.18,2.29-.49,6.23-1.9,22.15-8.98,47.35-13.52,32.11-5.79,79.28-7.47,140.68,10.95,35.77,12.04,69.13,27.7,88.07,55.6,6.21,9.14,10.87,19.6,13.56,31.68,3.78,45.36-32.81,74.7-84.65,90.73-3.13.97-6.32,1.89-9.55,2.76-47.3,12.74-105.31,15.23-156.74,9.32-57.49-6.6-106.77-23.68-123.74-48.65,0,0,0,0,0,0-.14,0-.3,0-.49-.02-.16,0-.34-.02-.54-.04.13,0,.26,0,.4,0h0s.07,0,.08,0c-.19,0-.37,0-.54,0-12.04-1.11-88.11-16.57-90.95-23.47-.05-.13-.08-.25-.09-.37,0,0,0,0,0-.01,0,0,0,0,0,0,0,0,0,0,0,0,0-.02-.01-.04-.01-.06-.44-.44-.81-.91-1.19-1.38-1.19-1.58-.19-.16.72.89.16.18.31.35.45.49,0,0,0,0,0,0ZM574.08,1969.07c.84,1.68.23.59-.27-.5-1.77-3.38-3.5-7.02.27.5ZM661.19,2024.04c-32.33,1.04-64.35-13.09-81.15-43.95-.4-.74-.8-1.49-1.19-2.25.97,1.52,2.35,3.66,2.85,4.32.97,1.41,1.78,2.61,2.47,3.6,4.1,5.98,3.42,4.87,1.25,1.55-3.09-4.72-9.21-13.89-8.84-13.44-11.7-21.65-14.55-44.42-10.84-65.41,3.17-17.94,11.13-34.57,22.48-48.1.03-.03.05-.07.08-.1.06-.07.13-.15.19-.22,11.24-13.3,25.76-23.55,42.2-29.04,7.12-2.27,14.25-3.66,21.28-4.28,5.23-.45,10.41-.47,15.51-.08,27.75,2.11,52.96,16.26,69.73,37.52,2.84,3.6,5.44,7.41,7.76,11.39,3.26,5.59,5.98,11.54,8.1,17.78,3.94,11.62,5.75,24.23,4.91,37.42-.64,10.92-2.77,20.92-6.1,30.01-5.98,16.34-15.85,29.65-28,39.79-17.71,14.77-40.26,22.78-62.68,23.5ZM1121.13,2477.08c-28.55,7.86-59.5,8.2-89.69-1.23-7.85-2.42-15.24-5.44-22.21-9.02-19.98-10.26-36.39-25.11-49.73-43.39,0,0,0,0,0-.01-.26-.36-.53-.71-.79-1.07-2.92-4.06-5.68-8.3-8.31-12.68-3.7-6.18-7.12-12.66-10.27-19.42-15.34-34.23-16.62-49.43-17.47-56.88-.2-1.79-.38-3.13-.73-4.18-1.88-5.73-8.67-2.76-51.17-16.52-8.27-2.68-17.88-5.98-29.07-10.11-2.07-.83-3.84-1.85-5.36-3.03-.34-.27-.68-.54-.99-.82-2.07-1.84-3.57-3.98-4.54-6.29-2.65-6.26-1.51-13.71,2.21-19.36,1.77-2.69,4.12-4.97,6.92-6.53,4.29-2.39,9.65-3.08,15.59-.91,1.05.37,2.3.81,3.68,1.28,7.41,2.52,19.05,6.26,28.95,9.31,8.64,2.66,15.94,4.8,17.94,5.15.35.06.56.07.56.02h0c0-37.76,22.13-71.3,51.73-87.45,16.58-9.05,35.51-12.62,54.2-8.42,21.6,4.86,42.88,20.1,59.88,49.32.08.13.16.26.23.4.57.99,1.15,2,1.71,3.02,0-.74,9.19-13.75,14.09-19.31,1.03-1.17,1.86-2,2.39-2.33.16-.1.3-.17.4-.17,1.41-1.41,2.85-2.75,4.32-4.04,9.14-8.05,19.31-13.77,29.92-16.99,12.82-3.9,26.29-4.16,39.37-.55,9.13,2.52,18.07,6.94,26.47,13.34,0,0,0,0,.01,0,.43.33.87.66,1.3,1,12.67,10.02,24.05,24.6,32.94,44.07.59,1.29,1.17,2.59,1.73,3.92,1.13,2.65,2,5,2.72,7.1,2.42,7.08,2.9,11.11,4.08,12.64.43.56.97.78,1.72.7,2.21-.23,6.34-3.08,15.73-7.85,6.55-3.33,11.8-6.49,16.2-9.25,7.81-4.9,12.96-8.54,18.03-9.7.09-.02.19-.04.28-.06,2.69-.56,5.38-.42,8.44.62.17.06.33.12.5.18.18.06.35.13.53.2.34.13.68.28,1.03.43.04.02.07.03.11.04.02.01.05.03.07.04,9.7,4.9,13.71,16.42,10.4,25.21-1.11,2.87-3.45,5.79-6.62,8.67-5.04,4.58-12.17,9.08-19.75,13.16-12.09,6.52-25.32,12-33.02,15.14-3.32,1.36-5.61,2.28-6.33,2.66-.16.09-.26.15-.26.18.08,1.25.12,2.49.17,3.73.02.58.05,1.17.07,1.75,1.21,46.59-19.76,88.14-52.35,117.24-19.3,17.23-42.68,30.09-67.95,37.05ZM1351.12,2144.85c-.01.12-.03.23-.04.35-.19,1.71-.6,3.39-1.23,5-.01.03-.02.07-.04.1-.09.22-.19.43-.28.64-.12.28-.25.56-.39.84h0c-1.95,3.91-5.29,7.25-10.11,9.27-.02,0-.04.02-.06.02-.22.09-.43.19-.65.28-10.77,3.97-19.51-1.28-23.57-9.21-.08-.15-.15-.3-.22-.45-.07-.14-.14-.28-.2-.43-.51-1.13-.94-2.3-1.26-3.5-.15-.58-.28-1.16-.39-1.73,0,0,0,0,0-.01-.02-.12-.03-.24-.05-.36-.98-5.98.81-11.06,4-14.88,3.46-4.14,8.54-6.79,13.52-7.52,3.62-.53,7.17-.03,10,1.66.16.1.33.19.49.29.31.15.6.32.89.49,6.79,3.86,10.14,11.32,9.64,18.57-.01.19-.02.38-.04.57ZM1574.12,1971.03c-15.13,43.06-46.35,63.61-79.16,67.05-24.44,2.56-49.76-4.36-69.98-18.54-30.32-21.26-49.16-58.83-36.34-105.18.68-2.47,1.46-4.88,2.32-7.23.32-.88.65-1.75,1-2.62.02-.06.04-.11.07-.17,9.36-23.29,26.7-40.43,36.6-47.57,1.84-1.33,3.42-2.31,4.64-2.92.99-.49,1.76-.76,2.23-.76,4.72-2.83,9.58-5.13,14.52-6.95,15.96-5.89,32.79-6.65,48.85-3.31,34.04,7.09,64.59,32.62,75.95,66.95.06.19.12.39.18.59.04.15.07.3.11.46.05.19.1.37.16.56-.06-.27-.13-.52-.18-.75,5.82,18.19,6.28,38.78-.96,60.39ZM1733.37,1613.58c-.08.08-.18.16-.27.25-.24.22-.47.45-.72.66-.03.03-.06.05-.09.08-.41.35-.85.68-1.3,1-.11.08-.23.15-.34.22-1.26.84-2.66,1.59-4.24,2.21-.3.12-.64.25-1.02.38-1.09.37-2.47.77-4.1,1.2-7.18,1.86-19.22,4.13-32.38,6.07-5.15.76-10.46,1.47-15.73,2.08-2.81.33-5.6.63-8.34.9-7.72.75-15.06,1.24-21.25,1.31-.54,0-1.07.01-1.59.01-.02,0-.04,0-.06,0,0,.02-.01.04-.02.06-.08.32-.17.64-.26.96-.59,2.21-1.29,4.38-2.09,6.5-.92,2.44-1.98,4.82-3.17,7.15-.44.85-.89,1.7-1.36,2.53-46.82,83.08-264.85,89.43-357.05,27.96-.64-.41-1.25-.83-1.87-1.24-.17-.12-.36-.23-.53-.35-1.24-.85-2.43-1.71-3.59-2.58-14.48-10.86-22.73-23.57-25.76-37.19-7.71-34.66,18.45-75.17,62.08-105.98.27-.19.53-.38.8-.57.06,0,.06-.03.06-.03,0-.97,9.38-5.27,9.38-5.59,1.19-.6,2.38-1.18,3.57-1.76,22.74-11.03,44.61-18.38,65.4-22.91,82.28-17.93,147.48,8.47,181.62,26.88,15.66,8.45,24.78,15.21,26.02,15.25,0,0,0,0,.01,0,0,.01,0,.02,0,.03.04,3.9,7.38-2.31,17.21-9.01,9.85-6.71,22.18-13.9,32.15-11.89,4.2.85,7.97,3.32,10.97,8.15.82,1.32,1.57,2.82,2.27,4.5.05.12.1.23.15.35.5,1.75.78,3.38.9,4.91.2,2.56-.07,4.81-.67,6.78-3.1,10.3-14.77,13.15-11.46,13.21.04,0,.06,0,.1,0h-.06c-1.85,1.31-3.64,2.46-5.33,3.49-.33.2-.66.4-.98.59-5.82,3.43-10.44,5.32-12.59,6.67-.13.08-.24.16-.35.23-.31.22-.56.43-.72.62-.6.74-.11,1.36,1.79,2.12.73.29,1.67.61,2.84.96.34.1.69.21,1.07.31,7.37,2.17,11.49,8.78,12.98,13.68.07.23.13.45.19.67.01.04.02.09.04.13.15.57.26,1.11.33,1.6.04.26.07.52.09.76,0,.07.03.13.04.2,0,.02,0,.03.01.05.02.06.03.13.06.19.42,1.03,2.07,1.57,4.63,1.76,4.25.3,10.99-.4,18.77-1.53,10.64-1.55,23.19-3.91,33.91-5.64,10.66-1.72,19.49-2.81,22.79-1.85.09.03.19.05.27.08.04.01.08.03.12.05.09.03.18.08.28.11,5.47,2.14,9.43,7.3,11.01,13.19.17.62.3,1.25.41,1.88.02.13.05.27.07.4.04.22.07.44.1.67.11.89.18,1.78.18,2.68,0,.05,0,.1,0,.15,0,.38-.02.77-.04,1.15,0,.11-.01.22-.02.32-.02.29-.05.57-.09.86-.18,1.54-.52,3.05-1.06,4.51-.84,2.26-2.14,4.39-3.94,6.23-.07.07-.14.15-.22.22Z"/>
  <path class="cls-3" d="M412.55,1620.35c-.86-.72-1.41-1.17-2.22-1.97.14.84,3.16,2.75,2.22,1.97Z"/>
  <path class="cls-2" d="M1108.43,2479.96s-.03,0-.05,0"/>
  <path class="cls-4" d="M734.78,482.4c-.02.5-.03.99-.01,1.49,0,.15.02.29.03.44.02.31.04.62.08.94.03.24.05.47.09.71.03.2.07.39.11.59.1.54.23,1.09.38,1.62.02.08.04.17.07.25.1.33.22.67.34.99.02.06.05.12.07.18.4,1.02.9,2.01,1.51,2.96.05.08.11.16.16.24.58.87,1.25,1.69,2.02,2.47.17.17.34.34.51.5.2.19.4.37.61.55.38.32.77.64,1.18.94.13.1.28.18.41.28.37.25.74.5,1.14.73.16.09.32.19.48.28.54.3,1.09.59,1.68.86,5.19,2.1,10.39,4.14,15.59,6.13.44.17.89.34,1.33.5,71.51,27.22,144.76,44.42,217.97,48.28.78.04,1.57.08,2.35.11,1.52.07,3.03.15,4.55.21,68.17,2.81,136.26-6.03,202.79-29.23.08-.03.15-.05.23-.08,2.25-.79,4.5-1.59,6.75-2.41.25-.09.49-.18.74-.26,2.08-.76,4.15-1.54,6.23-2.33.4-.15.81-.3,1.21-.45,1.93-.74,3.86-1.5,5.79-2.26.53-.21,1.06-.41,1.59-.62,1.87-.75,3.74-1.52,5.61-2.29.57-.24,1.14-.46,1.71-.7,2.42-1.01,4.84-2.04,7.26-3.09,17.23-10.73,74.98-26.73,56.34-53.91-3.46-4.77-8.41-7.01-13.56-7.2-5.58-.2-11.38,2.01-15.75,6.06,0,0,0,0,0,0-8.4,4.82-16.8,9.31-25.19,13.49-11.2,5.58-22.38,10.61-33.53,15.12-76.63,30.98-151.53,37.58-217.69,33.26-67.73-4.43-126.31-20.29-168.21-33.16-37.69-11.58-61.89-20.72-67.12-16.92-2.87,2.09-5.06,4.99-6.39,8.22-.83,2.02-1.32,4.17-1.44,6.34,0,.06,0,.13-.01.19Z"/>
  <path class="cls-3" d="M1865.03,1690.2c-.05-.04-.1-.09-.15-.13h-.05c.07.04.13.09.2.13Z"/>
  <path class="cls-7" d="M257.3,1710.45c1.11-1.01,2.22-1.99,3.33-2.94,28.88-5.98,19.25-50.09-16.46-31.39-12.98,6.79-29.4,21.89-48.67,50.11-.69,1.02-1.39,2.04-2.09,3.09-67.99,101.87-103.72,275.45-98.16,381.61,2.91,55.57,18.42,116.78,70.08,137.71,84.09,24.09,178-79.02,151.5-101.75-23.65-18.3-29.98,21.73-61.97,43.93-188.05,129.11-133.13-285.8-28.09-443.59,9.8-14.71,20.03-27.19,30.54-36.78Z"/>
  <path class="cls-7" d="M1869.44,1654.23c-.09,0-.18-.02-.27-.03-.47-.05-.93-.08-1.39-.1-.15,0-.3-.01-.44-.02-.42-.01-.83-.02-1.23,0-.18,0-.36.01-.55.02-.27.01-.54.03-.8.05-.31.02-.62.05-.92.09-.2.02-.4.05-.59.08-.38.06-.76.12-1.13.19-.14.03-.28.05-.41.08-.26.06-.51.12-.76.18-.01,0-.03,0-.04.01-.51.13-1,.28-1.48.45-.06.02-.11.04-.17.06-.44.16-.88.33-1.3.51-.05.02-.1.04-.15.06-.45.2-.89.41-1.31.64-.01,0-.03.01-.04.02-.67.36-1.31.76-1.92,1.19-.03.02-.07.05-.1.08-.35.25-.68.51-1.01.78-.07.06-.14.12-.21.18-.27.23-.53.47-.79.72-.09.09-.18.18-.27.27-.15.15-.3.3-.44.46-.18.19-.35.38-.52.58-.11.13-.22.27-.33.4-.18.23-.36.45-.53.69-.08.11-.15.22-.23.33-.16.23-.31.46-.46.69-.06.09-.11.18-.17.27-.17.28-.33.57-.48.86-.03.06-.07.12-.1.18-.17.33-.32.66-.47,1-.02.04-.04.09-.06.13-.15.36-.29.73-.42,1.1,0,0,0,0,0,.01-2.29,6.67-.38,14.57,7.24,19.78,0,0,0,0,0,0,1.32.9,2.8,1.72,4.47,2.44.05.02.11.05.16.07.51.22,1.04.42,1.59.62.08.03.17.06.25.09.54.19,1.1.38,1.68.55.08.02.16.04.23.07.6.18,1.22.34,1.86.5.62.5,1.25,1.05,1.88,1.61,6.22,5.54,12.78,13.89,19.4,24.63,48.94,79.38,101.72,289.82,52.71,470.72-9.36,36.84-46.28,53.8-78.18,30.89-15.85-11.9-26.52-29.42-38.13-45.2-12.19-17.55-43.82.29-28.87,22.28,21.96,33.02,50.98,68.57,94.03,69.59,107.79,4.41,103.27-160.6,107.28-236.38.33-95.66-18.31-196.49-57.81-292.91-6.94-16.49-13.9-29.94-20.72-40.81-17.94-28.62-34.86-39.4-47.57-40.77ZM1865.03,1690.2c-.07-.04-.13-.09-.2-.13h.05c.05.04.1.09.15.13Z"/>
</svg>