<svg width="662" height="718" viewBox="0 0 662 718" fill="none" xmlns="http://www.w3.org/2000/svg">
    <path fill-rule="evenodd" clip-rule="evenodd" d="M404.955 136.989L288.267 0.89122C271.376 32.9581 255.001 89.5537 278.544 130.41C267.117 131.427 256.197 133.36 247.75 136.75C193.86 158.376 134.729 214.25 105.667 330.5C97.2513 364.161 82.1051 380.281 64.1034 399.44C47.1226 417.512 27.6012 438.288 8.79165 479.042C-29.9583 563 74.6191 646.958 150.875 570.702C193.747 527.83 231.221 510.132 262.684 495.273C307.968 473.886 340.797 458.381 359.342 382.167C368.164 417.717 364.635 501.616 279.936 552.809C195.236 604.001 177.591 711.837 179.355 743.833H661.083C661.083 440.075 620.867 177.629 404.955 136.989Z" fill="#AFC5FF"/>
</svg>
